<svg xmlns="http://www.w3.org/2000/svg" viewBox="0 0 32 32"><g id="broken_heart" data-name="broken heart"><path d="M28.31,4.88A7.53,7.53,0,0,0,16,5.54,7.53,7.53,0,0,0,3.69,4.88a7.91,7.91,0,0,0-1.46,6.79,7.8,7.8,0,0,0,.92,2.24l10.71,15a2.6,2.6,0,0,0,4.28,0l7.37-10.3a1,1,0,0,0-1.63-1.16L16.51,27.71a.61.61,0,0,1-1,0L4.83,12.82a6,6,0,0,1,.43-6.7,5.54,5.54,0,0,1,9.37,1.07L15,8a1,1,0,0,0,.15.56l1.38,2.08a.66.66,0,0,1,0,.74l-.77,1.15a2.7,2.7,0,0,0,0,3l.77,1.15a.66.66,0,0,1,0,.74l-.77,1.15a2.7,2.7,0,0,0,0,3l.63.94a.67.67,0,0,1-.08.84l-1,1a1,1,0,0,0,0,1.42,1,1,0,0,0,1.42,0l1-1a2.67,2.67,0,0,0,.34-3.36l-.63-.94a.66.66,0,0,1,0-.74l.77-1.15a2.7,2.7,0,0,0,0-3l-.77-1.15a.66.66,0,0,1,0-.74l.77-1.15a2.7,2.7,0,0,0,0-3L17.07,7.8l.3-.61A5.55,5.55,0,0,1,22.43,4a5.46,5.46,0,0,1,4.31,2.12,5.92,5.92,0,0,1,1.09,5.08,6,6,0,0,1-.61,1.55L26,14.42a1,1,0,0,0,1.62,1.16l1.24-1.74a7.62,7.62,0,0,0,.88-2.17A7.91,7.91,0,0,0,28.31,4.88Z"/></g></svg>