<svg xmlns="http://www.w3.org/2000/svg" viewBox="0 0 32 32"><g id="confussion"><path d="M19.51,9.37l-.05-.15a3.24,3.24,0,0,0-6-.43l-.38.76a1,1,0,1,0,1.78.9l.39-.76A1.21,1.21,0,0,1,16.38,9a1.24,1.24,0,0,1,1.18.85l.05.15a1.22,1.22,0,0,1-.3,1.27l-2,2A1,1,0,0,0,15,14v2a1,1,0,0,0,2,0V14.41l1.73-1.72A3.24,3.24,0,0,0,19.51,9.37Z"/><path d="M16,18h0a1,1,0,1,0,1,1A1,1,0,0,0,16,18Z"/><path d="M28,18.68,27,15.84V12a11.68,11.68,0,0,0-6.12-8.81,11.34,11.34,0,0,0-8.55-.61A1,1,0,1,0,13,4.46,9.37,9.37,0,0,1,20,5,9.8,9.8,0,0,1,25,12V16.1a1,1,0,0,0,.16.55l.76,2.27-.81,1.63A1,1,0,0,0,25,21v1H23a1,1,0,0,0,0,2h2a1.56,1.56,0,0,1-1,1H20a1,1,0,0,0-1,1v2H13V24.9a6.46,6.46,0,0,0-2.31-5,10.21,10.21,0,0,1-3.51-5.23,9.31,9.31,0,0,1,2-7.77A1,1,0,1,0,7.65,5.56a11.21,11.21,0,0,0-2.41,9.58,12.16,12.16,0,0,0,4.18,6.3A4.49,4.49,0,0,1,11,24.9V29a1,1,0,0,0,1,1h8a1,1,0,0,0,1-1V27h3a3.34,3.34,0,0,0,3-3V21.24l.89-1.79A1,1,0,0,0,28,18.68Z"/></g></svg>