<svg xmlns="http://www.w3.org/2000/svg" viewBox="0 0 32 32"><g id="conflict"><path d="M28,18.68,27,15.84V12a11.68,11.68,0,0,0-6.12-8.81,11.34,11.34,0,0,0-8.55-.61A1,1,0,1,0,13,4.46,9.37,9.37,0,0,1,20,5,9.8,9.8,0,0,1,25,12V16.1a1,1,0,0,0,.16.55l.76,2.27-.81,1.63A1,1,0,0,0,25,21v.25A4.43,4.43,0,0,0,22.86,21a4.54,4.54,0,0,0-2.56,1.28,1,1,0,1,0,1.4,1.42,2.5,2.5,0,0,1,3.3-.23V24a1.55,1.55,0,0,1-1,1H20a1,1,0,0,0-1,1v2H13V24.9a6.46,6.46,0,0,0-2.31-5,10.21,10.21,0,0,1-3.51-5.23,9.31,9.31,0,0,1,2-7.77,1,1,0,0,0-.07-1.41,1,1,0,0,0-1.42.07,11.24,11.24,0,0,0-2.41,9.58,12.16,12.16,0,0,0,4.18,6.3A4.49,4.49,0,0,1,11,24.9V29a1,1,0,0,0,1,1h8a1,1,0,0,0,1-1V27h3a3.34,3.34,0,0,0,3-3V21.24l.89-1.79A1,1,0,0,0,28,18.68Z"/><path d="M12,15h1.78L13,18.8a1,1,0,0,0,.54,1.1A1,1,0,0,0,14,20a1,1,0,0,0,.76-.35l6-7A1,1,0,0,0,20,11l-1.74,0L19,8.25a1,1,0,0,0-.18-.86A1,1,0,0,0,18,7H14a1,1,0,0,0-.95.68l-2,6a1,1,0,0,0,.14.9A1,1,0,0,0,12,15Zm2.72-6h2L16,11.7A1,1,0,0,0,17,13h.88l-2.13,2.48L16,14.2a1,1,0,0,0-.21-.83A1,1,0,0,0,15,13H13.39Z"/></g></svg>