<svg width="26" height="19" viewBox="0 0 26 19" fill="none" xmlns="http://www.w3.org/2000/svg">
<path fill-rule="evenodd" clip-rule="evenodd" d="M12.1149 0.719891C11.4132 1.45243 11.3882 2.05245 12.0239 2.89648L12.5078 3.5388L11.7312 5.18848C11.3041 6.09584 10.5251 7.30712 9.99972 7.88C9.17227 8.78271 8.91354 8.92184 8.06034 8.92184C6.90204 8.92184 5.15489 8.06142 4.21646 7.02887C3.68566 6.44499 3.60418 6.2044 3.77463 5.7237C4.45481 3.80335 1.7828 2.51554 0.972207 4.3733C0.482386 5.49607 0.977828 6.32739 2.41381 6.79219C2.6517 6.86921 2.95069 7.75163 3.31244 9.44288C3.61073 10.8373 4.02071 12.6109 4.22371 13.3841L4.59272 14.79H13.1829H21.7728L22.1582 13.2618C22.3703 12.4214 22.7826 10.638 23.0748 9.29862C23.5281 7.22154 23.6822 6.84427 24.1238 6.73131C25.4806 6.3846 25.9819 5.08236 25.1647 4.0283C24.1053 2.662 21.9818 4.05568 22.5834 5.72223C22.7606 6.21345 22.6754 6.44279 22.0741 7.09049C21.075 8.1668 19.5288 8.92184 18.3229 8.92184C17.4344 8.92184 17.1941 8.792 16.3199 7.83892C15.7734 7.2433 14.9949 6.03129 14.59 5.1452L13.8539 3.5344L14.336 2.89428C14.601 2.54219 14.8181 2.04413 14.8181 1.78716C14.8181 1.16391 13.7916 0.119629 13.1791 0.119629C12.9098 0.119629 12.431 0.389808 12.1149 0.719891ZM5.09753 17.1739C5.18907 17.8128 5.31247 18.418 5.37194 18.5187C5.43141 18.6194 8.94585 18.7021 13.1819 18.7021H20.8837L21.1275 17.7852C21.6409 15.8548 22.3501 16.0125 13.1524 16.0125H4.93105L5.09753 17.1739Z" fill="white"/>
</svg>
