<svg xmlns="http://www.w3.org/2000/svg" viewBox="0 0 32 32"><g id="decision_making" data-name="decision making"><path d="M30,16a5,5,0,0,0-2.25-4.13,3.8,3.8,0,0,0,.55-1.23,3.66,3.66,0,0,0-.45-2.87,4,4,0,0,0-4-1.78,4.93,4.93,0,0,0-1.11-2.2A6.21,6.21,0,0,0,16,2.44,7.26,7.26,0,0,0,12.9,2a1,1,0,0,0-.9,1.1A1,1,0,0,0,13.1,4,5.15,5.15,0,0,1,15,4.2V25a1,1,0,0,0,2,0V4.21a4.15,4.15,0,0,1,4.25.91A3.24,3.24,0,0,1,22,7.32a1,1,0,0,0,.49.88,1,1,0,0,0,1,0,2,2,0,0,1,2.65.62,1.72,1.72,0,0,1,.21,1.33,1.79,1.79,0,0,1-.86,1.12,1,1,0,0,0-.49,1,1,1,0,0,0,.72.83,3,3,0,0,1,0,5.78,1,1,0,0,0-.72.83,1,1,0,0,0,.49,1,1.79,1.79,0,0,1,.86,1.12,1.72,1.72,0,0,1-.21,1.33,2,2,0,0,1-2.65.62,1,1,0,0,0-1,0,1,1,0,0,0-.49.88,3.24,3.24,0,0,1-.75,2.2,4.35,4.35,0,0,1-4.87.7h-.09a1,1,0,0,0-.29-.06,1.07,1.07,0,0,0-.3.06h-.08a4.35,4.35,0,0,1-4.87-.7,3.24,3.24,0,0,1-.75-2.2,1,1,0,0,0-.49-.88,1,1,0,0,0-1,0,2,2,0,0,1-2.65-.62,1.72,1.72,0,0,1-.21-1.33,1.79,1.79,0,0,1,.86-1.12,1,1,0,0,0,.49-1,1,1,0,0,0-.72-.83,3,3,0,0,1,0-5.78A1,1,0,0,0,7,12.28a1,1,0,0,0-.49-1,1.79,1.79,0,0,1-.86-1.12,1.72,1.72,0,0,1,.21-1.33A2,2,0,0,1,8.5,8.21a1,1,0,0,0,1,0A1,1,0,0,0,10,7.32a3.43,3.43,0,0,1,.45-1.8,1,1,0,1,0-1.71-1A5.06,5.06,0,0,0,8.14,6a4,4,0,0,0-4,1.78,3.67,3.67,0,0,0-.45,2.87,3.8,3.8,0,0,0,.55,1.23,4.92,4.92,0,0,0,0,8.26,3.8,3.8,0,0,0-.55,1.23,3.67,3.67,0,0,0,.45,2.87,4,4,0,0,0,4,1.78,4.93,4.93,0,0,0,1.11,2.2,5.69,5.69,0,0,0,4.3,1.8A7.38,7.38,0,0,0,16,29.57a7.38,7.38,0,0,0,2.45.44,5.69,5.69,0,0,0,4.3-1.8A4.93,4.93,0,0,0,23.86,26a4,4,0,0,0,4-1.78,3.66,3.66,0,0,0,.45-2.87,3.8,3.8,0,0,0-.55-1.23A5,5,0,0,0,30,16Z"/><path d="M8.71,16.29a1,1,0,1,0-1.42,1.42l2,2A1,1,0,0,0,10,20l.2,0a1,1,0,0,0,.73-.61l2-5a1,1,0,1,0-1.86-.74L9.63,17.22Z"/><path d="M19.49,19.86A1,1,0,0,0,20,20a1,1,0,0,0,.86-.49l.64-1.07.64,1.07A1,1,0,0,0,23,20a1,1,0,0,0,.51-.14,1,1,0,0,0,.35-1.37l-1.19-2,1.19-2a1,1,0,0,0-1.72-1l-.64,1.07-.64-1.07a1,1,0,1,0-1.72,1l1.19,2-1.19,2A1,1,0,0,0,19.49,19.86Z"/></g></svg>