<svg xmlns="http://www.w3.org/2000/svg" viewBox="0 0 32 32"><g id="flower"><path d="M27,17.78A1,1,0,0,0,26,17a11.54,11.54,0,0,0-7.67,3.29A11.15,11.15,0,0,0,17,21.88V17.35l6.37-8.12A4.47,4.47,0,1,0,16.14,4L16,4.2,15.86,4A4.47,4.47,0,1,0,8.63,9.23l1.08,1.39a1,1,0,1,0,1.58-1.24L10.2,8a2.47,2.47,0,0,1,1.94-4A2.47,2.47,0,0,1,14.2,5.1l1,1.45a1,1,0,0,0,1.66,0l1-1.45A2.47,2.47,0,0,1,19.86,4,2.47,2.47,0,0,1,21.8,8L16,15.38l-2.21-2.82a1,1,0,0,0-1.58,1.24L15,17.35v4.51a11.54,11.54,0,0,0-1.29-1.57A11.54,11.54,0,0,0,6,17a.94.94,0,0,0-1,.78,10.52,10.52,0,0,0,2.22,8.88,10.27,10.27,0,0,0,7.8,3.39c.44,0,.77,0,1,0a9.43,9.43,0,0,0,1,0,10.28,10.28,0,0,0,7.8-3.39,10.41,10.41,0,0,0,1.1-1.53,1,1,0,0,0-1.74-1,7.26,7.26,0,0,1-.87,1.21A8.35,8.35,0,0,1,17,28.05a9.25,9.25,0,0,1,8.16-9,9.33,9.33,0,0,1,0,1.83,1,1,0,0,0,2,.2A10.51,10.51,0,0,0,27,17.78ZM6.84,19.07a9.38,9.38,0,0,1,5.45,2.64A9.45,9.45,0,0,1,15,28v.09a8.35,8.35,0,0,1-6.25-2.71A8.28,8.28,0,0,1,6.84,19.07Z"/></g></svg>