<svg xmlns="http://www.w3.org/2000/svg" viewBox="0 0 32 32"><g id="free"><path d="M27.71,10.76A2.9,2.9,0,0,0,24.16,9.7l-2.55,1.1A7,7,0,0,0,22,8.5a6.83,6.83,0,0,0-.22-1.75A1,1,0,0,0,20.56,6a1,1,0,0,0-.72,1.22A4.71,4.71,0,0,1,20,8.5,4.27,4.27,0,0,1,16,13a4.27,4.27,0,0,1-4-4.5A4.27,4.27,0,0,1,16,4a3.61,3.61,0,0,1,1.57.36,3.68,3.68,0,0,1,.79.51,1,1,0,0,0,1.28-1.54,5.75,5.75,0,0,0-1.21-.77A5.52,5.52,0,0,0,16,2a6.27,6.27,0,0,0-6,6.5,7,7,0,0,0,.39,2.3L7.84,9.7a2.9,2.9,0,0,0-4,3.33,3,3,0,0,0,1.39,1.85l1.23.7a1,1,0,0,0,1.37-.37,1,1,0,0,0-.37-1.36l-1.24-.71a.91.91,0,0,1-.43-.57.86.86,0,0,1,.13-.7.89.89,0,0,1,1.09-.33l5.56,2.38.12,0a5.62,5.62,0,0,0,6.54,0l.12,0L25,11.54a.89.89,0,0,1,1.09.33.86.86,0,0,1,.13.7.91.91,0,0,1-.43.57L21.6,15.5A3.2,3.2,0,0,0,20,18.26V21H12V18.26a3.2,3.2,0,0,0-1.6-2.76A1,1,0,0,0,9,15.88a1,1,0,0,0,.37,1.36,1.19,1.19,0,0,1,.59,1v9.66s0,0,0,.08H8a1,1,0,0,0,0,2H24a1,1,0,0,0,0-2H22s0-.05,0-.08V18.26a1.19,1.19,0,0,1,.59-1l4.14-2.36a2.89,2.89,0,0,0,1-4.12ZM12.08,28a.07.07,0,0,1-.08-.08V23h3v5ZM17,28V23h3v4.92a.07.07,0,0,1-.08.08Z"/></g></svg>