<svg xmlns="http://www.w3.org/2000/svg" viewBox="0 0 32 32"><g id="happiness"><path d="M26.47,21.33l-6.34,1.51a2.78,2.78,0,0,1-1.15,0l-3.07-.59a.67.67,0,0,1-.57-.63.69.69,0,0,1,.73-.65H17a2.5,2.5,0,1,0,0-5H14.11a6.39,6.39,0,0,0-1.9.29L7.93,17.65A1,1,0,0,0,7,17H3a1,1,0,0,0-1,1v5a1,1,0,0,0,2,0V19H6v9H4V27a1,1,0,0,0-2,0v2a1,1,0,0,0,1,1H7a1,1,0,0,0,1-.89l5.7.6a13.38,13.38,0,0,0,1.54.09,14.21,14.21,0,0,0,4-.59l3-.88A1,1,0,0,0,23,27.08a1,1,0,0,0-1.24-.67l-3,.88a12.39,12.39,0,0,1-4.81.44L8,27.1V19.73l4.82-1.53a4.29,4.29,0,0,1,1.29-.2H17a.5.5,0,1,1,0,1h-.89a2.64,2.64,0,0,0-.53,5.25l3.06.58a4.81,4.81,0,0,0,2,0l6.33-1.52a.9.9,0,0,1,.94.34.69.69,0,0,1,.09.63.79.79,0,0,1-.55.5l-1.69.49a1,1,0,0,0,.28,2,.9.9,0,0,0,.28,0l1.7-.49a2.86,2.86,0,0,0,1.87-1.76,2.69,2.69,0,0,0-.34-2.44A2.9,2.9,0,0,0,26.47,21.33Z"/><path d="M12.67,15a1,1,0,0,0,.66-1.25,7.5,7.5,0,1,1,8.49,5.17A1,1,0,0,0,21,20a1,1,0,0,0,1,.83l.18,0A9.5,9.5,0,1,0,11,11.5a9.39,9.39,0,0,0,.42,2.79A1,1,0,0,0,12.67,15Z"/><path d="M20,8.78V8a1,1,0,0,0-2,0v.78a1,1,0,1,0,2,0Z"/><path d="M23,8.78V8a1,1,0,0,0-2,0v.78a1,1,0,1,0,2,0Z"/><path d="M16.91,11.57a1,1,0,1,0-1.82.81A6,6,0,0,0,20.52,16a5.63,5.63,0,0,0,.58,0,6,6,0,0,0,4.82-3.6,1,1,0,0,0-1.84-.79,3.86,3.86,0,0,1-7.17,0Z"/></g></svg>