<svg xmlns="http://www.w3.org/2000/svg" viewBox="0 0 32 32"><g id="hourglass"><path d="M26,28H25a16.8,16.8,0,0,0-3.15-9.6,15.08,15.08,0,0,0-1.63-1.86.64.64,0,0,1-.2-.49.58.58,0,0,1,.21-.44,13.86,13.86,0,0,0,2.66-3.07A14.58,14.58,0,0,0,25,4h1a1,1,0,0,0,0-2H6A1,1,0,0,0,6,4H7A14.59,14.59,0,0,0,7,6.09a1,1,0,1,0,2-.18A15.22,15.22,0,0,1,9,4H23a12.61,12.61,0,0,1-1.87,7.46,12,12,0,0,1-2.29,2.64A2.58,2.58,0,0,0,18,16a2.69,2.69,0,0,0,.81,2A13.72,13.72,0,0,1,20.2,19.6,14.82,14.82,0,0,1,23,28H9.05a14.82,14.82,0,0,1,2.75-8.4A13.72,13.72,0,0,1,13.22,18,2.69,2.69,0,0,0,14,16a2.58,2.58,0,0,0-.9-1.89,12,12,0,0,1-2.29-2.64A12.79,12.79,0,0,1,9.92,9.7a1,1,0,0,0-1.84.78,14,14,0,0,0,1.08,2.06,14.14,14.14,0,0,0,2.66,3.08.55.55,0,0,1,.21.43.64.64,0,0,1-.2.49A15.08,15.08,0,0,0,10.2,18.4,16.8,16.8,0,0,0,7.05,28H6a1,1,0,0,0,0,2H26a1,1,0,0,0,0-2Z"/><path d="M20.91,9.42a1,1,0,0,0-.07-1A1,1,0,0,0,20,8H12a1,1,0,0,0-.84.46,1,1,0,0,0-.07,1A19.53,19.53,0,0,0,13.2,13c.31.42.62.8.93,1.15a2.44,2.44,0,0,0,3.74,0c.31-.35.62-.73.93-1.15A19.53,19.53,0,0,0,20.91,9.42ZM17.2,11.78c-.28.38-.56.72-.83,1a.46.46,0,0,1-.74,0c-.27-.31-.55-.65-.83-1A16.48,16.48,0,0,1,13.64,10h4.72A16.48,16.48,0,0,1,17.2,11.78Z"/><path d="M13.42,23H14a1,1,0,0,0,0-2h-.58a2.83,2.83,0,0,0-2.74,2.14L10,25.76a1,1,0,0,0,.18.86A1,1,0,0,0,11,27H21a1,1,0,0,0,.79-.38,1,1,0,0,0,.18-.86l-.65-2.62A2.83,2.83,0,0,0,18.58,21H18a1,1,0,0,0,0,2h.58a.84.84,0,0,1,.8.62L19.72,25H12.28l.34-1.38A.84.84,0,0,1,13.42,23Z"/></g></svg>