<svg xmlns="http://www.w3.org/2000/svg" viewBox="0 0 32 32"><g id="in_love" data-name="in love"><path d="M28,18.68,27,15.84V12a11.68,11.68,0,0,0-6.12-8.81,11.34,11.34,0,0,0-8.55-.61A1,1,0,1,0,13,4.46,9.37,9.37,0,0,1,20,5,9.8,9.8,0,0,1,25,12V16.1a1,1,0,0,0,.16.55l.76,2.27-.81,1.63A1,1,0,0,0,25,21v1.29a2.07,2.07,0,0,1-1.5-.15,1.77,1.77,0,0,1-.64-.66,1,1,0,1,0-1.72,1,3.79,3.79,0,0,0,1.36,1.34,3.67,3.67,0,0,0,1.9.51c.16,0,.31,0,.46,0-.22.32-.62.67-.86.67H20a1,1,0,0,0-1,1v2H13V24.9a6.46,6.46,0,0,0-2.31-5,10.21,10.21,0,0,1-3.51-5.23,9.27,9.27,0,0,1,2-7.77,1,1,0,0,0-.07-1.41,1,1,0,0,0-1.42.07,11.21,11.21,0,0,0-2.41,9.58,12.16,12.16,0,0,0,4.18,6.3A4.48,4.48,0,0,1,11,24.9V29a1,1,0,0,0,1,1h8a1,1,0,0,0,1-1V27h3a3.34,3.34,0,0,0,3-3V21.24l.89-1.79A1,1,0,0,0,28,18.68Z"/><path d="M11.44,12.61a17.93,17.93,0,0,0,1.89,3,17.56,17.56,0,0,0,2,2.13,1,1,0,0,0,1.34,0,17.56,17.56,0,0,0,2-2.13,17.93,17.93,0,0,0,1.89-3,3.12,3.12,0,0,0,.06-3.09,2.94,2.94,0,0,0-1.41-1.29,2.83,2.83,0,0,0-2.91.43A2.76,2.76,0,0,0,16,9a2.76,2.76,0,0,0-.3-.29,2.88,2.88,0,0,0-2.91-.44,3,3,0,0,0-1.41,1.3A3.15,3.15,0,0,0,11,11a4,4,0,0,0,0,.49A3.27,3.27,0,0,0,11.44,12.61Zm1.7-2.13a.94.94,0,0,1,.44-.42.78.78,0,0,1,.31-.06.81.81,0,0,1,.53.2,1,1,0,0,1,.26.34l.41.88a1,1,0,0,0,1.82,0l.41-.88a1,1,0,0,1,.26-.34.83.83,0,0,1,.85-.14,1,1,0,0,1,.43.42A1.08,1.08,0,0,1,19,11a1,1,0,0,1-.17.59l0,.09a15.22,15.22,0,0,1-1.69,2.69A12.89,12.89,0,0,1,16,15.62a12.89,12.89,0,0,1-1.09-1.24,15.22,15.22,0,0,1-1.69-2.69s0-.07-.05-.1A1,1,0,0,1,13,11,1.08,1.08,0,0,1,13.14,10.48Z"/></g></svg>