<svg xmlns="http://www.w3.org/2000/svg" viewBox="0 0 32 32"><g id="injection"><path d="M26.67,5.33,21.62,2.1a1,1,0,0,0-1.38.31,1,1,0,0,0,.3,1.38l1.69,1.07L21.15,6.55l-.31-.2a2.65,2.65,0,0,0-3.64.8l-1.27,2h0l-4.3,6.74h0L8.2,21.26a2.6,2.6,0,0,0-.35,2,2.16,2.16,0,0,0,.14.43l-.34,1.47a2.47,2.47,0,0,0,.37,2l-.86,1.35a1,1,0,0,0,.3,1.38A1,1,0,0,0,8,30a1,1,0,0,0,.84-.46l.87-1.37a1.94,1.94,0,0,0,.4.06,2.49,2.49,0,0,0,1.54-.54l1.19-.92a3.44,3.44,0,0,0,.45-.05,2.66,2.66,0,0,0,1.65-1.16l4.9-7.67a1,1,0,1,0-1.68-1.08l-4.9,7.68a.65.65,0,0,1-.4.27.62.62,0,0,1-.48-.08l-2.3-1.47a.65.65,0,0,1-.28-.4.62.62,0,0,1,.08-.48l.74-1.15.84.54A1,1,0,0,0,12.54,20l-.84-.53,1.07-1.69.85.54a1,1,0,0,0,1.07-1.69l-.84-.54,1.08-1.68.84.54a1,1,0,0,0,.54.15,1,1,0,0,0,.53-1.84L16,12.75l1.08-1.68.84.54a1,1,0,0,0,.54.15,1,1,0,0,0,.84-.46A1,1,0,0,0,19,9.92l-.85-.54.74-1.15a.65.65,0,0,1,.4-.28.69.69,0,0,1,.48.09l2.3,1.47a.63.63,0,0,1,.19.87l-2.1,3.3a1,1,0,0,0,.3,1.38,1,1,0,0,0,1.38-.31L24,11.46a2.64,2.64,0,0,0-.81-3.64l-.3-.2,1.07-1.68L25.6,7a1,1,0,0,0,.54.15,1,1,0,0,0,.53-1.84Zm-16,20.61-.22.18a.5.5,0,0,1-.6,0,.49.49,0,0,1-.22-.55l.06-.28Z"/></g></svg>