<svg xmlns="http://www.w3.org/2000/svg" viewBox="0 0 32 32"><g id="key"><path d="M20.5,23H19V22h1.5a2.5,2.5,0,0,0,0-5H19V11.33l2.82-3.75A3.49,3.49,0,0,0,16.56,3L16,3.59,15.43,3A3.43,3.43,0,0,0,13,2a3.49,3.49,0,0,0-2.79,5.58L13,11.33V15a1,1,0,0,0,2,0V11s0-.07,0-.11a1.18,1.18,0,0,0,0-.2l-.09-.19,0-.1-3-4A1.49,1.49,0,0,1,14,4.43l1.27,1.28a1,1,0,0,0,1.42,0L18,4.43a1.49,1.49,0,0,1,2.24,2l-3,4s0,.07-.05.1l-.09.19a1.18,1.18,0,0,0,0,.2S17,11,17,11v7a1,1,0,0,0,1,1h2.5a.5.5,0,0,1,0,1H18a1,1,0,0,0-1,1v3a1,1,0,0,0,1,1h2.5a.5.5,0,0,1,0,1H18a1,1,0,0,0-1,1v.55a.45.45,0,0,1-.45.45h-1.1a.45.45,0,0,1-.45-.45V19a1,1,0,0,0-2,0v8.55A2.45,2.45,0,0,0,15.45,30h1.1A2.44,2.44,0,0,0,19,28H20.5a2.5,2.5,0,0,0,0-5Z"/></g></svg>