<svg xmlns="http://www.w3.org/2000/svg" viewBox="0 0 32 32"><g id="medicine"><path d="M26,8.11V3.89A1.89,1.89,0,0,0,24.11,2H7.89A1.89,1.89,0,0,0,6,3.89V8.11A1.89,1.89,0,0,0,7.22,9.87l-.41.6A4.89,4.89,0,0,0,6,13.17V14a1,1,0,0,0,2,0v-.83a2.88,2.88,0,0,1,.48-1.59L9.54,10H22.46l1.06,1.58A2.88,2.88,0,0,1,24,13.17V26.69A1.31,1.31,0,0,1,22.69,28H9.31A1.31,1.31,0,0,1,8,26.69V18a1,1,0,0,0-2,0v8.69A3.32,3.32,0,0,0,9.31,30H22.69A3.32,3.32,0,0,0,26,26.69V13.17a4.89,4.89,0,0,0-.81-2.7l-.41-.6A1.89,1.89,0,0,0,26,8.11ZM9,8H8V4H9V5a1,1,0,0,0,2,0V4h1V5a1,1,0,0,0,2,0V4h1V5a1,1,0,0,0,2,0V4h1V5a1,1,0,0,0,2,0V4h1V5a1,1,0,0,0,2,0V4h1V8H9Z"/><path d="M18,25h.83A3.17,3.17,0,0,0,22,21.83V16.17A3.17,3.17,0,0,0,18.83,13H13.17A3.17,3.17,0,0,0,10,16.17v5.66A3.17,3.17,0,0,0,13.17,25H14a1,1,0,0,0,0-2h-.83A1.17,1.17,0,0,1,12,21.83V16.17A1.17,1.17,0,0,1,13.17,15h5.66A1.17,1.17,0,0,1,20,16.17v5.66A1.17,1.17,0,0,1,18.83,23H18a1,1,0,0,0,0,2Z"/><path d="M18,19a1,1,0,0,0-1-1H15a1,1,0,0,0,0,2h2A1,1,0,0,0,18,19Z"/></g></svg>