<svg xmlns="http://www.w3.org/2000/svg" viewBox="0 0 32 32"><g id="psychology"><path d="M29,12a1,1,0,0,0,1-1V9a3,3,0,0,0-6,0v5.18a4.2,4.2,0,0,0-4.46.57L17.08,16.8A5.84,5.84,0,0,0,16,18a5.84,5.84,0,0,0-1.08-1.2l-2.46-2.05A4.2,4.2,0,0,0,8,14.18V9A3,3,0,0,0,2,9v6.52a7.64,7.64,0,0,0,1.88,5l1,1.13a1,1,0,0,0,1.51-1.32l-1-1.13A5.57,5.57,0,0,1,4,15.52V9A1,1,0,0,1,6,9v5.82a3.9,3.9,0,0,0,1.12,2.72l0,0h0l4.12,4.13a1,1,0,0,0,1.42,0,1,1,0,0,0,0-1.42L8.58,16.15a2.19,2.19,0,0,1,2.6.13l2.46,2A3.79,3.79,0,0,1,15,21.24V28H11v-.56a4.82,4.82,0,0,0-1.19-3.18l-1.06-1.2a1,1,0,1,0-1.5,1.31L8.3,25.58A2.81,2.81,0,0,1,9,27.44V29a1,1,0,0,0,1,1H22a1,1,0,0,0,1-1V27.44a2.81,2.81,0,0,1,.7-1.86l4.42-5a7.64,7.64,0,0,0,1.88-5V15a1,1,0,0,0-2,0v.52a5.57,5.57,0,0,1-1.39,3.69l-4.42,5.05A4.82,4.82,0,0,0,21,27.44V28H17V21.24a3.79,3.79,0,0,1,1.36-2.91l2.46-2a2.16,2.16,0,0,1,2.6-.11l-4.13,4.12a1,1,0,0,0,1.42,1.42l4.16-4.17A3.81,3.81,0,0,0,26,14.82V9a1,1,0,0,1,2,0v2A1,1,0,0,0,29,12Z"/><path d="M10,7h.45A6.63,6.63,0,0,0,15,9.92V11H14a1,1,0,0,0,0,2h4a1,1,0,0,0,0-2H17V9.92A6.63,6.63,0,0,0,21.55,7H22a1,1,0,0,0,0-2H19a1,1,0,0,0-1,1,1,1,0,0,0,.91,1,4.62,4.62,0,0,1-1.91.9V4h1a1,1,0,0,0,0-2H14a1,1,0,0,0,0,2h1V7.88A4.49,4.49,0,0,1,13.09,7,1,1,0,0,0,14,6a1,1,0,0,0-1-1H10a1,1,0,0,0,0,2Z"/></g></svg>