<svg xmlns="http://www.w3.org/2000/svg" viewBox="0 0 32 32"><g id="psychology_book" data-name="psychology book"><path d="M26,8a1,1,0,0,0,1-1V4.53A2.54,2.54,0,0,0,24.47,2H7.53A2.54,2.54,0,0,0,5,4.53V27a3,3,0,0,0,3,3h3a1,1,0,0,0,0-2H8a1,1,0,0,1,0-2H23.17a3,3,0,0,0,0,2H15a1,1,0,0,0,0,2H26a1,1,0,0,0,0-2,1,1,0,0,1,0-2,1,1,0,0,0,1-1V11a1,1,0,0,0-2,0V24H8a3,3,0,0,0-1,.18V4.53A.53.53,0,0,1,7.53,4H24.47a.53.53,0,0,1,.53.53V7A1,1,0,0,0,26,8Z"/><path d="M20.68,11H21a1,1,0,0,0,0-2H19a1,1,0,0,0-.55,1.82,3.31,3.31,0,0,1-1.45,1V9a1,1,0,0,0,0-2H15a1,1,0,0,0,0,2v2.84a3.31,3.31,0,0,1-1.45-1A1,1,0,0,0,13,9H11a1,1,0,0,0,0,2h.32A5.18,5.18,0,0,0,15,13.89V16a1,1,0,0,0,0,2h2a1,1,0,0,0,0-2V13.89A5.18,5.18,0,0,0,20.68,11Z"/></g></svg>