<svg xmlns="http://www.w3.org/2000/svg" viewBox="0 0 32 32"><g id="pyramid_chart" data-name="pyramid chart"><path d="M27.92,28.61l-3-7A1,1,0,0,0,24,21H8a1,1,0,0,0-.92.61l-3,7A1,1,0,0,0,5,30H19a1,1,0,0,0,0-2H6.52l2.14-5H23.34l2.14,5H23a1,1,0,0,0,0,2h4a1,1,0,0,0,.92-1.39Z"/><path d="M9,20h3a1,1,0,0,0,0-2H10.62l2-4h6.76l2,4H16a1,1,0,0,0,0,2h7a1,1,0,0,0,.89-1.45l-3-6A1,1,0,0,0,20,12H12a1,1,0,0,0-.89.55l-3,6A1,1,0,0,0,9,20Z"/><path d="M13,11h6a1,1,0,0,0,.92-1.39l-3-7a1,1,0,0,0-1.84,0l-3,7A1,1,0,0,0,13,11Zm3-5.46L17.48,9h-3Z"/></g></svg>