<svg xmlns="http://www.w3.org/2000/svg" viewBox="0 0 32 32"><g id="relaxation"><path d="M29.71,19.73a1,1,0,0,0,.24-1L29,15.89V14c0-.9,0-1.67,0-1.77a10.55,10.55,0,0,0-5.48-8.12,10.24,10.24,0,0,0-7.82-.57,1,1,0,1,0,.62,1.9,8.22,8.22,0,0,1,6.28.45A8.65,8.65,0,0,1,27,12.27c0,.09,0,.85,0,1.73v1.88A.71.71,0,0,0,27,16a1.13,1.13,0,0,0,.05.32l.81,2.41-.57.57A1,1,0,0,0,27,20l0,1.28a2,2,0,0,1-1.48-.15,1.9,1.9,0,0,1-.64-.65,1,1,0,0,0-1.72,1,3.74,3.74,0,0,0,1.36,1.35,3.66,3.66,0,0,0,1.9.5,4.92,4.92,0,0,0,.56,0v.2a.48.48,0,0,1-.47.48H23a1,1,0,0,0-1,1v2H16.06V21a1,1,0,0,0-.57-.9,8.24,8.24,0,0,1-4.33-5.34A8.27,8.27,0,0,1,11,12.87a8.15,8.15,0,0,0,1.38.13,5.83,5.83,0,0,0,4.35-1.75A5.28,5.28,0,0,0,18,8.79a1,1,0,0,0-.35-1,5.36,5.36,0,0,0-3.72-1.22,4,4,0,0,0-.75.14,4.31,4.31,0,0,0-.23-2.08,4.77,4.77,0,0,0-2.51-2.55,1,1,0,0,0-.84,0A4.77,4.77,0,0,0,7.07,4.64a4.31,4.31,0,0,0-.23,2.08,4,4,0,0,0-.75-.14A5.36,5.36,0,0,0,2.37,7.8a1,1,0,0,0-.35,1,5.28,5.28,0,0,0,1.24,2.46A5.83,5.83,0,0,0,7.61,13,8.48,8.48,0,0,0,9,12.87a9.92,9.92,0,0,0,.21,2.36,10.2,10.2,0,0,0,4.84,6.37V28a1,1,0,0,0,1,1H23a1,1,0,0,0,1-1V26h2.51A2.5,2.5,0,0,0,29,23.55l0-1.44a1.92,1.92,0,0,0,0-.24l0-1.43ZM14.09,8.57A3.06,3.06,0,0,1,15.83,9a2.92,2.92,0,0,1-.57.91,4.25,4.25,0,0,1-4,1A3.58,3.58,0,0,1,14.09,8.57ZM8.93,5.36A2.63,2.63,0,0,1,10,4.13a2.63,2.63,0,0,1,1.07,1.23A3.21,3.21,0,0,1,10,8.72,3.21,3.21,0,0,1,8.93,5.36ZM4.74,9.9A2.92,2.92,0,0,1,4.17,9a3,3,0,0,1,1.74-.42,3.58,3.58,0,0,1,2.83,2.32A4.25,4.25,0,0,1,4.74,9.9Z"/></g></svg>