<svg xmlns="http://www.w3.org/2000/svg" viewBox="0 0 32 32"><g id="sad"><path d="M16,2A14,14,0,0,0,8.46,4.2,1,1,0,0,0,9.54,5.89,12,12,0,1,1,5.89,9.54a10.12,10.12,0,0,1,.65-.92A1,1,0,1,0,5,7.38c-.27.35-.52.71-.76,1.08A14,14,0,1,0,16,2Z"/><path d="M14,12V10a1,1,0,0,0-2,0v2a1,1,0,0,0,2,0Z"/><path d="M20,12V10a1,1,0,0,0-2,0v2a1,1,0,0,0,2,0Z"/><path d="M9.2,20.4a1,1,0,1,0,1.6,1.2A6.79,6.79,0,0,1,16,19a6.81,6.81,0,0,1,5.2,2.6,1,1,0,0,0,.8.4,1,1,0,0,0,.6-.2,1,1,0,0,0,.2-1.4A8.74,8.74,0,0,0,16,17,8.76,8.76,0,0,0,9.2,20.4Z"/></g></svg>