<svg xmlns="http://www.w3.org/2000/svg" viewBox="0 0 32 32"><g id="thinking"><path d="M30,18.69,29,15.87V14c0-.91,0-1.68,0-1.77a10.54,10.54,0,0,0-5.48-8.12,10.2,10.2,0,0,0-7.82-.57,1,1,0,0,0,.62,1.9,8.18,8.18,0,0,1,6.28.45A8.65,8.65,0,0,1,27,12.25c0,.09,0,.85,0,1.73v1.88A.66.66,0,0,0,27,16a1.06,1.06,0,0,0,.05.31l.81,2.42-.57.56A1,1,0,0,0,27,20v1H25a1,1,0,0,0,0,2h2v.5a.49.49,0,0,1-.48.48H23a1,1,0,0,0-1,1v2H16.06V21a1,1,0,0,0-.57-.91,8.18,8.18,0,0,1-4.33-5.33,9,9,0,0,1,.76-5.66l1.19,2.37a1,1,0,0,0,.83.55H14a1,1,0,0,0,.83-.45L16.54,9H18a1,1,0,0,0,0-2H16a1,1,0,0,0-.83.45L14.12,9,10.89,2.55a1,1,0,0,0-1.75-.06L6.43,7H3A1,1,0,0,0,3,9H7a1,1,0,0,0,.86-.49L9.92,5.08l1,2.05a1,1,0,0,0-.39.33,10.86,10.86,0,0,0-1.33,7.75,10.26,10.26,0,0,0,4.84,6.37V28a1,1,0,0,0,1,1H23a1,1,0,0,0,1-1V26h2.5A2.51,2.51,0,0,0,29,23.53l0-3.11.71-.71A1,1,0,0,0,30,18.69Z"/></g></svg>