<svg xmlns="http://www.w3.org/2000/svg" viewBox="0 0 339.61 490.87"><defs><style>.cls-1{fill:#616794;}.cls-2{fill:#465a65;}.cls-3{fill:#ffe0b2;}.cls-4{fill:#8e6e62;}.cls-5{fill:#23a79b;}.cls-6{fill:#fff3e1;}.cls-7{fill:#fff;}.cls-8{fill:#ebbb79;}.cls-9{fill:#36474f;}.cls-10{fill:#a3857c;}</style></defs><g id="Layer_2" data-name="Layer 2"><g id="Layer_2-2" data-name="Layer 2"><path class="cls-1" d="M215.22,396.34H124.39c-46.13,0-86.7,39.64-86.7,94.53H301.92C301.92,435.38,260.79,396.34,215.22,396.34Z"/><path class="cls-2" d="M254.72,10.88C243.67,6.54,229.62,1.44,208.83.24,197,.54,186,4.42,177.94,14.83,172.41,3.66,157,0,138.87,0A138.86,138.86,0,0,0,0,138.87v62.85a127,127,0,0,0,127,127h85.69a127,127,0,0,0,127-127V138.87A138.92,138.92,0,0,0,254.72,10.88Z"/><path class="cls-3" d="M169.8,57C33.6,136.16,49.37,242.58,57.71,263a134.44,134.44,0,0,0,24.12,38.6s20.86,23.38,36.87,41.3a71.61,71.61,0,0,1,18.18,47.28l0,6.19c-14.43,0-26.54-.86-43.58,6.2-6.16,25-5.91,64.5.76,88.33H245.52c6.66-23.83,6.92-63.31.75-88.33-17-7.06-29.14-6.2-43.57-6.2l0-6.19a71.51,71.51,0,0,1,18.18-47.28l36.87-41.3A134.41,134.41,0,0,0,281.89,263C290.23,242.58,306,136.16,169.8,57Z"/><path class="cls-4" d="M169.8,425.17a76.09,76.09,0,0,1-58.07-26.88,3,3,0,1,1,4.61-3.91,70.11,70.11,0,0,0,106.93,0,3,3,0,0,1,4.61,3.91A76.07,76.07,0,0,1,169.8,425.17Z"/><rect class="cls-5" x="160.25" y="438.84" width="19.1" height="19.1" transform="translate(-267.32 251.4) rotate(-45)"/><path class="cls-4" d="M169.8,437.9a3,3,0,0,1-3-3V422.15a3,3,0,1,1,6,0v12.73A3,3,0,0,1,169.8,437.9Z"/><path class="cls-6" d="M68.57,186.07v28.49a32.56,32.56,0,0,0,32.56,32.56h.75a56.25,56.25,0,0,0,53.8-39.83l5.53-18.1C136.75,176.7,100.84,169.81,68.57,186.07Z"/><path class="cls-6" d="M271,186.07v28.49a32.55,32.55,0,0,1-32.55,32.56h-.75a56.27,56.27,0,0,1-53.81-39.83l-5.53-18.1C202.85,176.7,238.76,169.81,271,186.07Z"/><path class="cls-7" d="M169.8,290A269,269,0,0,1,125,286.4a48.44,48.44,0,0,0,89.69,0A269.15,269.15,0,0,1,169.8,290Z"/><circle class="cls-8" cx="100.38" cy="279.66" r="16.86" transform="translate(-61.57 30.54) rotate(-13.28)"/><circle class="cls-8" cx="239.23" cy="279.66" r="16.86" transform="translate(-87.92 448.24) rotate(-76.72)"/><path class="cls-8" d="M170,274.64a4.69,4.69,0,0,1-1.17-.15l-10.1-2.68A16.05,16.05,0,0,1,149.81,247c6.31-8.95,8.93-15.13,11.19-26.47a4.53,4.53,0,1,1,8.89,1.78c-2.52,12.62-5.6,19.89-12.68,29.92A7,7,0,0,0,161,263.05l10.11,2.68a4.53,4.53,0,0,1-1.16,8.91Z"/><path class="cls-9" d="M90,165.25l-4-9.78c12.34-5.07,32-7.8,47.68-6.63l-.78,10.55C118.86,158.35,100.83,160.81,90,165.25Z"/><path class="cls-9" d="M249.59,165.25c-10.81-4.44-28.84-6.9-42.88-5.86l-.79-10.55c15.74-1.17,35.35,1.56,47.69,6.63Z"/><ellipse class="cls-10" cx="116.32" cy="203.4" rx="11.45" ry="14.83"/><ellipse class="cls-10" cx="223.28" cy="203.4" rx="11.45" ry="14.83"/><path class="cls-1" d="M177.68,194.64l-2.31-2.07c-1.85-1.65-4.61-3.27-5.57-3.27s-3.71,1.62-5.57,3.27l-2.31,2.06-2.77-1.4c-11-5.64-50-22.51-88.54-3.12A4.53,4.53,0,0,1,66.53,182c39.65-20,79.4-5.14,94.12,1.84,2.31-1.63,5.8-3.63,9.15-3.63s6.85,2,9.15,3.63c14.72-7,54.48-21.82,94.12-1.84a4.53,4.53,0,1,1-4.08,8.09c-38.5-19.4-77.5-2.52-88.54,3.12Z"/></g></g></svg>