<svg xmlns="http://www.w3.org/2000/svg" viewBox="0 0 304.11 505.22"><defs><style>.cls-1{fill:#ffcdd2;}.cls-2{fill:#80deea;}.cls-3{fill:#00acc0;}.cls-4{fill:#fff;}.cls-5{fill:#36474f;}.cls-6{fill:#8e6e62;}.cls-7{fill:#fe6e41;}.cls-8{fill:#f09a9b;}</style></defs><g id="Layer_2" data-name="Layer 2"><g id="Layer_2-2" data-name="Layer 2"><path class="cls-1" d="M303.78,198.24C299.91,218.8,291.5,234,276.9,250.55c-11.87,80.22-92.67,89.95-92.67,164.3v24H119.88v-24c0-74.27-80.82-84.18-92.67-164.3C12.61,234,4.2,218.8.32,198.24A18,18,0,0,1,10.81,178.4a17.66,17.66,0,0,1,14.79.17l.3.13c0,12.9,1.55,26.79,4.87,35l27.57,7.09C41.06,168.85,40.82,140.45,54.4,90.79l15.75,54.34c14.84-6.88,37.39-10.77,62.22-12.1a75.93,75.93,0,0,0-11.09-23.8,76.13,76.13,0,0,1,25.48,23.35c1.77,0,3.53-.05,5.29-.05q7.55,0,14.92.28c0-.12,0-.23,0-.36a75.78,75.78,0,0,0-18.52-41.66,76.21,76.21,0,0,1,41.89,43.77c17.33,2,32.62,5.45,43.65,10.57l15.75-54.34c13.58,49.66,13.34,78.06-3.94,130l27.57-7.09c3.32-8.16,4.87-22.05,4.87-35l.29-.13a17.66,17.66,0,0,1,14.79-.17A17.94,17.94,0,0,1,303.78,198.24Z"/><path class="cls-2" d="M3.65,505.22v-1a102.67,102.67,0,0,1,98.27-102.59c1.46-.06,2.93-.1,4.41-.1h91.45c1.48,0,2.95,0,4.41.1a102.67,102.67,0,0,1,98.27,102.59v1Z"/><polygon class="cls-1" points="118.94 401.5 105.06 447.45 152.05 475.07 199.05 447.45 185.17 401.5 118.94 401.5"/><path class="cls-3" d="M119,401.49,87.6,505.22h-17l31.33-103.63c1.46-.06,2.93-.1,4.41-.1Z"/><path class="cls-3" d="M185.16,401.49l31.35,103.73h17L202.19,401.59c-1.46-.06-2.93-.1-4.41-.1Z"/><circle class="cls-4" cx="152.05" cy="475.07" r="12.55"/><ellipse class="cls-5" cx="99.68" cy="205.77" rx="11.55" ry="14.96"/><ellipse class="cls-5" cx="204.43" cy="205.77" rx="11.55" ry="14.96"/><path class="cls-6" d="M20.9,262.35a3,3,0,0,1-3-3V231a3,3,0,1,1,6,0v28.36A3,3,0,0,1,20.9,262.35Z"/><path class="cls-6" d="M283.21,262.35a3,3,0,0,1-3-3V231a3,3,0,0,1,6,0v28.36A3,3,0,0,1,283.21,262.35Z"/><circle class="cls-2" cx="20.9" cy="259.33" r="12.6"/><circle class="cls-2" cx="283.21" cy="259.33" r="12.6"/><path class="cls-7" d="M293.29,178.4a17.66,17.66,0,0,0-14.79.17l-.29.13c0,12.9-1.55,26.79-4.87,35l-27.57,7.09c17.28-51.89,17.52-80.29,3.94-129.95L234,145.13c-11-5.12-26.32-8.58-43.65-10.57a76.21,76.21,0,0,0-41.89-43.77,75.78,75.78,0,0,1,18.52,41.66c0,.13,0,.24,0,.36q-7.36-.28-14.92-.28c-1.76,0-3.52,0-5.29.05a76.13,76.13,0,0,0-25.48-23.35A75.93,75.93,0,0,1,132.37,133c-24.83,1.33-47.38,5.22-62.22,12.1L54.4,90.79c-13.58,49.66-13.34,78.06,3.94,130l-27.57-7.09c-3.32-8.16-4.87-22.05-4.87-35l-.3-.13a17.66,17.66,0,0,0-14.79-.17C-18.36,75.46,44-10.32,152.05,1,260.09-10.32,322.47,75.46,293.29,178.4Z"/><path class="cls-8" d="M149.93,269.85a22.29,22.29,0,0,1-9.07-2l-6.4-2.86a4.53,4.53,0,0,1,3.69-8.28l6.41,2.86a13,13,0,0,0,7.34,1,67.32,67.32,0,0,0,15.72-4.34A2.34,2.34,0,0,0,168.9,255a2.39,2.39,0,0,0,0-1.82c-9.42-23.47-16.09-42.25-16.09-70.28a4.53,4.53,0,1,1,9.06,0c0,26.46,6.11,43.67,15.44,66.91A11.44,11.44,0,0,1,171,264.71a76.54,76.54,0,0,1-17.68,4.87A21.3,21.3,0,0,1,149.93,269.85Z"/><path class="cls-4" d="M152.05,289.25a186.92,186.92,0,0,1-39.23-4,40.17,40.17,0,0,0,78.47,0A186.94,186.94,0,0,1,152.05,289.25Z"/><path class="cls-7" d="M76.89,178.58l-4.82-9.41c11.31-5.79,26.54-9.24,40.75-9.24V170.5C100.39,170.5,86.63,173.6,76.89,178.58Z"/><path class="cls-7" d="M227.22,178.58c-9.74-5-23.51-8.08-35.93-8.08V159.93c14.21,0,29.44,3.45,40.75,9.24Z"/></g></g></svg>