<svg xmlns="http://www.w3.org/2000/svg" viewBox="0 0 299.56 502.99"><defs><style>.cls-1{fill:#616794;}.cls-2{fill:#eee;}.cls-3{fill:#23a79b;}.cls-4{fill:#ffe1b4;}.cls-5{fill:#424242;}.cls-6{fill:#fff3e1;}.cls-7{fill:#36474f;}.cls-8{fill:#61647c;}.cls-9{fill:#ebbb79;}.cls-10{fill:#fff;}</style></defs><g id="Layer_2" data-name="Layer 2"><g id="Layer_2-2" data-name="Layer 2"><path class="cls-1" d="M99.32,376.11A94.49,94.49,0,0,0,4.89,467.23L3.61,503H296l-1.28-35.76a94.49,94.49,0,0,0-94.43-91.12Z"/><path class="cls-2" d="M149.79,390.84,98,430.71,126.18,503h47.2l28.23-72.28Z"/><path class="cls-2" d="M149.79,390.84c-39.57,30.44-28.27,21.74-51.82,39.87L77.62,378.65l21.74-22Z"/><path class="cls-2" d="M222,378.65l-20.34,52.06-51.82-39.87,50.42-34.22Z"/><polygon class="cls-3" points="149.78 390.85 124.64 410.19 133.28 441.31 166.28 441.31 174.92 410.19 149.78 390.85"/><polygon class="cls-3" points="166.28 441.31 133.28 441.31 119.35 485.5 126.18 502.99 173.38 502.99 180.21 485.5 166.28 441.31"/><path class="cls-4" d="M215.57,24H84A52.78,52.78,0,0,0,31.22,76.81v141a144.62,144.62,0,0,0,29.12,87l39,51.78,50.43,34.22,50.42-34.22,39-51.78a144.56,144.56,0,0,0,29.13-87v-141A52.8,52.8,0,0,0,215.57,24Z"/><path class="cls-4" d="M31.22,217.8V169.67H12.59a12.6,12.6,0,0,0-11.37,18c23.66,49.87,22.51,51,31.48,51A154.14,154.14,0,0,1,31.22,217.8Z"/><path class="cls-4" d="M287,169.67h-18.6V217.8a145,145,0,0,1-1.54,20.86c9,0,7.86-1.14,31.52-51A12.6,12.6,0,0,0,287,169.67Z"/><path class="cls-5" d="M149.78,68c-44.54,0-36.08-27.69-76.26-27.69-42.6,0-42.3,129.39-42.3,129.39H15.62V73a73,73,0,0,1,73-73H211a73,73,0,0,1,73,73v96.7h-15.6s.3-129.39-42.3-129.39C185.86,40.28,194.32,68,149.78,68Z"/><path class="cls-6" d="M53.62,164.14v.2a46.87,46.87,0,0,0,15,34.35l.67.63A47.37,47.37,0,0,0,101.49,212h18.4a16.82,16.82,0,0,0,16.81-16.81v-31Z"/><path class="cls-6" d="M244.45,164.14v.2a46.87,46.87,0,0,1-15,34.35l-.67.63A47.37,47.37,0,0,1,196.58,212h-18.4a16.82,16.82,0,0,1-16.81-16.81v-31Z"/><path class="cls-1" d="M255,168.67H156.84v-4.53a7.81,7.81,0,0,0-15.61,0v4.53H44.56a4.53,4.53,0,0,1,0-9.06h88.23a16.86,16.86,0,0,1,32.49,0H255a4.53,4.53,0,1,1,0,9.06Z"/><path class="cls-7" d="M63.43,150.58l-3-10.14A164.94,164.94,0,0,1,114,134.19l-.59,10.56A153.91,153.91,0,0,0,63.43,150.58Z"/><path class="cls-7" d="M236.12,150.58a153.85,153.85,0,0,0-50-5.83l-.59-10.56a164.94,164.94,0,0,1,53.55,6.25Z"/><path class="cls-8" d="M112.79,185a10.07,10.07,0,1,0-10.07,10.07A10.07,10.07,0,0,0,112.79,185Z"/><circle class="cls-8" cx="195.35" cy="185.03" r="10.07"/><path class="cls-9" d="M153.33,256.44H130.92a4.54,4.54,0,0,1,0-9.07h22.41a3.28,3.28,0,0,0,2.82-5l-4.34-7.21A40.46,40.46,0,0,1,146,214.34v-21a4.54,4.54,0,0,1,9.07,0v21a31.33,31.33,0,0,0,4.49,16.17l4.34,7.2a12.36,12.36,0,0,1-10.59,18.73Z"/><path class="cls-5" d="M149.79,263.83l-49.34,4-4.83,27.42,21.25-15.34c6.69,2,21.84,3.82,32.92,3.82s26.23-1.86,32.92-3.82L204,295.28l-4.83-27.42Z"/><path class="cls-10" d="M182.66,280c-.76,15.35-15.18,27.57-32.87,27.57S117.68,295.3,116.92,280c6.71,2,21.83,3.81,32.87,3.81S176,281.92,182.66,280Z"/></g></g></svg>