<svg xmlns="http://www.w3.org/2000/svg" viewBox="0 0 315.24 511.49"><defs><style>.cls-1{fill:#80deea;}.cls-2{fill:#00acc0;}.cls-3{fill:#ffccbe;}.cls-4{fill:#6d4d41;}.cls-5{fill:#ffab91;}.cls-6{fill:#fff;}.cls-7{fill:#795547;}</style></defs><g id="Layer_2" data-name="Layer 2"><g id="Layer_2-2" data-name="Layer 2"><path class="cls-1" d="M192.75,400.23H122.48A110.14,110.14,0,0,0,12.34,510.38v1.11H302.9C302.9,447.5,252,400.23,192.75,400.23Z"/><path class="cls-2" d="M234.43,408.41,157.62,492,80.81,408.41a110.43,110.43,0,0,1,24.13-6.78L157.62,459l52.67-57.34A110.45,110.45,0,0,1,234.43,408.41Z"/><path class="cls-3" d="M315.24,231.85a40.23,40.23,0,0,0-22.58-36.15V107.6a74.37,74.37,0,0,0-74.41-74.42H97a72.62,72.62,0,0,0-7.85.42,73.4,73.4,0,0,0-10.45,1.85A74.45,74.45,0,0,0,22.57,107.6v88.1a40.24,40.24,0,0,0,1.93,73.19c8.13,51.62,40.09,85.25,79.27,100.89,11.49,4.59,20.07,15.67,20.07,30.45a111.41,111.41,0,0,0-18.9,1.4L157.62,459l52.67-57.34a111,111,0,0,0-18.9-1.4c0-14.73,8.55-25.85,20.07-30.45,39.19-15.64,71.15-49.27,79.28-100.89A40.24,40.24,0,0,0,315.24,231.85Z"/><path class="cls-4" d="M239.87,36.38a84,84,0,0,1,17,.91C223.38,15,189.9,9.11,155.32,26.52,154.38,14.27,157.84,7.18,171.05,0a60.38,60.38,0,0,0-52.28,32.41A60.3,60.3,0,0,0,50,30.27a46,46,0,0,1,28.71,5.18A74.45,74.45,0,0,0,22.57,107.6v88.09C56.84,181.5,63,135.71,63,93.37c41.88,22.9,91.75,30.26,163.07,29.42C209.47,110,201.61,102.21,193.86,86c68.07,30.12,59.87,100.83,98.8,109.7V107.6A74.44,74.44,0,0,0,239.87,36.38Z"/><path class="cls-5" d="M151.37,293a4.54,4.54,0,0,1-1.57-8.79c8.66-3.19,22.24-13.75,28.06-22.79-21.45-22.16-30.08-46.47-32.67-90.9a4.53,4.53,0,1,1,9-.53c2.57,44.06,10.76,66.13,32.43,87.43l2.3,2.26-1.38,2.91c-5.62,11.84-23.24,25.92-34.64,30.13A4.57,4.57,0,0,1,151.37,293Z"/><path class="cls-4" d="M78.57,182.32l-6.35-8.45a77.66,77.66,0,0,1,47-15.66v10.57A67.18,67.18,0,0,0,78.57,182.32Z"/><path class="cls-4" d="M233.59,183.81A67.18,67.18,0,0,0,193,170.27V159.7a77.63,77.63,0,0,1,47,15.66Z"/><path class="cls-6" d="M113.13,310.45a53,53,0,0,0,92.35,0Z"/><circle class="cls-5" cx="90.89" cy="281.02" r="22.35" transform="translate(-172.09 146.58) rotate(-45)"/><circle class="cls-5" cx="225.74" cy="281.02" r="22.35" transform="translate(-87.95 458.6) rotate(-80.74)"/><circle class="cls-7" cx="107" cy="208.11" r="13.32"/><circle class="cls-7" cx="205.91" cy="208.11" r="13.32"/></g></g></svg>