<svg xmlns="http://www.w3.org/2000/svg" viewBox="0 0 313.02 511.19"><defs><style>.cls-1{fill:#e0e0e0;}.cls-2{fill:#27a79a;}.cls-3{fill:#ffccbe;}.cls-4{fill:#eee;}.cls-5{fill:#019688;}.cls-6{fill:#465a65;}.cls-7{fill:#424242;}.cls-8{fill:#ffab91;}.cls-9{fill:#fff;}.cls-10{fill:#36474f;}.cls-11{fill:#606896;}</style></defs><g id="Layer_2" data-name="Layer 2"><g id="Layer_2-2" data-name="Layer 2"><path class="cls-1" d="M146.4,465.05l-2.46,13.06A88,88,0,0,1,73.75,420c7.48-1.35,11.56-1.1,26-1.1l28.39,46.15,12.56-15.85Z"/><path class="cls-1" d="M239.8,420a87.93,87.93,0,0,1-70.75,58.19l-2.43-13.14,5.71-15.85,12.57,15.85,28.38-46.15C228.13,418.9,232.28,418.64,239.8,420Z"/><path class="cls-2" d="M296.49,488v23.19H17V488a69.15,69.15,0,0,1,44.69-64.67,100.35,100.35,0,0,0,190.09,0A69.09,69.09,0,0,1,296.49,488Z"/><path class="cls-3" d="M111.92,38.37a78.86,78.86,0,0,0-55.76,23.1l-.47.46A78.85,78.85,0,0,0,32.6,117.69V203c-23.07,0-31,6.25-32.4,21.78s3.89,35,32.4,35v5.71c0,66.94,76.4,86.76,79.72,136.59l44.19,27.23L200.7,402c3.33-49.83,79.72-69.65,79.72-136.59v-5.71c28.51,0,33.78-19.46,32.4-35S303.49,203,280.42,203V117.69a78.85,78.85,0,0,0-23.09-55.76l-.47-.46a78.86,78.86,0,0,0-55.76-23.1Z"/><path class="cls-4" d="M156.51,429.27,140.69,449.2l-12.56,15.85L99.74,418.9l12.58-16.84C146.54,423.12,135.85,416.54,156.51,429.27Z"/><path class="cls-4" d="M213.28,418.9,184.9,465.05c-15.48-19.52-9-11.39-28.39-35.78L200.68,402Z"/><path class="cls-5" d="M251.82,423.35a100.35,100.35,0,0,1-190.09,0,70,70,0,0,1,12-3.33,87.89,87.89,0,0,0,166.05,0A70,70,0,0,1,251.82,423.35Z"/><path class="cls-6" d="M281,203a90.8,90.8,0,0,1,9.16.42V97.47c0-25.41-15.8-44.09-41.83-51.32,4.94-3.77,8.3-4.91,15-5.71C248.17,26.93,222.62,25.15,198,32.66,208.25,22.6,216.3,19,232.2,14c-39.31-1.2-60.74.68-96.43,14.51C152.72,14.23,163.78,8.36,185,0,101.52,7,23.44,43.55,23.44,97.47V203.39A90.8,90.8,0,0,1,32.6,203a50.51,50.51,0,0,0,20.74-40.8V115.61c0-38.88,56.09-63.25,103.44-63.25s103.43,24.37,103.43,63.25v46.56A50.51,50.51,0,0,0,281,203Z"/><circle class="cls-7" cx="109.85" cy="206.08" r="12.44" transform="translate(-123.14 221.95) rotate(-65.84)"/><circle class="cls-7" cx="203.17" cy="206.08" r="12.44" transform="translate(-86.22 204.02) rotate(-45)"/><path class="cls-8" d="M162.21,282.88c-19.18,0-29.63-14.22-30.07-14.82a4.47,4.47,0,1,1,7.26-5.23c.33.44,8.32,11.1,22.81,11.1,11.07,0,16.91-6.68,17.79-13.3.71-5.29-1.7-11.8-10.55-14.2a15.83,15.83,0,0,1-11.71-15.24V186.64a4.48,4.48,0,0,1,8.95,0v44.55a6.86,6.86,0,0,0,5.1,6.6c13.52,3.66,18.32,14.7,17.08,24C187.52,272,178.61,282.88,162.21,282.88Z"/><path class="cls-9" d="M108.51,300.7l7.27,7.64A56.12,56.12,0,0,0,147.26,325l.28,0a56.55,56.55,0,0,0,18.45,0l.28,0a56.18,56.18,0,0,0,31.49-16.7L205,300.7C167.3,303.53,146.24,303.53,108.51,300.7Z"/><circle class="cls-8" cx="79.26" cy="282.55" r="17.63" transform="matrix(0.99, -0.16, 0.16, 0.99, -44.4, 16.42)"/><circle class="cls-8" cx="234.29" cy="282.55" r="17.63" transform="translate(-82.26 468.37) rotate(-80.75)"/><path class="cls-10" d="M81.64,181.39,76,172.58c18.19-11.6,30.31-15.45,51.87-16.44l.48,10.43C108.71,167.48,98.23,170.8,81.64,181.39Z"/><path class="cls-10" d="M231.38,181.39c-16.59-10.59-27.07-13.91-46.72-14.82l.48-10.43c21.55,1,33.67,4.84,51.86,16.44Z"/><path class="cls-11" d="M172.33,449.2l-15.82-19.93L140.69,449.2l5.71,15.85-2.46,13.06a88.34,88.34,0,0,0,25.11.08l-2.43-13.14Z"/></g></g></svg>