<svg xmlns="http://www.w3.org/2000/svg" viewBox="0 0 356.15 487.69"><defs><style>.cls-1{fill:#23a79b;}.cls-2{fill:#ffccbf;}.cls-3{fill:#ffb856;}.cls-4{fill:#ffab91;}.cls-5{fill:#6d4d42;}.cls-6{fill:#ffab92;}.cls-7{fill:#fff;}</style></defs><g id="Layer_2" data-name="Layer 2"><g id="Layer_2-2" data-name="Layer 2"><path class="cls-1" d="M234.29,372.08H158.87A109.44,109.44,0,0,0,49.43,481.52v6.17h294.3v-6.17A109.44,109.44,0,0,0,234.29,372.08Z"/><path class="cls-2" d="M356.15,197.87c0-16.87-10.24-31.26-24.6-36.81V116.5c0-38.47-32.78-69.64-73.21-69.64H134.81c-40.43,0-73.2,31.18-73.2,69.64v44.56C47.24,166.61,37,181,37,197.87s10.35,31.43,24.84,36.91A76.13,76.13,0,0,0,84.3,282.91l45.81,45.57a80.56,80.56,0,0,1,22.81,43.78,109.89,109.89,0,0,0-25.41,4.4,69.22,69.22,0,0,0,138.13,0,109.89,109.89,0,0,0-25.41-4.4A80.56,80.56,0,0,1,263,328.48l45.82-45.57a76.18,76.18,0,0,0,22.45-48.13C345.8,229.3,356.15,214.84,356.15,197.87Z"/><path class="cls-3" d="M338.39,164.57a38.05,38.05,0,0,0-6.84-3.51c0-15.13-6.8-44.75-18.13-56.84C186.81,169.4,112.9,84.43,156.33,55.13c-40,12.09-94.72,27.55-94.72,105.93a36.67,36.67,0,0,0-8,4.31V92.89c0-32.47-17.34-50.6-40-64.19H49.42C32,14.86,21.19,8.55,0,0H253.76c55.13,0,84.59,36.25,84.59,82.68Z"/><path class="cls-4" d="M206.18,250H177a19.13,19.13,0,0,1-19.11-19.11v-4.82A19.13,19.13,0,0,1,177,206.94h.29a10.06,10.06,0,0,0,10.05-10.05v-46.6a4.53,4.53,0,0,1,9.06,0v46.6A19.13,19.13,0,0,1,177.25,216H177a10.06,10.06,0,0,0-10.05,10.05v4.82a10.06,10.06,0,0,0,10.05,10h29.22a4.53,4.53,0,0,1,0,9.06Z"/><circle class="cls-5" cx="143.5" cy="177.11" r="13.59"/><circle class="cls-5" cx="249.66" cy="177.11" r="13.59"/><circle class="cls-6" cx="116.31" cy="244.08" r="20.53" transform="translate(-53.26 33.49) rotate(-13.36)"/><circle class="cls-6" cx="276.85" cy="244.08" r="20.53" transform="translate(-91.51 267.25) rotate(-45)"/><path class="cls-7" d="M137.64,273.23c4.64,14.94,29.25,26.35,58.94,26.35s54.29-11.41,58.94-26.35Z"/></g></g></svg>