<svg xmlns="http://www.w3.org/2000/svg" viewBox="0 0 311.71 506.2"><defs><style>.cls-1{fill:#e57373;}.cls-2{fill:#ffcdd2;}.cls-3{fill:#f09a9b;}.cls-4{fill:#36474f;}.cls-5{fill:#465a65;}.cls-6{fill:#fff;}</style></defs><g id="Layer_2" data-name="Layer 2"><g id="Layer_2-2" data-name="Layer 2"><path class="cls-1" d="M121.13,396.17A108.93,108.93,0,0,0,12.2,505.09v1.11H299.51v-1.11A108.93,108.93,0,0,0,190.58,396.17Z"/><path class="cls-2" d="M311.71,229.66a39.8,39.8,0,0,0-22.29-35.74c0-12.28,0-27.23,0-45.49A115.36,115.36,0,0,0,174.06,33.11H137.65A115.36,115.36,0,0,0,22.3,148.43c0,18.26,0,33.21,0,45.49a39.8,39.8,0,0,0,1.94,72.37c8,51,39.64,84.3,78.39,99.77,11.36,4.53,19.85,15.49,19.85,30.11a111,111,0,0,0-18.69,1.39c-1.77.29-3.53.61-5.28,1a57.36,57.36,0,0,0,114.71,0c-1.75-.37-3.51-.69-5.29-1a110.76,110.76,0,0,0-18.68-1.39c0-14.62,8.49-25.58,19.85-30.11,38.75-15.47,70.35-48.72,78.39-99.77A39.81,39.81,0,0,0,311.71,229.66Z"/><path class="cls-3" d="M148.46,272.87l-1.1,0A46.88,46.88,0,0,1,136.48,271a4.53,4.53,0,0,1,2.53-8.7,37.31,37.31,0,0,0,8.76,1.45,13.94,13.94,0,0,0,12.59-6.49,14.89,14.89,0,0,0,.86-14.88C151,222,148.36,198.88,152,162.79a4.53,4.53,0,0,1,9,.9c-3.48,34.7-1.14,55.64,8.33,74.7A23.86,23.86,0,0,1,168,262.25,23.11,23.11,0,0,1,148.46,272.87Z"/><path class="cls-4" d="M76.12,177.39,71.23,168a76.83,76.83,0,0,1,48.4-7.73l-1.72,10.43A66.32,66.32,0,0,0,76.12,177.39Z"/><path class="cls-4" d="M235.59,177.39a66.33,66.33,0,0,0-41.79-6.68l-1.72-10.43a76.83,76.83,0,0,1,48.4,7.73Z"/><circle class="cls-4" cx="98.45" cy="206.18" r="13.18"/><circle class="cls-4" cx="213.26" cy="206.18" r="13.18"/><path class="cls-5" d="M136.45,425.64A104.31,104.31,0,0,1,33,334.59l-8.75-68.3L63.8,320.71c15.77-16,42-35,92.05-35s76.29,19.09,92.06,35l39.57-54.42-8.75,68.3a104.31,104.31,0,0,1-103.47,91.05Z"/><path class="cls-6" d="M110.19,307.39a52.47,52.47,0,0,0,91.33,0Z"/><path class="cls-5" d="M155.85.05C9.34-2.61,22.29,101.37,22.29,193.92H46.8c0-72-.1-66.69.25-71.14a152.58,152.58,0,0,0,108.8-73.73,152.62,152.62,0,0,0,108.81,73.73c.35,4.45.25-.89.25,71.14h24.51C289.42,101.37,302.37-2.61,155.85.05Z"/></g></g></svg>