<svg xmlns="http://www.w3.org/2000/svg" viewBox="0 0 298.35 489.41"><defs><style>.cls-1{fill:#64b5f6;}.cls-2{fill:#bbdefa;}.cls-3{fill:#ffccbe;}.cls-4{fill:#6d4d41;}.cls-5{fill:#36474f;}.cls-6{fill:#ffab91;}.cls-7{fill:#fff;}</style></defs><g id="Layer_2" data-name="Layer 2"><g id="Layer_2-2" data-name="Layer 2"><path class="cls-1" d="M205.5,388.34H106.34a89.45,89.45,0,0,0-89.45,89.45v11.62H295V477.79A89.45,89.45,0,0,0,205.5,388.34Z"/><path class="cls-2" d="M155.93,463l-41.54-34.25L94.71,412.54,59.61,448.6,79.54,385l32.88-15.66a44.27,44.27,0,0,1,2,13v15Z"/><path class="cls-2" d="M155.93,463l41.53-34.25,19.68-16.22,35.1,36.06L232.31,385l-32.88-15.66a44.27,44.27,0,0,0-2,13v15Z"/><path class="cls-3" d="M101.45,58.14a57.28,57.28,0,0,0-57.28,57.28V203H20.93v32.69a25.25,25.25,0,0,0,15.92,23.46l7.32,2.91v23.45a50.8,50.8,0,0,0,23.5,42.84L94,345.13c12.73,8.46,20.44,21.81,20.44,37.25v32.23l41.54,48,41.53-48V382.38c0-15.44,7.71-28.79,20.44-37.25l26.28-16.74a50.78,50.78,0,0,0,23.5-42.84V262.1l7.32-2.91a25.25,25.25,0,0,0,15.92-23.46V203H267.68V115.42A57.28,57.28,0,0,0,210.4,58.14Z"/><path class="cls-4" d="M44.17,234.36C-31,166-2.56,36.49,72.18,35.77,86.41-7.64,150.47-10.49,180.37,21.54c42-27,110.32,13.52,98.93,76.87,8.08-12.13,11.28-19.93,15.65-34.88,9.42,69.52-1.11,106.29-27.28,170.83l-21.82-47c52.5-76.63-15.74-123.07-66.91-66.19L191,81.33c-61.78,4.87-83.42,23.36-113.88,66.19-5-25-3.75-38.31,6.41-60.5-46.15,19.46-46.15,67.86-24,101.07Z"/><circle class="cls-5" cx="101.36" cy="204.7" r="13.76" transform="translate(-31.57 18.94) rotate(-9.24)"/><circle class="cls-5" cx="193.4" cy="204.7" r="13.76" transform="translate(-39.71 362.7) rotate(-80.76)"/><path class="cls-4" d="M78.35,176.72l-6.18-8.57c10.5-7.57,24.75-12.47,40.13-13.8l.9,10.54C99.7,166.05,87.33,170.26,78.35,176.72Z"/><path class="cls-4" d="M216.4,176.72c-9-6.46-21.35-10.67-34.85-11.83l.91-10.54c15.38,1.33,29.63,6.23,40.13,13.8Z"/><path class="cls-6" d="M164.47,264.9h-18A18.15,18.15,0,0,1,129.31,241c1.3-3.89,2.78-7.84,4.21-11.67,7.2-19.22,14.64-39.1,5.77-65.92a4.53,4.53,0,1,1,8.6-2.85c9.88,29.85,1.51,52.22-5.88,72-1.47,3.92-2.85,7.62-4.1,11.36a9.08,9.08,0,0,0,8.6,12h18a4.53,4.53,0,1,1,0,9.06Z"/><path class="cls-7" d="M155.93,286.79a189.64,189.64,0,0,1-49.49-6.26,55,55,0,0,0,99,0A189.61,189.61,0,0,1,155.93,286.79Z"/><circle class="cls-6" cx="80.48" cy="270.66" r="16.13"/><circle class="cls-6" cx="231.36" cy="270.66" r="16.13"/></g></g></svg>