<svg xmlns="http://www.w3.org/2000/svg" viewBox="0 0 312.11 503"><defs><style>.cls-1{fill:#ff8a66;}.cls-2{fill:#efebea;}.cls-3{fill:#a1897f;}.cls-4{fill:#36474f;}.cls-5{fill:#424242;}.cls-6{fill:#795547;}.cls-7{fill:#8e6e62;}</style></defs><g id="Layer_2" data-name="Layer 2"><g id="Layer_2-2" data-name="Layer 2"><path class="cls-1" d="M120.43,391.06A110.83,110.83,0,0,0,9.6,501.88V503H302.51v-1.12A110.83,110.83,0,0,0,191.68,391.06Z"/><path class="cls-2" d="M120.43,391.06a110.27,110.27,0,0,0-54.24,14.19,100.31,100.31,0,0,0,89.86,57.87,100.31,100.31,0,0,0,89.87-57.87,110.27,110.27,0,0,0-54.24-14.19Z"/><path class="cls-3" d="M312.11,207.37c0-18.84-12.57-30.42-29.78-33.94h0C262.09,145.62,252,127.26,243.54,100A22,22,0,0,0,220.7,84.7c-17.54,1.53-44.4,3.52-64.65,3.57s-47.1-2-64.64-3.57A22,22,0,0,0,68.57,100C60.1,127.26,50,145.62,29.78,173.42h0C12.57,177,0,188.53,0,207.37a41.47,41.47,0,0,0,29.9,39.82c3.4,86.28,82.36,96.13,83.85,144.09A110.54,110.54,0,0,0,79.13,399a85.6,85.6,0,0,0,76.92,49.72A85.61,85.61,0,0,0,233,399a110.54,110.54,0,0,0-34.62-7.76c1.49-48,80.45-57.81,83.85-144.09A41.47,41.47,0,0,0,312.11,207.37Z"/><circle class="cls-4" cx="93.49" cy="200.22" r="12.2"/><circle class="cls-4" cx="218.62" cy="200.22" r="12.2"/><path class="cls-5" d="M156.05,88.27c-20.24,0-47.1-2-64.64-3.57A22,22,0,0,0,68.57,100C60.1,127.26,50,145.62,29.78,173.42V116.67A116.66,116.66,0,0,1,146.43,0h19.25A116.66,116.66,0,0,1,282.33,116.67v56.75C262.09,145.62,252,127.26,243.54,100A22,22,0,0,0,220.7,84.7C203.16,86.23,176.3,88.22,156.05,88.27Z"/><path class="cls-5" d="M68.23,183.3l-8.32-8.75c11.73-11.16,27.13-16.82,45.77-16.82v12.08C90.24,169.81,77.64,174.35,68.23,183.3Z"/><path class="cls-5" d="M243.88,183.3c-9.41-9-22-13.49-37.45-13.49V157.73c18.64,0,34,5.66,45.77,16.82Z"/><path class="cls-6" d="M171.74,275.17H150A14.15,14.15,0,0,1,135.84,261v-6.22A34.17,34.17,0,0,1,139.76,239c9.23-17.59,9.71-29.31,2.15-52.28l8.61-2.83c8.29,25.17,7.62,39.59-2.73,59.32a25.11,25.11,0,0,0-2.89,11.61V261a5.08,5.08,0,0,0,5.07,5.07h21.77Z"/><path class="cls-2" d="M156.05,299.82c-11.87,0-23.83-.35-39.05-1a42.53,42.53,0,0,0,39.05,27.64,42.53,42.53,0,0,0,39.06-27.64C179.89,299.47,167.93,299.8,156.05,299.82Z"/><circle class="cls-7" cx="84.68" cy="280.01" r="18.41" transform="translate(-43.92 17.26) rotate(-9.25)"/><circle class="cls-7" cx="227.43" cy="280.01" r="18.41" transform="translate(-85.51 459.45) rotate(-80.75)"/></g></g></svg>