<svg xmlns="http://www.w3.org/2000/svg" viewBox="0 0 296.08 509.03"><defs><style>.cls-1{fill:#ff8a67;}.cls-2{fill:#ffcdd2;}.cls-3{fill:#fff;}.cls-4{fill:#ffebed;}.cls-5{fill:#36474f;}.cls-6{fill:#f09a9b;}.cls-7{fill:#a3857c;}.cls-8{fill:#6d4d42;}</style></defs><g id="Layer_2" data-name="Layer 2"><g id="Layer_2-2" data-name="Layer 2"><path class="cls-1" d="M0,509v-1.12a110.7,110.7,0,0,1,110.7-110.7h70.07a110.71,110.71,0,0,1,110.71,110.7V509Z"/><path class="cls-2" d="M271.55,182H264V102.41a71.49,71.49,0,0,0-71.49-71.49H99.1a71.5,71.5,0,0,0-71.51,71.49V182H20.05c-7.83,0-14.18,6-14.18,13.39l3.76,48.94a18.66,18.66,0,0,0,14.71,16.47l5,1.16a94.76,94.76,0,0,0,22,44.83l35.22,39.9a64.79,64.79,0,0,1,16.24,42.9v13.71a54.17,54.17,0,0,0-15,3.88c4.6,27.34,11.64,42.22,36.82,59.21L145.74,509l21.08-42.66c25.18-17,32.23-31.87,36.82-59.21a53.59,53.59,0,0,0-14.8-3.86V389.57a64.85,64.85,0,0,1,16.24-42.9l35.24-39.9a94.75,94.75,0,0,0,22-44.85l4.93-1.14A18.67,18.67,0,0,0,282,244.31l3.77-48.94C285.76,188,279.4,182,271.55,182Z"/><path class="cls-3" d="M62.91,497.48c.74-37.74,2.78-59.46-.62-95.71,11.46-7.36,27.27-10.54,40.5-11.44v12.95a54.17,54.17,0,0,0-15,3.88c4.6,27.34,11.64,42.22,36.82,59.21C98.9,475,85.21,481.37,62.91,497.48Z"/><path class="cls-3" d="M228.57,497.48c-.74-37.74-2.79-59.46.62-95.71-11.46-7.36-27.28-10.54-40.5-11.44v12.95a54,54,0,0,1,14.95,3.88c-4.59,27.34-11.64,42.22-36.82,59.21C192.58,475,206.26,481.37,228.57,497.48Z"/><path class="cls-4" d="M99.08,220.06H72.94c-13.4,0-24.26-10.06-24.26-22.47V170.25c33.34-7.86,51.86-7.86,85.21,0v17.57C133.89,205.63,118.31,220.06,99.08,220.06Z"/><path class="cls-4" d="M192.55,220.06h26.13c13.41,0,24.27-10.06,24.27-22.47V170.25c-33.35-7.86-51.87-7.86-85.21,0v17.57C157.74,205.63,173.32,220.06,192.55,220.06Z"/><path class="cls-5" d="M48.67,174.78a4.53,4.53,0,0,1-1-8.94c33.68-7.94,53.23-8,86.78-.12h22.79c33.55-7.86,53.1-7.82,86.78.12a4.53,4.53,0,1,1-2.08,8.82c-32.63-7.69-50.5-7.69-83.13,0l-.52.12h-24.9l-.51-.12c-32.63-7.69-50.5-7.69-83.14,0A4.55,4.55,0,0,1,48.67,174.78Z"/><path class="cls-6" d="M155.55,277.5c-13.57,0-24-3.75-30.86-11.15a11.87,11.87,0,0,1-2-13.33c9-18.16,12.29-30.64,14.08-53.45a4.53,4.53,0,0,1,9,.71c-1.9,24.14-5.4,37.41-15,56.76a2.78,2.78,0,0,0,.45,3.12c5.2,5.57,13.13,8.27,24.24,8.27a4.54,4.54,0,0,1,0,9.07Z"/><path class="cls-3" d="M102.09,295.12a47.63,47.63,0,0,0,87.44,0Z"/><circle class="cls-6" cx="73.57" cy="272.59" r="18.07"/><circle class="cls-6" cx="215.89" cy="272.59" r="18.07"/><circle class="cls-7" cx="94.03" cy="191.26" r="11.04" transform="translate(-41.31 26.62) rotate(-13.24)"/><circle class="cls-7" cx="197.44" cy="191.26" r="11.04" transform="translate(-33.96 339.65) rotate(-76.76)"/><path class="cls-8" d="M15,182.68V92.11C15,49.86,59,7.53,122.14,0c0,0-22.56,9.73-32.38,21.84C125.42,7.52,147.18,6.73,186.9,9a35,35,0,0,0-9,12c28.76-12.24,63.59-4.92,75.3,26.36,23.65-2,35.62,15.7,42.92,31.63-8-4.32-15.69-4.86-22.07-1.64V182.18l-10-.2-4.5-14.36a218.06,218.06,0,0,1-10-65.15V72.57c-16,14.78-40.16,9.6-50.67-3.65-6,52.31-103.13,68.13-159.33,29.73V108a218.14,218.14,0,0,1-7,54.77L27.6,182Z"/></g></g></svg>