<svg xmlns="http://www.w3.org/2000/svg" viewBox="0 0 314.56 512"><defs><style>.cls-1{fill:#e57373;}.cls-2{fill:#ffccbe;}.cls-3{fill:#fff;}.cls-4{fill:#424242;}.cls-5{fill:#01685c;}.cls-6{fill:#ffab91;}.cls-7{fill:#6d4d41;}</style></defs><g id="Layer_2" data-name="Layer 2"><g id="Layer_2-2" data-name="Layer 2"><path class="cls-1" d="M195.22,419.43H119.33a91.64,91.64,0,0,0-91.65,91.64V512H286.86v-.93A91.64,91.64,0,0,0,195.22,419.43Z"/><path class="cls-2" d="M304.35,211.3a10.54,10.54,0,0,0-1.62-.22L287,210h-.1v-.24c-12.26-33.73-78-43.78-93.81-103.64C177.15,163.78,66.64,133.57,27.68,210l-15.87,1.06a10.89,10.89,0,0,0-1.62.22,12.65,12.65,0,0,0-10,14.39l3.45,22a30.35,30.35,0,0,0,27.46,25.53,109.19,109.19,0,0,0,31.85,53.33l43.6,40.12a44.86,44.86,0,0,1,14.47,33v38.5h72.57v-38.5a44.86,44.86,0,0,1,14.47-33l43.6-40.12a109.26,109.26,0,0,0,31.85-53.33,30.34,30.34,0,0,0,27.46-25.53l3.46-22A12.67,12.67,0,0,0,304.35,211.3Z"/><polygon class="cls-3" points="120.99 408.65 157.27 438.33 120.83 473.31 97.17 422.13 120.99 408.65"/><polygon class="cls-3" points="193.56 408.65 157.27 438.33 193.71 473.31 217.37 422.13 193.56 408.65"/><path class="cls-4" d="M304.35,166.88V211.3a10.54,10.54,0,0,0-1.62-.22L287,210a2.6,2.6,0,0,0-.1-.25c-12.26-33.73-78-43.78-93.81-103.64C177.15,163.78,66.64,133.57,27.68,210l-15.87,1.06a10.89,10.89,0,0,0-1.62.22V166.88a115.11,115.11,0,0,1,93-112.83c.62-30,24.58-54,54-54s53.43,24.09,54,54.05A115.12,115.12,0,0,1,304.35,166.88Z"/><ellipse class="cls-5" cx="109.17" cy="218.63" rx="11.66" ry="15.11"/><ellipse class="cls-5" cx="199.01" cy="218.63" rx="11.66" ry="15.11"/><path class="cls-6" d="M146.94,280a4.53,4.53,0,0,1-2.72-8.16c2.24-1.68,5.73-2.74,9.77-4,3.36-1,12.27-3.73,12.27-5.92,0-1.36-1.11-2.15-5.94-4.19-6.18-2.62-15.53-6.58-15.53-19.66V215.45a4.53,4.53,0,0,1,9.06,0v22.66c0,6.75,3.62,8.61,10,11.31,4.83,2.05,11.46,4.86,11.46,12.54,0,8.91-10.8,12.19-18.69,14.59-2.68.82-6,1.83-7,2.55A4.54,4.54,0,0,1,146.94,280Z"/><path class="cls-3" d="M157.27,300.56a233.53,233.53,0,0,1-39.44-3.22,41.85,41.85,0,0,0,78.89,0A233.57,233.57,0,0,1,157.27,300.56Z"/><circle class="cls-6" cx="228.03" cy="294.16" r="16.96"/><circle class="cls-6" cx="86.52" cy="294.16" r="16.96"/><path class="cls-7" d="M76,190.86l-4.33-9.64c11.56-5.21,31.94-10.56,49.37-10l-.33,10.57C105.63,181.31,86.79,186,76,190.86Z"/><path class="cls-7" d="M238.58,190.86c-10.82-4.87-29.66-9.54-44.7-9.08l-.33-10.57c17.43-.56,37.81,4.8,49.37,10Z"/></g></g></svg>