<svg xmlns="http://www.w3.org/2000/svg" viewBox="0 0 334.53 476.15"><defs><style>.cls-1{fill:#27a79a;}.cls-2{fill:#ffcdd2;}.cls-3{fill:#ffa827;}.cls-4{fill:#4f332f;}.cls-5{fill:#fff;}.cls-6{fill:#8e6e62;}.cls-7{fill:#f09a9b;}</style></defs><g id="Layer_2" data-name="Layer 2"><g id="Layer_2-2" data-name="Layer 2"><path class="cls-1" d="M202.13,385H132.41a90.22,90.22,0,0,0-90.22,90.22v.91H292.35v-.91A90.22,90.22,0,0,0,202.13,385Z"/><path class="cls-2" d="M86.88,453a41.65,41.65,0,0,0-22.49-37,89.88,89.88,0,0,0-22.2,59.24v.91H86.88Z"/><path class="cls-2" d="M292.35,476.15v-.91A89.83,89.83,0,0,0,270.15,416a41.66,41.66,0,0,0-22.49,37v23.16Z"/><path class="cls-3" d="M167.27,1.1c-71.22-7.55-109,22.66-147.5,120.84C2.22,166.68-10.44,256.62,12.15,309.51a28,28,0,0,0,51.54,2.88,28,28,0,0,0,50.3,0,28,28,0,0,0,50.3,0,27.88,27.88,0,0,0,3,4.8,27.88,27.88,0,0,0,3-4.8,28,28,0,0,0,50.3,0,28,28,0,0,0,50.3,0,28,28,0,0,0,51.51-2.88c22.62-52.89,10-142.83-7.59-187.57C276.26,23.76,238.49-6.45,167.27,1.1Z"/><path class="cls-2" d="M226.34,316l15.29-17.2A104.27,104.27,0,0,0,268,229.56V204a501,501,0,0,0-9.72-98.18l-1.33-6.63a5.45,5.45,0,0,0-9.28-2.71,23.47,23.47,0,0,1-38.15-5.88,23.47,23.47,0,0,1-42.22,0,23.47,23.47,0,0,1-42.22,0A23.47,23.47,0,0,1,86.9,96.47a5.45,5.45,0,0,0-9.28,2.71l-.14.71A561,561,0,0,0,66.57,210v19.53a104.27,104.27,0,0,0,26.34,69.28L108.2,316a103.27,103.27,0,0,1,26.07,68.58v.4h-1.86a89.89,89.89,0,0,0-53.58,17.63,110.34,110.34,0,0,0,176.88,0A89.87,89.87,0,0,0,202.13,385h-1.86v-.4A103.27,103.27,0,0,1,226.34,316Z"/><ellipse class="cls-4" cx="119.29" cy="176.82" rx="11.08" ry="14.35"/><ellipse class="cls-4" cx="215.25" cy="176.82" rx="11.08" ry="14.35"/><path class="cls-2" d="M72.64,228.71l-14.76-7.77c-12.14-6.38-20-20.87-20-36.89v-.43c0-9,6.06-16.36,13.53-16.36H72.64Z"/><path class="cls-2" d="M261.91,228.71l14.75-7.77c12.14-6.38,20-20.87,20-36.89v-.43c0-9-6.06-16.36-13.53-16.36H261.91Z"/><circle class="cls-5" cx="53.75" cy="261.9" r="11.57"/><circle class="cls-5" cx="280.79" cy="261.9" r="11.57"/><path class="cls-6" d="M53.75,253.35a3,3,0,0,1-3-3V208.42a3,3,0,0,1,6,0v41.91A3,3,0,0,1,53.75,253.35Z"/><path class="cls-6" d="M280.79,253.35a3,3,0,0,1-3-3V208.42a3,3,0,1,1,6,0v41.91A3,3,0,0,1,280.79,253.35Z"/><path class="cls-3" d="M95.49,147.72,89.56,139c9.46-6.42,30.48-12.5,43.24-12.5v10.58C122.11,137.05,103.28,142.43,95.49,147.72Z"/><path class="cls-3" d="M239.05,147.72c-7.79-5.29-26.62-10.67-37.31-10.67V126.47c12.77,0,33.78,6.08,43.25,12.5Z"/><path class="cls-7" d="M167.28,244.49a4.7,4.7,0,0,1-.92-.09c-.29-.06-28.32-6-32.18-18.28-.66-2.11-1.17-6.3,2.87-10.56,17.07-18,18.61-29.17,20.56-58.8a4.53,4.53,0,1,1,9,.6c-2.1,31.95-4.48,44.87-23,64.43-1,1-.85,1.46-.8,1.62.44,1.4,3.24,4.06,9.7,7a81.39,81.39,0,0,0,15.66,5.13,4.53,4.53,0,0,1-.91,9Z"/><path class="cls-5" d="M167.27,270c-14.72,0-28.3-1.81-39.18-4.85,4.65,13.95,20.42,24.22,39.18,24.22s34.54-10.27,39.18-24.22C195.57,268.16,182,270,167.27,270Z"/><circle class="cls-7" cx="226.33" cy="254.11" r="14.15" transform="translate(-52.33 58.8) rotate(-13.28)"/><circle class="cls-7" cx="105.14" cy="254.11" r="14.15" transform="translate(-169.86 254) rotate(-67.5)"/><path class="cls-6" d="M167.27,417.85a81.2,81.2,0,0,1-61-27.64,3,3,0,1,1,4.54-4,75.12,75.12,0,0,0,113,0,3,3,0,1,1,4.54,4A81.2,81.2,0,0,1,167.27,417.85Z"/><circle class="cls-5" cx="167.27" cy="414.83" r="11.85"/></g></g></svg>