<svg xmlns="http://www.w3.org/2000/svg" viewBox="0 0 342.31 498.66"><defs><style>.cls-1{fill:#ffa827;}.cls-2{fill:#616794;}.cls-3{fill:#465a65;}.cls-4{fill:#ffcdd2;}.cls-5{fill:#36474f;}.cls-6{fill:#f09a9b;}.cls-7{fill:#fff;}.cls-8{fill:#ffb856;}</style></defs><g id="Layer_2" data-name="Layer 2"><g id="Layer_2-2" data-name="Layer 2"><path class="cls-1" d="M70.84,413.05c8-35.3,27.56-60.14,57.8-72.23h75.53c21.86,17.63,33.76,29.88,49.24,52a16.93,16.93,0,0,1,1.73,16.35c-37.83,88.33-135.6,76.21-177.59,29.45A28.73,28.73,0,0,1,70.84,413.05Z"/><path class="cls-2" d="M215.81,391.42H130.59A106.16,106.16,0,0,0,24.42,497.59v1.07H322v-1.07A106.16,106.16,0,0,0,215.81,391.42Z"/><path class="cls-1" d="M235.32,461.86c24.2-7.68,43.61-20.77,53.62-34.6a13.86,13.86,0,0,0-2.8-18.95,113.14,113.14,0,0,0-69.36-24.42q-2.82.76-5.66,1.66c-39.84,12.63-66.71,39.95-60,61S195.48,474.49,235.32,461.86Z"/><path class="cls-3" d="M229.09,20.85c-79-64.45-211,31.21-229.09,141,17.4,56.29,35.24,89.25,64.06,117.86C86,325,142,346.2,142,405.52h62.44c0-52.76,44.3-75.35,69.53-111.6C383.66,215.08,356,5.74,229.09,20.85Z"/><path class="cls-4" d="M291,185.49c-7-39.72-31.72-82.57-54.38-99.19-93.4.25-140.51,37.21-181.26,99.19-12.56,0-22.75,12.91-22.75,28.83s10.19,28.84,22.75,28.84v-1.78C55.38,317,142,331.76,142,405.52h62.43c0-73.76,86.6-88.54,86.6-164.14v1.78c12.57,0,22.75-12.91,22.75-28.84S303.59,185.49,291,185.49Z"/><ellipse class="cls-2" cx="122.6" cy="200.73" rx="11.48" ry="14.35"/><path class="cls-5" d="M102.08,168.52l-5.78-8.85c11.12-7.27,33.35-12.42,47.45-8.19l-3,10.12C129.88,158.36,111.05,162.66,102.08,168.52Z"/><path class="cls-5" d="M245.76,168.52c-9-5.86-27.81-10.16-38.64-6.92l-3-10.12c14.11-4.23,36.34.92,47.46,8.19Z"/><path class="cls-6" d="M183.77,259.25a4.5,4.5,0,0,1-1.43-.23c-10.33-3.45-17-6.4-24.64-13a11.88,11.88,0,0,1-3.14-13.8c9.05-21,12-35.75,12.6-62.95a4.53,4.53,0,1,1,9.06.2c-.63,28.55-3.75,44.05-13.33,66.33a2.91,2.91,0,0,0,.71,3.35c6.57,5.64,12.2,8.12,21.61,11.26a4.53,4.53,0,0,1-1.44,8.83Z"/><path class="cls-7" d="M174,286.44a161.68,161.68,0,0,1-36.27-3.94,37,37,0,0,0,72.54,0A161.68,161.68,0,0,1,174,286.44Z"/><path class="cls-8" d="M253.41,392.83c-9.35-13.36-17.4-23.12-27.12-32.64-12.45,19.17-39.73,30.2-69.26,25.9-23.17-3.38-42.31-15.41-52.61-31-16.65,13.68-27.95,33.25-33.58,58a28.73,28.73,0,0,0,6.71,25.58c42,46.76,139.76,58.88,177.59-29.45A16.93,16.93,0,0,0,253.41,392.83Z"/><ellipse class="cls-2" cx="223.99" cy="200.73" rx="11.48" ry="14.35"/></g></g></svg>