<svg xmlns="http://www.w3.org/2000/svg" viewBox="0 0 332.31 495.74"><defs><style>.cls-1{fill:#6d4d41;}.cls-2{fill:#27a79a;}.cls-3{fill:#ffe0b2;}.cls-4{fill:#fff;}.cls-5{fill:#ebbb79;}.cls-6{fill:#fff3e0;}.cls-7{fill:#e57373;}.cls-8{fill:#8e6e62;}.cls-9{fill:#ffb74e;}</style></defs><g id="Layer_2" data-name="Layer 2"><g id="Layer_2-2" data-name="Layer 2"><path class="cls-1" d="M305.12,146.82c19.63-96.67-60.42-151-105.74-142C99.69-19.34,7.55,50.15,27.19,146.82-45.31,294.84,79,361.3,0,495.74H332.31C253.26,361.3,377.62,294.84,305.12,146.82Z"/><path class="cls-1" d="M305.12,146.82c19.63-96.67-60.42-151-105.74-142C99.69-19.34,7.55,50.15,27.19,146.82-45.31,294.84,79,361.3,0,495.74H332.31C253.26,361.3,377.62,294.84,305.12,146.82Z"/><path class="cls-2" d="M219.64,412.66h-107A52.67,52.67,0,0,0,60,465.33v30.41H272.31V465.33A52.67,52.67,0,0,0,219.64,412.66Z"/><path class="cls-3" d="M276.4,178.54c-38.74-14.1-73.33-50.35-75.19-113.29-25,53.87-79.69,88.11-145.3,113.29v57.39c0,94.66,105,102,50.89,192.34,0,25.17,15.59,37.26,59.35,37.26s59.36-12.09,59.36-37.26c-57.85-105.74,50.89-97.68,50.89-192.34Z"/><path class="cls-1" d="M124.76,495.74c3.22-50.68-12.3-109.78-35.64-139H22.7c8,41.81,9.1,84.89-22.7,139Z"/><path class="cls-1" d="M207.55,495.74c-3.23-50.68,12.3-109.78,35.64-139h66.42c-8,41.81-9.1,84.89,22.7,139Z"/><path class="cls-4" d="M129.3,291.72a37.76,37.76,0,0,0,73.71,0C177.38,292.61,154.92,292.61,129.3,291.72Z"/><circle class="cls-5" cx="95.92" cy="278.23" r="14.35"/><circle class="cls-5" cx="236.39" cy="278.23" r="14.35"/><path class="cls-6" d="M149.61,184.15c-32.71-3.21-53.08-3.21-85.8,0l5.58,27.94a17.58,17.58,0,0,0,17.23,14.12h43.74a14.68,14.68,0,0,0,14.5-12.36Z"/><path class="cls-6" d="M177.66,184.15c32.71-3.21,53.08-3.21,85.8,0l-5.58,27.94a17.58,17.58,0,0,1-17.23,14.12H196.91a14.68,14.68,0,0,1-14.5-12.36Z"/><path class="cls-7" d="M263.47,188.68a3.39,3.39,0,0,1-.45,0c-32.54-3.2-52.38-3.2-84.92,0a4.53,4.53,0,0,1-5-4.51,9.49,9.49,0,1,0-19,0,4.53,4.53,0,0,1-5,4.51c-32.54-3.2-52.38-3.2-84.92,0a4.53,4.53,0,0,1-.89-9c31.36-3.08,52-3.21,82.39-.41a18.55,18.55,0,0,1,35.77,0c30.4-2.81,51-2.67,82.38.41a4.53,4.53,0,0,1-.43,9Z"/><path class="cls-8" d="M121.52,201.87a9,9,0,1,0-9,9A9,9,0,0,0,121.52,201.87Z"/><path class="cls-8" d="M204.74,201.87a9,9,0,1,1,9,9A9,9,0,0,1,204.74,201.87Z"/><path class="cls-5" d="M173.38,276.46h-.22c-13-.63-20.61-9.06-20-22l1-39.92a4.52,4.52,0,0,1,4.53-4.43h.1a4.53,4.53,0,0,1,4.43,4.63l-1,40c-.39,8,3.44,12.25,11.36,12.63a4.53,4.53,0,0,1-.21,9.06Z"/><path class="cls-9" d="M306,142.28H282.46a4.54,4.54,0,0,0,0,9.07h24.8c-.7-1.51-1.4-3-2.14-4.53C305.43,145.29,305.71,143.78,306,142.28Z"/><path class="cls-9" d="M27.19,146.82c-.75,1.52-1.44,3-2.15,4.53H55.91a4.54,4.54,0,0,0,0-9.07H26.35C26.6,143.79,26.88,145.3,27.19,146.82Z"/></g></g></svg>