<svg xmlns="http://www.w3.org/2000/svg" viewBox="0 0 403.56 481.96"><defs><style>.cls-1{fill:#465a65;}.cls-2{fill:#fff3e0;}.cls-3{fill:#fff;}.cls-4{fill:#ffccbe;}.cls-5{fill:#424242;}.cls-6{fill:#ffab91;}</style></defs><g id="Layer_2" data-name="Layer 2"><g id="Layer_2-2" data-name="Layer 2"><path class="cls-1" d="M201.78,9C100.89-31,18.89,70.49,18.89,156.21c0,55.56,3.57,127.52-18.89,164.4,16.62-4.46,25.34-8.43,39.91-17.87,0,90.16,67.27,96.18,67.27,164.5l94.6-14.71,94.6,14.71c0-68.32,67.27-74.34,67.27-164.5,14.57,9.44,23.29,13.41,39.91,17.87-22.46-36.88-18.89-108.84-18.89-164.4C384.67,70.49,302.67-31,201.78,9Z"/><path class="cls-2" d="M231.39,381.05H174.27a81.8,81.8,0,0,0-81.8,81.81V482H313.2v-19.1A81.81,81.81,0,0,0,231.39,381.05Z"/><path class="cls-3" d="M284.91,401a81.51,81.51,0,0,0-53.52-20H174.27a81.5,81.5,0,0,0-54.92,21.18A94.61,94.61,0,0,0,284.91,401Z"/><path class="cls-4" d="M201.78,438.86A83,83,0,0,0,275.52,394a81.44,81.44,0,0,0-44.13-12.94h.87v-.35a93,93,0,0,1,23.51-61.83l28.67-32.25a93.11,93.11,0,0,0,23.4-57.5,34.1,34.1,0,0,0,22.3-31.89V185.74a13.88,13.88,0,0,0-13.88-13.88h-8.32c-13.56-6.6-27.61-15.61-57.87-45.87-24.27-24.28-41.44-50.26-48.29-70.79-6.85,20.53-24,46.51-48.29,70.79-30.26,30.26-44.31,39.27-57.87,45.87H87.29a13.88,13.88,0,0,0-13.87,13.88v11.49a34.09,34.09,0,0,0,22.3,31.89,93.11,93.11,0,0,0,23.4,57.5l28.67,32.25A93.1,93.1,0,0,1,171.3,380.7v.35h.86A81.43,81.43,0,0,0,128,394,83,83,0,0,0,201.78,438.86Z"/><ellipse class="cls-5" cx="155.53" cy="172.67" rx="11.56" ry="14.98"/><ellipse class="cls-5" cx="250.22" cy="172.67" rx="11.56" ry="14.98"/><path class="cls-3" d="M202.83,257A162,162,0,0,1,165.9,253a39.81,39.81,0,0,0,73.87,0A162.18,162.18,0,0,1,202.83,257Z"/><path class="cls-6" d="M217,230.55h-.11c-9.32-.23-15.94-1-24.23-4.65a10.19,10.19,0,0,1-5.84-11.61c6.09-26.46,6.66-42.95,5.68-72.21a4.53,4.53,0,1,1,9.06-.3c1,30.09.41,47.09-5.9,74.54a1.12,1.12,0,0,0,.63,1.27c6.22,2.72,11.28,3.67,20.82,3.9a4.53,4.53,0,0,1-.11,9.06Z"/><circle class="cls-6" cx="135.57" cy="233.62" r="23.5" transform="translate(-125.49 164.29) rotate(-45)"/><circle class="cls-6" cx="268.29" cy="233.62" r="23.5" transform="translate(-46.76 68.39) rotate(-13.37)"/></g></g></svg>