<svg xmlns="http://www.w3.org/2000/svg" viewBox="0 0 490.2 482.58"><defs><style>.cls-1{fill:#465a65;}.cls-2{fill:#ffab91;}.cls-3{fill:#36474f;}.cls-4{fill:#ffe0b2;}.cls-5{fill:#8e6e62;}.cls-6{fill:#ff8a66;}.cls-7{fill:#fff;}</style></defs><g id="Layer_2" data-name="Layer 2"><g id="Layer_2-2" data-name="Layer 2"><path class="cls-1" d="M347.33,482.58H77.71v-1.05a103.81,103.81,0,0,1,103.8-103.81c68.64,0,62.16,0,64.68,0C300.66,379.13,347.33,423.07,347.33,482.58Z"/><path class="cls-2" d="M300.73,293a125.31,125.31,0,0,0,31-73.42C261.89,166.17,225.24,86,212.53,43.69c-128,0-119.63,103.65-119.63,166.25a125.42,125.42,0,0,0,31.41,83L160.58,334a73.68,73.68,0,0,1,18.28,43.71h1.76a103.54,103.54,0,0,0-35.21,6.44c18.84,27.57,36.23,44.85,67.94,69.45,31.5-24.43,48.87-41.67,67.59-68.93a103.14,103.14,0,0,0-34.75-6.95A73.67,73.67,0,0,1,264.46,334Z"/><ellipse class="cls-3" cx="159.76" cy="194.05" rx="11.18" ry="14.48"/><ellipse class="cls-3" cx="248.91" cy="194.05" rx="11.18" ry="14.48"/><path class="cls-4" d="M347.33,481.53A103.81,103.81,0,0,0,246.19,377.75,73.67,73.67,0,0,1,264.46,334L300.73,293a125.31,125.31,0,0,0,31-73.42A255.08,255.08,0,0,0,430,266.11c9,9.78,21.85,17.43,34.31,22.43C400.31,319,346.25,359.65,347.33,481.53Z"/><path class="cls-5" d="M129.88,152.82l-5.77-9c15-9.68,34.1-15,53.67-15.07l0,10.66C160.25,139.48,143.23,144.23,129.88,152.82Z"/><circle class="cls-6" cx="139.23" cy="257.89" r="15.22" transform="translate(-42.12 27.66) rotate(-9.86)"/><circle class="cls-6" cx="285.81" cy="257.89" r="15.22" transform="translate(-98.65 277.63) rotate(-45)"/><path class="cls-6" d="M214.88,247.25h-.28c-9.07-.55-14.54-1.82-20.18-4.69a11.8,11.8,0,0,1-5.71-14.41c8-22.83,9-38.34,4.38-66.36a4.57,4.57,0,1,1,9-1.5c5,29.8,3.84,46.36-4.78,70.89a2.67,2.67,0,0,0,1.24,3.23c4.45,2.27,8.79,3.24,16.58,3.71a4.57,4.57,0,0,1-.27,9.14Z"/><path class="cls-7" d="M212.52,269.23a181.47,181.47,0,0,1-42-4.69,45.21,45.21,0,0,0,84.07,0A181.44,181.44,0,0,1,212.52,269.23Z"/><path class="cls-4" d="M490.2,272.78C340.83,293.11,212.53,161,212.53,43.69,139.44,43.69,92.9,76.46,92.9,174v35.92a125.42,125.42,0,0,0,31.41,83L160.58,334a73.68,73.68,0,0,1,18.28,43.71,103.85,103.85,0,0,0-91.17,59.31,142.23,142.23,0,0,1-22.48,3.87c13.91-36,17.69-56.37,10-93.47-10.11,13.1-17.53,18.83-32.51,27.43,5.14-15.11,6.84-23.76,7.12-39.63-17,18.47-27.92,26.9-49.79,38.62,21.33-47.76,23.36-88.39,23.36-155.44C23.36,67,61,0,212.53,0,388.71,0,364.72,213.35,490.2,272.78Z"/><path class="cls-2" d="M98.3,237.47c-33.76-8.76-36-51.75-3.37-63.45C94.93,211.93,94.09,220.4,98.3,237.47Z"/></g></g></svg>