<svg id="LinealColor" xmlns="http://www.w3.org/2000/svg" viewBox="0 0 128 128"><title>ADHD, mental health, disorder, mental illness, depression, stressed, trauma</title><path d="M94.559,125a2.163,2.163,0,0,0,2.083-2.764c-1.171-4.03-3.195-11.728-3.595-18.036-.249-3.928.939-9.351,3.342-12.468,9.584-12.435,13.833-23.208,11.827-36.468-3.251-21.488-18.427-32.87-39.41-33.947C45.874,20.131,26.236,34.86,26.868,55.174c.083,2.682.552,6.63.541,9.209-.021,9.164-7.951,12.929-8.1,15.846-.25,4.788,5.375,3.293,7.359,10.067,2.519,8.6-1.091,18.409,10.63,17.8,4.676-.188,12.277-2,15.534,1.025,2.077,1.932,3.749,10.36,4.4,14.089A2.161,2.161,0,0,0,59.364,125Z" style="fill:#eeefe1"/><circle cx="88.66" cy="31.667" r="29.249" style="fill:#7171ff"/><circle cx="88.66" cy="32" r="20.682" style="fill:#fff"/><circle cx="88.66" cy="32" r="12.912" style="fill:#7171ff"/><circle cx="88.66" cy="32" r="4.429" style="fill:#fff"/><path d="M94.56,126.25h-35.2A3.408,3.408,0,0,1,56,123.429c-1.243-7.109-2.784-12.24-4.021-13.39-2.087-1.941-6.989-1.423-10.93-1.008-1.327.14-2.581.273-3.7.318-9.654.5-10.233-5.733-10.787-11.761a36.524,36.524,0,0,0-1.093-6.941,8.367,8.367,0,0,0-4.125-5.165c-1.614-1.063-3.443-2.268-3.283-5.319.077-1.476,1.24-2.764,2.712-4.392,2.269-2.512,5.376-5.952,5.389-11.39.006-1.411-.14-3.3-.282-5.116-.114-1.471-.222-2.859-.259-4.052C25.12,39.222,36.865,25.6,54.845,21.32a1.25,1.25,0,1,1,.578,2.432c-16.792,4-27.766,16.61-27.307,31.383.036,1.136.142,2.5.254,3.935.145,1.872.295,3.808.289,5.319-.014,6.4-3.638,10.4-6.034,13.057-1,1.111-2.04,2.258-2.071,2.848-.081,1.559.564,2.048,2.162,3.1a10.843,10.843,0,0,1,5.148,6.548,38.915,38.915,0,0,1,1.184,7.415c.564,6.153.879,9.865,8.182,9.493,1.055-.043,2.27-.171,3.556-.307,4.675-.492,9.975-1.052,12.894,1.663,2.167,2.016,3.8,9.155,4.782,14.789a.91.91,0,0,0,.9.753h35.2a.912.912,0,0,0,.736-.367.887.887,0,0,0,.145-.8c-1.185-4.08-3.234-11.883-3.641-18.308-.252-3.966.9-9.812,3.6-13.309,8.979-11.649,12.567-21.076,12-31.523a1.25,1.25,0,1,1,2.5-.136c.6,11.1-3.137,21.021-12.512,33.184-2.294,2.977-3.3,8.211-3.085,11.626.393,6.186,2.392,13.787,3.548,17.768a3.411,3.411,0,0,1-3.282,4.362Z" style="fill:#55498c"/><path d="M34.317,92.675H26.961a1.25,1.25,0,0,1,0-2.5h7.356a1.25,1.25,0,0,1,0,2.5Z" style="fill:#55498c"/><circle cx="33.397" cy="66.296" r="2.15" style="fill:#55498c"/><path d="M88.66,53.932A21.932,21.932,0,1,1,110.592,32,21.957,21.957,0,0,1,88.66,53.932Zm0-41.364A19.432,19.432,0,1,0,108.092,32,19.454,19.454,0,0,0,88.66,12.568Z" style="fill:#55498c"/><path d="M88.66,46.162A14.162,14.162,0,1,1,102.822,32,14.179,14.179,0,0,1,88.66,46.162Zm0-25.824A11.662,11.662,0,1,0,100.322,32,11.674,11.674,0,0,0,88.66,20.338Z" style="fill:#55498c"/><path d="M88.66,62.5a30.5,30.5,0,1,1,30.5-30.5A30.534,30.534,0,0,1,88.66,62.5Zm0-58.5a28,28,0,1,0,28,28A28.032,28.032,0,0,0,88.66,4Z" style="fill:#55498c"/><path d="M88.66,37.679A5.679,5.679,0,1,1,94.339,32,5.686,5.686,0,0,1,88.66,37.679Zm0-8.858A3.179,3.179,0,1,0,91.839,32,3.182,3.182,0,0,0,88.66,28.821Z" style="fill:#55498c"/></svg>