<svg id="LinealColor" xmlns="http://www.w3.org/2000/svg" viewBox="0 0 128 128"><title>Alcoholism, mental health, disorder, mental illness, smoking, drugs, alcohol</title><path d="M94.559,125a2.162,2.162,0,0,0,2.083-2.763c-1.171-4.031-3.195-11.729-3.595-18.037-.249-3.928.939-9.351,3.342-12.468,9.584-12.435,13.833-23.208,11.827-36.467-3.251-21.489-18.427-32.871-39.41-33.948C45.874,20.131,26.236,34.86,26.868,55.174c.083,2.682.552,6.63.541,9.209-.021,9.164-7.951,12.929-8.1,15.846-.25,4.788,5.375,3.293,7.359,10.067,2.519,8.6-1.091,18.409,10.63,17.8,4.676-.188,12.277-2,15.534,1.025,2.077,1.932,3.749,10.36,4.4,14.089A2.161,2.161,0,0,0,59.364,125Z" style="fill:#8babea"/><path d="M47.875,71.083a1,1,0,0,0-1,1V75.35a1,1,0,0,0,1,1h32.25V71.083Z" style="fill:#e5e5d1"/><path d="M52.19,71.08v5.27H47.88a1,1,0,0,1-1-1V72.08a1,1,0,0,1,1-1Z" style="fill:#fc5b5b"/><path d="M76.737,81.017a4.9,4.9,0,0,1-4.9-4.9V40.207a20.25,20.25,0,0,1,2.21-8.005c3.015-5.112,5.22-9.658,5.219-15.593V5a2,2,0,0,1,2-2H86.4a2,2,0,0,1,2,2V16.609c0,5.935,2.2,10.481,5.22,15.593a20.25,20.25,0,0,1,2.21,8.005v35.91a4.9,4.9,0,0,1-4.9,4.9Z" style="fill:#eeefe1"/><path d="M88.49,18.61H79.18c.06-.65.09-1.32.09-2V5a2,2,0,0,1,2-2H86.4a2,2,0,0,1,2,2V16.61C88.4,17.29,88.43,17.96,88.49,18.61Z" style="fill:#fc5b5b"/><rect x="80.538" y="43.008" width="15.292" height="27.408" rx="2" ry="2" style="fill:#ffc91d"/><path d="M94.56,126.25h-35.2A3.408,3.408,0,0,1,56,123.429c-1.243-7.109-2.784-12.239-4.021-13.389-2.087-1.942-6.991-1.425-10.929-1.009-1.327.14-2.582.272-3.7.317-9.629.5-10.232-5.732-10.786-11.76a36.549,36.549,0,0,0-1.093-6.941,8.373,8.373,0,0,0-4.126-5.165c-1.613-1.063-3.442-2.269-3.282-5.318.077-1.477,1.239-2.764,2.712-4.393,2.269-2.512,5.376-5.951,5.389-11.391.006-1.41-.14-3.294-.282-5.115-.114-1.47-.222-2.858-.259-4.052A31.188,31.188,0,0,1,35.27,31.8c8.3-8.13,20.547-12.4,33.6-11.732,1.984.1,3.942.3,5.821.581a1.25,1.25,0,1,1-.373,2.472c-1.8-.271-3.674-.458-5.577-.556-12.345-.641-23.92,3.377-31.722,11.021a28.345,28.345,0,0,0-8.9,21.549c.036,1.136.142,2.5.254,3.936.145,1.872.295,3.807.289,5.318-.014,6.4-3.638,10.405-6.035,13.058-1,1.11-2.039,2.257-2.07,2.847-.081,1.558.564,2.047,2.162,3.1a10.852,10.852,0,0,1,5.148,6.55,38.893,38.893,0,0,1,1.184,7.414c.565,6.154.911,9.875,8.182,9.492,1.055-.043,2.271-.171,3.557-.307,4.676-.492,9.974-1.049,12.894,1.665,2.166,2.014,3.8,9.154,4.781,14.789a.91.91,0,0,0,.9.752h35.2a.912.912,0,0,0,.736-.367.89.89,0,0,0,.145-.8c-1.185-4.079-3.234-11.881-3.641-18.306-.252-3.967.9-9.814,3.6-13.31,10.067-13.061,13.422-23.351,11.581-35.517-1.4-9.248-5.065-16.758-10.9-22.323a1.25,1.25,0,1,1,1.727-1.808c6.242,5.956,10.16,13.949,11.644,23.757C111.38,67.824,107.77,79.014,97.379,92.5c-2.294,2.976-3.3,8.211-3.085,11.626.393,6.185,2.392,13.786,3.548,17.767a3.412,3.412,0,0,1-3.282,4.362Z" style="fill:#55498c"/><path d="M34.317,92.675H26.961a1.25,1.25,0,0,1,0-2.5h7.356a1.25,1.25,0,0,1,0,2.5Z" style="fill:#55498c"/><circle cx="33.397" cy="66.296" r="2.15" style="fill:#55498c"/><path d="M90.93,82.267H76.736a6.157,6.157,0,0,1-6.149-6.15V40.207a21.629,21.629,0,0,1,2.383-8.64c3.2-5.42,5.047-9.6,5.047-14.958V5a3.254,3.254,0,0,1,3.25-3.25H86.4A3.254,3.254,0,0,1,89.65,5V16.609c0,5.353,1.851,9.538,5.047,14.958a21.629,21.629,0,0,1,2.383,8.64v35.91A6.157,6.157,0,0,1,90.93,82.267ZM81.266,4.25a.751.751,0,0,0-.75.75V16.609c0,6.541-2.551,11.409-5.393,16.228a19.133,19.133,0,0,0-2.037,7.37v35.91a3.654,3.654,0,0,0,3.649,3.65H90.93a3.655,3.655,0,0,0,3.65-3.65V40.207a19.133,19.133,0,0,0-2.037-7.37C89.7,28.018,87.15,23.15,87.15,16.609V5a.751.751,0,0,0-.75-.75Z" style="fill:#55498c"/><path d="M88.49,19.86H79.18a1.25,1.25,0,0,1,0-2.5h9.31a1.25,1.25,0,0,1,0,2.5Z" style="fill:#55498c"/><path d="M93.83,71.667H82.538a3.254,3.254,0,0,1-3.25-3.25V45.008a3.254,3.254,0,0,1,3.25-3.25H93.83a3.254,3.254,0,0,1,3.25,3.25V68.417A3.254,3.254,0,0,1,93.83,71.667ZM82.538,44.258a.752.752,0,0,0-.75.75V68.417a.752.752,0,0,0,.75.75H93.83a.752.752,0,0,0,.75-.75V45.008a.752.752,0,0,0-.75-.75Z" style="fill:#55498c"/><path d="M68.125,75.1H53.44V72.333H68.125a1.25,1.25,0,0,0,0-2.5H52.207c-.006,0-.011,0-.017,0s-.01,0-.016,0h-4.3a2.253,2.253,0,0,0-2.25,2.25V75.35a2.253,2.253,0,0,0,2.25,2.25h20.25a1.25,1.25,0,0,0,0-2.5Zm-20-2.767H50.94V75.1H48.125Z" style="fill:#55498c"/><path d="M47.684,68.286a1.25,1.25,0,0,1-.87-2.148c2.122-2.054,1.652-2.576.4-3.97-1.2-1.335-3.015-3.353-.9-6.723a1.25,1.25,0,0,1,2.118,1.33c-1.114,1.772-.492,2.465.638,3.722,1.328,1.476,3.334,3.707-.518,7.437A1.249,1.249,0,0,1,47.684,68.286Z" style="fill:#55498c"/><path d="M53.4,67.584a1.249,1.249,0,0,1-.869-2.147c3.849-3.727,2.717-4.985.664-7.269-1.853-2.062-4.392-4.886-1.34-9.743a1.25,1.25,0,0,1,2.117,1.33c-2.048,3.26-.735,4.72,1.083,6.742,2.023,2.251,4.8,5.334-.785,10.735A1.246,1.246,0,0,1,53.4,67.584Z" style="fill:#55498c"/></svg>