<svg id="LinealColor" xmlns="http://www.w3.org/2000/svg" viewBox="0 0 128 128"><title>Anorexia, eat, mental health, disorder, mental illness, skinny, nevosa</title><path d="M95.225,50.521A3,3,0,0,1,98.1,52.638a45.787,45.787,0,0,1,1.445,6.455c1.9,12.531-2.119,22.713-11.177,34.465-2.271,2.946-3.4,8.071-3.159,11.783a88.233,88.233,0,0,0,3.4,17.047A2.044,2.044,0,0,1,86.637,125H53.374a2.043,2.043,0,0,1-2.016-1.689c-.617-3.525-2.2-11.49-4.16-13.315-3.079-2.863-10.262-1.147-14.682-.969-11.077.573-7.665-8.7-10.046-16.826-1.875-6.4-7.191-4.989-6.955-9.515.144-2.756,7.638-6.314,7.659-14.975.01-2.438-.434-6.169-.512-8.7a28.01,28.01,0,0,1,.449-5.985,3.024,3.024,0,0,1,2.961-2.5Z" style="fill:#eeefe1"/><path d="M66.583,20.667a16.361,16.361,0,0,1-11.789,0C30.18,11.2,15.508,31.917,26.226,50.522H95.187C105.5,32.227,91.2,11.2,66.583,20.667Z" style="fill:#fc5b5b"/><path d="M67.338,13.468C65.577,9.945,74.694,1.014,78.187,4.752,83.472,10.408,68,15.529,67.338,13.468Z" style="fill:#29d3be"/><path d="M86.637,126.25H53.374a3.29,3.29,0,0,1-3.248-2.723c-1.154-6.6-2.638-11.554-3.779-12.615-1.951-1.814-6.568-1.328-10.276-.936-1.256.132-2.442.257-3.5.3-9.208.475-9.738-5.449-10.265-11.177a34.453,34.453,0,0,0-1.03-6.547A7.852,7.852,0,0,0,17.4,87.709c-1.54-1.015-3.286-2.166-3.133-5.088.074-1.419,1.18-2.644,2.581-4.194,2.256-2.5,5.064-5.605,5.076-10.719,0-1.329-.132-3.105-.266-4.822-.108-1.393-.211-2.709-.246-3.84A29.026,29.026,0,0,1,22.5,50.18a1.249,1.249,0,0,1,1.2-.908H97.392a1.251,1.251,0,0,1,1.174.822,45.705,45.705,0,0,1,2.214,8.813c1.825,12.067-1.591,22.658-11.423,35.415-2.158,2.8-3.106,7.726-2.9,10.941a87,87,0,0,0,3.35,16.777,3.294,3.294,0,0,1-3.169,4.211ZM41.277,107.1c2.654,0,5.111.435,6.772,1.979,2.061,1.917,3.607,8.679,4.54,14.015a.794.794,0,0,0,.785.654H86.637a.8.8,0,0,0,.642-.319.775.775,0,0,0,.127-.694A89.505,89.505,0,0,1,83.96,105.42c-.238-3.762.859-9.307,3.417-12.625,9.5-12.327,12.668-22.037,10.931-33.515a43.787,43.787,0,0,0-1.8-7.509H24.659a26.633,26.633,0,0,0-.748,7.2c.033,1.074.133,2.361.239,3.724.138,1.767.28,3.6.274,5.024-.015,6.071-3.449,9.871-5.721,12.387-.9.992-1.911,2.116-1.939,2.649-.075,1.419.459,1.846,2.012,2.87A10.314,10.314,0,0,1,23.67,91.85a36.958,36.958,0,0,1,1.121,7.02c.53,5.775.842,9.26,7.661,8.908,1-.04,2.143-.16,3.357-.289A53.306,53.306,0,0,1,41.277,107.1Z" style="fill:#55498c"/><path d="M29.7,94.518H22.75a1.25,1.25,0,0,1,0-2.5H29.7a1.25,1.25,0,1,1,0,2.5Z" style="fill:#55498c"/><circle cx="28.833" cy="69.519" r="2.032" style="fill:#55498c"/><path d="M32.864,99.81a1.265,1.265,0,0,1-.395-.064,1.249,1.249,0,0,1-.791-1.581c.109-.327.439-1.318,4.05-8.716a31.117,31.117,0,0,1,11.556-12.8l3.986-2.476A1.25,1.25,0,1,1,52.589,76.3L48.6,78.776a28.627,28.627,0,0,0-10.629,11.77c-3.078,6.307-3.78,7.975-3.924,8.409A1.251,1.251,0,0,1,32.864,99.81Z" style="fill:#55498c"/><path d="M39.776,109.651a1.25,1.25,0,0,1-.457-2.414c3.42-1.344,12.8-5.372,15.1-7.829,2.635-2.813,6.513-13.761,7.784-17.741a1.25,1.25,0,0,1,2.382.76c-.194.607-4.785,14.893-8.341,18.69-3.1,3.313-14.7,7.931-16.014,8.447A1.247,1.247,0,0,1,39.776,109.651Z" style="fill:#55498c"/><path d="M60.687,23.014a1.25,1.25,0,0,1-.995-2c.223-.3,5.231-7.213-1.639-17.306A1.25,1.25,0,0,1,60.12,2.3c7.926,11.645,1.825,19.881,1.562,20.226A1.25,1.25,0,0,1,60.687,23.014Z" style="fill:#55498c"/><path d="M96.782,47.459a1.252,1.252,0,0,1-1.133-1.776,18.71,18.71,0,0,0-3.157-20.489c-5.751-6.149-15.029-7.371-25.46-3.36a17.634,17.634,0,0,1-12.687,0c-10.429-4.012-19.71-2.789-25.46,3.36a18.71,18.71,0,0,0-3.157,20.489,1.25,1.25,0,0,1-2.268,1.051,21.23,21.23,0,0,1,3.6-23.248c6.48-6.93,16.752-8.382,28.183-3.985a15.145,15.145,0,0,0,10.891,0c11.429-4.4,21.7-2.945,28.183,3.985a21.23,21.23,0,0,1,3.6,23.248A1.25,1.25,0,0,1,96.782,47.459Z" style="fill:#55498c"/><path d="M79.1,3.9c-1.746-1.87-4.643-1.7-7.747.459-3.529,2.454-6.483,6.8-5.166,9.6a2.1,2.1,0,0,0,2.038,1.214c.1.007.213.01.328.01,3.076,0,9.8-2.474,11.544-6.149A4.419,4.419,0,0,0,79.1,3.9ZM77.634,8.324c-1.8,2.753-7.719,4.506-9.253,4.364-.268-1.3,1.6-4.332,4.4-6.278.746-.519,3.274-2.111,4.493-.8A1.948,1.948,0,0,1,77.634,8.324Z" style="fill:#55498c"/></svg>