<svg id="LinealColor" xmlns="http://www.w3.org/2000/svg" viewBox="0 0 128 128"><title>Anxiety, mental health, disorder, mental illness, Compulsive, obsessive, ocd</title><path d="M94.559,124.951a2.163,2.163,0,0,0,2.083-2.764c-1.171-4.03-3.195-11.728-3.595-18.037-.249-3.927.939-9.35,3.342-12.467,9.584-12.435,13.833-23.208,11.827-36.468-3.251-21.488-18.427-32.87-39.41-33.947-22.932-1.187-42.57,13.543-41.938,33.857.083,2.682.552,6.63.541,9.209-.021,9.164-7.951,12.929-8.1,15.845-.25,4.789,5.375,3.293,7.359,10.068,2.519,8.6-1.091,18.409,10.63,17.8,4.676-.188,12.277-2,15.534,1.025,2.077,1.932,3.749,10.359,4.4,14.089a2.161,2.161,0,0,0,2.133,1.787Z" style="fill:#7171ff"/><path d="M49.72,11a1.954,1.954,0,0,0-1.556.764l-3.942,5.1A1.576,1.576,0,0,0,45.469,19.4h.9l0,5.078a1,1,0,0,0,1,1h4.675a1,1,0,0,0,1-.994L53.07,19.4h.9a1.576,1.576,0,0,0,1.249-2.539l-3.942-5.1A1.954,1.954,0,0,0,49.72,11Z" style="fill:#ffc91d"/><path d="M66.068,11a1.954,1.954,0,0,0-1.556.764l-3.942,5.1A1.576,1.576,0,0,0,61.817,19.4h.9L62.71,24.48a1,1,0,0,0,1,1h4.675a1,1,0,0,0,1-.994l.033-5.085h.9a1.576,1.576,0,0,0,1.249-2.539l-3.942-5.1A1.954,1.954,0,0,0,66.068,11Z" style="fill:#ffc91d"/><path d="M82.416,11a1.954,1.954,0,0,0-1.556.764l-3.942,5.1A1.576,1.576,0,0,0,78.165,19.4h.9l0,5.078a1,1,0,0,0,1,1h4.674a1,1,0,0,0,1-.994l.033-5.085h.9a1.575,1.575,0,0,0,1.249-2.539l-3.941-5.1A1.957,1.957,0,0,0,82.416,11Z" style="fill:#ffc91d"/><path d="M49.72,31.93a1.954,1.954,0,0,0-1.556.764l-3.942,5.1a1.575,1.575,0,0,0,1.247,2.538h.9l0,5.078a1,1,0,0,0,1,1h4.675a1,1,0,0,0,1-.993l.033-5.086h.9A1.575,1.575,0,0,0,55.218,37.8l-3.942-5.1a1.954,1.954,0,0,0-1.556-.764Z" style="fill:#ffc91d"/><path d="M66.068,31.93a1.954,1.954,0,0,0-1.556.764L60.57,37.8a1.575,1.575,0,0,0,1.247,2.538h.9L62.71,45.41a1,1,0,0,0,1,1h4.675a1,1,0,0,0,1-.993l.033-5.086h.9A1.575,1.575,0,0,0,71.566,37.8l-3.942-5.1a1.954,1.954,0,0,0-1.556-.764Z" style="fill:#ffc91d"/><path d="M82.416,31.93a1.954,1.954,0,0,0-1.556.764l-3.942,5.1a1.575,1.575,0,0,0,1.247,2.538h.9l0,5.078a1,1,0,0,0,1,1h4.674a1,1,0,0,0,1-.993l.033-5.086h.9A1.575,1.575,0,0,0,87.914,37.8l-3.941-5.1a1.957,1.957,0,0,0-1.557-.764Z" style="fill:#ffc91d"/><path d="M49.72,52.861a1.951,1.951,0,0,0-1.556.764l-3.942,5.1a1.576,1.576,0,0,0,1.247,2.539l.9,0,0,5.079a1,1,0,0,0,1,1h4.675a1,1,0,0,0,1-.993l.033-5.086.9,0a1.576,1.576,0,0,0,1.249-2.539l-3.942-5.1a1.951,1.951,0,0,0-1.556-.764Z" style="fill:#ffc91d"/><path d="M66.068,52.861a1.951,1.951,0,0,0-1.556.764l-3.942,5.1a1.576,1.576,0,0,0,1.247,2.539l.9,0-.005,5.079a1,1,0,0,0,1,1h4.675a1,1,0,0,0,1-.993l.033-5.086.9,0a1.576,1.576,0,0,0,1.249-2.539l-3.942-5.1a1.951,1.951,0,0,0-1.556-.764Z" style="fill:#ffc91d"/><path d="M82.416,52.861a1.951,1.951,0,0,0-1.556.764l-3.942,5.1a1.576,1.576,0,0,0,1.247,2.539l.9,0,0,5.079a1,1,0,0,0,1,1h4.674a1,1,0,0,0,1-.993l.033-5.086.9,0a1.576,1.576,0,0,0,1.249-2.539l-3.941-5.1a1.954,1.954,0,0,0-1.557-.764Z" style="fill:#ffc91d"/><path d="M94.56,126.25h-35.2A3.408,3.408,0,0,1,56,123.429c-1.243-7.109-2.784-12.239-4.021-13.389-2.087-1.943-6.991-1.425-10.929-1.009-1.327.14-2.582.272-3.7.317-9.632.515-10.233-5.732-10.786-11.76a36.549,36.549,0,0,0-1.093-6.941,8.373,8.373,0,0,0-4.126-5.165c-1.613-1.063-3.442-2.269-3.282-5.318.077-1.477,1.239-2.764,2.712-4.393,2.269-2.512,5.376-5.951,5.389-11.391.006-1.41-.14-3.294-.282-5.115-.114-1.47-.222-2.858-.259-4.052C25.3,44.9,29.937,35.534,38.684,28.846A1.25,1.25,0,1,1,40.2,30.832c-8.089,6.185-12.381,14.816-12.087,24.3.036,1.135.142,2.495.254,3.935.145,1.872.295,3.807.289,5.318-.014,6.4-3.638,10.405-6.035,13.058-1,1.11-2.039,2.257-2.07,2.847-.081,1.558.564,2.047,2.162,3.1a10.852,10.852,0,0,1,5.148,6.55,38.893,38.893,0,0,1,1.184,7.414c.565,6.154.91,9.873,8.182,9.492,1.055-.043,2.271-.171,3.557-.307,4.676-.492,9.974-1.049,12.894,1.665,2.166,2.014,3.8,9.154,4.781,14.789a.91.91,0,0,0,.9.752h35.2a.912.912,0,0,0,.736-.367.89.89,0,0,0,.145-.8c-1.185-4.079-3.234-11.881-3.641-18.306-.252-3.967.9-9.814,3.6-13.31,10.067-13.061,13.422-23.351,11.581-35.517-1.726-11.412-6.835-20.088-15.185-25.788A1.25,1.25,0,0,1,93.2,27.6c8.82,6.022,14.439,15.524,16.248,27.479C111.38,67.824,107.77,79.014,97.379,92.5c-2.294,2.976-3.3,8.211-3.085,11.626.393,6.185,2.392,13.786,3.548,17.767a3.412,3.412,0,0,1-3.282,4.362Z" style="fill:#55498c"/><path d="M34.317,92.675H26.961a1.25,1.25,0,0,1,0-2.5h7.356a1.25,1.25,0,0,1,0,2.5Z" style="fill:#55498c"/><circle cx="33.397" cy="66.296" r="2.15" style="fill:#55498c"/><path d="M61.214,20.845l0,3.634a2.5,2.5,0,0,0,2.5,2.5h4.675a2.5,2.5,0,0,0,2.5-2.484l.024-3.65a3.077,3.077,0,0,0,1.844-4.9l-3.942-5.1a3.466,3.466,0,0,0-5.486,0l-3.942,5.1a3.077,3.077,0,0,0,1.831,4.9Zm.148-3.369,3.941-5.1a.966.966,0,0,1,1.53,0l3.942,5.1a.576.576,0,0,1-.456.927h0L69,18.4a.576.576,0,0,0-.576.577l-.036,5.5H63.71l.005-5.5a.575.575,0,0,0-.575-.576h0l-1.321,0h0A.575.575,0,0,1,61.362,17.476Z" style="fill:#55498c"/><path d="M77.562,20.845l0,3.634a2.5,2.5,0,0,0,2.5,2.5h4.675a2.5,2.5,0,0,0,2.5-2.484l.024-3.65a3.077,3.077,0,0,0,1.844-4.9l-3.942-5.1a3.466,3.466,0,0,0-5.486,0l-3.941,5.1a3.077,3.077,0,0,0,1.83,4.9Zm.148-3.369,3.941-5.1a.966.966,0,0,1,1.53,0l3.942,5.1a.576.576,0,0,1-.456.927h0l-1.321,0a.576.576,0,0,0-.576.577l-.036,5.5H80.058l0-5.5a.575.575,0,0,0-.575-.576h0l-1.321,0h0A.575.575,0,0,1,77.71,17.476Z" style="fill:#55498c"/><path d="M44.865,41.775l0,3.634a2.5,2.5,0,0,0,2.5,2.5h4.675a2.5,2.5,0,0,0,2.5-2.484l.024-3.65a3.077,3.077,0,0,0,1.844-4.9l-3.942-5.1a3.466,3.466,0,0,0-5.486,0l-3.942,5.1a3.078,3.078,0,0,0,1.83,4.9Zm.148-3.369,3.942-5.1a.966.966,0,0,1,1.53,0l3.941,5.1a.575.575,0,0,1-.455.927h0l-1.321,0a.577.577,0,0,0-.576.577l-.036,5.5H47.362l0-5.5a.575.575,0,0,0-.575-.576h0l-1.321,0h0A.576.576,0,0,1,45.013,38.406Z" style="fill:#55498c"/><path d="M68.821,31.787a3.467,3.467,0,0,0-5.487,0l-3.943,5.1a3.077,3.077,0,0,0,1.831,4.9l0,3.637a2.5,2.5,0,0,0,2.5,2.5H68.4a2.5,2.5,0,0,0,2.5-2.484l.024-3.653a3.077,3.077,0,0,0,1.845-4.9Zm1.51,7.559h0l-1.322,0a.576.576,0,0,0-.577.576L68.4,45.426H63.719l0-5.506a.576.576,0,0,0-.576-.576h0l-1.322,0h0a.576.576,0,0,1-.455-.928l3.943-5.1a.969.969,0,0,1,1.531,0l3.943,5.1A.576.576,0,0,1,70.331,39.346Z" style="fill:#55498c"/><path d="M78.305,47.193a2.5,2.5,0,0,0,1.769.733h4.677a2.5,2.5,0,0,0,2.5-2.484l.024-3.653a3.077,3.077,0,0,0,1.845-4.9l-3.944-5.1a3.467,3.467,0,0,0-5.487,0l-3.943,5.1a3.077,3.077,0,0,0,1.831,4.9l0,3.637A2.5,2.5,0,0,0,78.305,47.193Zm-.581-8.775,3.943-5.1a.969.969,0,0,1,1.531,0l3.943,5.1a.576.576,0,0,1-.455.928h0l-1.322,0a.576.576,0,0,0-.576.576l-.036,5.506H80.074l0-5.506a.576.576,0,0,0-.576-.576h0l-1.322,0h0A.576.576,0,0,1,77.724,38.418Z" style="fill:#55498c"/><path d="M52.466,52.726a3.467,3.467,0,0,0-5.487,0l-3.944,5.1a3.077,3.077,0,0,0,1.832,4.9l0,3.636a2.5,2.5,0,0,0,2.5,2.5H52.04a2.5,2.5,0,0,0,2.5-2.484l.024-3.653a3.077,3.077,0,0,0,1.845-4.9Zm1.509,7.559h0l-1.322,0a.577.577,0,0,0-.576.577l-.036,5.506H47.363l.005-5.507a.575.575,0,0,0-.575-.576h0l-1.322,0h0a.576.576,0,0,1-.456-.928l3.944-5.1a.966.966,0,0,1,1.53,0l3.944,5.1A.576.576,0,0,1,53.975,60.285Z" style="fill:#55498c"/><path d="M68.821,52.726a3.467,3.467,0,0,0-5.487,0l-3.943,5.1a3.077,3.077,0,0,0,1.831,4.9l0,3.636a2.5,2.5,0,0,0,2.5,2.5H68.4a2.5,2.5,0,0,0,2.5-2.484l.024-3.653a3.077,3.077,0,0,0,1.845-4.9Zm1.51,7.559h0l-1.322,0a.577.577,0,0,0-.577.577L68.4,66.366H63.719l0-5.507a.576.576,0,0,0-.576-.576h0l-1.322,0h0a.576.576,0,0,1-.455-.928l3.943-5.1a.967.967,0,0,1,1.531,0l3.943,5.1A.576.576,0,0,1,70.331,60.285Z" style="fill:#55498c"/><path d="M85.176,52.726a3.467,3.467,0,0,0-5.487,0l-3.943,5.1a3.077,3.077,0,0,0,1.831,4.9l0,3.636a2.5,2.5,0,0,0,2.5,2.5h4.677a2.5,2.5,0,0,0,2.5-2.484l.024-3.653a3.077,3.077,0,0,0,1.845-4.9Zm1.51,7.559h0l-1.322,0a.577.577,0,0,0-.576.577l-.036,5.506H80.074l0-5.507a.576.576,0,0,0-.576-.576h0l-1.322,0h0a.576.576,0,0,1-.456-.928l3.943-5.1a.967.967,0,0,1,1.531,0l3.943,5.1A.576.576,0,0,1,86.686,60.285Z" style="fill:#55498c"/><path d="M44.865,20.845l0,3.634a2.5,2.5,0,0,0,2.5,2.5h4.675a2.5,2.5,0,0,0,2.5-2.484l.024-3.65a3.077,3.077,0,0,0,1.844-4.9l-3.942-5.1a3.466,3.466,0,0,0-5.486,0l-3.942,5.1a3.078,3.078,0,0,0,1.83,4.9Zm.148-3.369,3.942-5.1a.966.966,0,0,1,1.53,0l3.941,5.1a.575.575,0,0,1-.455.927h0l-1.321,0a.576.576,0,0,0-.576.577l-.036,5.5H47.362l0-5.5a.575.575,0,0,0-.575-.576h0l-1.321,0h0A.576.576,0,0,1,45.013,17.476Z" style="fill:#55498c"/></svg>