<svg id="LinealColor" xmlns="http://www.w3.org/2000/svg" viewBox="0 0 128 128"><title>Binge eating, disease, hungry, mental health, disorder, mental illness, stress</title><path d="M94.559,124.951a2.163,2.163,0,0,0,2.083-2.764c-1.171-4.03-3.195-11.728-3.595-18.037-.249-3.927.939-9.35,3.342-12.467,9.584-12.435,13.833-23.208,11.827-36.468-3.251-21.488-18.427-32.87-39.41-33.947-22.932-1.187-42.57,13.543-41.938,33.857.083,2.682.552,6.63.541,9.209-.021,9.164-7.951,12.929-8.1,15.845-.25,4.789,5.375,3.293,7.359,10.068,2.519,8.6-1.091,18.409,10.63,17.8,4.676-.188,12.277-2,15.534,1.025,2.077,1.932,3.749,10.359,4.4,14.089a2.161,2.161,0,0,0,2.133,1.787Z" style="fill:#7171ff"/><path d="M72.132,60.628s-1.937,8.74-1.655,10.6c.182,1.231,13.1-8.333,13.1-8.333a29.92,29.92,0,1,0-11.441-2.263Z" style="fill:#eeefe1"/><path d="M74.616,46.108H67.852a1.731,1.731,0,0,1-1.729-1.645l-.784-15.877H77.128l-.784,15.877A1.73,1.73,0,0,1,74.616,46.108Z" style="fill:#fc5b5b"/><path d="M102.429,31.524a1.821,1.821,0,0,0,1.595-2.724c-1.649-2.735-5.564-5.1-10.131-5.1s-8.482,2.364-10.131,5.1a1.821,1.821,0,0,0,1.595,2.724Z" style="fill:#ffc91d"/><path d="M85.462,41.349h16.861a1.952,1.952,0,0,1,1.952,1.952v0a2.807,2.807,0,0,1-2.807,2.807H86.316A2.807,2.807,0,0,1,83.51,43.3v0a1.952,1.952,0,0,1,1.952-1.952Z" style="fill:#ffc91d"/><rect x="83.51" y="34.535" width="20.766" height="3.497" rx="1.749" ry="1.749" style="fill:#ff8f43"/><path d="M71.234,19.384a7.015,7.015,0,0,0-6.921,5.876,1,1,0,0,0,1,1.136H77.159a1,1,0,0,0,1-1.136A7.015,7.015,0,0,0,71.234,19.384Z" style="fill:#fff"/><path d="M94.56,126.2h-35.2A3.407,3.407,0,0,1,56,123.38c-1.243-7.109-2.784-12.239-4.021-13.39-2.087-1.94-6.991-1.424-10.931-1.009-1.327.14-2.58.273-3.7.318-9.66.5-10.233-5.733-10.787-11.76a36.5,36.5,0,0,0-1.093-6.94,8.362,8.362,0,0,0-4.126-5.165c-1.613-1.064-3.442-2.27-3.282-5.32.077-1.476,1.24-2.763,2.712-4.392,2.269-2.512,5.376-5.951,5.389-11.391.006-1.41-.14-3.294-.282-5.115-.114-1.47-.222-2.859-.259-4.052-.468-15.048,9.864-28.041,26.323-33.1a1.249,1.249,0,1,1,.735,2.388C37.325,29.172,27.685,41.2,28.116,55.086c.036,1.136.142,2.5.254,3.936.145,1.872.295,3.807.289,5.317-.014,6.4-3.638,10.405-6.034,13.058-1,1.111-2.04,2.258-2.071,2.848-.081,1.558.564,2.047,2.162,3.1a10.852,10.852,0,0,1,5.148,6.55,38.9,38.9,0,0,1,1.184,7.415c.565,6.152.9,9.869,8.182,9.491,1.055-.043,2.269-.171,3.554-.307,4.678-.493,9.975-1.051,12.9,1.664,2.167,2.016,3.8,9.155,4.782,14.789a.91.91,0,0,0,.9.753h35.2a.912.912,0,0,0,.736-.367.887.887,0,0,0,.145-.8c-1.185-4.08-3.234-11.883-3.641-18.308-.252-3.966.9-9.812,3.6-13.309C105.465,77.859,108.82,67.568,106.979,55.4a1.25,1.25,0,0,1,2.473-.373c1.928,12.746-1.682,23.937-12.073,37.417-2.294,2.977-3.3,8.211-3.085,11.626.393,6.186,2.392,13.787,3.548,17.768A3.411,3.411,0,0,1,94.56,126.2Z" style="fill:#55498c"/><path d="M34.317,92.626H26.961a1.25,1.25,0,0,1,0-2.5h7.356a1.25,1.25,0,1,1,0,2.5Z" style="fill:#55498c"/><circle cx="33.397" cy="66.247" r="2.15" style="fill:#55498c"/><path d="M102.429,32.773H85.356a3.107,3.107,0,0,1-2.7-1.58,2.979,2.979,0,0,1,.034-3.039c1.712-2.839,5.839-5.7,11.2-5.7s9.49,2.864,11.2,5.7a2.979,2.979,0,0,1,.034,3.039A3.107,3.107,0,0,1,102.429,32.773Zm-8.536-7.822c-4.364,0-7.755,2.33-9.061,4.494a.5.5,0,0,0,0,.519.6.6,0,0,0,.522.309h17.073a.6.6,0,0,0,.522-.309.5.5,0,0,0,0-.519C101.648,27.28,98.257,24.951,93.893,24.951Z" style="fill:#55498c"/><path d="M102.527,39.282H85.259a3,3,0,1,1,0-6h17.268a3,3,0,1,1,0,6Zm-17.268-3.5a.5.5,0,1,0,0,1h17.268a.5.5,0,1,0,0-1Z" style="fill:#55498c"/><path d="M101.47,47.357H86.316A4.06,4.06,0,0,1,82.26,43.3a3.205,3.205,0,0,1,3.2-3.2h16.861a3.205,3.205,0,0,1,3.2,3.2A4.06,4.06,0,0,1,101.47,47.357ZM85.462,42.6a.7.7,0,0,0-.7.7,1.558,1.558,0,0,0,1.556,1.556H101.47a1.558,1.558,0,0,0,1.556-1.556.7.7,0,0,0-.7-.7Z" style="fill:#55498c"/><path d="M74.616,47.357H67.852a2.978,2.978,0,0,1-2.977-2.832l-.784-15.878a1.251,1.251,0,0,1,1.248-1.311h11.79a1.251,1.251,0,0,1,1.248,1.311l-.784,15.877A2.978,2.978,0,0,1,74.616,47.357ZM66.652,29.836,67.371,44.4a.48.48,0,0,0,.481.456h6.764A.481.481,0,0,0,75.1,44.4l.718-14.564Z" style="fill:#55498c"/><path d="M78.246,27.646A1.25,1.25,0,0,1,77,26.4a5.762,5.762,0,0,0-11.524,0,1.25,1.25,0,0,1-2.5,0,8.262,8.262,0,0,1,16.524,0A1.25,1.25,0,0,1,78.246,27.646Z" style="fill:#55498c"/><path d="M71.235,20.634a1.25,1.25,0,0,1-1.21-1.569l2.33-8.856a1.25,1.25,0,1,1,2.418.637L72.443,19.7A1.25,1.25,0,0,1,71.235,20.634Z" style="fill:#55498c"/><path d="M70.553,72.581a1.141,1.141,0,0,1-.483-.109,1.358,1.358,0,0,1-.829-1.066c-.259-1.69.9-7.458,1.451-10.04a31.211,31.211,0,1,1,13.3,2.772C74.038,71.491,71.512,72.581,70.553,72.581ZM83.572,4.25A28.7,28.7,0,0,0,72.609,59.473a1.252,1.252,0,0,1,.744,1.425c-.588,2.653-1.313,6.4-1.566,8.581,2.3-1.33,6.937-4.552,11.041-7.593a1.256,1.256,0,0,1,.744-.245,28.7,28.7,0,1,0,0-57.391Z" style="fill:#55498c"/></svg>