<svg id="LinealColor" xmlns="http://www.w3.org/2000/svg" viewBox="0 0 128 128"><title>burn out, mental health, disorder, mental illness, low, energy, power</title><path d="M94.559,125a2.162,2.162,0,0,0,2.083-2.763c-1.171-4.031-3.195-11.729-3.595-18.037-.249-3.928.939-9.351,3.342-12.468,9.584-12.435,13.833-23.208,11.827-36.467-3.251-21.489-18.427-32.871-39.41-33.948C45.874,20.131,26.236,34.86,26.868,55.174c.083,2.682.552,6.63.541,9.209-.021,9.164-7.951,12.929-8.1,15.846-.25,4.788,5.375,3.293,7.359,10.067,2.519,8.6-1.091,18.409,10.63,17.8,4.676-.188,12.277-2,15.534,1.025,2.077,1.932,3.749,10.36,4.4,14.089A2.161,2.161,0,0,0,59.364,125Z" style="fill:#8babea"/><rect x="55.597" y="33.435" width="55.792" height="29" rx="7" ry="7" style="fill:#eeefe1"/><rect x="60.167" y="37.646" width="12.833" height="20.578" rx="4.771" ry="4.771" style="fill:#fc5b5b"/><path d="M111.389,41.622h1.563a3,3,0,0,1,3,3v6.625a3,3,0,0,1-3,3h-1.563a0,0,0,0,1,0,0V41.622A0,0,0,0,1,111.389,41.622Z" style="fill:#ffc91d"/><path d="M94.559,126.25H59.364A3.408,3.408,0,0,1,56,123.429c-1.243-7.108-2.784-12.239-4.021-13.389-2.087-1.942-6.99-1.425-10.929-1.009-1.328.14-2.583.272-3.7.317-9.657.508-10.233-5.732-10.786-11.76a36.549,36.549,0,0,0-1.093-6.941,8.373,8.373,0,0,0-4.126-5.165c-1.613-1.063-3.442-2.269-3.282-5.319.077-1.476,1.24-2.763,2.712-4.392,2.269-2.512,5.376-5.951,5.389-11.391.007-1.41-.14-3.292-.282-5.113-.114-1.471-.222-2.86-.259-4.054-.472-15.191,10-28.227,26.676-33.21A49.056,49.056,0,0,1,68.87,20.068c10.513.54,19.337,3.538,26.224,8.911a1.25,1.25,0,1,1-1.538,1.971c-6.474-5.051-14.824-7.872-24.814-8.385A46.475,46.475,0,0,0,53.01,24.4C37.452,29.047,27.681,41.112,28.117,55.135c.035,1.136.141,2.5.253,3.938.146,1.871.3,3.806.289,5.316-.015,6.4-3.637,10.405-6.034,13.058-1,1.11-2.04,2.257-2.07,2.847-.082,1.558.563,2.048,2.161,3.1a10.852,10.852,0,0,1,5.149,6.55,38.886,38.886,0,0,1,1.183,7.415c.566,6.153.9,9.873,8.182,9.491,1.055-.043,2.27-.171,3.557-.307,4.675-.492,9.973-1.049,12.893,1.665,2.167,2.015,3.8,9.154,4.782,14.789a.91.91,0,0,0,.9.752h35.2a.911.911,0,0,0,.737-.367.889.889,0,0,0,.146-.8c-1.186-4.078-3.234-11.878-3.643-18.306-.252-3.967.9-9.813,3.6-13.31,7.382-9.576,11.043-17.527,11.873-25.78a1.25,1.25,0,0,1,2.487.25c-.879,8.744-4.7,17.088-12.379,27.056-2.294,2.976-3.3,8.211-3.085,11.626.393,6.188,2.392,13.787,3.548,17.767a3.411,3.411,0,0,1-3.283,4.362Z" style="fill:#55498c"/><path d="M34.317,92.675H26.961a1.25,1.25,0,0,1,0-2.5h7.356a1.25,1.25,0,0,1,0,2.5Z" style="fill:#55498c"/><circle cx="33.397" cy="66.296" r="2.15" style="fill:#55498c"/><path d="M104.389,63.685H62.6a8.259,8.259,0,0,1-8.25-8.25v-15a8.259,8.259,0,0,1,8.25-8.25h41.792a8.259,8.259,0,0,1,8.25,8.25v15A8.259,8.259,0,0,1,104.389,63.685Zm-41.792-29a5.757,5.757,0,0,0-5.75,5.75v15a5.757,5.757,0,0,0,5.75,5.75h41.792a5.757,5.757,0,0,0,5.75-5.75v-15a5.757,5.757,0,0,0-5.75-5.75Z" style="fill:#55498c"/><path d="M68.229,59.474H64.938a6.028,6.028,0,0,1-6.021-6.021V42.417A6.028,6.028,0,0,1,64.938,36.4h3.291a6.028,6.028,0,0,1,6.021,6.021V53.453A6.028,6.028,0,0,1,68.229,59.474ZM64.938,38.9a3.525,3.525,0,0,0-3.521,3.521V53.453a3.525,3.525,0,0,0,3.521,3.521h3.291a3.526,3.526,0,0,0,3.521-3.521V42.417A3.526,3.526,0,0,0,68.229,38.9Z" style="fill:#55498c"/><path d="M112.951,55.5h-1.562a1.25,1.25,0,0,1-1.25-1.25V41.623a1.249,1.249,0,0,1,1.25-1.25h1.562a4.255,4.255,0,0,1,4.25,4.25v6.625A4.255,4.255,0,0,1,112.951,55.5Zm-.312-2.5h.312a1.753,1.753,0,0,0,1.75-1.75V44.623a1.752,1.752,0,0,0-1.75-1.75h-.312Z" style="fill:#55498c"/></svg>