<svg id="LinealColor" xmlns="http://www.w3.org/2000/svg" viewBox="0 0 128 128"><title>disease, Alzheimer, mental health, disorder, mental illness, forgot, loss</title><path d="M99.43,121.847a2.37,2.37,0,0,0,2.282-3.029c-1.283-4.416-3.5-12.852-3.94-19.765-.273-4.3,1.03-10.247,3.663-13.663,10.5-13.626,15.158-25.432,12.96-39.962C110.832,21.88,94.2,9.407,71.208,8.227c-25.129-1.3-46.65,14.84-45.957,37.1.091,2.938.605,7.265.593,10.092-.024,10.042-8.713,14.167-8.88,17.363-.274,5.248,5.891,3.609,8.065,11.033,2.76,9.425-1.2,20.173,11.648,19.509,5.125-.206,13.454-2.195,17.023,1.124,2.276,2.116,4.108,11.352,4.824,15.439a2.367,2.367,0,0,0,2.337,1.958Z" style="fill:#eeefe1"/><path d="M99.43,123.1h-.2a1.25,1.25,0,0,1,0-2.5h.2a1.114,1.114,0,0,0,1.121-1.229,1.25,1.25,0,1,1,2.486-.264,3.476,3.476,0,0,1,.02.379A3.624,3.624,0,0,1,99.43,123.1Zm-4.172,0H91.287a1.25,1.25,0,0,1,0-2.5h3.971a1.25,1.25,0,0,1,0,2.5Zm-7.942,0h-3.97a1.25,1.25,0,0,1,0-2.5h3.97a1.25,1.25,0,0,1,0,2.5Zm-7.941,0H75.4a1.25,1.25,0,0,1,0-2.5h3.971a1.25,1.25,0,0,1,0,2.5Zm-7.941,0H67.463a1.25,1.25,0,0,1,0-2.5h3.971a1.25,1.25,0,0,1,0,2.5Zm-7.942,0H60.861a3.63,3.63,0,0,1-1.936-.559,1.25,1.25,0,1,1,1.334-2.115,1.118,1.118,0,0,0,.6.174h2.631a1.25,1.25,0,1,1,0,2.5Zm-5.331-3.926a1.248,1.248,0,0,1-1.226-1.015c-.255-1.335-.527-2.628-.808-3.844a1.25,1.25,0,1,1,2.435-.562c.289,1.246.567,2.571.828,3.937a1.25,1.25,0,0,1-.994,1.462A1.182,1.182,0,0,1,58.161,119.171Zm42.6-2.519a1.251,1.251,0,0,1-1.208-.931c-.316-1.2-.647-2.51-.968-3.89a1.25,1.25,0,1,1,2.434-.569c.317,1.356.64,2.644.952,3.82a1.252,1.252,0,0,1-.89,1.528A1.267,1.267,0,0,1,100.764,116.652Zm-44.419-5.218a1.251,1.251,0,0,1-1.2-.9,26.371,26.371,0,0,0-1.286-3.562,1.251,1.251,0,0,1,2.268-1.055,28.85,28.85,0,0,1,1.415,3.908,1.252,1.252,0,0,1-1.2,1.605Zm42.621-2.522A1.25,1.25,0,0,1,97.74,107.9c-.27-1.376-.5-2.712-.689-3.971a1.25,1.25,0,1,1,2.472-.369c.182,1.222.408,2.52.67,3.858a1.247,1.247,0,0,1-1.227,1.491Zm-46.561-4.1a1.245,1.245,0,0,1-.562-.134,9.1,9.1,0,0,0-3.37-.817,1.25,1.25,0,1,1,.2-2.492,11.541,11.541,0,0,1,4.294,1.076,1.251,1.251,0,0,1-.565,2.367Zm-16.833-.206a15.3,15.3,0,0,1-3.077-.285,1.25,1.25,0,1,1,.5-2.448,12.893,12.893,0,0,0,2.573.233h.008q.5,0,1.032-.027a1.25,1.25,0,0,1,.186,2.493c-.034,0-.087,0-.121,0-.337.019-.724.029-1.1.029Zm5.221-.379-.262-2.486c1.3-.137,2.644-.279,4-.364a1.25,1.25,0,0,1,.159,2.495C43.385,103.953,42.067,104.092,40.793,104.226Zm-.143-1.242h0Zm-11.417-.337a1.248,1.248,0,0,1-.852-.335,8.724,8.724,0,0,1-2.318-3.924,1.25,1.25,0,0,1,2.389-.74,6.3,6.3,0,0,0,1.634,2.835,1.25,1.25,0,0,1-.853,2.164Zm68.592-1.594a1.251,1.251,0,0,1-1.245-1.148c-.02-.26-.039-.518-.055-.774q-.038-.6-.038-1.24c0-.7.034-1.424.1-2.168a1.25,1.25,0,1,1,2.49.228c-.061.669-.093,1.321-.093,1.94,0,.371.011.733.034,1.084.014.24.031.483.051.727a1.25,1.25,0,0,1-1.144,1.347C97.894,101.052,97.858,101.053,97.825,101.053ZM26.518,95.372a1.253,1.253,0,0,1-1.241-1.107c-.091-.8-.168-1.627-.246-2.473-.045-.5-.091-1-.141-1.5a1.25,1.25,0,0,1,2.488-.248c.051.512.1,1.02.143,1.52.076.827.15,1.635.241,2.415a1.25,1.25,0,0,1-1.1,1.385A1.2,1.2,0,0,1,26.518,95.372Zm71.988-2.2a1.25,1.25,0,0,1-1.213-1.555,23.449,23.449,0,0,1,1.364-3.962,1.25,1.25,0,0,1,2.278,1.032,20.974,20.974,0,0,0-1.218,3.54A1.251,1.251,0,0,1,98.506,93.176ZM25.6,87.481a1.25,1.25,0,0,1-1.228-1.018,23.534,23.534,0,0,0-.543-2.295,11.4,11.4,0,0,0-.448-1.261,1.25,1.25,0,1,1,2.3-.981,14.34,14.34,0,0,1,.549,1.538c.232.8.428,1.623.6,2.536a1.249,1.249,0,0,1-1,1.46A1.228,1.228,0,0,1,25.6,87.481Zm76.279-1.423a1.25,1.25,0,0,1-.993-2.008c.82-1.077,1.6-2.142,2.321-3.163a1.25,1.25,0,1,1,2.043,1.44c-.737,1.047-1.536,2.136-2.376,3.238A1.247,1.247,0,0,1,101.879,86.058ZM22.3,80.424a1.245,1.245,0,0,1-.861-.343,15.22,15.22,0,0,0-2.182-1.641c-.3-.2-.6-.394-.875-.59a1.25,1.25,0,1,1,1.443-2.041c.257.181.527.359.807.544a17.311,17.311,0,0,1,2.528,1.915,1.249,1.249,0,0,1-.86,2.156Zm84.144-.859a1.249,1.249,0,0,1-1.051-1.924c.723-1.13,1.4-2.253,2.016-3.34a1.25,1.25,0,0,1,2.176,1.232c-.637,1.125-1.339,2.288-2.087,3.456A1.248,1.248,0,0,1,106.446,79.565ZM16.98,74.906a1.25,1.25,0,0,1-1.241-1.122,6.439,6.439,0,0,1-.033-.668c0-.128,0-.26.011-.4a6.161,6.161,0,0,1,1.761-3.406,1.25,1.25,0,0,1,1.908,1.614,5.058,5.058,0,0,0-1.173,1.924c-.005.088-.007.178-.007.264,0,.145.007.282.02.412A1.251,1.251,0,0,1,17.11,74.9C17.066,74.9,17.023,74.906,16.98,74.906Zm93.364-2.253a1.25,1.25,0,0,1-1.124-1.794c.573-1.188,1.1-2.381,1.553-3.548a1.251,1.251,0,0,1,2.329.913c-.482,1.226-1.031,2.478-1.632,3.723A1.248,1.248,0,0,1,110.344,72.653ZM21.062,68.394a1.251,1.251,0,0,1-.954-2.057,23.74,23.74,0,0,0,2.232-3.043,1.25,1.25,0,0,1,2.137,1.3,26.42,26.42,0,0,1-2.458,3.359A1.249,1.249,0,0,1,21.062,68.394Zm92.167-3.128a1.254,1.254,0,0,1-1.2-1.605c.367-1.242.676-2.5.917-3.739a1.25,1.25,0,1,1,2.453.478c-.255,1.316-.583,2.651-.971,3.969A1.252,1.252,0,0,1,113.229,65.266ZM25.072,61.6a1.25,1.25,0,0,1-1.188-1.637,14.6,14.6,0,0,0,.678-3.579,1.25,1.25,0,1,1,2.495.158,17.087,17.087,0,0,1-.8,4.194A1.25,1.25,0,0,1,25.072,61.6Zm89.671-4.115c-.04,0-.08,0-.12-.005a1.251,1.251,0,0,1-1.126-1.363c.119-1.252.18-2.535.181-3.811a1.264,1.264,0,0,1,1.25-1.266h0a1.235,1.235,0,0,1,1.25,1.232q0,2.085-.193,4.082A1.249,1.249,0,0,1,114.743,57.485ZM25.735,53.746a1.249,1.249,0,0,1-1.246-1.171c-.057-.907-.132-1.856-.205-2.8L24.2,48.627a1.25,1.25,0,1,1,2.492-.187l.089,1.145c.075.952.149,1.914.206,2.832a1.25,1.25,0,0,1-1.168,1.327Zm89.008-4.189A1.251,1.251,0,0,1,113.5,48.42c-.083-.924-.2-1.868-.34-2.8q-.08-.521-.167-1.033a1.25,1.25,0,1,1,2.465-.42c.061.357.118.716.174,1.078.149.987.269,1.981.358,2.954a1.249,1.249,0,0,1-1.133,1.358A1.08,1.08,0,0,1,114.743,49.557Zm-89.507-3.74a1.25,1.25,0,0,1-1.25-1.236l0-.3a34.155,34.155,0,0,1,.215-3.819,1.25,1.25,0,0,1,2.485.282,31.512,31.512,0,0,0-.2,3.537l0,.269a1.25,1.25,0,0,1-1.237,1.263Zm88.182-4.08a1.251,1.251,0,0,1-1.213-.951c-.313-1.271-.676-2.52-1.075-3.712a1.25,1.25,0,1,1,2.369-.8c.422,1.257.8,2.572,1.134,3.91a1.252,1.252,0,0,1-1.215,1.549ZM26.135,37.953a1.254,1.254,0,0,1-1.216-1.544,32.433,32.433,0,0,1,1.221-3.938,1.25,1.25,0,1,1,2.336.888A30.228,30.228,0,0,0,27.349,37,1.251,1.251,0,0,1,26.135,37.953Zm84.759-3.731a1.252,1.252,0,0,1-1.148-.751c-.514-1.181-1.086-2.343-1.7-3.453a1.25,1.25,0,1,1,2.187-1.21c.653,1.179,1.259,2.412,1.805,3.665a1.25,1.25,0,0,1-1.145,1.749Zm-81.953-3.67a1.25,1.25,0,0,1-1.1-1.834A34.693,34.693,0,0,1,29.974,25.2a1.25,1.25,0,1,1,2.056,1.422,32.16,32.16,0,0,0-1.982,3.262A1.251,1.251,0,0,1,28.941,30.552Zm78.11-3.26a1.249,1.249,0,0,1-1.029-.538,37.159,37.159,0,0,0-2.345-3.038,1.25,1.25,0,1,1,1.9-1.629,39.34,39.34,0,0,1,2.5,3.244,1.249,1.249,0,0,1-1.026,1.961Zm-73.61-3.26a1.249,1.249,0,0,1-.94-2.072,38.827,38.827,0,0,1,2.86-2.94,1.25,1.25,0,0,1,1.7,1.836A36.242,36.242,0,0,0,34.384,23.6,1.245,1.245,0,0,1,33.441,24.032Zm68.447-2.75a1.245,1.245,0,0,1-.858-.341,36.853,36.853,0,0,0-2.924-2.483,1.25,1.25,0,0,1,1.518-1.987,39.258,39.258,0,0,1,3.121,2.652,1.25,1.25,0,0,1-.857,2.159ZM39.256,18.646A1.251,1.251,0,0,1,38.5,16.4c1.075-.81,2.212-1.584,3.379-2.3a1.25,1.25,0,1,1,1.308,2.13c-1.1.676-2.17,1.405-3.181,2.168A1.253,1.253,0,0,1,39.256,18.646Zm56.338-2.177a1.245,1.245,0,0,1-.655-.185c-1.077-.663-2.21-1.288-3.371-1.858a1.25,1.25,0,1,1,1.1-2.244c1.23.605,2.434,1.268,3.578,1.973a1.25,1.25,0,0,1-.656,2.314ZM46.01,14.489a1.251,1.251,0,0,1-.558-2.37c1.2-.6,2.454-1.154,3.726-1.654a1.25,1.25,0,1,1,.916,2.326c-1.2.475-2.392,1-3.529,1.566A1.243,1.243,0,0,1,46.01,14.489Zm42.473-1.523a1.269,1.269,0,0,1-.449-.084c-1.178-.454-2.41-.871-3.662-1.239a1.25,1.25,0,0,1,.7-2.4c1.318.388,2.615.827,3.856,1.3a1.251,1.251,0,0,1-.45,2.417Zm-35.1-1.387a1.251,1.251,0,0,1-.362-2.448c1.284-.387,2.609-.73,3.941-1.018a1.25,1.25,0,1,1,.529,2.443c-1.266.275-2.527.6-3.747.969A1.259,1.259,0,0,1,53.387,11.579Zm27.491-.858a1.312,1.312,0,0,1-.262-.028c-1.242-.265-2.528-.493-3.823-.678a1.25,1.25,0,1,1,.353-2.475c1.351.192,2.694.431,3.992.708a1.25,1.25,0,0,1-.26,2.473ZM61.138,9.9a1.25,1.25,0,0,1-.168-2.489c1.333-.182,2.693-.317,4.044-.4A1.25,1.25,0,1,1,65.166,9.5c-1.288.08-2.586.207-3.856.382A1.265,1.265,0,0,1,61.138,9.9Zm11.885-.3c-.032,0-.065,0-.1,0q-.884-.069-1.78-.115-1.056-.055-2.1-.067a1.25,1.25,0,0,1,.016-2.5h.015q1.1.013,2.2.07.93.048,1.849.12a1.25,1.25,0,0,1-.1,2.5Z" style="fill:#8babea"/></svg>