<svg id="LinealColor" xmlns="http://www.w3.org/2000/svg" viewBox="0 0 128 128"><title>Dissociative, Multiple Personality, mental health, disorder, mental illness, schizophrenia, psycho</title><path d="M74.007,114.123a2.04,2.04,0,0,0,1.964-2.606A88.08,88.08,0,0,1,72.58,94.508c-.235-3.7.886-8.819,3.152-11.758C84.77,71.024,88.777,60.864,86.885,48.36c-3.066-20.264-17.377-31-37.165-32.014C28.1,15.227,9.575,29.118,10.171,48.275c.079,2.529.521,6.252.511,8.684C10.661,65.6,3.184,69.152,3.04,71.9,2.8,76.418,8.109,75.007,9.98,81.4,12.355,89.507,8.951,98.757,20,98.185c4.41-.177,7.557-1.889,10.629.967,1.959,1.821,3.556,9.769,4.171,13.286a2.038,2.038,0,0,0,2.012,1.685Z" style="fill:#eeefe1"/><path d="M92.818,114.123a2.04,2.04,0,0,0,1.965-2.606,88.08,88.08,0,0,1-3.391-17.009c-.235-3.7.886-8.819,3.152-11.758,9.038-11.726,13.045-21.886,11.153-34.39-3.066-20.264-17.377-31-37.165-32.014C46.907,15.227,28.387,29.118,28.983,48.275c.078,2.529.521,6.252.511,8.684C29.473,65.6,22,69.152,21.852,71.9c-.236,4.516,5.069,3.105,6.94,9.494,2.375,8.111-1.029,17.361,10.024,16.789,4.41-.177,7.557-1.889,10.629.967,1.959,1.821,3.556,9.769,4.171,13.286a2.038,2.038,0,0,0,2.012,1.685Z" style="fill:#8babea"/><circle cx="53.985" cy="58.764" r="2.028" style="fill:#8aad93"/><path d="M111.663,114.123a2.039,2.039,0,0,0,1.964-2.606,88.01,88.01,0,0,1-3.39-17.009c-.235-3.7.885-8.819,3.151-11.758,9.039-11.726,13.045-21.886,11.153-34.39-3.065-20.264-17.377-31-37.165-32.014C65.751,15.227,47.231,29.118,47.827,48.275c.079,2.529.521,6.252.511,8.684C48.318,65.6,40.84,69.152,40.7,71.9c-.236,4.516,5.07,3.105,6.94,9.494,2.376,8.111-1.029,17.361,10.024,16.789,4.411-.177,11.578-1.889,14.65.967,1.958,1.821,3.535,9.769,4.151,13.286a2.037,2.037,0,0,0,2.011,1.685Z" style="fill:#7171ff"/><path d="M19.408,81.351a2.059,2.059,0,0,0-1.66-.84H12.779l1.211,4.121h3.758A2.06,2.06,0,0,0,19.408,81.351Z" style="fill:#fff"/><path d="M111.663,115.373H78.472a3.285,3.285,0,0,1-3.243-2.72c-1.152-6.587-2.632-11.528-3.771-12.586-1.944-1.808-6.551-1.322-10.251-.933-1.253.133-2.436.257-3.5.3C48.536,99.908,47.991,94,47.465,88.28a34.363,34.363,0,0,0-1.028-6.532,7.834,7.834,0,0,0-3.861-4.832c-1.538-1.013-3.281-2.162-3.128-5.079.074-1.418,1.178-2.64,2.576-4.187,2.251-2.491,5.052-5.591,5.064-10.693.005-1.327-.132-3.1-.265-4.814-.108-1.389-.21-2.7-.245-3.829A29.484,29.484,0,0,1,55.7,26.182C63.542,18.5,75.115,14.462,87.441,15.1c21.349,1.1,35.322,13.152,38.336,33.075,1.822,12.042-1.587,22.611-11.4,35.34-2.152,2.793-3.1,7.709-2.894,10.916a86.882,86.882,0,0,0,3.343,16.739,3.287,3.287,0,0,1-3.164,4.2ZM66.4,96.262c2.649,0,5.1.433,6.76,1.974,2.057,1.913,3.6,8.662,4.531,13.987a.788.788,0,0,0,.78.65h33.191a.791.791,0,0,0,.638-.317.771.771,0,0,0,.126-.69,89.3,89.3,0,0,1-3.438-17.279c-.238-3.754.856-9.288,3.409-12.6,9.48-12.3,12.64-21.987,10.908-33.44-2.821-18.641-15.94-29.922-35.994-30.952-11.636-.609-22.518,3.178-29.862,10.372a26.661,26.661,0,0,0-8.373,20.269c.033,1.07.132,2.354.238,3.713.137,1.765.279,3.59.273,5.016-.014,6.058-3.442,9.851-5.709,12.361-.894.989-1.907,2.111-1.935,2.642-.073,1.415.458,1.84,2.007,2.861a10.294,10.294,0,0,1,4.885,6.216,36.9,36.9,0,0,1,1.119,7.006c.528,5.76.827,9.238,7.641,8.886.993-.041,2.137-.161,3.348-.289A53.112,53.112,0,0,1,66.4,96.262Z" style="fill:#55498c"/><path d="M54.853,83.71H47.916a1.25,1.25,0,1,1,0-2.5h6.937a1.25,1.25,0,0,1,0,2.5Z" style="fill:#55498c"/><circle cx="53.985" cy="58.764" r="2.028" style="fill:#55498c"/><path d="M73.119,115.373H56.46a3.285,3.285,0,0,1-3.243-2.72c-1.077-6.159-2.592-11.033-3.77-12.129a1.25,1.25,0,1,1,1.7-1.831c2.249,2.092,3.8,9.375,4.531,13.53a.788.788,0,0,0,.78.65H73.119a1.25,1.25,0,0,1,0,2.5Z" style="fill:#55498c"/><path d="M50.927,115.373H36.8a3.285,3.285,0,0,1-3.243-2.72c-1.152-6.587-2.632-11.528-3.77-12.586a1.25,1.25,0,1,1,1.7-1.831c2.058,1.913,3.6,8.662,4.531,13.987a.788.788,0,0,0,.78.65H50.927a1.25,1.25,0,1,1,0,2.5Z" style="fill:#55498c"/><path d="M37.859,99.461c-8.211,0-8.733-5.681-9.238-11.182a34.355,34.355,0,0,0-1.029-6.531,7.827,7.827,0,0,0-3.861-4.832c-1.537-1.013-3.28-2.162-3.127-5.079.074-1.418,1.178-2.64,2.576-4.187,2.251-2.491,5.051-5.592,5.064-10.693,0-1.327-.133-3.1-.265-4.814-.108-1.389-.21-2.7-.246-3.829a29.487,29.487,0,0,1,9.123-22.132C44.7,18.5,56.275,14.468,68.6,15.1a1.25,1.25,0,0,1-.129,2.5c-11.641-.61-22.519,3.178-29.862,10.372a26.665,26.665,0,0,0-8.373,20.269c.034,1.07.133,2.354.239,3.713.137,1.765.279,3.59.273,5.016-.015,6.058-3.442,9.851-5.709,12.361-.894.989-1.907,2.111-1.934,2.641-.075,1.416.457,1.841,2.006,2.862a10.3,10.3,0,0,1,4.885,6.216,36.823,36.823,0,0,1,1.118,7c.529,5.761.83,9.239,7.641,8.887.994-.041,2.139-.161,3.351-.289a49.8,49.8,0,0,1,5.835-.38,1.252,1.252,0,0,1,1.229,1.272,1.238,1.238,0,0,1-1.272,1.228,45.334,45.334,0,0,0-5.53.366c-1.254.133-2.438.258-3.5.3C38.518,99.452,38.183,99.461,37.859,99.461Z" style="fill:#55498c"/><circle cx="35.14" cy="58.764" r="2.028" style="fill:#55498c"/><path d="M19.015,99.461c-8.212,0-8.733-5.681-9.239-11.182a34.286,34.286,0,0,0-1.028-6.531,7.834,7.834,0,0,0-3.861-4.832C3.35,75.9,1.607,74.754,1.759,71.837c.074-1.418,1.179-2.64,2.576-4.187C6.586,65.159,9.387,62.058,9.4,56.957c.006-1.328-.132-3.1-.265-4.818-.108-1.388-.21-2.7-.245-3.825a29.484,29.484,0,0,1,9.123-22.132c7.841-7.682,19.41-11.72,31.74-11.084a1.25,1.25,0,1,1-.129,2.5c-11.64-.612-22.518,3.178-29.862,10.372a26.661,26.661,0,0,0-8.373,20.269c.033,1.069.133,2.351.238,3.709.138,1.766.279,3.593.273,5.02-.014,6.058-3.441,9.851-5.709,12.361-.893.989-1.906,2.111-1.934,2.641-.074,1.416.458,1.841,2.007,2.862a10.3,10.3,0,0,1,4.884,6.216,36.825,36.825,0,0,1,1.119,7.006c.529,5.76.838,9.243,7.641,8.886.993-.041,2.138-.161,3.349-.289,1.47-.155,2.989-.315,4.5-.366a1.25,1.25,0,1,1,.085,2.5c-1.422.049-2.9.2-4.321.354-1.253.133-2.437.257-3.5.3C19.674,99.452,19.338,99.461,19.015,99.461Z" style="fill:#55498c"/><circle cx="16.296" cy="58.764" r="2.028" style="fill:#55498c"/><path d="M17.748,85.882H13.99a1.25,1.25,0,1,1,0-2.5h3.758a.811.811,0,0,0,.653-1.291.812.812,0,0,0-.653-.33H12.779a1.25,1.25,0,1,1,0-2.5h4.969a3.311,3.311,0,1,1,0,6.621Z" style="fill:#55498c"/><path d="M29.813,84.414a6.253,6.253,0,0,1-.753-.036,1.25,1.25,0,0,1,.309-2.481,11.828,11.828,0,0,0,5.637-1.236,1.25,1.25,0,1,1,1.036,2.275A15.271,15.271,0,0,1,29.813,84.414Z" style="fill:#55498c"/></svg>