<svg id="LinealColor" xmlns="http://www.w3.org/2000/svg" viewBox="0 0 128 128"><title>Dyslexia, symptom, mental health, disorder, mental illness, autism, learning</title><path d="M94.559,125a2.162,2.162,0,0,0,2.083-2.763c-1.171-4.031-3.195-11.729-3.595-18.037-.249-3.928.939-9.351,3.342-12.468,9.584-12.435,13.833-23.208,11.827-36.467-3.251-21.489-18.427-32.871-39.41-33.948C45.874,20.131,26.236,34.86,26.868,55.174c.083,2.682.552,6.63.541,9.209-.021,9.164-7.951,12.929-8.1,15.846-.25,4.788,5.375,3.293,7.359,10.067,2.519,8.6-1.091,18.409,10.63,17.8,4.676-.188,12.277-2,15.534,1.025,2.077,1.932,3.749,10.36,4.4,14.089A2.161,2.161,0,0,0,59.364,125Z" style="fill:#eeefe1"/><path d="M48.146,29.484l-3.215-.075a2.233,2.233,0,0,1-2.181-2.285l.242-10.344A2.234,2.234,0,0,1,45.278,14.6l3.215.077a2.972,2.972,0,1,1,4.249.1l3.952.091A2.21,2.21,0,0,1,58.877,17.1L58.8,20.246a2.994,2.994,0,0,1,2.1-.78,2.907,2.907,0,1,1-.135,5.81,3,3,0,0,1-2.058-.876l-.073,3.143a2.209,2.209,0,0,1-2.284,2.132L52.4,29.583a2.972,2.972,0,1,0-5.041-2.21A3,3,0,0,0,48.146,29.484Z" style="fill:#ffc91d"/><path d="M89.122,18.422l-.074-3.215a2.234,2.234,0,0,0-2.286-2.181l-10.344.242a2.234,2.234,0,0,0-2.181,2.286l.076,3.215a2.972,2.972,0,1,0,.1,4.249L74.5,26.97a2.21,2.21,0,0,0,2.236,2.183l3.144-.075a3,3,0,0,0-.78,2.1,2.907,2.907,0,1,0,5.811-.136,3,3,0,0,0-.877-2.058l3.144-.072a2.211,2.211,0,0,0,2.132-2.285l-.093-3.953a2.972,2.972,0,1,1-2.21-5.041A3,3,0,0,1,89.122,18.422Z" style="fill:#29d3be"/><path d="M61.744,10.143a1.739,1.739,0,0,1-2.225-.932c-.827-1.892-2.046-4.984-1.631-5.816.625-1.22,3.918-1.926,4.847-1.1.951.844,1.078,4.086,1.067,5.882A1.735,1.735,0,0,1,62.676,9.79Z" style="fill:#8babea"/><path d="M70.2,8.643a1.288,1.288,0,0,1-.99-1.466c.248-1.494.735-3.888,1.326-4.221.872-.5,3.181.379,3.421,1.255.242.9-.98,2.943-1.693,4.043a1.292,1.292,0,0,1-1.35.543Z" style="fill:#8babea"/><path d="M94.56,126.25h-35.2A3.408,3.408,0,0,1,56,123.429c-1.243-7.109-2.784-12.239-4.021-13.389-2.087-1.943-6.991-1.425-10.929-1.009-1.327.14-2.582.272-3.7.317-9.629.515-10.232-5.732-10.786-11.76a36.549,36.549,0,0,0-1.093-6.941,8.373,8.373,0,0,0-4.126-5.165c-1.613-1.063-3.442-2.269-3.282-5.318.077-1.477,1.239-2.764,2.712-4.393,2.269-2.512,5.376-5.951,5.389-11.391.006-1.41-.14-3.294-.282-5.115-.114-1.47-.222-2.858-.259-4.052C25.3,44.9,29.937,35.534,38.684,28.846A1.25,1.25,0,1,1,40.2,30.832c-8.089,6.185-12.381,14.816-12.087,24.3.036,1.135.142,2.495.254,3.935.145,1.872.295,3.807.289,5.318-.014,6.4-3.638,10.405-6.035,13.058-1,1.11-2.039,2.257-2.07,2.847-.081,1.558.564,2.047,2.162,3.1a10.852,10.852,0,0,1,5.148,6.55,38.893,38.893,0,0,1,1.184,7.414c.565,6.154.911,9.873,8.182,9.492,1.055-.043,2.271-.171,3.557-.307,4.676-.492,9.974-1.049,12.894,1.665,2.166,2.014,3.8,9.154,4.781,14.789a.91.91,0,0,0,.9.752h35.2a.912.912,0,0,0,.736-.367.89.89,0,0,0,.145-.8c-1.185-4.079-3.234-11.881-3.641-18.306-.252-3.967.9-9.814,3.6-13.31,10.067-13.061,13.422-23.351,11.581-35.517-1.726-11.412-6.835-20.088-15.185-25.788A1.25,1.25,0,0,1,93.2,27.6c8.82,6.022,14.439,15.524,16.248,27.479C111.38,67.824,107.77,79.014,97.379,92.5c-2.294,2.976-3.3,8.211-3.085,11.626.393,6.185,2.392,13.786,3.548,17.767a3.412,3.412,0,0,1-3.282,4.362Z" style="fill:#55498c"/><path d="M34.317,92.675H26.961a1.25,1.25,0,0,1,0-2.5h7.356a1.25,1.25,0,0,1,0,2.5Z" style="fill:#55498c"/><circle cx="33.397" cy="66.296" r="2.15" style="fill:#55498c"/><path d="M56.4,30.926h-.084l-3.953-.092a1.25,1.25,0,0,1-.842-2.147,1.721,1.721,0,0,0-1.153-2.957,1.735,1.735,0,0,0-1.23.472,1.713,1.713,0,0,0-.536,1.2,1.752,1.752,0,0,0,.458,1.229A1.249,1.249,0,0,1,49.286,30a1.208,1.208,0,0,1-1.169.736L44.9,30.659a3.484,3.484,0,0,1-3.4-3.565l.241-10.344a3.489,3.489,0,0,1,3.483-3.4h.083l1.2.028a4.3,4.3,0,0,1-.062-.828,4.223,4.223,0,0,1,8.443.2,4.279,4.279,0,0,1-.1.826l1.938.045a3.465,3.465,0,0,1,3.4,3.514L60.1,18.276a4.155,4.155,0,1,1-.191,8.151l-.026,1.145A3.464,3.464,0,0,1,56.4,30.926ZM54.444,28.38l1.933.046a.99.99,0,0,0,1.006-.912l.072-3.143a1.25,1.25,0,0,1,2.135-.854,1.74,1.74,0,0,0,1.2.509h.043a1.657,1.657,0,1,0,.035-3.312,1.723,1.723,0,0,0-1.224.454,1.25,1.25,0,0,1-2.093-.953l.075-3.144a.962.962,0,0,0-.962-.957l-3.953-.092a1.25,1.25,0,0,1-.844-2.144,1.722,1.722,0,0,0-1.162-2.954,1.743,1.743,0,0,0-1.762,1.682,1.716,1.716,0,0,0,.463,1.215,1.251,1.251,0,0,1,.227,1.365,1.2,1.2,0,0,1-1.171.737l-3.216-.076h-.022a.985.985,0,0,0-.984.962L44,27.153a.984.984,0,0,0,.961,1.007l1.2.028a4.429,4.429,0,0,1-.062-.849,4.222,4.222,0,0,1,8.442.222A4.287,4.287,0,0,1,54.444,28.38Z" style="fill:#55498c"/><path d="M82.01,35.329a4.093,4.093,0,0,1-2.878-1.179A4.23,4.23,0,0,1,77.854,31.2a4.473,4.473,0,0,1,.061-.829L76.77,30.4a3.366,3.366,0,0,1-2.462-.973A3.482,3.482,0,0,1,73.254,27l-.045-1.936a4.278,4.278,0,0,1-.826.1,4.222,4.222,0,1,1,.633-8.379l-.03-1.2a3.489,3.489,0,0,1,3.4-3.564l10.343-.243a3.485,3.485,0,0,1,3.566,3.4l.074,3.215a1.25,1.25,0,0,1-2.1.944,1.7,1.7,0,0,0-1.228-.458,1.722,1.722,0,0,0-1.14,2.97,1.669,1.669,0,0,0,1.231.473,1.715,1.715,0,0,0,1.191-.523,1.25,1.25,0,0,1,2.147.842l.091,3.953a3.485,3.485,0,0,1-.938,2.476,3.388,3.388,0,0,1-2.414,1.087l-1.146.027a4.347,4.347,0,0,1,.1.825,4.229,4.229,0,0,1-1.137,3,4.094,4.094,0,0,1-2.919,1.315Zm-2.126-7.5a1.25,1.25,0,0,1,.923,2.093,1.77,1.77,0,0,0,.07,2.44,1.7,1.7,0,0,0,1.173.467,1.614,1.614,0,0,0,1.149-.521,1.773,1.773,0,0,0-.044-2.441,1.25,1.25,0,0,1,.854-2.134l3.143-.073a.907.907,0,0,0,.645-.294.994.994,0,0,0,.266-.711l-.044-1.934a4.287,4.287,0,0,1-.82.1,4.222,4.222,0,1,1,.627-8.377L87.8,15.236a.976.976,0,0,0-.3-.689,1.039,1.039,0,0,0-.7-.272l-10.344.243a.985.985,0,0,0-.961,1.007l.077,3.214a1.25,1.25,0,0,1-2.1.944,1.772,1.772,0,0,0-1.217-.463A1.722,1.722,0,0,0,71.1,22.188a1.816,1.816,0,0,0,1.228.475,1.716,1.716,0,0,0,1.193-.518,1.249,1.249,0,0,1,2.144.844l.092,3.952a1,1,0,0,0,.3.7.953.953,0,0,0,.657.263l3.143-.074Z" style="fill:#55498c"/><path d="M63.9,1.4A3.863,3.863,0,0,0,61.249.5h0c-1.728,0-3.981.765-4.841,2.446-.572,1.144-.562,2.559,1.148,6.472A3.794,3.794,0,0,0,62.4,11.445l.687-.26a3.8,3.8,0,0,0,2.452-3.537C65.563,3.443,64.725,2.127,63.9,1.4ZM62.2,8.847l-.694.264a1.314,1.314,0,0,1-.469.087,1.293,1.293,0,0,1-1.188-.781c-.616-1.409-1.524-3.712-1.214-4.331A3.306,3.306,0,0,1,61.249,3a1.54,1.54,0,0,1,.993.265c.708.629.8,3.043.794,4.38A1.287,1.287,0,0,1,62.2,8.847Z" style="fill:#55498c"/><path d="M75.577,4.1c-.527-1.926-2.8-2.786-4.239-2.786h0a3.347,3.347,0,0,0-1.7.434c-1.083.609-1.639,1.806-2.1,4.559a3.35,3.35,0,0,0,2.572,3.823l.5.108a3.36,3.36,0,0,0,3.5-1.415C75.491,6.705,75.909,5.345,75.577,4.1Zm-3.54,3.333a.859.859,0,0,1-.714.381.877.877,0,0,1-.183-.02l-.475-.1a.856.856,0,0,1-.658-.974c.165-.993.489-2.584.881-2.8a.908.908,0,0,1,.45-.1c.7,0,1.7.468,1.824.932C73.323,5.35,72.511,6.706,72.037,7.437Z" style="fill:#55498c"/></svg>