<svg id="LinealColor" xmlns="http://www.w3.org/2000/svg" viewBox="0 0 128 128"><title>Meditation, Therapy, treatment, mental health, Yin Yang, balance, mind</title><path d="M99.43,121.847a2.37,2.37,0,0,0,2.282-3.029c-1.283-4.416-3.5-12.852-3.94-19.765-.273-4.3,1.03-10.247,3.663-13.663,10.5-13.626,15.158-25.432,12.96-39.962C110.832,21.88,94.2,9.407,71.208,8.227c-25.129-1.3-46.65,14.84-45.957,37.1.091,2.938.605,7.265.593,10.092-.024,10.042-8.713,14.167-8.88,17.363-.274,5.248,5.891,3.609,8.065,11.033,2.76,9.425-1.2,20.173,11.648,19.509,5.125-.206,13.454-2.195,17.023,1.124,2.276,2.116,4.108,11.352,4.824,15.439a2.367,2.367,0,0,0,2.337,1.958Z" style="fill:#eeefe1"/><circle cx="74.238" cy="44.242" r="29.429" style="fill:#fff"/><path d="M103.67,44.24A29.428,29.428,0,0,1,74.24,73.67c-.25,0-.49-.01-.74-.02-13.77-.8-21.86-23.79.74-29.41s14.51-28.61.74-29.41A29.418,29.418,0,0,1,103.67,44.24Z" style="fill:#7171ff"/><path d="M99.43,123.1H60.861a3.614,3.614,0,0,1-3.569-2.993c-1.366-7.814-3.069-13.461-4.443-14.74-2.328-2.162-7.73-1.593-12.071-1.136-1.453.153-2.826.3-4.051.347-10.44.546-11.094-6.228-11.695-12.778a40.106,40.106,0,0,0-1.2-7.628,9.277,9.277,0,0,0-4.57-5.728c-1.741-1.147-3.715-2.448-3.543-5.722.082-1.575,1.344-2.972,2.94-4.74,2.5-2.766,5.923-6.554,5.937-12.561.007-1.55-.154-3.613-.309-5.61-.125-1.612-.243-3.133-.283-4.44A34.057,34.057,0,0,1,34.541,19.8C43.612,10.914,57,6.244,71.272,6.979c24.7,1.268,40.872,15.213,44.359,38.262,2.107,13.933-1.842,26.168-13.206,40.911-2.532,3.286-3.644,9.058-3.405,12.822.43,6.788,2.624,15.128,3.892,19.5A3.619,3.619,0,0,1,99.43,123.1Zm-52.6-21.8c3.035,0,5.838.493,7.717,2.24,2.349,2.185,4.126,9.983,5.2,16.139a1.117,1.117,0,0,0,1.106.924H99.43a1.118,1.118,0,0,0,.9-.451,1.106,1.106,0,0,0,.179-.979c-1.3-4.467-3.541-13.009-3.987-20.035-.275-4.324.984-10.7,3.919-14.505,11.054-14.34,14.738-25.643,12.714-39.013C109.866,23.85,94.552,10.677,71.144,9.475c-13.571-.693-26.28,3.713-34.854,12.112a31.181,31.181,0,0,0-9.79,23.7c.039,1.249.155,2.743.278,4.324.159,2.047.324,4.163.316,5.813-.017,6.962-3.967,11.335-6.581,14.228-1.114,1.232-2.264,2.506-2.3,3.195-.093,1.773.631,2.323,2.423,3.5a11.8,11.8,0,0,1,5.593,7.112,42.617,42.617,0,0,1,1.292,8.1c.626,6.816,1.022,10.929,9.091,10.51,1.159-.047,2.492-.187,3.905-.336A61.177,61.177,0,0,1,46.835,101.294Z" style="fill:#55498c"/><path d="M31.54,60.827a3.885,3.885,0,0,1-2.024-.553A1.25,1.25,0,1,1,30.8,58.128c1.214.727,3.015-.782,3.033-.8a1.25,1.25,0,0,1,1.647,1.881A6.4,6.4,0,0,1,31.54,60.827Z" style="fill:#55498c"/><path d="M26.182,86.4a7.938,7.938,0,0,1-1-.052,1.251,1.251,0,0,1,.339-2.478,12.95,12.95,0,0,0,6.368-1.312,1.25,1.25,0,1,1,1.037,2.275A16.473,16.473,0,0,1,26.182,86.4Z" style="fill:#55498c"/><path d="M74.237,74.921a30.679,30.679,0,1,1,30.68-30.679A30.713,30.713,0,0,1,74.237,74.921Zm0-58.858a28.179,28.179,0,1,0,28.18,28.179A28.21,28.21,0,0,0,74.237,16.063Z" style="fill:#55498c"/><path d="M74.24,74.92c-.258,0-.5-.01-.761-.02-7.465-.433-13.842-6.883-14.569-14.687-.765-8.231,4.852-14.655,15.028-17.186,8.871-2.2,13.783-7.631,13.143-14.523C86.467,21.9,81.12,16.438,74.908,16.078c-.263-.011-.462-.018-.668-.018a1.25,1.25,0,0,1,0-2.5c.239,0,.471.008.708.018l.105,0c7.415.431,13.792,6.884,14.517,14.69.765,8.233-4.853,14.656-15.029,17.181C65.671,47.659,60.758,53.09,61.4,59.981c.616,6.6,5.962,12.06,12.173,12.421.228.009.444.018.668.018a1.25,1.25,0,0,1,0,2.5Z" style="fill:#55498c"/><circle cx="74.693" cy="29.497" r="3.661" style="fill:#7171ff"/><circle cx="74.693" cy="59.941" r="3.661" style="fill:#fff"/></svg>