<svg id="LinealColor" xmlns="http://www.w3.org/2000/svg" viewBox="0 0 128 128"><title>mental health, healthcare, medical, positive, thinking, mind, Psychology</title><path d="M84.559,125a2.162,2.162,0,0,0,2.083-2.763c-1.171-4.031-3.195-11.729-3.595-18.037-.249-3.928.939-9.351,3.342-12.468C95.973,79.3,100.222,68.524,98.216,55.265c-3.251-21.489-18.427-32.871-39.41-33.948C35.874,20.131,16.236,34.86,16.868,55.174c.083,2.682.552,6.63.541,9.209-.021,9.164-7.951,12.929-8.1,15.846-.25,4.788,5.375,3.293,7.359,10.067,2.519,8.6-1.091,18.409,10.63,17.8,4.676-.188,12.277-2,15.534,1.025,2.077,1.932,3.749,10.36,4.4,14.089A2.161,2.161,0,0,0,49.364,125Z" style="fill:#8bcffc"/><path d="M74.488,52.626v6.4a3.232,3.232,0,0,0,3.232,3.231h7.135a3.231,3.231,0,0,0,3.231-3.231v-6.4A1.617,1.617,0,0,1,89.7,51.01h6.4a3.231,3.231,0,0,0,3.232-3.231V40.644A3.232,3.232,0,0,0,96.1,37.412H89.7A1.616,1.616,0,0,1,88.086,35.8V29.389a3.23,3.23,0,0,0-3.231-3.231H77.72a3.231,3.231,0,0,0-3.232,3.231V35.8a1.615,1.615,0,0,1-1.615,1.615h-6.4a3.232,3.232,0,0,0-3.231,3.232v7.135a3.231,3.231,0,0,0,3.231,3.231h6.4A1.616,1.616,0,0,1,74.488,52.626Z" style="fill:#eeefe1"/><path d="M88.645,17.016v3.021a1.526,1.526,0,0,0,1.526,1.526h3.368a1.526,1.526,0,0,0,1.525-1.526V17.016a.764.764,0,0,1,.763-.763h3.021a1.526,1.526,0,0,0,1.526-1.525V11.36a1.526,1.526,0,0,0-1.526-1.526H95.827a.764.764,0,0,1-.763-.763V6.046a1.525,1.525,0,0,0-1.525-1.525H90.171a1.526,1.526,0,0,0-1.526,1.525V9.071a.763.763,0,0,1-.763.763h-3.02a1.526,1.526,0,0,0-1.526,1.526v3.368a1.526,1.526,0,0,0,1.526,1.525h3.02A.763.763,0,0,1,88.645,17.016Z" style="fill:#eeefe1"/><path d="M106.306,31.1v2.256a1.139,1.139,0,0,0,1.139,1.139h2.514a1.139,1.139,0,0,0,1.139-1.139V31.1a.57.57,0,0,1,.57-.569h2.255a1.139,1.139,0,0,0,1.14-1.139V26.874a1.139,1.139,0,0,0-1.14-1.139h-2.255a.57.57,0,0,1-.57-.57V22.907a1.139,1.139,0,0,0-1.139-1.139h-2.514a1.139,1.139,0,0,0-1.139,1.139v2.258a.57.57,0,0,1-.57.57h-2.255a1.139,1.139,0,0,0-1.14,1.139v2.515a1.139,1.139,0,0,0,1.14,1.139h2.255A.57.57,0,0,1,106.306,31.1Z" style="fill:#eeefe1"/><path d="M22.606,69.376a3.649,3.649,0,0,1-1.9-.52,1.25,1.25,0,0,1,1.283-2.145c1.038.618,2.624-.7,2.64-.717a1.25,1.25,0,0,1,1.646,1.882A5.959,5.959,0,0,1,22.606,69.376Z" style="fill:#55498c"/><path d="M84.559,126.25H49.364A3.408,3.408,0,0,1,46,123.429c-1.243-7.108-2.784-12.239-4.021-13.389-2.088-1.942-6.991-1.424-10.929-1.009-1.328.14-2.583.272-3.7.317-9.663.5-10.232-5.732-10.786-11.76a36.549,36.549,0,0,0-1.093-6.941,8.373,8.373,0,0,0-4.126-5.165C9.727,84.419,7.9,83.213,8.058,80.163c.077-1.476,1.24-2.763,2.712-4.392,2.269-2.512,5.376-5.951,5.389-11.391.007-1.41-.14-3.292-.282-5.113-.114-1.471-.222-2.86-.259-4.054A31.2,31.2,0,0,1,25.27,31.8c8.3-8.131,20.542-12.4,33.6-11.732A54.683,54.683,0,0,1,71.728,22.21a1.25,1.25,0,0,1-.717,2.394,52.285,52.285,0,0,0-12.269-2.039c-12.354-.637-23.92,3.378-31.723,11.021a28.348,28.348,0,0,0-8.9,21.549c.035,1.136.141,2.5.253,3.938.146,1.871.3,3.806.289,5.316-.015,6.4-3.637,10.405-6.034,13.058-1,1.11-2.04,2.257-2.07,2.847-.082,1.558.563,2.048,2.161,3.1a10.852,10.852,0,0,1,5.149,6.55,38.9,38.9,0,0,1,1.183,7.415c.565,6.153.908,9.867,8.182,9.491,1.055-.043,2.27-.171,3.557-.307,4.675-.492,9.973-1.05,12.893,1.665,2.167,2.015,3.8,9.154,4.782,14.789a.91.91,0,0,0,.9.752h35.2a.911.911,0,0,0,.737-.367.889.889,0,0,0,.146-.8c-1.186-4.078-3.234-11.878-3.643-18.306-.252-3.967.9-9.813,3.6-13.31C94.937,78.6,98.467,68.479,97.2,57.145a1.25,1.25,0,1,1,2.484-.277C101.03,68.906,97.349,79.561,87.379,92.5c-2.294,2.976-3.3,8.211-3.085,11.626.393,6.188,2.392,13.787,3.548,17.767a3.411,3.411,0,0,1-3.283,4.362Z" style="fill:#55498c"/><path d="M17.714,92.712a7.352,7.352,0,0,1-.926-.049,1.25,1.25,0,0,1,.338-2.477h0A11.776,11.776,0,0,0,22.879,89a1.25,1.25,0,1,1,1.036,2.275A15.155,15.155,0,0,1,17.714,92.712Z" style="fill:#55498c"/><path d="M95.3,35.279H90.22V30.188a5.564,5.564,0,0,0-5.558-5.558h-6.75a5.564,5.564,0,0,0-5.557,5.558v5.091H67.271a5.563,5.563,0,0,0-5.557,5.557v6.75a5.564,5.564,0,0,0,5.557,5.558h5.084v5.083a5.564,5.564,0,0,0,5.557,5.558h6.75a5.564,5.564,0,0,0,5.558-5.558V53.144H95.3a5.564,5.564,0,0,0,5.557-5.558v-6.75A5.563,5.563,0,0,0,95.3,35.279Zm3.057,12.307A3.058,3.058,0,0,1,95.3,50.644H89.249a1.53,1.53,0,0,0-1.529,1.529v6.054a3.058,3.058,0,0,1-3.058,3.058h-6.75a3.058,3.058,0,0,1-3.057-3.058V52.173a1.53,1.53,0,0,0-1.529-1.529H67.271a3.058,3.058,0,0,1-3.057-3.058v-6.75a3.057,3.057,0,0,1,3.057-3.057h6.055a1.53,1.53,0,0,0,1.529-1.529V30.188a3.058,3.058,0,0,1,3.057-3.058h6.75a3.058,3.058,0,0,1,3.058,3.058V36.25a1.53,1.53,0,0,0,1.529,1.529H95.3a3.057,3.057,0,0,1,3.057,3.057Z" style="fill:#55498c"/><path d="M85.716,18.361h.821v.822a3.843,3.843,0,0,0,3.84,3.839h2.956a3.843,3.843,0,0,0,3.839-3.839v-.822h.822a3.843,3.843,0,0,0,3.839-3.839V11.565a3.843,3.843,0,0,0-3.839-3.839h-.822V6.9a3.844,3.844,0,0,0-3.839-3.84H90.377a3.844,3.844,0,0,0-3.84,3.84v.825h-.821a3.844,3.844,0,0,0-3.84,3.839v2.957A3.844,3.844,0,0,0,85.716,18.361Zm-1.34-6.8a1.339,1.339,0,0,1,1.34-1.339h2.651a.67.67,0,0,0,.67-.67V6.9a1.34,1.34,0,0,1,1.34-1.34h2.956A1.339,1.339,0,0,1,94.672,6.9V9.556a.67.67,0,0,0,.67.67h2.652a1.338,1.338,0,0,1,1.339,1.339v2.957a1.339,1.339,0,0,1-1.339,1.339H95.342a.67.67,0,0,0-.67.67v2.652a1.339,1.339,0,0,1-1.339,1.339H90.377a1.34,1.34,0,0,1-1.34-1.339V16.531a.67.67,0,0,0-.67-.67H85.716a1.34,1.34,0,0,1-1.34-1.339Z" style="fill:#55498c"/><path d="M113.223,23.61a3.466,3.466,0,0,0-3.46-3.35h-2.122a3.466,3.466,0,0,0-3.46,3.35,3.466,3.466,0,0,0-3.348,3.46v2.122a3.466,3.466,0,0,0,3.348,3.46A3.466,3.466,0,0,0,107.641,36h2.122a3.466,3.466,0,0,0,3.46-3.348,3.466,3.466,0,0,0,3.348-3.46V27.07A3.466,3.466,0,0,0,113.223,23.61Zm.848,5.582a.962.962,0,0,1-.962.962h-1.9a.48.48,0,0,0-.48.48v1.9a.962.962,0,0,1-.962.962h-2.122a.962.962,0,0,1-.962-.962v-1.9a.48.48,0,0,0-.48-.48h-1.9a.962.962,0,0,1-.962-.962V27.07a.962.962,0,0,1,.962-.962h1.9a.48.48,0,0,0,.48-.48V23.721a.962.962,0,0,1,.962-.961h2.122a.962.962,0,0,1,.962.961v1.907a.48.48,0,0,0,.48.48h1.9a.962.962,0,0,1,.962.962Z" style="fill:#55498c"/></svg>