<svg id="LinealColor" xmlns="http://www.w3.org/2000/svg" viewBox="0 0 128 128"><title>mental health, disorder, mental illness, phobia, fear, paranoia, anxiety</title><path d="M94.559,125a2.162,2.162,0,0,0,2.083-2.763c-1.171-4.031-3.195-11.729-3.595-18.037-.249-3.928.939-9.351,3.342-12.468,9.584-12.435,13.833-23.208,11.827-36.467-3.251-21.489-18.427-32.871-39.41-33.948C45.874,20.131,26.236,34.86,26.868,55.174c.083,2.682.552,6.63.541,9.209-.021,9.164-7.951,12.929-8.1,15.846-.25,4.788,5.375,3.293,7.359,10.067,2.519,8.6-1.091,18.409,10.63,17.8,4.676-.188,12.277-2,15.534,1.025,2.077,1.932,3.749,10.36,4.4,14.089A2.161,2.161,0,0,0,59.364,125Z" style="fill:#fc5b5b"/><circle cx="84.887" cy="27.5" r="24.5" style="fill:#6b6bed"/><path d="M89.51,15.5,88.146,32.167a3.147,3.147,0,0,1-6.272,0L80.51,15.5a4.515,4.515,0,0,1,9-.736A4.759,4.759,0,0,1,89.51,15.5Z" style="fill:#fff"/><circle cx="85.01" cy="40.5" r="2.813" style="fill:#fff"/><path d="M94.56,126.25h-35.2A3.408,3.408,0,0,1,56,123.429c-1.243-7.109-2.784-12.239-4.021-13.389-2.088-1.943-6.991-1.425-10.929-1.009-1.327.14-2.582.272-3.7.317-9.614.515-10.233-5.732-10.786-11.76a36.549,36.549,0,0,0-1.093-6.941,8.373,8.373,0,0,0-4.126-5.165c-1.613-1.063-3.442-2.269-3.282-5.318.077-1.477,1.239-2.764,2.712-4.393,2.269-2.512,5.376-5.951,5.389-11.391.006-1.41-.14-3.294-.282-5.115-.114-1.47-.222-2.858-.259-4.052-.509-16.383,12.156-30.463,30.8-34.239a1.25,1.25,0,1,1,.5,2.45c-17.425,3.53-29.267,16.57-28.8,31.712.036,1.135.142,2.495.254,3.935.145,1.872.295,3.807.289,5.318-.014,6.4-3.638,10.405-6.035,13.058-1,1.11-2.039,2.257-2.07,2.847-.081,1.558.564,2.047,2.162,3.1a10.852,10.852,0,0,1,5.148,6.55,38.893,38.893,0,0,1,1.184,7.414c.565,6.154.9,9.873,8.182,9.492,1.055-.043,2.271-.171,3.557-.307,4.676-.492,9.973-1.049,12.894,1.665,2.166,2.014,3.8,9.154,4.781,14.789a.91.91,0,0,0,.9.752h35.2a.912.912,0,0,0,.736-.367.89.89,0,0,0,.145-.8c-1.185-4.079-3.234-11.881-3.641-18.306-.252-3.967.9-9.814,3.6-13.31,10.067-13.061,13.422-23.351,11.581-35.517a46.46,46.46,0,0,0-1.923-8,1.25,1.25,0,1,1,2.367-.8,48.991,48.991,0,0,1,2.029,8.434C111.38,67.824,107.77,79.014,97.379,92.5c-2.294,2.976-3.3,8.211-3.085,11.626.393,6.185,2.392,13.786,3.548,17.767a3.412,3.412,0,0,1-3.282,4.362Z" style="fill:#55498c"/><path d="M34.317,92.675H26.961a1.25,1.25,0,0,1,0-2.5h7.356a1.25,1.25,0,0,1,0,2.5Z" style="fill:#55498c"/><circle cx="33.397" cy="66.296" r="2.15" style="fill:#55498c"/><path d="M84.887,53.25a25.75,25.75,0,1,1,25.75-25.75A25.779,25.779,0,0,1,84.887,53.25Zm0-49a23.25,23.25,0,1,0,23.25,23.25A23.276,23.276,0,0,0,84.887,4.25Z" style="fill:#55498c"/><path d="M85.018,36.307q-.183,0-.366-.015a4.379,4.379,0,0,1-4.024-4.025L79.264,15.6a5.765,5.765,0,1,1,11.492-.94,6.3,6.3,0,0,1,0,.932V15.6L89.393,32.269a4.4,4.4,0,0,1-4.375,4.038Zm-.006-24.44c-.089,0-.178,0-.269.01A3.269,3.269,0,0,0,81.756,15.4L83.12,32.064a1.9,1.9,0,0,0,3.78,0L88.264,15.4a3.7,3.7,0,0,0,0-.537A3.27,3.27,0,0,0,85.012,11.867Zm4.5,3.633h0Z" style="fill:#55498c"/><path d="M85.01,44.563A4.063,4.063,0,1,1,89.073,40.5,4.068,4.068,0,0,1,85.01,44.563Zm0-5.626A1.563,1.563,0,1,0,86.573,40.5,1.565,1.565,0,0,0,85.01,38.937Z" style="fill:#55498c"/></svg>