<svg id="LinealColor" xmlns="http://www.w3.org/2000/svg" viewBox="0 0 128 128"><title>mental health, disorder, mental illness, borderline, bipolar, psycho, Personality</title><path d="M118.99,12.175c-23.381-1.21-43.4,13.809-42.761,34.522.085,2.734.563,6.76.552,9.39-.022,9.343-8.107,13.182-8.262,16.156-.255,4.883,5.481,3.358,7.5,10.265,2.568,8.77-1.113,18.771,10.838,18.153,4.768-.192,12.518-2.043,15.839,1.045,2.118,1.969,3.823,10.563,4.488,14.365a2.2,2.2,0,0,0,2.175,1.822H119Z" style="fill:#fc5b5b"/><path d="M9.01,12.175C32.391,10.965,52.415,25.984,51.771,46.7c-.085,2.734-.563,6.76-.552,9.39.022,9.343,8.107,13.182,8.262,16.156.255,4.883-5.481,3.358-7.5,10.265-2.568,8.77,1.113,18.771-10.838,18.153-4.768-.192-12.518-2.043-15.839,1.045-2.118,1.969-3.823,10.563-4.488,14.365a2.2,2.2,0,0,1-2.175,1.822H9Z" style="fill:#8babea"/><path d="M119,119.144h-9.637a3.453,3.453,0,0,1-3.407-2.857c-1.269-7.252-2.842-12.488-4.107-13.666-2.136-1.986-7.142-1.458-11.165-1.034-1.353.142-2.631.277-3.773.323-9.846.52-10.409-5.835-10.973-11.969a37.236,37.236,0,0,0-1.115-7.081,8.553,8.553,0,0,0-4.217-5.28c-1.639-1.081-3.5-2.306-3.335-5.4.078-1.5,1.26-2.806,2.758-4.463,2.317-2.564,5.489-6.075,5.5-11.631.006-1.439-.143-3.361-.288-5.22-.116-1.5-.225-2.912-.264-4.128a31.781,31.781,0,0,1,9.833-23.854c8.459-8.286,20.946-12.646,34.243-11.955a1.25,1.25,0,0,1,1.185,1.248l.01,105.719a1.251,1.251,0,0,1-1.25,1.25ZM96.312,98.683c2.842,0,5.471.463,7.24,2.108,2.2,2.05,3.863,9.324,4.867,15.064a.955.955,0,0,0,.944.789h8.387l-.01-103.268c-12.16-.353-23.468,3.738-31.178,11.291a28.931,28.931,0,0,0-9.084,21.991c.037,1.158.144,2.545.258,4.013.148,1.908.3,3.882.3,5.421-.015,6.512-3.705,10.6-6.147,13.3-1.025,1.134-2.085,2.308-2.117,2.918-.083,1.6.578,2.1,2.215,3.183a11.045,11.045,0,0,1,5.24,6.665,39.7,39.7,0,0,1,1.206,7.556c.577,6.288.944,10.074,8.368,9.7,1.075-.044,2.314-.175,3.625-.312A57.093,57.093,0,0,1,96.312,98.683Z" style="fill:#55498c"/><circle cx="82.886" cy="58.037" r="2.192" style="fill:#55498c"/><path d="M77.021,85.1c-.465,0-.745-.026-.783-.03a1.25,1.25,0,0,1,.244-2.488,13.613,13.613,0,0,0,6.2-1.252,1.25,1.25,0,0,1,1.035,2.275A16.512,16.512,0,0,1,77.021,85.1Z" style="fill:#55498c"/><path d="M18.637,119.144H9a1.251,1.251,0,0,1-1.25-1.25L7.76,12.175a1.25,1.25,0,0,1,1.185-1.248c13.3-.7,25.784,3.669,34.242,11.955a31.779,31.779,0,0,1,9.834,23.854c-.039,1.216-.148,2.631-.264,4.128-.145,1.859-.294,3.781-.288,5.218.013,5.558,3.185,9.069,5.5,11.633,1.5,1.657,2.68,2.967,2.758,4.463.163,3.1-1.7,4.321-3.335,5.4a8.553,8.553,0,0,0-4.217,5.28,37.236,37.236,0,0,0-1.115,7.081c-.564,6.133-1.136,12.491-10.987,11.968-1.128-.045-2.406-.18-3.759-.322-4.022-.425-9.03-.953-11.165,1.034-1.265,1.178-2.839,6.414-4.107,13.665A3.453,3.453,0,0,1,18.637,119.144Zm-8.387-2.5h8.387a.955.955,0,0,0,.944-.789c1-5.74,2.663-13.014,4.867-15.064,2.972-2.762,8.368-2.191,13.131-1.69,1.311.137,2.55.268,3.611.311C48.632,99.8,49,96,49.572,89.713a39.7,39.7,0,0,1,1.206-7.556,11.045,11.045,0,0,1,5.24-6.665c1.637-1.079,2.3-1.581,2.215-3.183-.032-.61-1.092-1.784-2.117-2.918-2.442-2.7-6.132-6.787-6.147-13.3-.006-1.537.147-3.511.3-5.419.114-1.468.221-2.855.258-4.013a28.929,28.929,0,0,0-9.085-21.991c-7.709-7.552-19.03-11.648-31.177-11.291Z" style="fill:#55498c"/><circle cx="45.114" cy="58.037" r="2.192" style="fill:#55498c"/><path d="M51.69,84.691a1.263,1.263,0,0,1-.452-.084,13.51,13.51,0,0,0-6.308-.467,1.25,1.25,0,1,1-.385-2.471,15.848,15.848,0,0,1,7.6.608,1.25,1.25,0,0,1-.456,2.414Z" style="fill:#55498c"/></svg>