<svg id="LinealColor" xmlns="http://www.w3.org/2000/svg" viewBox="0 0 128 128"><title>mental health, disorder, mental illness, depression, sad, Psychiatric, anxiety_1</title><path d="M94.559,124.951a2.163,2.163,0,0,0,2.083-2.764c-1.171-4.03-3.195-11.728-3.595-18.037-.249-3.927.939-9.35,3.342-12.467,9.584-12.435,13.833-23.208,11.827-36.468-3.251-21.488-18.427-32.87-39.41-33.947-22.932-1.187-42.57,13.543-41.938,33.857.083,2.682.552,6.63.541,9.209-.021,9.164-7.951,12.929-8.1,15.845-.25,4.789,5.375,3.293,7.359,10.068,2.519,8.6-1.091,18.409,10.63,17.8,4.676-.188,12.277-2,15.534,1.025,2.077,1.932,3.749,10.359,4.4,14.089a2.161,2.161,0,0,0,2.133,1.787Z" style="fill:#8babea"/><path d="M37.328,77.9c0,2.54-1.76,4.6-3.931,4.6s-3.931-2.06-3.931-4.6S33.4,70.858,33.4,70.858,37.328,75.355,37.328,77.9Z" style="fill:#fff"/><path d="M94.56,126.2h-35.2A3.407,3.407,0,0,1,56,123.38c-1.243-7.109-2.784-12.239-4.021-13.39-2.088-1.94-6.991-1.424-10.931-1.009-1.327.14-2.58.273-3.7.318-9.657.5-10.233-5.733-10.787-11.76a36.5,36.5,0,0,0-1.093-6.94,8.362,8.362,0,0,0-4.126-5.165c-1.613-1.064-3.442-2.27-3.282-5.32.077-1.476,1.24-2.763,2.712-4.392,2.269-2.512,5.376-5.951,5.389-11.391.006-1.41-.14-3.294-.282-5.115-.114-1.47-.222-2.859-.259-4.052A31.186,31.186,0,0,1,35.27,31.751c8.3-8.131,20.542-12.416,33.6-11.731,22.6,1.16,37.391,13.919,40.582,35.008,1.928,12.746-1.682,23.937-12.073,37.417-2.294,2.977-3.3,8.211-3.085,11.626.393,6.186,2.392,13.787,3.548,17.768A3.411,3.411,0,0,1,94.56,126.2Zm-48-20.115c2.794,0,5.377.456,7.118,2.073,2.167,2.016,3.8,9.155,4.782,14.789a.91.91,0,0,0,.9.753h35.2a.912.912,0,0,0,.736-.367.888.888,0,0,0,.145-.8c-1.185-4.08-3.234-11.883-3.641-18.308-.252-3.966.9-9.812,3.6-13.309C105.465,77.859,108.82,67.568,106.979,55.4c-3-19.805-16.933-31.792-38.238-32.885-12.363-.641-23.921,3.378-31.722,11.02a28.346,28.346,0,0,0-8.9,21.55c.036,1.136.142,2.5.254,3.936.145,1.872.295,3.807.289,5.317-.014,6.4-3.638,10.405-6.034,13.058-1,1.111-2.04,2.258-2.071,2.848-.081,1.558.564,2.047,2.162,3.1a10.852,10.852,0,0,1,5.148,6.55,38.9,38.9,0,0,1,1.184,7.415c.565,6.152.909,9.869,8.182,9.491,1.055-.043,2.269-.171,3.554-.307A56.3,56.3,0,0,1,46.562,106.086Z" style="fill:#55498c"/><path d="M34.317,92.626H26.961a1.25,1.25,0,0,1,0-2.5h7.356a1.25,1.25,0,1,1,0,2.5Z" style="fill:#55498c"/><circle cx="33.397" cy="66.247" r="2.15" style="fill:#55498c"/><path d="M33.4,83.745c-2.856,0-5.18-2.624-5.18-5.849,0-2.866,3.531-7.05,4.239-7.86a1.289,1.289,0,0,1,1.883,0c.708.81,4.239,4.994,4.239,7.86C38.577,81.121,36.253,83.745,33.4,83.745Zm0-10.91c-1.316,1.716-2.68,3.917-2.68,5.061,0,1.846,1.2,3.349,2.68,3.349s2.681-1.5,2.681-3.349C36.077,76.752,34.713,74.551,33.4,72.835Z" style="fill:#55498c"/><path d="M48,31.583a1.25,1.25,0,0,1-1.25-1.25V11a1.25,1.25,0,0,1,2.5,0V30.333A1.25,1.25,0,0,1,48,31.583Z" style="fill:#55498c"/><path d="M69,31.583a1.25,1.25,0,0,1-1.25-1.25V11a1.25,1.25,0,0,1,2.5,0V30.333A1.25,1.25,0,0,1,69,31.583Z" style="fill:#55498c"/><path d="M90,31.583a1.25,1.25,0,0,1-1.25-1.25V11a1.25,1.25,0,0,1,2.5,0V30.333A1.25,1.25,0,0,1,90,31.583Z" style="fill:#55498c"/><path d="M80.5,41.417a1.25,1.25,0,0,1-1.25-1.25V3a1.25,1.25,0,0,1,2.5,0V40.167A1.25,1.25,0,0,1,80.5,41.417Z" style="fill:#55498c"/><path d="M58.5,41.417a1.25,1.25,0,0,1-1.25-1.25V3a1.25,1.25,0,0,1,2.5,0V40.167A1.25,1.25,0,0,1,58.5,41.417Z" style="fill:#55498c"/></svg>