<svg id="LinealColor" xmlns="http://www.w3.org/2000/svg" viewBox="0 0 128 128"><title>mental health, disorder, mental illness, Workaholic, times, trauma, stress</title><path d="M94.559,124.951a2.163,2.163,0,0,0,2.083-2.764c-1.171-4.03-3.195-11.728-3.595-18.037-.249-3.927.939-9.35,3.342-12.467,9.584-12.435,13.833-23.208,11.827-36.468-3.251-21.488-18.427-32.87-39.41-33.947-22.932-1.187-42.57,13.543-41.938,33.857.083,2.682.552,6.63.541,9.209-.021,9.164-7.951,12.929-8.1,15.845-.25,4.789,5.375,3.293,7.359,10.068,2.519,8.6-1.091,18.409,10.63,17.8,4.676-.188,12.277-2,15.534,1.025,2.077,1.932,3.749,10.359,4.4,14.089a2.161,2.161,0,0,0,2.133,1.787Z" style="fill:#fc5b5b"/><circle cx="81.406" cy="34.667" r="24.5" style="fill:#eeefe1"/><path d="M81.884,29.384h-.957a3,3,0,0,1-2.917-2.3L77.2,23.7a2.319,2.319,0,0,1,2.508-2.648h3.4A2.318,2.318,0,0,1,85.614,23.7L84.8,27.084A3,3,0,0,1,81.884,29.384Z" style="fill:#6494ff"/><path d="M87.888,45.573,84.171,28.326h-5.53L74.923,45.573A2.422,2.422,0,0,0,76.1,48.147l4.243,2.666a2,2,0,0,0,2.128,0l4.243-2.666A2.42,2.42,0,0,0,87.888,45.573Z" style="fill:#6494ff"/><path d="M94.559,126.25H59.364A3.408,3.408,0,0,1,56,123.428c-1.243-7.108-2.784-12.238-4.021-13.389-2.089-1.94-6.992-1.423-10.93-1.008-1.328.14-2.582.273-3.7.318-9.658.494-10.232-5.734-10.786-11.761a36.536,36.536,0,0,0-1.093-6.941,8.376,8.376,0,0,0-4.125-5.165c-1.614-1.063-3.443-2.268-3.283-5.319.077-1.476,1.24-2.764,2.712-4.392,2.269-2.512,5.376-5.952,5.389-11.39.007-1.411-.14-3.294-.282-5.115-.114-1.47-.222-2.86-.259-4.053-.4-12.793,6.975-24.19,19.721-30.485a1.25,1.25,0,1,1,1.108,2.242C34.6,32.819,27.75,43.349,28.117,55.135c.035,1.136.141,2.5.253,3.937.146,1.871.3,3.807.289,5.318-.015,6.394-3.637,10.4-6.034,13.056-1,1.11-2.04,2.258-2.07,2.848-.082,1.559.563,2.048,2.161,3.1a10.847,10.847,0,0,1,5.149,6.548,38.91,38.91,0,0,1,1.183,7.415c.566,6.155.922,9.875,8.182,9.493,1.055-.043,2.27-.171,3.556-.307,4.673-.493,9.973-1.053,12.894,1.664,2.167,2.015,3.8,9.154,4.782,14.788a.91.91,0,0,0,.9.753h35.2a.911.911,0,0,0,.737-.367.889.889,0,0,0,.146-.8c-1.186-4.077-3.234-11.878-3.643-18.307-.252-3.965.9-9.811,3.6-13.309,8.314-10.785,11.917-19.429,12.05-28.9a1.25,1.25,0,0,1,2.5.036c-.139,9.922-4.016,19.3-12.569,30.393-2.3,2.977-3.3,8.212-3.085,11.626.393,6.19,2.392,13.788,3.548,17.768a3.411,3.411,0,0,1-3.283,4.362Z" style="fill:#55498c"/><path d="M34.317,92.675H26.961a1.25,1.25,0,0,1,0-2.5h7.356a1.25,1.25,0,0,1,0,2.5Z" style="fill:#55498c"/><circle cx="33.397" cy="66.296" r="2.15" style="fill:#55498c"/><path d="M81.884,30.634h-.957A4.237,4.237,0,0,1,76.8,27.376l-.813-3.386a3.207,3.207,0,0,1,.621-2.746,3.956,3.956,0,0,1,3.1-1.443h3.4a3.954,3.954,0,0,1,3.1,1.443,3.207,3.207,0,0,1,.622,2.746l-.813,3.386A4.237,4.237,0,0,1,81.884,30.634ZM79.705,22.3a1.441,1.441,0,0,0-1.139.491.693.693,0,0,0-.153.614l.813,3.386a1.745,1.745,0,0,0,1.7,1.342h.957a1.745,1.745,0,0,0,1.7-1.342l.813-3.386a.7.7,0,0,0-.154-.614,1.44,1.44,0,0,0-1.138-.491Z" style="fill:#55498c"/><path d="M81.406,52.366a3.247,3.247,0,0,1-1.73-.5l-4.242-2.665A3.661,3.661,0,0,1,73.7,45.3l3.714-17.236a1.251,1.251,0,0,1,2.445.527L76.146,45.837a1.185,1.185,0,0,0,.619,1.251l4.242,2.666a.757.757,0,0,0,.8,0l4.242-2.666a1.184,1.184,0,0,0,.622-1.24L82.949,28.59a1.25,1.25,0,1,1,2.444-.527L89.11,45.31a3.659,3.659,0,0,1-1.733,3.895l-4.242,2.666A3.249,3.249,0,0,1,81.406,52.366Z" style="fill:#55498c"/><path d="M81.406,60.417a25.75,25.75,0,1,1,25.75-25.75A25.779,25.779,0,0,1,81.406,60.417Zm0-49a23.25,23.25,0,1,0,23.25,23.25A23.276,23.276,0,0,0,81.406,11.417Z" style="fill:#55498c"/><path d="M53.322,53.014a1.246,1.246,0,0,1-1.056-.581A34.722,34.722,0,0,1,50.18,19.4a1.25,1.25,0,0,1,2.264,1.061A32.2,32.2,0,0,0,54.377,51.1a1.25,1.25,0,0,1-1.055,1.919Z" style="fill:#55498c"/><path d="M80.373,68.439h-.039a34.685,34.685,0,0,1-4.129-.372,1.25,1.25,0,1,1,.373-2.472,32.414,32.414,0,0,0,3.832.346,1.25,1.25,0,0,1-.037,2.5Zm-7.891-1.192a1.29,1.29,0,0,1-.334-.045,34.376,34.376,0,0,1-3.923-1.348,1.249,1.249,0,1,1,.953-2.31,32.093,32.093,0,0,0,3.637,1.248,1.25,1.25,0,0,1-.333,2.455ZM65.106,64.2a1.245,1.245,0,0,1-.612-.161,34.187,34.187,0,0,1-3.484-2.25,1.25,1.25,0,0,1,1.48-2.014,31.97,31.97,0,0,0,3.23,2.086,1.25,1.25,0,0,1-.614,2.339ZM58.677,59.48a1.25,1.25,0,0,1-.856-.338q-.4-.38-.8-.775c-.713-.712-1.4-1.465-2.051-2.236a1.25,1.25,0,0,1,1.914-1.608c.6.716,1.242,1.415,1.9,2.077q.366.367.742.719a1.25,1.25,0,0,1-.856,2.161Z" style="fill:#55498c"/><path d="M55.151,22.419a1.252,1.252,0,0,1-1.189-.864L52.6,17.343l-4.212,1.365a1.25,1.25,0,0,1-.771-2.379l4.345-1.408a2.358,2.358,0,0,1,2.972,1.517l1.408,4.345a1.25,1.25,0,0,1-.8,1.575A1.264,1.264,0,0,1,55.151,22.419Z" style="fill:#55498c"/><path d="M107.964,56.348a1.251,1.251,0,0,1-1-1.995,32.2,32.2,0,0,0,4.2-30.406,1.25,1.25,0,1,1,2.336-.892,34.724,34.724,0,0,1-4.53,32.788A1.248,1.248,0,0,1,107.964,56.348Z" style="fill:#55498c"/><path d="M110.485,20.738a1.249,1.249,0,0,1-1.1-.652c-.449-.824-.938-1.636-1.452-2.413-.191-.287-.387-.571-.585-.853a1.25,1.25,0,1,1,2.04-1.445q.32.451.628.915c.555.839,1.081,1.713,1.565,2.6a1.249,1.249,0,0,1-1.1,1.847Zm-4.618-6.507a1.249,1.249,0,0,1-.928-.411,31.693,31.693,0,0,0-2.749-2.686,1.25,1.25,0,0,1,1.635-1.891,34,34,0,0,1,2.968,2.9,1.249,1.249,0,0,1-.926,2.088ZM99.831,9.014a1.242,1.242,0,0,1-.7-.213,32.05,32.05,0,0,0-3.316-1.947,1.25,1.25,0,0,1,1.134-2.229,34.176,34.176,0,0,1,3.576,2.1,1.25,1.25,0,0,1-.7,2.287ZM92.72,5.394a1.247,1.247,0,0,1-.429-.077,32.313,32.313,0,0,0-3.686-1.1,1.25,1.25,0,1,1,.571-2.434A34.6,34.6,0,0,1,93.149,2.97a1.25,1.25,0,0,1-.429,2.424Z" style="fill:#55498c"/><path d="M106.062,59.893a2.361,2.361,0,0,1-2.339-2.094l-.516-4.539a1.25,1.25,0,1,1,2.484-.281l.5,4.4,4.4-.5a1.25,1.25,0,0,1,.282,2.484l-4.539.516A2.463,2.463,0,0,1,106.062,59.893Z" style="fill:#55498c"/></svg>