<svg id="LinealColor" xmlns="http://www.w3.org/2000/svg" viewBox="0 0 128 128"><title>mental health, disorder, mental illness, depression, sad, Psychiatric, anxiety</title><path d="M94.559,125a2.162,2.162,0,0,0,2.083-2.763c-1.171-4.031-3.195-11.729-3.595-18.037-.249-3.928.939-9.351,3.342-12.468,9.584-12.435,13.833-23.208,11.827-36.467-3.251-21.489-18.427-32.871-39.41-33.948C45.874,20.131,26.236,34.86,26.868,55.174c.083,2.682.552,6.63.541,9.209-.021,9.164-7.951,12.929-8.1,15.846-.25,4.788,5.375,3.293,7.359,10.067,2.519,8.6-1.091,18.409,10.63,17.8,4.676-.188,12.277-2,15.534,1.025,2.077,1.932,3.749,10.36,4.4,14.089A2.161,2.161,0,0,0,59.364,125Z" style="fill:#8babea"/><path d="M66.421,32.733a12.784,12.784,0,0,1-10.289-5.075c-4.795,2.748-14,1.725-14.057-4.105-.052-5.318,5.747-5.889,5.747-5.889.621-8.03,8.511-7.6,8.511-7.6S56.9,3.316,66,3.316s9.667,6.751,9.667,6.751,7.89-.433,8.511,7.6c0,0,5.8.571,5.747,5.889-.057,5.83-9.262,6.853-14.057,4.105A11.248,11.248,0,0,1,66.421,32.733Z" style="fill:#eeefe1"/><path d="M94.559,126.25H59.364A3.408,3.408,0,0,1,56,123.429c-1.243-7.108-2.784-12.239-4.021-13.389-2.088-1.942-6.99-1.424-10.929-1.009-1.328.14-2.583.272-3.7.317-9.652.5-10.232-5.732-10.786-11.76a36.549,36.549,0,0,0-1.093-6.941,8.373,8.373,0,0,0-4.126-5.165c-1.613-1.063-3.442-2.269-3.282-5.319.077-1.476,1.24-2.763,2.712-4.392,2.269-2.512,5.376-5.951,5.389-11.391.007-1.41-.14-3.292-.282-5.113-.114-1.471-.222-2.86-.259-4.054C25.3,44.9,29.937,35.534,38.684,28.846A1.25,1.25,0,1,1,40.2,30.832c-8.088,6.185-12.38,14.816-12.085,24.3.035,1.136.141,2.5.253,3.938.146,1.871.3,3.806.289,5.316-.015,6.4-3.637,10.405-6.034,13.058-1,1.11-2.04,2.257-2.07,2.847-.082,1.558.563,2.048,2.161,3.1a10.852,10.852,0,0,1,5.149,6.55,38.886,38.886,0,0,1,1.183,7.415c.566,6.153.9,9.867,8.182,9.491,1.055-.043,2.27-.171,3.557-.307,4.674-.492,9.973-1.05,12.893,1.665,2.167,2.015,3.8,9.154,4.782,14.789a.91.91,0,0,0,.9.752h35.2a.911.911,0,0,0,.737-.367.889.889,0,0,0,.146-.8c-1.186-4.078-3.234-11.878-3.643-18.306-.252-3.967.9-9.813,3.6-13.31,10.067-13.06,13.422-23.35,11.581-35.517-1.726-11.412-6.835-20.088-15.185-25.788A1.25,1.25,0,0,1,93.2,27.6c8.82,6.022,14.439,15.524,16.247,27.479C111.38,67.824,107.77,79.014,97.379,92.5c-2.294,2.976-3.3,8.211-3.085,11.626.393,6.188,2.392,13.787,3.548,17.767a3.411,3.411,0,0,1-3.283,4.362Z" style="fill:#55498c"/><path d="M34.317,92.675H26.961a1.25,1.25,0,0,1,0-2.5h7.356a1.25,1.25,0,0,1,0,2.5Z" style="fill:#55498c"/><circle cx="33.397" cy="66.296" r="2.15" style="fill:#55498c"/><path d="M44.946,39.8a1.251,1.251,0,0,1-1.078-1.881l1.633-2.8a1.25,1.25,0,0,1,2.158,1.261l-1.633,2.795A1.248,1.248,0,0,1,44.946,39.8Z" style="fill:#55498c"/><path d="M85.337,39.8a1.251,1.251,0,0,1-1.078-1.881l1.633-2.8a1.25,1.25,0,0,1,2.158,1.261l-1.633,2.795A1.248,1.248,0,0,1,85.337,39.8Z" style="fill:#55498c"/><path d="M71.219,41.726a1.251,1.251,0,0,1-1.078-1.881l1.632-2.8a1.25,1.25,0,1,1,2.159,1.261l-1.632,2.8A1.251,1.251,0,0,1,71.219,41.726Z" style="fill:#55498c"/><path d="M50.476,48.473A1.251,1.251,0,0,1,49.4,46.592l1.633-2.8a1.25,1.25,0,1,1,2.159,1.261l-1.632,2.8A1.251,1.251,0,0,1,50.476,48.473Z" style="fill:#55498c"/><path d="M64,50.926a1.251,1.251,0,0,1-1.078-1.881l1.633-2.8a1.25,1.25,0,0,1,2.158,1.261l-1.633,2.795A1.248,1.248,0,0,1,64,50.926Z" style="fill:#55498c"/><path d="M58.924,41.726a1.251,1.251,0,0,1-1.078-1.881l1.632-2.8a1.25,1.25,0,1,1,2.159,1.261l-1.632,2.8A1.251,1.251,0,0,1,58.924,41.726Z" style="fill:#55498c"/><path d="M77.533,48.926a1.25,1.25,0,0,1-1.078-1.881l1.632-2.8a1.25,1.25,0,0,1,2.159,1.261l-1.633,2.795A1.25,1.25,0,0,1,77.533,48.926Z" style="fill:#55498c"/><path d="M66.421,33.983a14.272,14.272,0,0,1-10.646-4.747c-3.6,1.592-8.5,1.512-11.641-.289a6.14,6.14,0,0,1-3.309-5.382c-.044-4.457,3.392-6.395,5.864-6.974A8.935,8.935,0,0,1,55.33,8.827C55.973,6.641,58.245,2.066,66,2.066S76.027,6.641,76.67,8.827a8.935,8.935,0,0,1,8.641,7.764c2.472.579,5.908,2.517,5.864,6.974a6.14,6.14,0,0,1-3.309,5.382c-3.138,1.8-8.031,1.881-11.628.3A12.418,12.418,0,0,1,66.421,33.983Zm-10.29-7.575a1.248,1.248,0,0,1,1.026.534,11.5,11.5,0,0,0,9.264,4.541,9.97,9.97,0,0,0,8.422-4.541,1.253,1.253,0,0,1,1.646-.369c2.843,1.63,7.485,1.723,10.135.2a3.643,3.643,0,0,0,2.051-3.237c.041-4.126-4.429-4.614-4.62-4.633a1.248,1.248,0,0,1-1.123-1.148c-.521-6.735-6.925-6.465-7.2-6.445a1.251,1.251,0,0,1-1.314-1.145c-.022-.219-.641-5.6-8.421-5.6s-8.4,5.385-8.422,5.614a1.258,1.258,0,0,1-1.313,1.135c-.687-.034-6.689-.129-7.2,6.445a1.248,1.248,0,0,1-1.123,1.148c-.473.05-4.66.613-4.62,4.633a3.643,3.643,0,0,0,2.051,3.237c2.65,1.518,7.291,1.424,10.135-.2A1.242,1.242,0,0,1,56.131,26.408Z" style="fill:#55498c"/></svg>