<svg id="LinealColor" xmlns="http://www.w3.org/2000/svg" viewBox="0 0 128 128"><title>mental health, disorder, mental illness, bipolar, stress, trauma, spend money</title><rect x="56.455" y="3" width="52.114" height="28.959" rx="1.248" ry="1.248" style="fill:#2add77"/><path d="M60.2,24.493V10.466l4-4h36.625l4,4V24.493l-4,4H64.2Z" style="fill:#1d9981"/><path d="M94.559,125a2.163,2.163,0,0,0,2.083-2.764c-1.171-4.03-3.195-11.728-3.595-18.036-.249-3.928.939-9.351,3.342-12.468,9.584-12.435,13.833-23.208,11.827-36.468-3.251-21.488-18.427-32.87-39.41-33.947C45.874,20.131,26.236,34.86,26.868,55.174c.083,2.682.552,6.63.541,9.209-.021,9.164-7.951,12.929-8.1,15.846-.25,4.788,5.375,3.293,7.359,10.067,2.519,8.6-1.091,18.409,10.63,17.8,4.676-.188,12.277-2,15.534,1.025,2.077,1.932,3.749,10.36,4.4,14.089A2.161,2.161,0,0,0,59.364,125Z" style="fill:#7171ff"/><rect x="46.955" y="12.56" width="52.114" height="28.959" rx="1.248" ry="1.248" style="fill:#2add77"/><path d="M72.975,47.283a1.931,1.931,0,0,0-1.538.755l-3.943,5.1a1.552,1.552,0,0,0,1.228,2.5h.923l0,5.081a1,1,0,0,0,1,1h4.63a1,1,0,0,0,1-.994L76.3,55.64h.923a1.552,1.552,0,0,0,1.23-2.5l-3.943-5.1a1.93,1.93,0,0,0-1.538-.755Z" style="fill:#f2f4df"/><path d="M69.641,66.931v3.218a1,1,0,0,0,1,1h4.632a1,1,0,0,0,1-1V66.931a1,1,0,0,0-1-1H70.641A1,1,0,0,0,69.641,66.931Z" style="fill:#f2f4df"/><path d="M69.659,76.113v1.01a2,2,0,0,0,2,2h2.632a2,2,0,0,0,2-2v-1.01a1,1,0,0,0-1-1H70.659A1,1,0,0,0,69.659,76.113Z" style="fill:#f2f4df"/><path d="M50.7,34.054V20.026l4-4H91.324l4,4V34.054l-4,4H54.7Z" style="fill:#1d9981"/><circle cx="73.012" cy="27.04" r="7.593" style="fill:#16826d"/><path d="M94.56,126.25h-35.2A3.408,3.408,0,0,1,56,123.429c-1.243-7.109-2.784-12.24-4.021-13.39-2.087-1.941-6.99-1.423-10.93-1.008-1.327.14-2.581.273-3.7.318-9.656.5-10.233-5.733-10.787-11.761a36.524,36.524,0,0,0-1.093-6.941,8.367,8.367,0,0,0-4.125-5.165c-1.614-1.063-3.443-2.268-3.283-5.319.077-1.476,1.24-2.764,2.712-4.392,2.269-2.512,5.376-5.952,5.389-11.39.006-1.411-.14-3.3-.282-5.116-.114-1.471-.222-2.859-.259-4.052-.369-11.894,5.865-22.49,17.106-29.075a1.249,1.249,0,1,1,1.263,2.156C33.562,34.4,27.776,44.186,28.116,55.135c.036,1.136.142,2.5.254,3.935.145,1.872.295,3.808.289,5.319-.014,6.4-3.638,10.4-6.034,13.057-1,1.111-2.04,2.258-2.071,2.848-.081,1.559.564,2.048,2.162,3.1a10.843,10.843,0,0,1,5.148,6.548,38.915,38.915,0,0,1,1.184,7.415c.565,6.155.911,9.876,8.182,9.493,1.055-.043,2.27-.171,3.556-.307,4.675-.492,9.975-1.052,12.894,1.663,2.167,2.016,3.8,9.155,4.782,14.789a.91.91,0,0,0,.9.753h35.2a.912.912,0,0,0,.736-.367.887.887,0,0,0,.145-.8c-1.185-4.08-3.234-11.883-3.641-18.308-.252-3.966.9-9.812,3.6-13.309,10.067-13.061,13.422-23.351,11.581-35.518a41,41,0,0,0-5.873-16.237,1.25,1.25,0,0,1,2.1-1.356,43.483,43.483,0,0,1,6.246,17.219c1.928,12.746-1.682,23.937-12.073,37.417-2.294,2.977-3.3,8.211-3.085,11.626.393,6.186,2.392,13.787,3.548,17.768a3.411,3.411,0,0,1-3.282,4.362Z" style="fill:#55498c"/><path d="M34.317,92.675H26.961a1.25,1.25,0,0,1,0-2.5h7.356a1.25,1.25,0,0,1,0,2.5Z" style="fill:#55498c"/><circle cx="33.397" cy="66.296" r="2.15" style="fill:#55498c"/><path d="M102.367,28.2a1.25,1.25,0,0,1-.884-2.134l2.091-2.09V10.983l-3.267-3.267H64.717l-2.553,2.553A1.25,1.25,0,0,1,60.4,8.5l2.919-2.919a1.254,1.254,0,0,1,.884-.366h36.625a1.25,1.25,0,0,1,.884.366l4,4a1.252,1.252,0,0,1,.366.884V24.493a1.252,1.252,0,0,1-.366.884l-2.457,2.457A1.246,1.246,0,0,1,102.367,28.2Z" style="fill:#55498c"/><path d="M107.32,33.209h-4.883a1.25,1.25,0,1,1,0-2.5h4.883l0-26.461L57.7,4.25V9.323a1.25,1.25,0,0,1-2.5,0V4.248a2.5,2.5,0,0,1,2.5-2.5H107.32a2.5,2.5,0,0,1,2.5,2.5V30.711A2.5,2.5,0,0,1,107.32,33.209Z" style="fill:#55498c"/><path d="M91.324,39.3H54.7a1.254,1.254,0,0,1-.884-.366l-4-4a1.254,1.254,0,0,1-.366-.884V20.026a1.25,1.25,0,0,1,.366-.883l4-4a1.251,1.251,0,0,1,.884-.367H91.324a1.249,1.249,0,0,1,.884.367l4,4a1.25,1.25,0,0,1,.366.883V34.054a1.254,1.254,0,0,1-.366.884l-4,4A1.25,1.25,0,0,1,91.324,39.3ZM55.217,36.8h35.59l3.267-3.268V20.544l-3.267-3.268H55.217l-3.268,3.268V33.536Z" style="fill:#55498c"/><path d="M97.82,42.77H48.2a2.5,2.5,0,0,1-2.5-2.5V13.809a2.5,2.5,0,0,1,2.5-2.5H97.82a2.5,2.5,0,0,1,2.5,2.5V40.271A2.5,2.5,0,0,1,97.82,42.77Zm0-28.961-49.615,0V40.272l49.616,0Z" style="fill:#55498c"/><path d="M73.012,35.884a8.844,8.844,0,1,1,8.843-8.844A8.855,8.855,0,0,1,73.012,35.884Zm0-15.188a6.344,6.344,0,1,0,6.343,6.344A6.351,6.351,0,0,0,73.012,20.7Z" style="fill:#55498c"/><path d="M79.7,52.213l-3.943-5.1a3.467,3.467,0,0,0-5.487,0l-3.943,5.1a3.077,3.077,0,0,0,1.831,4.9l0,3.637a2.5,2.5,0,0,0,2.5,2.5H75.33a2.5,2.5,0,0,0,2.5-2.484l.023-3.653a3.076,3.076,0,0,0,1.845-4.9ZM77.265,54.67h0l-1.322,0a.577.577,0,0,0-.577.577L75.33,60.75H70.653l0-5.506a.576.576,0,0,0-.576-.576h0l-1.321,0h0a.576.576,0,0,1-.456-.928l3.943-5.1a.969.969,0,0,1,1.531,0l3.943,5.1A.576.576,0,0,1,77.265,54.67Z" style="fill:#55498c"/><path d="M70.653,72.511h4.68a2.5,2.5,0,0,0,2.5-2.5V66.746a2.5,2.5,0,0,0-2.5-2.5h-4.68a2.5,2.5,0,0,0-2.5,2.5v3.265A2.5,2.5,0,0,0,70.653,72.511Zm0-5.765h4.68v3.265h-4.68Z" style="fill:#55498c"/><path d="M75.352,73.59h-4.68a2.5,2.5,0,0,0-2.5,2.5v1.057a3.5,3.5,0,0,0,3.5,3.5h2.68a3.5,3.5,0,0,0,3.5-3.5V76.09A2.5,2.5,0,0,0,75.352,73.59Zm0,3.557a1,1,0,0,1-1,1h-2.68a1,1,0,0,1-1-1V76.09h4.68Z" style="fill:#55498c"/></svg>