<svg id="LinealColor" xmlns="http://www.w3.org/2000/svg" viewBox="0 0 128 128"><title>mental health, disorder, mental illness, Schizophrenia, sick, paranoia, psychosis</title><circle cx="31.397" cy="58.125" r="2.15" style="fill:#8aad93"/><path d="M96.472,119.122a2.3,2.3,0,0,0,2.213-2.936c-1.245-4.283-3.395-12.463-3.82-19.166-.265-4.174,1-9.936,3.551-13.249,10.184-13.212,14.7-24.66,12.567-38.749C107.529,22.188,91.4,10.094,69.106,8.949,44.74,7.688,23.872,23.34,24.543,44.926c.089,2.849.588,7.044.576,9.785-.023,9.738-8.448,13.738-8.61,16.837-.266,5.089,5.711,3.5,7.819,10.7,2.677,9.139-1.16,19.561,11.295,18.917,4.97-.2,13.045-2.129,16.507,1.09,2.207,2.052,3.983,11.007,4.677,14.97a2.3,2.3,0,0,0,2.266,1.9Z" style="fill:#7171ff"/><path d="M62.616,14.546C42.652,15.772,32.138,25.613,31.092,40.612c-.636,9.113,6.71,18.61,28.623,18.61,16.494,0,26.96,15.7,41.389,2.6,8.614-7.821,4.367-25.441-1.329-32.086A45.644,45.644,0,0,0,62.616,14.546Z" style="fill:#8babea"/><path d="M63.682,20.784c-16.364.9-24.983,8.1-25.841,19.087C37.32,46.544,43.342,53.5,61.3,53.5c13.52,0,23.986,13.264,35.813,3.671,7.061-5.726,1.693-20.4-2.976-25.263S78.89,19.95,63.682,20.784Z" style="fill:#fc5b5b"/><path d="M65.5,27.434c-10.743.59-18.508,2.9-19.926,9.99-1.044,5.221,2.255,10.49,17.045,10.49,8.876,0,19.973,9.145,27.738,2.848,4.635-3.76,2.7-12.29-1.722-15.57C82.688,30.779,75.481,26.887,65.5,27.434Z" style="fill:#ffc91d"/><path d="M64.936,32.891c-6.692-.055-12.1,2.571-12.1,5.34,0,3.987,4.209,3.675,10.516,4.272,8.53.807,18.2,5.542,21.522,3.132,1.986-1.438.874-4.791-.548-5.883C82.631,38.454,74.321,32.969,64.936,32.891Z" style="fill:#fff"/><path d="M32.317,85.5H24.961a1.25,1.25,0,0,1,0-2.5h7.356a1.25,1.25,0,0,1,0,2.5Z" style="fill:#55498c"/><circle cx="31.397" cy="58.125" r="2.15" style="fill:#55498c"/><path d="M96.472,120.372h-37.4a3.543,3.543,0,0,1-3.5-2.933c-1.324-7.57-2.971-13.038-4.3-14.271-2.245-2.086-7.475-1.536-11.675-1.092-1.41.148-2.741.289-3.93.337-10.186.53-10.8-6.059-11.38-12.426a38.878,38.878,0,0,0-1.164-7.39,8.954,8.954,0,0,0-4.416-5.531c-1.7-1.119-3.62-2.386-3.453-5.583.081-1.541,1.308-2.9,2.862-4.619,2.42-2.678,5.733-6.346,5.747-12.156.006-1.5-.149-3.5-.3-5.433-.122-1.564-.237-3.042-.276-4.311A33.071,33.071,0,0,1,33.525,20.145C42.33,11.52,55.319,6.985,69.171,7.7c23.974,1.231,39.664,14.765,43.048,37.133,2.046,13.522-1.786,25.395-12.813,39.7-2.449,3.177-3.525,8.763-3.294,12.405.418,6.584,2.544,14.665,3.773,18.9a3.547,3.547,0,0,1-3.413,4.535Zm-51-21.217c2.951,0,5.678.48,7.508,2.182,2.286,2.125,4.012,9.695,5.058,15.671a1.046,1.046,0,0,0,1.035.864h37.4a1.047,1.047,0,0,0,.846-.421,1.032,1.032,0,0,0,.167-.916c-1.258-4.33-3.434-12.613-3.868-19.436-.266-4.2.957-10.39,3.809-14.091,10.711-13.9,14.281-24.847,12.321-37.8-3.19-21.085-18.026-33.846-40.7-35.01C55.884,9.511,43.581,13.793,35.275,21.93a30.2,30.2,0,0,0-9.482,22.957c.038,1.211.15,2.66.269,4.2.154,1.983.313,4.035.307,5.634-.016,6.766-3.853,11.013-6.392,13.824-1.075,1.189-2.186,2.419-2.22,3.073-.089,1.7.608,2.229,2.332,3.366A11.459,11.459,0,0,1,25.528,81.9a41.4,41.4,0,0,1,1.255,7.863c.605,6.585.962,10.564,8.776,10.157,1.122-.045,2.414-.181,3.781-.326A59.808,59.808,0,0,1,45.472,99.155Z" style="fill:#55498c"/><path d="M89.166,68.3c-4.544,0-8.919-1.8-13.427-3.663-4.967-2.049-10.1-4.166-16.024-4.166-11.851,0-20.727-2.8-25.669-8.1a15.4,15.4,0,0,1-4.2-11.848c1.139-16.333,12.75-26,32.7-27.226a47.172,47.172,0,0,1,38.185,15.622c5.781,6.746,10.755,25.168,1.219,33.825C97.409,66.864,93.22,68.3,89.166,68.3ZM62.693,15.794c-18.534,1.138-29.314,9.983-30.354,24.9a12.956,12.956,0,0,0,3.536,9.968c4.457,4.779,12.7,7.305,23.84,7.305,6.417,0,12.028,2.313,16.977,4.355,8.45,3.484,15.126,6.237,23.572-1.431,7.983-7.249,3.785-24.254-1.438-30.348A44.6,44.6,0,0,0,62.693,15.794Zm-.077-1.248h0Z" style="fill:#55498c"/><path d="M95.043,31.041c-2.828-2.948-13.456-12.485-31.43-11.5-16.474.9-26.07,8.091-27.018,20.238a10.89,10.89,0,0,0,2.991,8.416c2.767,2.992,8.782,6.558,21.718,6.558,4.927,0,9.516,1.886,13.954,3.71,4.132,1.7,8.342,3.429,12.657,3.429a15.37,15.37,0,0,0,9.99-3.747c2.321-1.882,3.612-4.668,3.837-8.282C102.156,43.21,98.613,34.761,95.043,31.041Zm4.2,18.662a8.648,8.648,0,0,1-2.917,6.5c-6.725,5.453-12.933,2.9-20.122-.053-4.662-1.917-9.482-3.9-14.9-3.9-12.033,0-17.454-3.13-19.883-5.756a8.451,8.451,0,0,1-2.334-6.524c.839-10.739,9.6-17.11,24.663-17.936C77.19,21.294,87.8,27.1,93.239,32.771,96.376,36.041,99.615,43.8,99.247,49.7Z" style="fill:#55498c"/><path d="M83.852,54.236c-3.613,0-7.433-1.331-11.178-2.636-3.594-1.253-6.989-2.436-10.058-2.436-8.377,0-13.995-1.672-16.7-4.97a8.176,8.176,0,0,1-1.572-7.015c1.763-8.815,12.194-10.505,21.084-10.992h0c10.873-.6,18.508,3.963,23.948,8A13.409,13.409,0,0,1,94.27,44.283a9.049,9.049,0,0,1-3.129,7.449A11.137,11.137,0,0,1,83.852,54.236ZM65.565,28.683C53.7,29.334,47.909,32.1,46.8,37.669a5.687,5.687,0,0,0,1.055,4.94c1.516,1.849,5.309,4.055,14.765,4.055,3.492,0,7.248,1.309,10.881,2.575,6.024,2.1,11.716,4.082,16.069.552a6.617,6.617,0,0,0,2.2-5.455,10.957,10.957,0,0,0-3.884-8.14c-5.1-3.788-12.25-8.068-22.322-7.513ZM65.5,27.435h0Z" style="fill:#55498c"/><path d="M82.182,47.567c-2.375,0-5.394-.8-8.879-1.718a64.24,64.24,0,0,0-10.072-2.1c-.867-.082-1.694-.147-2.476-.208-4.924-.386-9.177-.719-9.172-5.311a4.239,4.239,0,0,1,1.405-2.981c2.254-2.233,6.953-3.654,11.959-3.607h0c10.853.09,20.045,7.049,20.137,7.12A6.147,6.147,0,0,1,87.2,43.41a3.941,3.941,0,0,1-1.591,3.237A5.685,5.685,0,0,1,82.182,47.567ZM64.719,34.14c-4.875,0-8.513,1.44-9.971,2.884a1.927,1.927,0,0,0-.665,1.208c0,2.054,1.388,2.387,6.867,2.815.795.062,1.635.128,2.517.211a67.167,67.167,0,0,1,10.475,2.174c4.265,1.127,8.677,2.293,10.2,1.191a1.4,1.4,0,0,0,.558-1.248,3.673,3.673,0,0,0-1.134-2.631c-.085-.065-8.61-6.519-18.636-6.6Z" style="fill:#55498c"/></svg>