<svg id="LinealColor" xmlns="http://www.w3.org/2000/svg" viewBox="0 0 128 128"><title>mental health, disorder, mental illness, depression, stress, trauma, PTSD</title><path d="M94.559,125a2.163,2.163,0,0,0,2.083-2.764c-1.171-4.03-3.195-11.728-3.595-18.036-.249-3.928.939-9.351,3.342-12.468,9.584-12.435,13.833-23.208,11.827-36.468-3.251-21.488-18.427-32.87-39.41-33.947C45.874,20.131,26.236,34.86,26.868,55.174c.083,2.682.552,6.63.541,9.209-.021,9.164-7.951,12.929-8.1,15.846-.25,4.788,5.375,3.293,7.359,10.067,2.519,8.6-1.091,18.409,10.63,17.8,4.676-.188,12.277-2,15.534,1.025,2.077,1.932,3.749,10.36,4.4,14.089A2.161,2.161,0,0,0,59.364,125Z" style="fill:#eeefe1"/><path d="M67.935,38.856a15.625,15.625,0,0,1-12.577-6.2c-5.862,3.359-17.114,2.108-17.184-5.018-.064-6.5,7.025-7.2,7.025-7.2.759-9.816,10.4-9.287,10.4-9.287S56.29,2.9,67.42,2.9s11.817,8.252,11.817,8.252,9.645-.529,10.4,9.287c0,0,7.089.7,7.025,7.2-.07,7.126-11.322,8.377-17.184,5.018A13.746,13.746,0,0,1,67.935,38.856Z" style="fill:#7171ff"/><path d="M63.325,53.144a1,1,0,0,1-.9-1.427c.221-.523,3.217-7.614,4.392-9.862a.334.334,0,0,0-.08-.4L63.09,38.19a1.856,1.856,0,0,1-.411-2.237l3.987-7.72a1.357,1.357,0,0,1,1.211-.737H73.4A1.363,1.363,0,0,1,74.544,29.6l-4,6.152a.348.348,0,0,0,.065.45l3.086,2.686a1.855,1.855,0,0,1,.64,1.3,1.826,1.826,0,0,1-.5,1.362c-2.4,2.564-9.7,11.169-9.769,11.256a.591.591,0,0,1-.06.063A.988.988,0,0,1,63.325,53.144Zm-.209-1.112h0Z" style="fill:#ffc91d"/><path d="M73.4,28.253a.606.606,0,0,1,.508.936l-4,6.152a1.106,1.106,0,0,0,.2,1.43l3.09,2.69a1.087,1.087,0,0,1,.085,1.575c-2.442,2.611-9.8,11.287-9.8,11.287a.229.229,0,0,1-.159.065.241.241,0,0,1-.211-.356S66.3,44.49,67.49,42.206a1.1,1.1,0,0,0-.248-1.321L63.6,37.625a1.1,1.1,0,0,1-.243-1.326l3.987-7.718a.607.607,0,0,1,.538-.328H73.4m0-2.5H67.877a3.1,3.1,0,0,0-2.759,1.68l-3.987,7.718a3.6,3.6,0,0,0,.8,4.345l2.847,2.544c-1.359,2.848-3.68,8.332-3.949,8.97a2.716,2.716,0,0,0,.146,2.552,2.76,2.76,0,0,0,2.347,1.326,2.725,2.725,0,0,0,1.869-.741c.069-.066.135-.135.2-.207s7.343-8.659,9.715-11.2a3.587,3.587,0,0,0-.282-5.179l-2.159-1.88,3.338-5.133a3.106,3.106,0,0,0-2.6-4.8Z" style="fill:#55498c"/><path d="M94.559,126.25H59.364A3.408,3.408,0,0,1,56,123.428c-1.243-7.108-2.784-12.238-4.021-13.389-2.088-1.941-6.991-1.423-10.93-1.008-1.328.14-2.582.273-3.7.318-9.652.488-10.232-5.733-10.786-11.761a36.536,36.536,0,0,0-1.093-6.941,8.376,8.376,0,0,0-4.125-5.165c-1.614-1.063-3.443-2.268-3.283-5.319.077-1.476,1.24-2.764,2.712-4.392,2.269-2.512,5.376-5.952,5.389-11.39.007-1.411-.14-3.294-.282-5.115-.114-1.47-.222-2.86-.259-4.053a31.213,31.213,0,0,1,9.9-23.651,1.25,1.25,0,1,1,1.733,1.8,28.368,28.368,0,0,0-9.131,21.771c.035,1.136.141,2.5.253,3.937.146,1.871.3,3.807.289,5.318-.015,6.394-3.637,10.4-6.034,13.056-1,1.11-2.04,2.258-2.07,2.848-.082,1.559.563,2.048,2.161,3.1a10.847,10.847,0,0,1,5.149,6.548,38.91,38.91,0,0,1,1.183,7.415c.566,6.155.919,9.872,8.182,9.493,1.055-.043,2.27-.171,3.556-.307,4.673-.493,9.973-1.054,12.894,1.664,2.167,2.015,3.8,9.154,4.782,14.788a.91.91,0,0,0,.9.753h35.2a.911.911,0,0,0,.737-.367.889.889,0,0,0,.146-.8c-1.186-4.077-3.234-11.878-3.643-18.307-.252-3.965.9-9.811,3.6-13.309,10.067-13.061,13.422-23.351,11.581-35.518-1.345-8.891-4.793-16.188-10.25-21.686A1.25,1.25,0,1,1,98.5,32c5.839,5.884,9.522,13.646,10.948,23.075,1.929,12.746-1.681,23.936-12.072,37.416-2.3,2.977-3.3,8.212-3.085,11.626.393,6.19,2.392,13.788,3.548,17.768a3.411,3.411,0,0,1-3.283,4.362Z" style="fill:#55498c"/><path d="M34.317,92.675H26.961a1.25,1.25,0,0,1,0-2.5h7.356a1.25,1.25,0,0,1,0,2.5Z" style="fill:#55498c"/><circle cx="33.397" cy="66.296" r="2.15" style="fill:#55498c"/><path d="M76.256,37.319a1.25,1.25,0,0,1-.763-2.24,14.231,14.231,0,0,0,2.965-3.142,1.253,1.253,0,0,1,1.646-.37c3.55,2.037,9.35,2.15,12.665.251a4.715,4.715,0,0,0,2.647-4.2c.053-5.295-5.655-5.918-5.9-5.941A1.249,1.249,0,0,1,88.4,20.533c-.658-8.5-8.74-8.154-9.089-8.136a1.261,1.261,0,0,1-1.314-1.144c-.028-.283-.791-7.106-10.572-7.106S56.875,10.97,56.848,11.261A1.255,1.255,0,0,1,55.534,12.4c-.338-.011-8.435-.317-9.089,8.136a1.249,1.249,0,0,1-1.123,1.148c-.239.025-5.95.683-5.9,5.941a4.714,4.714,0,0,0,2.648,4.2c3.314,1.9,9.114,1.786,12.664-.251a1.253,1.253,0,0,1,1.647.37,12.176,12.176,0,0,0,2.961,2.943A1.25,1.25,0,0,1,57.9,36.919,15,15,0,0,1,55,34.242c-4.337,2-10.342,1.939-14.169-.255a7.238,7.238,0,0,1-3.905-6.34c-.053-5.384,4.2-7.661,7.137-8.293C45.083,12.2,50.833,10.083,54.588,9.9c.683-2.506,3.291-8.253,12.832-8.253S79.569,7.394,80.252,9.9c3.755.183,9.5,2.3,10.527,9.454,2.941.631,7.19,2.909,7.137,8.293a7.239,7.239,0,0,1-3.905,6.34c-3.825,2.193-9.822,2.257-14.158.26a16.355,16.355,0,0,1-2.835,2.813A1.251,1.251,0,0,1,76.256,37.319Z" style="fill:#55498c"/><path d="M88.681,45.337A1.251,1.251,0,0,1,87.6,43.456l1.632-2.8a1.251,1.251,0,0,1,2.16,1.262l-1.633,2.8A1.25,1.25,0,0,1,88.681,45.337Z" style="fill:#55498c"/><path d="M47.667,45.467a1.251,1.251,0,0,1-1.079-1.881l1.633-2.8a1.25,1.25,0,0,1,2.159,1.262l-1.632,2.8A1.252,1.252,0,0,1,47.667,45.467Z" style="fill:#55498c"/><path d="M51.2,53.611a1.235,1.235,0,0,1-.63-.171,1.25,1.25,0,0,1-.449-1.71l1.632-2.794A1.251,1.251,0,0,1,53.91,50.2l-1.633,2.795A1.248,1.248,0,0,1,51.2,53.611Z" style="fill:#55498c"/><path d="M57.8,45.337a1.251,1.251,0,0,1-1.078-1.881l1.633-2.8a1.25,1.25,0,0,1,2.158,1.262l-1.633,2.8A1.249,1.249,0,0,1,57.8,45.337Z" style="fill:#55498c"/><path d="M78.224,45.337a1.251,1.251,0,0,1-1.079-1.881l1.632-2.8a1.251,1.251,0,0,1,2.16,1.262l-1.633,2.8A1.25,1.25,0,0,1,78.224,45.337Z" style="fill:#55498c"/><path d="M77.253,54.064a1.249,1.249,0,0,1-1.078-1.88l1.633-2.795a1.25,1.25,0,1,1,2.158,1.261l-1.633,2.8A1.247,1.247,0,0,1,77.253,54.064Z" style="fill:#55498c"/></svg>