<svg id="LinealColor" xmlns="http://www.w3.org/2000/svg" viewBox="0 0 128 128"><title>mental health, disorder, mental illness, depression, sad, mania, bipolar</title><path d="M115.526,66.53c-.01-2.488.442-6.3.523-8.883.609-19.595-18.334-33.8-40.453-32.659-20.24,1.04-34.879,12.019-38.015,32.746-1.935,12.79,2.163,23.182,11.408,35.176,2.318,3.007,3.464,8.238,3.224,12.026a92.628,92.628,0,0,1-2.937,15.834,2,2,0,0,0,1.934,2.506H82.219a2,2,0,0,0,1.905-1.4c1.289-3.979,3.72-9.784,6.883-12.191,3.414-2.6,10.473-1.171,14.984-.989,11.306.584,7.824-8.877,10.253-17.173,1.914-6.535,7.34-5.092,7.1-9.711C123.2,79,115.547,75.369,115.526,66.53Z" style="fill:#ffc91d"/><path d="M77.246,125a2.086,2.086,0,0,0,2.009-2.666c-1.13-3.887-3.082-11.313-3.468-17.4-.24-3.788.906-9.02,3.224-12.026,9.245-11.994,13.343-22.386,11.408-35.176C87.283,37.007,72.644,26.028,52.4,24.988,30.285,23.844,11.342,38.052,11.951,57.647c.081,2.586.533,6.4.523,8.883C12.453,75.369,4.8,79,4.657,81.814c-.241,4.619,5.185,3.176,7.1,9.711,2.429,8.3-1.053,17.757,10.253,17.173,4.511-.182,11.842-1.933,14.984.989,2,1.863,3.617,9.992,4.246,13.589A2.084,2.084,0,0,0,43.3,125Z" style="fill:#7171ff"/><path d="M38.245,2.307,36.114,6.2a.747.747,0,0,1-.3.3l-3.9,2.131a.756.756,0,0,0,0,1.326l3.9,2.131a.749.749,0,0,1,.3.3l2.131,3.895a.757.757,0,0,0,1.327,0l2.13-3.895a.758.758,0,0,1,.3-.3L45.9,9.96a.755.755,0,0,0,0-1.326L42,6.5a.756.756,0,0,1-.3-.3l-2.13-3.9A.757.757,0,0,0,38.245,2.307Z" style="fill:#eeefe1"/><path d="M19.571,16.364l-1.422,2.6a.5.5,0,0,1-.2.2l-2.6,1.422a.505.505,0,0,0,0,.886l2.6,1.422a.5.5,0,0,1,.2.2l1.422,2.6a.505.505,0,0,0,.886,0l1.422-2.6a.506.506,0,0,1,.2-.2l2.6-1.422a.505.505,0,0,0,0-.886l-2.6-1.422a.5.5,0,0,1-.2-.2l-1.422-2.6A.505.505,0,0,0,19.571,16.364Z" style="fill:#eeefe1"/><path d="M84.069,123.557a1.342,1.342,0,0,1-.217-.018,1.251,1.251,0,0,1-1.016-1.447c.639-3.651,3.143-10.234,7.426-13.409,3.092-2.293,8.178-1.85,12.664-1.461,1.122.1,2.182.189,3.116.227,7,.361,7.316-3.206,7.859-9.115a37.682,37.682,0,0,1,1.143-7.16,10.511,10.511,0,0,1,4.985-6.342c1.526-1.007,2.142-1.474,2.065-2.953-.029-.553-1.069-1.7-1.986-2.719-2.316-2.564-5.817-6.439-5.832-12.627-.006-1.456.139-3.323.279-5.129.109-1.389.21-2.7.244-3.8a27.3,27.3,0,0,0-8.573-20.753C98.708,29.49,87.566,25.612,75.66,26.237l-.433.022a31.218,31.218,0,0,0-4.841.5,1.25,1.25,0,0,1-.438-2.461,33.5,33.5,0,0,1,5.152-.534l.432-.022c12.61-.644,24.428,3.478,32.444,11.329A30.131,30.131,0,0,1,117.3,57.686c-.036,1.152-.14,2.493-.25,3.912-.136,1.756-.277,3.57-.272,4.926.013,5.232,3,8.543,5.187,10.96,1.426,1.579,2.552,2.825,2.628,4.265.155,2.967-1.62,4.137-3.186,5.17a8.033,8.033,0,0,0-3.961,4.957,35.142,35.142,0,0,0-1.053,6.687c-.536,5.835-1.082,11.863-10.464,11.383-.978-.039-2.065-.133-3.217-.234-3.843-.334-8.628-.749-10.959.978-3.668,2.721-5.9,8.7-6.452,11.832A1.25,1.25,0,0,1,84.069,123.557Z" style="fill:#55498c"/><path d="M115.887,94.178a1.241,1.241,0,0,1-.763-.261,7.167,7.167,0,0,0-5.932-.906,1.25,1.25,0,1,1-.658-2.412,9.663,9.663,0,0,1,8.117,1.34,1.25,1.25,0,0,1-.764,2.239Z" style="fill:#55498c"/><circle cx="109.144" cy="67.724" r="2.231" style="fill:#55498c"/><circle cx="19.137" cy="68.375" r="2.231" style="fill:#55498c"/><path d="M77.246,126.25H43.3a3.33,3.33,0,0,1-3.288-2.758c-1.181-6.744-2.7-11.8-3.866-12.89-2-1.859-6.718-1.361-10.508-.961-1.281.134-2.491.262-3.575.306-9.349.482-9.914-5.549-10.45-11.384a35.132,35.132,0,0,0-1.053-6.686A8.033,8.033,0,0,0,6.6,86.919c-1.566-1.033-3.341-2.2-3.185-5.17.075-1.44,1.2-2.686,2.627-4.265,2.183-2.417,5.174-5.728,5.187-10.957,0-1.359-.136-3.173-.272-4.929-.11-1.419-.214-2.76-.25-3.912a30.131,30.131,0,0,1,9.322-22.617C28.04,27.217,39.866,23.092,52.469,23.74c21.822,1.12,36.1,13.443,39.185,33.807C93.517,69.855,90.031,80.659,80,93.673c-2.207,2.863-3.175,7.9-2.966,11.184.378,5.966,2.305,13.292,3.42,17.129a3.335,3.335,0,0,1-3.209,4.264Zm-46.3-19.491c2.7,0,5.206.442,6.894,2.012,2.1,1.951,3.674,8.848,4.627,14.29a.835.835,0,0,0,.825.689h33.95a.84.84,0,0,0,.676-.336.818.818,0,0,0,.133-.73c-1.144-3.936-3.121-11.464-3.515-17.669-.244-3.834.874-9.486,3.481-12.869,9.7-12.586,12.935-22.5,11.162-34.225C86.3,38.839,72.867,27.291,52.34,26.237c-11.914-.626-23.049,3.254-30.566,10.618A27.3,27.3,0,0,0,13.2,57.608c.034,1.1.135,2.407.244,3.8.14,1.806.285,3.673.279,5.131C13.709,72.721,10.208,76.6,7.892,79.16c-.917,1.015-1.957,2.166-1.986,2.719-.077,1.479.539,1.946,2.065,2.953a10.511,10.511,0,0,1,4.985,6.342,37.682,37.682,0,0,1,1.143,7.16c.543,5.91.877,9.483,7.845,9.115,1.017-.041,2.188-.164,3.428-.3A54.34,54.34,0,0,1,30.95,106.759Z" style="fill:#55498c"/><path d="M12.815,94.134a7.212,7.212,0,0,1-.885-.045,1.25,1.25,0,0,1,.324-2.479,11.926,11.926,0,0,0,5.776-1.2,1.25,1.25,0,1,1,1.036,2.275A15.293,15.293,0,0,1,12.815,94.134Z" style="fill:#55498c"/><path d="M46.07,6.538,43.224,4.982,41.667,2.136a3.144,3.144,0,0,0-5.518,0L34.593,4.982,31.747,6.538a3.144,3.144,0,0,0,0,5.518l2.846,1.557,1.556,2.845a3.145,3.145,0,0,0,5.519,0l1.556-2.845,2.846-1.557a3.144,3.144,0,0,0,0-5.518Zm-1.2,3.325L41.548,11.68a.64.64,0,0,0-.257.256l-1.817,3.323a.645.645,0,0,1-1.131,0l-1.817-3.323a.652.652,0,0,0-.257-.256L32.947,9.863a.645.645,0,0,1,0-1.132l3.322-1.817a.652.652,0,0,0,.257-.256l1.817-3.323a.645.645,0,0,1,1.131,0l1.817,3.323a.64.64,0,0,0,.257.256L44.87,8.731A.645.645,0,0,1,44.87,9.863Z" style="fill:#55498c"/><path d="M24.86,18.49l-1.491-.815-.816-1.491a2.894,2.894,0,0,0-5.079,0l-.815,1.491-1.491.815a2.894,2.894,0,0,0,0,5.079l1.491.816.815,1.491a2.9,2.9,0,0,0,5.079,0l.816-1.491,1.491-.816a2.9,2.9,0,0,0,0-5.079Zm-1.2,2.886-2.032,1.111a.4.4,0,0,0-.157.157L20.36,24.676a.394.394,0,0,1-.692,0l-1.112-2.032a.393.393,0,0,0-.156-.157l-2.033-1.111a.4.4,0,0,1,0-.692L18.4,19.572a.39.39,0,0,0,.156-.156l1.112-2.033a.394.394,0,0,1,.692,0l1.111,2.033a.393.393,0,0,0,.157.156l2.032,1.112A.394.394,0,0,1,23.66,21.376Z" style="fill:#55498c"/><path d="M74.846,20.2a1.25,1.25,0,0,1-.869-2.148c2.121-2.054,1.652-2.575.4-3.97-1.2-1.335-3.013-3.352-.9-6.722A1.25,1.25,0,1,1,75.6,8.685c-1.114,1.772-.491,2.464.639,3.721,1.327,1.476,3.332,3.707-.519,7.437A1.246,1.246,0,0,1,74.846,20.2Z" style="fill:#55498c"/><path d="M99.715,20.2a1.25,1.25,0,0,1-.869-2.148c2.121-2.054,1.652-2.575.4-3.969-1.2-1.336-3.014-3.353-.9-6.723a1.25,1.25,0,1,1,2.117,1.33c-1.113,1.772-.491,2.464.639,3.721,1.327,1.476,3.333,3.707-.519,7.437A1.246,1.246,0,0,1,99.715,20.2Z" style="fill:#55498c"/><path d="M87.347,21.494a1.25,1.25,0,0,1-.869-2.148c3.848-3.726,2.717-4.984.664-7.268C85.289,10.016,82.75,7.192,85.8,2.335a1.25,1.25,0,1,1,2.117,1.33c-2.047,3.259-.734,4.72,1.083,6.741,2.023,2.251,4.8,5.334-.784,10.736A1.246,1.246,0,0,1,87.347,21.494Z" style="fill:#55498c"/></svg>