<svg id="LinealColor" xmlns="http://www.w3.org/2000/svg" viewBox="0 0 128 128"><title>mental health, disorder, mental illness, phobia, Panic Attack, Psychiatric, anxiety</title><path d="M94.72,118.33a2.167,2.167,0,0,1-2.08,2.77H57.44a2.167,2.167,0,0,1-2.13-1.79c-.65-3.73-2.33-12.16-4.4-14.09-3.26-3.03-10.86-1.21-15.54-1.03-9.54.5-8.92-5.92-9.73-12.96a28.207,28.207,0,0,0-.9-4.84l-.09-.27c-2.04-6.46-7.52-5.08-7.27-9.8.16-2.91,8.09-6.68,8.11-15.84.01-2.58-.46-6.53-.54-9.21-.64-20.32,19-35.04,41.93-33.86,20.99,1.08,36.16,12.46,39.41,33.95,2.01,13.26-2.24,24.03-11.82,36.47-2.41,3.11-3.59,8.54-3.35,12.46C91.52,106.6,93.55,114.3,94.72,118.33Z" style="fill:#ffc91d"/><path d="M33.33,91.23H27.992a.4.4,0,0,1-.395-.343c-.182-1.306-.624-3.358-.834-4.285a.4.4,0,0,1,.392-.482H33.33a2.555,2.555,0,0,1,0,5.11Z" style="fill:#fff"/><path d="M32.863,28.463a1.249,1.249,0,0,1-.941-2.071C38.4,18.96,48.441,13.983,59.481,12.735a1.25,1.25,0,0,1,.282,2.485C49.336,16.4,39.876,21.068,33.807,28.035A1.249,1.249,0,0,1,32.863,28.463Z" style="fill:#55498c"/><path d="M103.829,36.488a1.25,1.25,0,0,1-1.127-.708c-4.442-9.228-12.326-15.73-22.8-18.8a1.249,1.249,0,0,1,.7-2.4C91.778,17.856,100.2,24.812,104.954,34.7a1.25,1.25,0,0,1-1.125,1.792Z" style="fill:#55498c"/><path d="M108.328,73.474a1.252,1.252,0,0,1-1.173-1.684,37.742,37.742,0,0,0,1.9-19.209,43.974,43.974,0,0,0-3.748-12.514,1.25,1.25,0,1,1,2.252-1.085,46.485,46.485,0,0,1,3.968,13.225,40.205,40.205,0,0,1-2.024,20.45A1.251,1.251,0,0,1,108.328,73.474Z" style="fill:#55498c"/><path d="M93.944,126.25H82.425a1.25,1.25,0,0,1,0-2.5H93.944a.941.941,0,0,0,.759-.378.915.915,0,0,0,.151-.821c-1.2-4.127-3.276-12.024-3.688-18.532-.255-4.014.914-9.929,3.641-13.466,4.763-6.179,7.887-11.506,9.831-16.763a1.25,1.25,0,0,1,2.345.867c-2.035,5.5-5.274,11.037-10.2,17.423-2.324,3.015-3.346,8.32-3.127,11.781.4,6.269,2.423,13.964,3.594,17.992a3.44,3.44,0,0,1-3.31,4.4Z" style="fill:#55498c"/><path d="M79.057,123.836H54.941a3.435,3.435,0,0,1-3.39-2.844c-1.261-7.2-2.822-12.4-4.077-13.565-2.12-1.97-7.086-1.445-11.079-1.025-1.344.141-2.613.275-3.748.321-9.748.506-10.344-5.8-10.9-11.893a36.992,36.992,0,0,0-1.106-7.03,8.486,8.486,0,0,0-4.184-5.238c-1.63-1.075-3.477-2.292-3.316-5.372.077-1.489,1.253-2.79,2.741-4.438,2.3-2.544,5.448-6.03,5.461-11.543.007-1.427-.142-3.333-.285-5.175-.116-1.491-.225-2.9-.262-4.108A31.032,31.032,0,0,1,28.64,30.265a1.25,1.25,0,1,1,1.884,1.643,28.577,28.577,0,0,0-7.235,19.941c.036,1.151.144,2.531.257,3.991.146,1.893.3,3.85.292,5.377-.015,6.47-3.68,10.527-6.106,13.211-1.017,1.126-2.069,2.29-2.1,2.893-.083,1.586.572,2.083,2.2,3.154A10.971,10.971,0,0,1,23.034,87.1a39.441,39.441,0,0,1,1.2,7.5c.573,6.24.924,10.013,8.3,9.625,1.069-.043,2.3-.173,3.6-.31,4.728-.5,10.09-1.064,13.044,1.68,2.188,2.036,3.838,9.262,4.837,14.966a.937.937,0,0,0,.927.774H79.057a1.25,1.25,0,0,1,0,2.5Z" style="fill:#55498c"/><circle cx="28.651" cy="62.149" r="2.177" style="fill:#55498c"/><path d="M33.334,92.481H28.678a1.25,1.25,0,1,1,0-2.5h4.656a1.3,1.3,0,0,0,1.05-2.074,1.305,1.305,0,0,0-1.05-.532H27.178a1.25,1.25,0,1,1,0-2.5h6.156a3.8,3.8,0,1,1,0,7.606Z" style="fill:#55498c"/><path d="M62.473,46.484a1.647,1.647,0,0,1-1.483-2.355c.364-.863,5.311-12.568,7.25-16.279a.553.553,0,0,0-.133-.667L62.084,21.8a3.066,3.066,0,0,1-.679-3.693L67.987,5.366a2.244,2.244,0,0,1,2-1.218H79.1A2.25,2.25,0,0,1,80.99,7.625l-6.6,10.155a.571.571,0,0,0,.108.741l5.094,4.435a3.062,3.062,0,0,1,1.057,2.154,3.013,3.013,0,0,1-.83,2.247c-3.958,4.233-16,18.437-16.125,18.58a1.068,1.068,0,0,1-.1.1A1.636,1.636,0,0,1,62.473,46.484Zm-.345-1.836h0Zm16.976-38h0Z" style="fill:#7171ff"/><path d="M82.181,4.729A3.5,3.5,0,0,0,79.1,2.9H69.986a3.487,3.487,0,0,0-3.109,1.894L60.3,17.531a4.316,4.316,0,0,0,.962,5.207l5.622,5.025c-2.083,4.152-6.612,14.862-7.032,15.856a2.874,2.874,0,0,0,.145,2.712,2.92,2.92,0,0,0,2.483,1.4,2.871,2.871,0,0,0,1.971-.784,2.264,2.264,0,0,0,.2-.207c.121-.143,12.147-14.323,16.09-18.539A4.3,4.3,0,0,0,80.4,22l-4.639-4.039,6.281-9.656A3.5,3.5,0,0,0,82.181,4.729ZM79.942,6.943,73.337,17.1a1.824,1.824,0,0,0,.33,2.36l5.1,4.44a1.794,1.794,0,0,1,.14,2.6c-4.03,4.31-16.17,18.63-16.17,18.63a.374.374,0,0,1-.261.108.4.4,0,0,1-.349-.588s5.25-12.45,7.22-16.22a1.8,1.8,0,0,0-.41-2.18l-6.02-5.38a1.814,1.814,0,0,1-.4-2.19L69.1,5.939a1,1,0,0,1,.888-.541H79.1A1,1,0,0,1,79.942,6.943Z" style="fill:#55498c"/></svg>