<svg id="LinealColor" xmlns="http://www.w3.org/2000/svg" viewBox="0 0 128 128"><title>mental health, disorder, mental illness, phobia, fear, paranoia, social anxiety</title><path d="M94.559,125a2.162,2.162,0,0,0,2.083-2.763c-1.171-4.031-3.195-11.729-3.595-18.037-.249-3.928.939-9.351,3.342-12.468,9.584-12.435,13.833-23.208,11.827-36.467-3.251-21.489-18.427-32.871-39.41-33.948C45.874,20.131,26.236,34.86,26.868,55.174c.083,2.682.552,6.63.541,9.209-.021,9.164-7.951,12.929-8.1,15.846-.25,4.788,5.375,3.293,7.359,10.067,2.519,8.6-1.091,18.409,10.63,17.8,4.676-.188,12.277-2,15.534,1.025,2.077,1.932,3.749,10.36,4.4,14.089A2.161,2.161,0,0,0,59.364,125Z" style="fill:#eeefe1"/><path d="M66.716,20.646h35.056a6.654,6.654,0,0,1,6.654,6.654v8.787A24.182,24.182,0,0,1,84.244,60.27h0A24.182,24.182,0,0,1,60.062,36.088V27.3a6.654,6.654,0,0,1,6.654-6.654Z" style="fill:#6b6bed"/><path d="M99.26,18.1v2.55H92.95V18a8.705,8.705,0,1,0-17.41,0v2.65H69.23V18.1a15.015,15.015,0,1,1,30.03,0Z" style="fill:#ffc91d"/><path d="M69.661,39.774c8.057,8.061,22.8,8,30.136-.286a1.368,1.368,0,0,0,0-1.864c-7.405-8.341-23.039-8.923-30.264.294A1.366,1.366,0,0,0,69.661,39.774Z" style="fill:#fff"/><circle cx="84.695" cy="38.474" r="4.906" style="fill:#fc5b5b"/><path d="M94.56,126.25h-35.2A3.408,3.408,0,0,1,56,123.429c-1.243-7.109-2.784-12.239-4.021-13.389-2.088-1.942-6.991-1.425-10.929-1.009-1.327.14-2.582.272-3.7.317-9.614.512-10.233-5.732-10.786-11.76a36.549,36.549,0,0,0-1.093-6.941,8.373,8.373,0,0,0-4.126-5.165c-1.613-1.063-3.442-2.269-3.282-5.318.077-1.477,1.239-2.764,2.712-4.393,2.269-2.512,5.376-5.951,5.389-11.391.006-1.41-.14-3.294-.282-5.115-.114-1.47-.222-2.858-.259-4.052C25.113,38.957,37.651,24.9,56.11,21.037a1.25,1.25,0,1,1,.512,2.447C39.1,27.154,27.643,39.874,28.116,55.136c.036,1.135.142,2.495.254,3.935.145,1.872.295,3.807.289,5.318-.014,6.4-3.638,10.405-6.035,13.058-1,1.11-2.039,2.257-2.07,2.847-.081,1.558.564,2.047,2.162,3.1a10.852,10.852,0,0,1,5.148,6.55,38.893,38.893,0,0,1,1.184,7.414c.565,6.154.9,9.872,8.182,9.492,1.055-.043,2.271-.171,3.557-.307,4.676-.492,9.973-1.05,12.894,1.665,2.166,2.014,3.8,9.154,4.781,14.789a.91.91,0,0,0,.9.752h35.2a.912.912,0,0,0,.736-.367.89.89,0,0,0,.145-.8c-1.185-4.079-3.234-11.881-3.641-18.306-.252-3.967.9-9.814,3.6-13.31,10.067-13.061,13.422-23.351,11.581-35.517-.155-1.033-.344-2.065-.56-3.067a1.25,1.25,0,1,1,2.443-.527c.228,1.053.426,2.136.59,3.22C111.38,67.824,107.77,79.014,97.379,92.5c-2.294,2.976-3.3,8.211-3.085,11.626.393,6.185,2.392,13.786,3.548,17.767a3.412,3.412,0,0,1-3.282,4.362Z" style="fill:#55498c"/><path d="M34.317,92.675H26.961a1.25,1.25,0,0,1,0-2.5h7.356a1.25,1.25,0,0,1,0,2.5Z" style="fill:#55498c"/><circle cx="33.397" cy="66.296" r="2.15" style="fill:#55498c"/><path d="M84.244,61.52A25.461,25.461,0,0,1,58.812,36.088V27.3a7.913,7.913,0,0,1,7.9-7.9h35.056a7.914,7.914,0,0,1,7.905,7.9v8.788A25.461,25.461,0,0,1,84.244,61.52ZM66.716,21.9a5.41,5.41,0,0,0-5.4,5.4v8.788a22.933,22.933,0,0,0,45.865,0V27.3a5.411,5.411,0,0,0-5.405-5.4Z" style="fill:#55498c"/><path d="M92.95,21.9a1.25,1.25,0,0,1-1.25-1.25V18a7.455,7.455,0,1,0-14.91,0v2.65a1.25,1.25,0,0,1-2.5,0V18A9.955,9.955,0,1,1,94.2,18v2.65A1.25,1.25,0,0,1,92.95,21.9Z" style="fill:#55498c"/><path d="M99.259,21.9a1.249,1.249,0,0,1-1.25-1.25V18.1a13.766,13.766,0,1,0-27.531,0v2.55a1.25,1.25,0,0,1-2.5,0V18.1a16.266,16.266,0,1,1,32.531,0v2.55A1.25,1.25,0,0,1,99.259,21.9Z" style="fill:#55498c"/><path d="M84.805,47.012a22.621,22.621,0,0,1-16.028-6.354h0a2.626,2.626,0,0,1-.23-3.511,19.822,19.822,0,0,1,15.185-7.2,21.863,21.863,0,0,1,17,6.846,2.625,2.625,0,0,1,0,3.522A21.02,21.02,0,0,1,85.561,47C85.309,47.009,85.056,47.012,84.805,47.012Zm-14.26-8.121A20.3,20.3,0,0,0,85.484,44.5,18.52,18.52,0,0,0,98.86,38.66a.127.127,0,0,0,0-.206,19.367,19.367,0,0,0-15.052-6.008,17.34,17.34,0,0,0-13.294,6.243c-.034.042-.075.095.031.2Z" style="fill:#55498c"/><path d="M84.7,44.63a6.156,6.156,0,1,1,6.156-6.156A6.163,6.163,0,0,1,84.7,44.63Zm0-9.812a3.656,3.656,0,1,0,3.656,3.656A3.661,3.661,0,0,0,84.7,34.818Z" style="fill:#55498c"/><path d="M34.629,24.926a1.249,1.249,0,0,1-.97-2.037,10.15,10.15,0,0,1,5.723-3.823,9.279,9.279,0,0,0,3-1.36,1.25,1.25,0,0,1,1.453,2.035,11.669,11.669,0,0,1-3.727,1.717A7.643,7.643,0,0,0,35.6,24.464,1.249,1.249,0,0,1,34.629,24.926Z" style="fill:#55498c"/><path d="M52.116,16.1c0,.824-1.05,1.493-1.875,1.493S49.13,16.921,49.13,16.1a1.5,1.5,0,1,1,2.986,0Z" style="fill:#55498c"/><path d="M20.151,49.89a1.25,1.25,0,0,1-1.245-1.154,9.133,9.133,0,0,1,1.821-6.24,7.032,7.032,0,0,0,1.467-4.013,1.251,1.251,0,0,1,1.25-1.23h.02a1.25,1.25,0,0,1,1.23,1.269,9.41,9.41,0,0,1-1.858,5.316A6.766,6.766,0,0,0,21.4,48.544a1.248,1.248,0,0,1-1.149,1.342C20.216,49.889,20.184,49.89,20.151,49.89Z" style="fill:#55498c"/><path d="M13.372,75.471a1.25,1.25,0,0,1-.889-2.129c2.445-2.474,3.158-4.033,4.193-7.77a1.25,1.25,0,0,1,2.41.667c-1.131,4.08-2.029,6.032-4.825,8.86A1.244,1.244,0,0,1,13.372,75.471Z" style="fill:#55498c"/><path d="M107.443,90.345a1.249,1.249,0,0,1-.928-2.086,18.162,18.162,0,0,0,2.375-3.789c1.035-1.993,2.012-3.875,3.768-4.442a1.25,1.25,0,0,1,.768,2.379c-.779.252-1.561,1.758-2.318,3.215a20.213,20.213,0,0,1-2.736,4.31A1.246,1.246,0,0,1,107.443,90.345Z" style="fill:#55498c"/><path d="M115.593,62.29a1.253,1.253,0,0,1-1.155-.769,10.127,10.127,0,0,1-.542-4.884,11.061,11.061,0,0,0-.4-4.615,1.25,1.25,0,0,1,2.371-.8,13.471,13.471,0,0,1,.528,5.568,7.8,7.8,0,0,0,.354,3.762,1.253,1.253,0,0,1-1.152,1.733Z" style="fill:#55498c"/><path d="M102.056,115.467a1.219,1.219,0,0,1-.267-.029,1.25,1.25,0,0,1-.956-1.487,7.805,7.805,0,0,0-.331-3.763,13.46,13.46,0,0,1-.487-5.573,1.25,1.25,0,0,1,2.474.354,11.061,11.061,0,0,0,.438,4.613,10.119,10.119,0,0,1,.349,4.9A1.252,1.252,0,0,1,102.056,115.467Z" style="fill:#55498c"/><path d="M21.216,105.481a1.249,1.249,0,0,1-1.245-1.155c-.264-3.468-.974-5.029-3.116-8.262a1.25,1.25,0,0,1,2.084-1.381c2.338,3.529,3.222,5.488,3.524,9.453a1.25,1.25,0,0,1-1.151,1.342Z" style="fill:#55498c"/><path d="M44.291,117.969a1.258,1.258,0,0,1-.393-.064c-3.3-1.092-5.014-1.037-8.823-.3a1.25,1.25,0,1,1-.472-2.455c4.153-.8,6.3-.863,10.081.385a1.251,1.251,0,0,1-.393,2.438Z" style="fill:#55498c"/><path d="M29.645,29.634a1.867,1.867,0,0,1-.881,2.228c-.714.412-1.3-.025-1.707-.739a1.5,1.5,0,1,1,2.588-1.489Z" style="fill:#55498c"/><path d="M20.681,57.15a1.865,1.865,0,0,1-.88,2.228c-.714.411-1.3-.025-1.707-.739a1.5,1.5,0,1,1,2.587-1.489Z" style="fill:#55498c"/><path d="M15.489,85.309a1.868,1.868,0,0,1-.88,2.229c-.715.411-1.3-.025-1.707-.74a1.583,1.583,0,0,1,.5-2.128A1.584,1.584,0,0,1,15.489,85.309Z" style="fill:#55498c"/><path d="M25.637,111.785a1.868,1.868,0,0,1-.88,2.229c-.715.411-1.3-.025-1.708-.74a1.5,1.5,0,1,1,2.588-1.489Z" style="fill:#55498c"/><path d="M51.77,121.691a1.867,1.867,0,0,1-.881,2.228c-.714.411-1.3-.025-1.707-.74a1.5,1.5,0,1,1,2.588-1.488Z" style="fill:#55498c"/><path d="M104.454,96.31a1.868,1.868,0,0,1-.88,2.229c-.715.411-1.3-.025-1.708-.74a1.5,1.5,0,1,1,2.588-1.489Z" style="fill:#55498c"/><path d="M116.009,70.411a1.865,1.865,0,0,1-.88,2.228c-.714.412-1.3-.025-1.707-.739a1.5,1.5,0,1,1,2.587-1.489Z" style="fill:#55498c"/><path d="M104.454,120.088a1.869,1.869,0,0,1-.88,2.229c-.715.411-1.3-.026-1.708-.74a1.5,1.5,0,1,1,2.588-1.489Z" style="fill:#55498c"/><path d="M113.528,43.18a1.865,1.865,0,0,1-.88,2.228c-.714.412-1.3-.025-1.707-.739a1.5,1.5,0,1,1,2.587-1.489Z" style="fill:#55498c"/></svg>