<svg id="LinealColor" xmlns="http://www.w3.org/2000/svg" viewBox="0 0 128 128"><title>mental health, disorder, mental illness, Dyslexia, Psychiatric, symptom, autism</title><path d="M58.584,3.847c-7.763,3.305-1.19,7.158-.361,7.536a12.6,12.6,0,0,0,8.817.508c2.42-.968,4.008-2.829,4.006-4.064C71.041,5.713,64.989,1.12,58.584,3.847Z" style="fill:#ff8aae"/><path d="M75.047,7.785c2.873-3.543-2.559-4.681-4,.024C72.509,12.509,77.936,11.315,75.047,7.785Z" style="fill:#ff8aae"/><path d="M94.559,124.951a2.163,2.163,0,0,0,2.083-2.764c-1.171-4.03-3.195-11.728-3.595-18.037-.249-3.927.939-9.35,3.342-12.467,9.584-12.435,13.833-23.208,11.827-36.468-3.251-21.488-18.427-32.87-39.41-33.947-22.932-1.187-42.57,13.543-41.938,33.857.083,2.682.552,6.63.541,9.209-.021,9.164-7.951,12.929-8.1,15.845-.25,4.789,5.375,3.293,7.359,10.068,2.519,8.6-1.091,18.409,10.63,17.8,4.676-.188,12.277-2,15.534,1.025,2.077,1.932,3.749,10.359,4.4,14.089a2.161,2.161,0,0,0,2.133,1.787Z" style="fill:#eeefe1"/><path d="M96.64,122.19a2.162,2.162,0,0,1-2.08,2.76H59.36a2.157,2.157,0,0,1-2.13-1.79c-.65-3.73-2.32-12.15-4.4-14.08-3.26-3.03-10.86-1.22-15.54-1.03-11.72.61-8.11-9.2-10.62-17.8-1.99-6.78-7.61-5.28-7.36-10.07.15-2.92,8.08-6.68,8.1-15.85.01-2.58-.46-6.52-.54-9.21a29.006,29.006,0,0,1,1.35-9.79c8.48,7.47,17-2.65,25.79-2.64,3.99.01,4.41,2.02,4.11,3.63a1.482,1.482,0,0,0,1.94,1.72c6.14-2.16,14.47-8.68,18.69-7.22,6.57,2.27-3.84,12.29,4.13,7.62,8.42-4.95,16.1.26,22.88-2.76a46.242,46.242,0,0,1,2.46,9.54c2,13.25-2.25,24.03-11.83,36.46-2.4,3.12-3.59,8.54-3.34,12.47C93.45,110.46,95.47,118.16,96.64,122.19Z" style="fill:#29d3be"/><path d="M61.709,33.241c1.991-2.042,5.464-1.334,5.576.979s-3.951,4.187-5.639,2.75S61.147,33.817,61.709,33.241Z" style="fill:#29d3be"/><path d="M85.981,37.135c1.139-1.051,3.8-1.3,3.879.783S86.843,41.293,85.679,40A1.87,1.87,0,0,1,85.981,37.135Z" style="fill:#29d3be"/><path d="M94.56,126.2h-35.2A3.408,3.408,0,0,1,56,123.38c-1.243-7.109-2.784-12.239-4.021-13.389-2.087-1.942-6.991-1.426-10.929-1.01-1.327.141-2.582.273-3.7.318-9.663.491-10.233-5.734-10.786-11.76A36.536,36.536,0,0,0,25.466,90.6a8.37,8.37,0,0,0-4.125-5.165c-1.614-1.063-3.443-2.268-3.283-5.319.077-1.476,1.239-2.763,2.712-4.392,2.269-2.512,5.376-5.951,5.389-11.391.006-1.41-.14-3.294-.282-5.115-.114-1.47-.222-2.859-.259-4.052a31.19,31.19,0,0,1,9.651-23.413c8.3-8.131,20.542-12.408,33.6-11.732,22.6,1.161,37.392,13.921,40.582,35.009,1.928,12.746-1.682,23.936-12.073,37.418-2.294,2.975-3.3,8.211-3.085,11.625.393,6.185,2.392,13.787,3.548,17.768A3.412,3.412,0,0,1,94.56,126.2Zm-48-20.115c2.793,0,5.377.456,7.118,2.074,2.166,2.014,3.8,9.154,4.781,14.789a.911.911,0,0,0,.9.752h35.2a.914.914,0,0,0,.737-.368.889.889,0,0,0,.144-.8c-1.185-4.08-3.234-11.884-3.641-18.308-.252-3.967.9-9.812,3.6-13.31,10.067-13.06,13.422-23.35,11.581-35.517-3-19.8-16.933-31.792-38.238-32.886-12.363-.642-23.921,3.378-31.722,11.021a28.345,28.345,0,0,0-8.9,21.549c.036,1.135.142,2.5.254,3.936.145,1.872.295,3.807.289,5.317-.014,6.4-3.638,10.406-6.035,13.058-1,1.11-2.039,2.258-2.07,2.848-.081,1.558.564,2.047,2.162,3.1a10.848,10.848,0,0,1,5.148,6.55,38.893,38.893,0,0,1,1.184,7.414c.565,6.153.909,9.865,8.182,9.491,1.055-.042,2.271-.17,3.557-.306A56.261,56.261,0,0,1,46.563,106.086Z" style="fill:#55498c"/><path d="M34.317,92.626H26.961a1.25,1.25,0,0,1,0-2.5h7.356a1.25,1.25,0,1,1,0,2.5Z" style="fill:#55498c"/><circle cx="33.397" cy="66.247" r="2.15" style="fill:#55498c"/><path d="M63.41,13.7a13.87,13.87,0,0,1-5.7-1.178c-.042-.02-4.157-1.981-4.119-5.092C53.61,5.552,55.127,3.96,58.1,2.7a11.954,11.954,0,0,1,11.19,1.049c1.882,1.241,3.008,2.766,3.011,4.078h0c0,1.886-2.056,4.134-4.792,5.227A11.758,11.758,0,0,1,63.41,13.7Zm-.739-9.45a9.118,9.118,0,0,0-3.6.748c-1.888.8-2.976,1.7-2.986,2.463-.014,1.085,1.918,2.45,2.654,2.785a11.329,11.329,0,0,0,7.835.485c2.081-.832,3.216-2.346,3.22-2.9-.023-.238-.6-1.23-2.184-2.188A9.747,9.747,0,0,0,62.671,4.249Z" style="fill:#55498c"/><path d="M74.412,12.15c-.109,0-.221-.005-.333-.016a5.212,5.212,0,0,1-4.226-3.953,1.238,1.238,0,0,1,0-.738,5.229,5.229,0,0,1,4.223-3.985,2.712,2.712,0,0,1,2.759,1.3,2.96,2.96,0,0,1-.263,3.019,2.972,2.972,0,0,1,.274,3.028A2.669,2.669,0,0,1,74.412,12.15ZM72.37,7.805a2.914,2.914,0,0,0,1.643,1.777.882.882,0,0,0,.649.02,2.639,2.639,0,0,0-.583-1.025,1.25,1.25,0,0,1,0-1.579c.5-.616.563-.991.545-1.074,0,.016-.044.009-.132.009A1.481,1.481,0,0,0,74,6.016,2.826,2.826,0,0,0,72.37,7.805Z" style="fill:#55498c"/><circle cx="59.227" cy="7.396" r="0.932" style="fill:#55498c"/><path d="M80.092,50.919a1.576,1.576,0,0,1-1.05-.373c-.977-.811-.534-2.046-.021-3.476.463-1.3,1.1-3.068.606-4.1A2.055,2.055,0,0,0,78.342,42c-2.2-.762-6.662,1.629-10.6,3.738a55.85,55.85,0,0,1-7.271,3.48,2.686,2.686,0,0,1-2.672-.49,2.76,2.76,0,0,1-.911-2.642,1.688,1.688,0,0,0-.2-1.411,3.647,3.647,0,0,0-2.682-.736H54c-2.974,0-5.953,1.275-9.106,2.625-4.621,1.98-9.4,4.025-14.308,1.8a1.25,1.25,0,1,1,1.031-2.277c3.9,1.769,7.978.024,12.292-1.823,3.247-1.39,6.6-2.827,10.093-2.827h.014c2.158.005,3.706.558,4.6,1.641a4.034,4.034,0,0,1,.735,3.468.279.279,0,0,0,.081.282.2.2,0,0,0,.212.031,54.21,54.21,0,0,0,6.922-3.326c4.812-2.579,9.355-5.017,12.6-3.9a4.459,4.459,0,0,1,2.722,2.253c.931,1.943.13,4.245-.481,5.947.24-.129.52-.286.848-.478,5.029-2.955,9.836-2.533,14.082-2.16a27.266,27.266,0,0,0,6.3.084A1.25,1.25,0,1,1,103,47.758a29.132,29.132,0,0,1-6.889-.067c-4.06-.356-8.257-.725-12.6,1.827A7.921,7.921,0,0,1,80.092,50.919Z" style="fill:#55498c"/><path d="M63.217,38.72a3.623,3.623,0,0,1-2.381-.8,3.443,3.443,0,0,1-1.306-2.493,4.376,4.376,0,0,1,1.284-3.06h0A5.117,5.117,0,0,1,66.2,31.083a3.435,3.435,0,0,1,2.335,3.076A4.394,4.394,0,0,1,65.747,38.1,5.808,5.808,0,0,1,63.217,38.72Zm1.319-5.432a2.7,2.7,0,0,0-1.932.825h0a1.891,1.891,0,0,0-.577,1.2c0,.087.017.353.43.7a2.313,2.313,0,0,0,2.188-.165c.843-.415,1.417-1.062,1.391-1.573a.962.962,0,0,0-.724-.86A2.2,2.2,0,0,0,64.536,33.288Zm-2.827-.047h0Z" style="fill:#55498c"/><path d="M86.989,41.766a2.96,2.96,0,0,1-2.239-.929c-1.3-1.438-1.148-3.209.383-4.621h0a4.3,4.3,0,0,1,4.293-.872,2.721,2.721,0,0,1,1.682,2.528,3.808,3.808,0,0,1-2.556,3.577A4.179,4.179,0,0,1,86.989,41.766Zm-.161-3.712c-.667.614-.479.822-.221,1.11a1.086,1.086,0,0,0,1-.032c.494-.2,1.018-.651,1-1.168-.009-.256-.075-.283-.144-.312a1.892,1.892,0,0,0-1.638.4Z" style="fill:#55498c"/></svg>