<svg id="LinealColor" xmlns="http://www.w3.org/2000/svg" viewBox="0 0 128 128"><title>mental health, disorder, mental illness, depression, marijuana, Drug, addict</title><path d="M93.559,125a2.163,2.163,0,0,0,2.083-2.764c-1.171-4.03-3.195-11.728-3.595-18.036-.249-3.928.939-9.351,3.342-12.468,9.584-12.435,13.833-23.208,11.827-36.468-3.251-21.488-18.427-32.87-39.41-33.947C44.874,20.131,25.236,34.86,25.868,55.174c.083,2.682.552,6.63.541,9.209-.021,9.164-7.951,12.929-8.1,15.846-.25,4.788,5.375,3.293,7.359,10.067,2.519,8.6-1.091,18.409,10.63,17.8,4.676-.188,12.277-2,15.534,1.025,2.077,1.932,3.749,10.36,4.4,14.089A2.161,2.161,0,0,0,58.364,125Z" style="fill:#7171ff"/><path d="M89.871,58.907a1.921,1.921,0,0,0,1.92-1.57c1.137-5.951-5.58-9.632-5.58-9.632s14.085,5.759,21.982,1.471a1.9,1.9,0,0,0,.58-2.85c-6.042-7.556-22.167-3.337-22.167-3.337s20.062-9.229,23.329-21.81a1.911,1.911,0,0,0-1.772-2.421c-12.761-.293-24.185,20.72-24.185,20.72s8.687-25.315-1.342-35.8a1.862,1.862,0,0,0-2.666,0c-10.03,10.488-1.343,35.8-1.343,35.8S67.2,18.465,54.443,18.758a1.912,1.912,0,0,0-1.773,2.421C55.937,33.76,76,42.989,76,42.989S59.874,38.77,53.833,46.326a1.9,1.9,0,0,0,.579,2.85c7.9,4.288,21.983-1.471,21.983-1.471s-6.718,3.681-5.581,9.632a1.914,1.914,0,0,0,1.9,1.57c3.151.02,5.223-3.787,7.048-6.416.847-1.22,1.529-1.22,2.371,0C83.934,55.116,86.728,58.906,89.871,58.907Z" style="fill:#2add77"/><rect x="75.259" y="78.198" width="16.086" height="7.408" rx="3.704" ry="3.704" transform="matrix(-0.861, 0.508, -0.508, -0.861, 196.666, 110.117)" style="fill:#ffc91d"/><path d="M90.74,79.69a3.709,3.709,0,0,1-1.82,3.2L85.5,84.91c1.13-1.76-.87-6.02-3.46-6.56l3.12-1.84a3.7,3.7,0,0,1,5.58,3.18Z" style="fill:#fc7575"/><circle cx="63.506" cy="8.542" r="5.612" style="fill:#ff8aae"/><ellipse cx="44.097" cy="37.554" rx="3.371" ry="4.492" transform="translate(-10.474 56.966) rotate(-60)" style="fill:#f2f4df"/><ellipse cx="99.522" cy="12.779" rx="3.884" ry="2.668" transform="translate(12.809 63.265) rotate(-37.526)" style="fill:#ffc91d"/><circle cx="112.668" cy="39.621" r="2.668" style="fill:#f2f4df"/><path d="M36.132,73.567h-.04a6.671,6.671,0,0,1-6.511-5.584,6.838,6.838,0,0,1,1.222-5.4,7.78,7.78,0,0,1,5.5-3.054,8.139,8.139,0,0,1,9.044,8.243,1.25,1.25,0,0,1-2.5,0,5.756,5.756,0,0,0-1.866-4.346,5.657,5.657,0,0,0-4.423-1.41,5.21,5.21,0,0,0-3.741,2.047,4.284,4.284,0,0,0-.786,3.419,4.223,4.223,0,0,0,4.076,3.582,3.277,3.277,0,0,0,2.669-1.226,2.641,2.641,0,0,0,.487-2.332A2.427,2.427,0,0,0,36.937,65.6a1.21,1.21,0,0,0-1.1,1.311.826.826,0,0,0,.2.519.429.429,0,0,0,.362.1,1.264,1.264,0,0,1,1.355,1.135,1.25,1.25,0,0,1-1.135,1.356,2.907,2.907,0,0,1-2.3-.769,3.284,3.284,0,0,1-.978-2.116,3.709,3.709,0,0,1,3.369-4.022,4.883,4.883,0,0,1,4.964,3.762,5.156,5.156,0,0,1-.931,4.5A5.775,5.775,0,0,1,36.132,73.567Z" style="fill:#55498c"/><path d="M93.559,126.25H58.364A3.408,3.408,0,0,1,55,123.428c-1.243-7.108-2.784-12.238-4.021-13.389-2.088-1.941-6.991-1.423-10.93-1.008-1.328.14-2.582.273-3.7.318-9.654.5-10.232-5.734-10.786-11.761a36.536,36.536,0,0,0-1.093-6.941,8.376,8.376,0,0,0-4.125-5.165c-1.614-1.063-3.443-2.268-3.283-5.319.077-1.476,1.24-2.764,2.712-4.392,2.269-2.512,5.376-5.952,5.389-11.39.007-1.411-.14-3.294-.282-5.115-.114-1.47-.222-2.86-.259-4.053-.455-14.641,9.483-27.508,25.318-32.78a1.25,1.25,0,1,1,.79,2.371C35.964,29.72,26.7,41.625,27.117,55.135c.035,1.136.141,2.5.253,3.937.146,1.871.3,3.807.289,5.318-.015,6.394-3.637,10.4-6.034,13.056-1,1.11-2.04,2.258-2.07,2.848-.082,1.559.563,2.048,2.161,3.1a10.847,10.847,0,0,1,5.149,6.548,38.91,38.91,0,0,1,1.183,7.415c.566,6.154.912,9.87,8.182,9.493,1.055-.043,2.27-.171,3.556-.307,4.673-.492,9.973-1.053,12.894,1.664,2.167,2.015,3.8,9.154,4.782,14.788a.91.91,0,0,0,.9.753h35.2a.911.911,0,0,0,.737-.367.889.889,0,0,0,.146-.8c-1.186-4.077-3.234-11.878-3.643-18.307-.252-3.965.9-9.811,3.6-13.309,10.067-13.061,13.422-23.351,11.581-35.518q-.109-.732-.24-1.45a1.25,1.25,0,0,1,2.46-.445c.091.5.175,1.008.252,1.522,1.929,12.746-1.681,23.936-12.072,37.416-2.3,2.977-3.3,8.212-3.085,11.626.393,6.19,2.392,13.788,3.548,17.768a3.411,3.411,0,0,1-3.283,4.362Z" style="fill:#55498c"/><path d="M33.317,92.675H25.961a1.25,1.25,0,0,1,0-2.5h7.356a1.25,1.25,0,0,1,0,2.5Z" style="fill:#55498c"/><path d="M79.574,89.06a4.953,4.953,0,0,1-2.526-9.219l7.475-4.41a4.954,4.954,0,1,1,5.034,8.533l-7.474,4.409A4.93,4.93,0,0,1,79.574,89.06Zm7.462-11.818a2.43,2.43,0,0,0-1.243.342l-7.475,4.409h0a2.454,2.454,0,1,0,2.5,4.226l7.474-4.409a2.454,2.454,0,0,0-.634-4.49A2.51,2.51,0,0,0,87.036,77.242Zm-9.353,3.675h0Z" style="fill:#55498c"/><path d="M85.5,86.16a1.237,1.237,0,0,1-.674-.2,1.251,1.251,0,0,1-.377-1.728,2.767,2.767,0,0,0-.23-2.131A4.184,4.184,0,0,0,81.8,79.577,1.249,1.249,0,0,1,82.03,77.1h.01a1.213,1.213,0,0,1,.255.026c2.058.429,3.534,2.353,4.228,4.009a4.846,4.846,0,0,1,.029,4.451A1.251,1.251,0,0,1,85.5,86.16Z" style="fill:#55498c"/><path d="M63.52,15.405a6.954,6.954,0,0,1-.838-.051A6.862,6.862,0,0,1,59.271,3.142h0A6.862,6.862,0,1,1,63.52,15.405Zm-2.706-10.3a4.363,4.363,0,1,0,6.124.742,4.368,4.368,0,0,0-6.124-.742Z" style="fill:#55498c"/><path d="M59.521,13.742a1.278,1.278,0,0,1-.292-.034,1.251,1.251,0,0,1-.924-1.508C59.4,7.646,64.434,3.827,67.85,3.827h.1a1.25,1.25,0,0,1,1.222,1.278A1.264,1.264,0,0,1,67.9,6.328h-.053c-2.165,0-6.255,2.917-7.106,6.457A1.251,1.251,0,0,1,59.521,13.742Z" style="fill:#55498c"/><path d="M45.127,42.487a6.749,6.749,0,0,1-3.341-.93c-2.741-1.583-3.935-4.666-2.661-6.874h0c1.274-2.207,4.542-2.714,7.283-1.132a6.553,6.553,0,0,1,2.781,3.036,4.061,4.061,0,0,1-3.383,5.86A5.476,5.476,0,0,1,45.127,42.487ZM41.29,35.933c-.575,1,.225,2.58,1.746,3.459a4.106,4.106,0,0,0,2.47.574,1.583,1.583,0,0,0,1.384-2.4,4.113,4.113,0,0,0-1.732-1.85c-1.522-.878-3.293-.78-3.868.216Z" style="fill:#55498c"/><path d="M98.312,17.2a3.52,3.52,0,0,1-2.862-1.3,3.58,3.58,0,0,1-.444-3.336,6.462,6.462,0,0,1,5.478-4.207,3.556,3.556,0,0,1,3.109,1.289c1.338,1.744.6,4.482-1.685,6.235a6.142,6.142,0,0,1-3.349,1.31C98.476,17.2,98.393,17.2,98.312,17.2Zm2.416-6.348c-.042,0-.08,0-.111,0a3.98,3.98,0,0,0-3.233,2.484,1.223,1.223,0,0,0,.049,1.041h0a1.225,1.225,0,0,0,.993.315,3.674,3.674,0,0,0,1.959-.8c1.2-.918,1.633-2.2,1.225-2.729A1.127,1.127,0,0,0,100.728,10.855Z" style="fill:#55498c"/><path d="M112.667,43.537a3.917,3.917,0,1,1,2.771-6.685h0a3.915,3.915,0,0,1-2.771,6.685Zm0-5.333a1.417,1.417,0,0,0-1,2.42,1.452,1.452,0,0,0,2,0,1.418,1.418,0,0,0,0-2.005h0A1.412,1.412,0,0,0,112.668,38.2Z" style="fill:#55498c"/><path d="M72.733,60.157H72.7a3.158,3.158,0,0,1-3.115-2.586,8.752,8.752,0,0,1,1.651-6.893c-5.013,1.3-12.311,2.371-17.422-.4a3.153,3.153,0,0,1-.958-4.728c3.76-4.7,10.835-5.27,16.239-4.892C62.743,36.774,53.65,29.926,51.46,21.493A3.2,3.2,0,0,1,52,18.746a3.1,3.1,0,0,1,2.413-1.238c8.565-.164,16.326,8.246,20.941,14.584-1.824-8.567-3.209-22.043,3.711-29.28A3.1,3.1,0,0,1,81.3,1.863h0a3.1,3.1,0,0,1,2.237.95c6.92,7.236,5.535,20.712,3.71,29.279,4.615-6.338,12.386-14.779,20.941-14.584a3.1,3.1,0,0,1,2.413,1.238,3.2,3.2,0,0,1,.542,2.747c-2.19,8.433-11.284,15.282-17.637,19.161,5.406-.378,12.48.188,16.24,4.892a3.152,3.152,0,0,1-.959,4.728c-5.109,2.773-12.408,1.7-17.422.405a8.745,8.745,0,0,1,1.651,6.892,3.16,3.16,0,0,1-3.147,2.586h0c-3.985,0-7.219-4.7-8.773-6.955-.059-.086-.111-.155-.156-.211-.045.056-.1.125-.158.212-.231.333-.467.687-.708,1.048C78.319,56.883,76.133,60.157,72.733,60.157Zm3.661-13.7A1.25,1.25,0,0,1,77,48.8c-.057.031-5.9,3.328-4.953,8.3a.666.666,0,0,0,.676.554h.015c2.063,0,3.763-2.547,5.264-4.795.25-.374.494-.739.733-1.085a2.914,2.914,0,0,1,2.213-1.451h0a2.909,2.909,0,0,1,2.21,1.458c1.21,1.757,4.043,5.872,6.715,5.873a.671.671,0,0,0,.691-.554c.95-4.973-4.9-8.27-4.956-8.3a1.25,1.25,0,0,1,1.076-2.252c.135.056,13.631,5.484,20.914,1.529a.643.643,0,0,0,.323-.443.634.634,0,0,0-.124-.528c-5.461-6.831-20.72-2.947-20.874-2.908a1.25,1.25,0,0,1-.839-2.344c.2-.09,19.563-9.131,22.643-20.99a.712.712,0,0,0-.117-.611.6.6,0,0,0-.475-.245c-.079,0-.159,0-.238,0-11.759,0-22.709,19.869-22.819,20.071a1.25,1.25,0,0,1-2.281-1c.084-.246,8.323-24.719-1.064-34.533a.61.61,0,0,0-.858,0c-9.387,9.815-1.149,34.288-1.064,34.534a1.25,1.25,0,0,1-2.281,1c-.111-.2-11.233-20.343-23.057-20.068a.593.593,0,0,0-.475.245.709.709,0,0,0-.117.611c3.082,11.871,22.447,20.9,22.642,20.99a1.249,1.249,0,0,1-.838,2.344c-.153-.038-15.413-3.922-20.874,2.908a.651.651,0,0,0,.2.971c7.291,3.96,20.777-1.473,20.912-1.529A1.234,1.234,0,0,1,76.394,46.455Z" style="fill:#55498c"/><path d="M84.786,65.077a1.243,1.243,0,0,1-.531-.119c-5.38-2.531-4.65-12.379-4.549-13.494a1.236,1.236,0,0,1,1.357-1.131A1.251,1.251,0,0,1,82.2,51.689c-.227,2.545-.11,9.486,3.123,11.007a1.25,1.25,0,0,1-.533,2.381Z" style="fill:#55498c"/></svg>