<svg id="LinealColor" xmlns="http://www.w3.org/2000/svg" viewBox="0 0 128 128"><title>mental health, disorder, mental illness, depression, stress, trauma, mental breakdown</title><path d="M24.535,49.5c.084,2.7.571,7.874.56,10.469-.022,9.218-8,13.006-8.152,15.94-.252,4.817,5.408,3.313,7.4,10.128,2.534,8.652-1.1,18.52,10.694,17.91,4.7-.189,12.35-2.016,15.627,1.031,2.09,1.943,3.772,10.422,4.428,14.174a2.174,2.174,0,0,0,2.146,1.8H92.648a2.175,2.175,0,0,0,2.1-2.78c-1.179-4.054-3.214-11.8-3.617-18.145-.251-3.951.945-9.407,3.362-12.543,9.642-12.509,13.916-23.347,11.9-36.686,0,0-22.137-1.8-28.255-1.016L66.125,44.291C63.952,43.307,45.272,52.75,45,52.75c-.223,0-13.236-3.875-13.236-3.875Z" style="fill:#7171ff"/><path d="M106.387,45.8C103.116,24.178,87.849,12.727,66.74,11.643,43.671,10.45,23.914,25.268,24.55,45.7l6.4-1.329S41.5,48,44.167,47.167c2.094-.655,13.76-5.061,19.2-7.121a5.2,5.2,0,0,1,4.269.334l13.323,4.949c1.358.671,3.729-.139,4.325-.241C91.91,43.944,106.387,45.8,106.387,45.8Z" style="fill:#fc5b5b"/><path d="M34.884,74.2c0,2.54-1.76,4.6-3.931,4.6s-3.93-2.059-3.93-4.6,3.93-7.037,3.93-7.037S34.884,71.663,34.884,74.2Z" style="fill:#fff"/><path d="M43.154,48.526c-3.539,0-10.2-2.153-12.28-2.858l-6.07,1.26a1.25,1.25,0,0,1-1.5-1.185A31.379,31.379,0,0,1,33.007,22.2c8.348-8.177,20.67-12.481,33.8-11.8,22.732,1.167,37.61,14,40.819,35.212a1.25,1.25,0,0,1-1.4,1.427c-.143-.019-14.366-1.813-20.737-.716-.085.015-.214.049-.376.09-1.1.274-3.127.781-4.649.072L67.2,41.552a4.075,4.075,0,0,0-3.391-.337c-6.3,2.389-17.189,6.5-19.265,7.145A4.762,4.762,0,0,1,43.154,48.526Zm-12.2-5.4a1.252,1.252,0,0,1,.406.067c4.219,1.451,10.861,3.272,12.434,2.782,2.089-.654,14.071-5.181,19.125-7.1a6.4,6.4,0,0,1,5.2.35l13.276,4.93a1.234,1.234,0,0,1,.118.051c.707.352,2.372-.067,3-.225.24-.059.432-.1.558-.127,5.458-.941,15.767.051,19.81.5C101.36,25.4,87.523,13.963,66.676,12.892c-12.433-.64-24.069,3.4-31.919,11.089A28.578,28.578,0,0,0,25.79,44.17l4.91-1.019A1.28,1.28,0,0,1,30.954,43.125Z" style="fill:#55498c"/><path d="M92.648,122.2H57.241a3.42,3.42,0,0,1-3.377-2.832c-1.251-7.152-2.8-12.314-4.048-13.473-2.1-1.955-7.037-1.435-11-1.017-1.335.141-2.6.273-3.724.319-9.714.478-10.287-5.764-10.843-11.824a36.819,36.819,0,0,0-1.1-6.983,8.427,8.427,0,0,0-4.153-5.2c-1.621-1.069-3.459-2.28-3.3-5.344.078-1.483,1.247-2.777,2.727-4.415,2.284-2.528,5.411-5.989,5.424-11.463.006-1.46-.152-3.785-.3-6.034-.113-1.663-.219-3.235-.255-4.393a1.249,1.249,0,0,1,1.141-1.284l7.229-.625a1.279,1.279,0,0,1,.465.047c4.492,1.338,11.147,3.306,12.776,3.758.375-.174,1.023-.484,1.7-.807,14.947-7.148,18.575-8.144,20.045-7.476L78.335,48.5c6.607-.68,27.261.981,28.153,1.052a1.25,1.25,0,0,1,1.135,1.059c1.939,12.821-1.692,24.077-12.144,37.636-2.309,3-3.323,8.265-3.1,11.7.395,6.224,2.405,13.871,3.569,17.875a3.424,3.424,0,0,1-3.3,4.379Zm-48.284-20.22c2.808,0,5.406.459,7.154,2.084,2.179,2.026,3.817,9.207,4.809,14.873a.924.924,0,0,0,.914.763H92.648a.927.927,0,0,0,.748-.372.9.9,0,0,0,.147-.809c-1.192-4.1-3.253-11.951-3.664-18.414-.253-3.99.909-9.869,3.62-13.385,9.857-12.789,13.318-22.937,11.79-34.756-4.371-.335-21.81-1.605-27-.944a1.239,1.239,0,0,1-.678-.1L65.69,45.467c-1.009-.084-4.972,1.18-18.016,7.417C45.338,54,45.338,54,45,54c-.234,0-.4,0-13.365-3.859l-5.8.5c.05.924.122,2,.2,3.12.156,2.293.317,4.664.31,6.212-.015,6.43-3.658,10.462-6.069,13.13-1.009,1.118-2.054,2.274-2.085,2.87-.082,1.571.568,2.064,2.179,3.126a10.913,10.913,0,0,1,5.176,6.585,39.179,39.179,0,0,1,1.19,7.458c.569,6.195.916,9.926,8.239,9.555,1.062-.043,2.284-.172,3.578-.308A56.361,56.361,0,0,1,44.364,101.979ZM65.737,45.471Z" style="fill:#55498c"/><circle cx="31.302" cy="62.338" r="2.15" style="fill:#55498c"/><path d="M32.505,90H24.959a1.25,1.25,0,0,1,0-2.5h7.546a1.25,1.25,0,0,1,0,2.5Z" style="fill:#55498c"/><path d="M30.954,80.053c-2.857,0-5.181-2.624-5.181-5.85,0-2.865,3.532-7.05,4.24-7.859a1.288,1.288,0,0,1,1.882,0c.708.809,4.239,4.994,4.239,7.859C36.134,77.429,33.81,80.053,30.954,80.053Zm0-10.91c-1.317,1.715-2.681,3.917-2.681,5.06,0,1.847,1.2,3.35,2.681,3.35s2.68-1.5,2.68-3.35C33.634,73.06,32.27,70.858,30.954,69.143Z" style="fill:#55498c"/></svg>