<svg id="LinealColor" xmlns="http://www.w3.org/2000/svg" viewBox="0 0 128 128"><title>mood, mental health, disorder, mental illness, depression, stressed, trauma</title><path d="M94.559,125a2.163,2.163,0,0,0,2.083-2.764c-1.171-4.03-3.195-11.728-3.595-18.036-.249-3.928.939-9.351,3.342-12.468,9.584-12.435,13.833-23.208,11.827-36.468-3.251-21.488-18.427-32.87-39.41-33.947C45.874,20.131,26.236,34.86,26.868,55.174c.083,2.682.552,6.63.541,9.209-.021,9.164-7.951,12.929-8.1,15.846-.25,4.788,5.375,3.293,7.359,10.067,2.519,8.6-1.091,18.409,10.63,17.8,4.676-.188,12.277-2,15.534,1.025,2.077,1.932,3.749,10.36,4.4,14.089A2.161,2.161,0,0,0,59.364,125Z" style="fill:#7171ff"/><path d="M65.555,47.342a1.656,1.656,0,0,1-.6-.111,2.017,2.017,0,0,1-1.189-2.3l2.5-12.271a1,1,0,0,0-.151-.76L58.858,21.136a2.1,2.1,0,0,1-.155-2.073L66.459,2.771a1.691,1.691,0,0,1,2.056-.943,2,2,0,0,1,1.3,2.261l-2.157,13.06a.993.993,0,0,0,.128.676l7.371,12.318a2.1,2.1,0,0,1,.033,2.1l-8.149,14.2A1.711,1.711,0,0,1,65.555,47.342Z" style="fill:#ffc91d"/><path d="M45.766,37.657a1.6,1.6,0,0,1-1.478-2.214L46.5,30.125a1,1,0,0,0-.1-.951l-3.542-5.142a1.592,1.592,0,0,1,.066-1.9L49.1,14.386a1.6,1.6,0,0,1,2.755,1.542l-2.1,5.8a1,1,0,0,0,.082.854l3.585,5.974a1.613,1.613,0,0,1-.207,1.92L46.93,37.153A1.6,1.6,0,0,1,45.766,37.657Z" style="fill:#ffc91d"/><path d="M82.766,37.657a1.6,1.6,0,0,1-1.478-2.214L83.5,30.125a1,1,0,0,0-.1-.951l-3.542-5.142a1.592,1.592,0,0,1,.066-1.9L86.1,14.386a1.6,1.6,0,0,1,2.755,1.542l-2.1,5.8a1,1,0,0,0,.082.854l3.585,5.974a1.613,1.613,0,0,1-.207,1.92L83.93,37.153A1.6,1.6,0,0,1,82.766,37.657Z" style="fill:#ffc91d"/><path d="M94.56,126.25h-35.2A3.408,3.408,0,0,1,56,123.429c-1.243-7.109-2.784-12.24-4.021-13.39-2.088-1.941-6.99-1.423-10.93-1.008-1.327.14-2.581.273-3.7.318-9.659.5-10.233-5.733-10.787-11.761a36.524,36.524,0,0,0-1.093-6.941,8.367,8.367,0,0,0-4.125-5.165c-1.614-1.063-3.443-2.268-3.283-5.319.077-1.476,1.24-2.764,2.712-4.392,2.269-2.512,5.376-5.952,5.389-11.39.006-1.411-.14-3.3-.282-5.116-.114-1.471-.222-2.859-.259-4.052-.322-10.376,4.366-19.776,13.2-26.471a1.25,1.25,0,0,1,1.51,1.992c-8.173,6.192-12.51,14.858-12.214,24.4.036,1.136.142,2.5.254,3.935.145,1.872.295,3.808.289,5.319-.014,6.4-3.638,10.4-6.034,13.057-1,1.111-2.04,2.258-2.071,2.848-.081,1.559.564,2.048,2.162,3.1a10.843,10.843,0,0,1,5.148,6.548,38.915,38.915,0,0,1,1.184,7.415c.565,6.153.883,9.865,8.182,9.493,1.055-.043,2.27-.171,3.556-.307,4.674-.492,9.975-1.052,12.894,1.663,2.167,2.016,3.8,9.155,4.782,14.789a.91.91,0,0,0,.9.753h35.2a.912.912,0,0,0,.736-.367.887.887,0,0,0,.145-.8c-1.185-4.08-3.234-11.883-3.641-18.308-.252-3.966.9-9.812,3.6-13.309,10.067-13.061,13.422-23.351,11.581-35.518C105.406,45.053,101,36.892,93.868,31.2a1.25,1.25,0,0,1,1.561-1.953c7.634,6.1,12.352,14.793,14.023,25.835,1.928,12.745-1.682,23.936-12.073,37.416-2.294,2.977-3.3,8.211-3.085,11.626.393,6.186,2.392,13.787,3.548,17.768a3.411,3.411,0,0,1-3.282,4.362Z" style="fill:#55498c"/><path d="M34.317,92.675H26.961a1.25,1.25,0,0,1,0-2.5h7.356a1.25,1.25,0,0,1,0,2.5Z" style="fill:#55498c"/><circle cx="33.397" cy="66.296" r="2.15" style="fill:#55498c"/><path d="M76.228,29.5,68.9,17.262l2.143-12.97a3.327,3.327,0,0,0-.729-2.7A3.034,3.034,0,0,0,68.008.5h0A2.967,2.967,0,0,0,65.33,2.234l-7.76,16.3a3.352,3.352,0,0,0,.253,3.3l7.2,10.671-2.485,12.17a3.324,3.324,0,0,0,.67,2.78,3.024,3.024,0,0,0,2.344,1.135,2.947,2.947,0,0,0,2.567-1.519l8.149-14.206A3.38,3.38,0,0,0,76.228,29.5ZM74.1,31.623l-8.15,14.205a.459.459,0,0,1-.4.264.715.715,0,0,1-.564-.915l2.621-12.839a.879.879,0,0,0-.125-.654L59.9,20.437a.868.868,0,0,1-.067-.828l7.76-16.3A.47.47,0,0,1,68.008,3a.705.705,0,0,1,.571.884L66.34,17.44a.884.884,0,0,0,.108.589l7.634,12.755A.862.862,0,0,1,74.1,31.623Z" style="fill:#55498c"/><path d="M54.491,27.915l-3.523-5.873,2.059-5.689a2.851,2.851,0,0,0-2.686-3.822h0a2.832,2.832,0,0,0-2.221,1.075l-6.177,7.741a2.834,2.834,0,0,0-.12,3.394l3.465,5.031-2.155,5.193a2.849,2.849,0,0,0,4.708,3.045l6.282-6.677A2.859,2.859,0,0,0,54.491,27.915ZM52.3,29.62,46.02,36.3a.337.337,0,0,1-.25.112.351.351,0,0,1-.328-.486l2.6-6.273a.348.348,0,0,0-.035-.333l-4.128-5.994a.348.348,0,0,1,.015-.416l6.177-7.742a.339.339,0,0,1,.267-.134.351.351,0,0,1,.335.472l-2.406,6.65a.346.346,0,0,0,.029.3L52.347,29.2A.349.349,0,0,1,52.3,29.62Z" style="fill:#55498c"/><path d="M91.491,27.915l-3.523-5.873,2.059-5.689a2.851,2.851,0,0,0-2.686-3.822h0a2.832,2.832,0,0,0-2.221,1.075l-6.177,7.741a2.834,2.834,0,0,0-.12,3.394l3.465,5.031-2.155,5.193a2.849,2.849,0,0,0,4.708,3.045l6.282-6.677A2.859,2.859,0,0,0,91.491,27.915ZM89.3,29.62,83.02,36.3a.337.337,0,0,1-.25.112.351.351,0,0,1-.328-.486l2.6-6.273a.348.348,0,0,0-.035-.333l-4.128-5.994a.348.348,0,0,1,.015-.416l6.177-7.742a.339.339,0,0,1,.267-.134.351.351,0,0,1,.335.472l-2.406,6.65a.346.346,0,0,0,.029.3L89.347,29.2A.349.349,0,0,1,89.3,29.62Z" style="fill:#55498c"/></svg>