<svg id="LinealColor" xmlns="http://www.w3.org/2000/svg" viewBox="0 0 128 128"><title>Narcolepsy, sleep, mental health, disorder, mental illness, night, paralysis</title><path d="M94.559,125a2.162,2.162,0,0,0,2.083-2.763c-1.171-4.031-3.195-11.729-3.595-18.037-.249-3.928.939-9.351,3.342-12.468,9.584-12.435,13.833-23.208,11.827-36.467-3.251-21.489-18.427-32.871-39.41-33.948C45.874,20.131,26.236,34.86,26.868,55.174c.083,2.682.552,6.63.541,9.209-.021,9.164-7.951,12.929-8.1,15.846-.25,4.788,5.375,3.293,7.359,10.067,2.519,8.6-1.091,18.409,10.63,17.8,4.676-.188,12.277-2,15.534,1.025,2.077,1.932,3.749,10.36,4.4,14.089A2.161,2.161,0,0,0,59.364,125Z" style="fill:#8bcffc"/><path d="M82.61,23.205c3.73,6.515,2.784,17.9-8.792,23.564a1.8,1.8,0,0,0,.317,3.346,16.057,16.057,0,0,0,16.878-5.644c5.4-6.567,4.547-20.43-6.476-23.612A1.638,1.638,0,0,0,82.61,23.205Z" style="fill:#ffc550"/><path d="M94.559,126.25H59.364A3.408,3.408,0,0,1,56,123.429c-1.243-7.108-2.784-12.239-4.021-13.389-2.088-1.942-6.99-1.425-10.929-1.009-1.328.14-2.583.272-3.7.317-9.652.5-10.232-5.732-10.786-11.76a36.549,36.549,0,0,0-1.093-6.941,8.373,8.373,0,0,0-4.126-5.165c-1.613-1.063-3.442-2.269-3.282-5.319.077-1.476,1.24-2.763,2.712-4.392,2.269-2.512,5.376-5.951,5.389-11.391.007-1.41-.14-3.292-.282-5.113-.114-1.471-.222-2.86-.259-4.054-.4-12.793,6.975-24.189,19.721-30.484a1.25,1.25,0,1,1,1.108,2.241C34.6,32.819,27.75,43.349,28.117,55.135c.035,1.136.141,2.5.253,3.938.146,1.871.3,3.806.289,5.316-.015,6.4-3.637,10.405-6.034,13.058-1,1.11-2.04,2.257-2.07,2.847-.082,1.558.563,2.048,2.161,3.1a10.852,10.852,0,0,1,5.149,6.55,38.9,38.9,0,0,1,1.183,7.415c.566,6.153.9,9.87,8.182,9.491,1.055-.043,2.27-.171,3.557-.307,4.675-.491,9.974-1.05,12.893,1.665,2.167,2.015,3.8,9.154,4.782,14.789a.91.91,0,0,0,.9.752h35.2a.911.911,0,0,0,.737-.367.889.889,0,0,0,.146-.8c-1.186-4.078-3.234-11.878-3.643-18.306-.252-3.967.9-9.813,3.6-13.31,8.314-10.785,11.917-19.429,12.05-28.9a1.279,1.279,0,0,1,1.268-1.233,1.251,1.251,0,0,1,1.232,1.268c-.139,9.923-4.016,19.3-12.569,30.394-2.294,2.976-3.3,8.211-3.085,11.626.393,6.188,2.392,13.787,3.548,17.766a3.412,3.412,0,0,1-3.283,4.363Z" style="fill:#55498c"/><path d="M34.317,92.675H26.961a1.25,1.25,0,0,1,0-2.5h7.356a1.25,1.25,0,0,1,0,2.5Z" style="fill:#55498c"/><path d="M32.54,69.546a3.887,3.887,0,0,1-2.023-.552A1.25,1.25,0,1,1,31.8,66.847c1.212.726,3.012-.779,3.03-.794a1.25,1.25,0,1,1,1.65,1.878A6.413,6.413,0,0,1,32.54,69.546Z" style="fill:#55498c"/><path d="M78.3,51.921a16.883,16.883,0,0,1-4.5-.6,3.048,3.048,0,0,1-.531-5.673c6.039-2.957,8.428-7.231,9.369-10.3a14.82,14.82,0,0,0-1.113-11.523h0a2.794,2.794,0,0,1,.233-3.164,2.923,2.923,0,0,1,3.125-1,14.15,14.15,0,0,1,9.828,9.714c1.693,5.458.6,11.845-2.732,15.893A17.452,17.452,0,0,1,78.3,51.921ZM83.7,22.584a17.367,17.367,0,0,1,1.333,13.5c-1.086,3.538-3.817,8.458-10.66,11.809a.513.513,0,0,0-.3.536.534.534,0,0,0,.4.483,14.882,14.882,0,0,0,15.577-5.234c2.772-3.372,3.708-8.949,2.276-13.564A11.721,11.721,0,0,0,84.19,22.06a.415.415,0,0,0-.465.148.308.308,0,0,0-.03.376Z" style="fill:#55498c"/><path d="M71.065,36.173a2.438,2.438,0,0,1-1.925-3.916l1.143-1.487-2.493.595a1.25,1.25,0,0,1-.581-2.432l2.666-.636a2.44,2.44,0,0,1,2.5,3.849l-1.159,1.508,3.528-.414a1.25,1.25,0,0,1,.291,2.483l-3.662.43A2.33,2.33,0,0,1,71.065,36.173Z" style="fill:#55498c"/><path d="M77.3,21.743a1.245,1.245,0,0,1-.263-.028l-6.585-1.41a2.168,2.168,0,0,1-1.678-1.713,2.2,2.2,0,0,1,.932-2.248l4.674-3.121-2.9-.508a1.25,1.25,0,1,1,.434-2.462l3.61.636a2.121,2.121,0,0,1,1.81,1.629,2.157,2.157,0,0,1-.9,2.344l-4.724,3.154,5.856,1.255a1.25,1.25,0,0,1-.26,2.472Zm-2.154-8.386.037.007Z" style="fill:#55498c"/><path d="M53.322,53.013a1.248,1.248,0,0,1-1.056-.58A34.722,34.722,0,0,1,50.18,19.4a1.25,1.25,0,0,1,2.264,1.061,32.2,32.2,0,0,0,1.933,30.634,1.249,1.249,0,0,1-1.055,1.919Z" style="fill:#55498c"/><path d="M80.373,68.44h-.039a34.572,34.572,0,0,1-4.13-.373,1.25,1.25,0,1,1,.374-2.471,32.052,32.052,0,0,0,3.832.345,1.25,1.25,0,0,1-.037,2.5Zm-7.891-1.192a1.292,1.292,0,0,1-.334-.046,34.437,34.437,0,0,1-3.923-1.348,1.25,1.25,0,1,1,.954-2.311,31.688,31.688,0,0,0,3.636,1.249,1.251,1.251,0,0,1-.333,2.456ZM65.106,64.2a1.242,1.242,0,0,1-.612-.161A34.553,34.553,0,0,1,61.01,61.8a1.25,1.25,0,1,1,1.48-2.016,31.786,31.786,0,0,0,3.23,2.086,1.25,1.25,0,0,1-.614,2.339ZM58.677,59.48a1.243,1.243,0,0,1-.855-.338c-.269-.252-.536-.511-.8-.774-.716-.716-1.406-1.469-2.051-2.238a1.25,1.25,0,1,1,1.915-1.607c.6.714,1.239,1.413,1.9,2.077q.366.366.741.719a1.249,1.249,0,0,1-.855,2.161Z" style="fill:#55498c"/><path d="M55.151,22.419a1.251,1.251,0,0,1-1.189-.865L52.6,17.343l-4.211,1.365a1.25,1.25,0,0,1-.771-2.378l4.345-1.409a2.359,2.359,0,0,1,2.972,1.517l1.408,4.345a1.249,1.249,0,0,1-.8,1.574A1.236,1.236,0,0,1,55.151,22.419Z" style="fill:#55498c"/><path d="M107.964,56.348a1.251,1.251,0,0,1-1-1.995,32.2,32.2,0,0,0,4.2-30.406,1.25,1.25,0,1,1,2.336-.892,34.722,34.722,0,0,1-4.53,32.787A1.247,1.247,0,0,1,107.964,56.348Z" style="fill:#55498c"/><path d="M110.484,20.74a1.249,1.249,0,0,1-1.1-.654c-.445-.818-.933-1.63-1.451-2.413q-.288-.432-.585-.854a1.25,1.25,0,1,1,2.04-1.444q.32.451.628.916c.559.845,1.086,1.72,1.565,2.6a1.251,1.251,0,0,1-1.1,1.847Zm-4.617-6.51a1.248,1.248,0,0,1-.927-.41,31.824,31.824,0,0,0-2.75-2.686,1.25,1.25,0,0,1,1.635-1.891,34.512,34.512,0,0,1,2.967,2.9,1.25,1.25,0,0,1-.925,2.09ZM99.831,9.013a1.242,1.242,0,0,1-.7-.213,31.965,31.965,0,0,0-3.316-1.947,1.25,1.25,0,1,1,1.134-2.228,34.492,34.492,0,0,1,3.576,2.1,1.25,1.25,0,0,1-.7,2.288ZM92.72,5.4a1.247,1.247,0,0,1-.429-.077,32.138,32.138,0,0,0-3.686-1.1,1.25,1.25,0,0,1,.571-2.434A34.76,34.76,0,0,1,93.149,2.97,1.25,1.25,0,0,1,92.72,5.4Z" style="fill:#55498c"/><path d="M106.066,59.893a2.363,2.363,0,0,1-2.343-2.094l-.516-4.538a1.25,1.25,0,1,1,2.484-.282l.5,4.4,4.4-.5a1.25,1.25,0,0,1,.282,2.485l-4.539.515A2.4,2.4,0,0,1,106.066,59.893Z" style="fill:#55498c"/></svg>