<svg id="LinealColor" xmlns="http://www.w3.org/2000/svg" viewBox="0 0 128 128"><title>Pathological, Liar, mental health, disorder, mental illness, overact, talk</title><path d="M107.308,125a2,2,0,0,0,1.927-2.557,86.444,86.444,0,0,1-3.326-16.69c-.231-3.634.869-8.652,3.092-11.536,8.869-11.506,12.8-21.474,10.943-33.743-3.008-19.883-17.05-30.415-36.466-31.412-21.218-1.1-39.39,12.531-38.8,31.328.077,2.481.511,6.135.5,8.521-.02,8.48-7.357,11.963-7.5,14.662-.231,4.431,4.974,3.047,6.81,9.316,2.33,7.958-1.01,17.034,9.835,16.473,4.328-.174,11.36-1.854,14.374.948,1.922,1.787,3.469,9.586,4.073,13.037A2,2,0,0,0,74.742,125Z" style="fill:#fc5b5b"/><path d="M49.682,91.459a12.928,12.928,0,0,1-5.4.5.08.08,0,0,0-.095.1l1.034,4.517a.092.092,0,0,0,.076.068,7.652,7.652,0,0,0,6.323-1.625,2.07,2.07,0,0,0,.584-2.19h0A2.081,2.081,0,0,0,49.682,91.459Z" style="fill:#fff"/><circle cx="96.749" cy="36.495" r="24.5" style="fill:#eeefe1"/><path d="M31.474,75.646s2.425,4.72,2.542,5.826c.081.733-8.761-2.808-8.761-2.808a17.733,17.733,0,1,1,6.219-3.018Z" style="fill:#eeefe1"/><path d="M108.808,38.189h-.015a5.239,5.239,0,0,0,1.116-2.645c.215-1.7-1.231-4.43-4.817-6.06-6.51-3.468-2.653-9.274-5.385-10.156-2.361-.761-9.11,5.23-7.611,9.053-5.981,1.147-8.777,5.018-8.507,7.163a5.243,5.243,0,0,0,1.1,2.645h0c-2.5,1.076-4.358,3.348-4.358,5.758,0,4.506,7.35,8.131,16.417,8.131s16.417-3.625,16.417-8.131C113.166,41.537,111.3,39.265,108.808,38.189Z" style="fill:#ffc91d"/><path d="M21.945,72.426l11.673-11.07a1.393,1.393,0,0,0,.079-1.939L28.122,53.2a1.853,1.853,0,0,0-1.483-.741H14.866a1.853,1.853,0,0,0-1.483.741L7.809,59.417a1.392,1.392,0,0,0,.078,1.939L19.56,72.426A1.857,1.857,0,0,0,21.945,72.426Z" style="fill:#6494ff"/><path d="M107.309,126.25H74.742a3.247,3.247,0,0,1-3.206-2.687c-1.129-6.459-2.578-11.3-3.692-12.337-1.9-1.766-6.413-1.292-10.039-.91-1.231.13-2.393.252-3.434.294-9.017.463-9.56-5.344-10.076-10.965a33.733,33.733,0,0,0-1.008-6.405,7.663,7.663,0,0,0-3.779-4.727c-1.514-1-3.23-2.129-3.079-5.005.072-1.4,1.158-2.6,2.533-4.123,2.206-2.442,4.951-5.48,4.963-10.477.005-1.3-.13-3.038-.261-4.719-.105-1.364-.206-2.652-.24-3.76C42.98,46.168,53.3,33.675,69.109,29.34a1.25,1.25,0,1,1,.662,2.41c-14.9,4.087-24.262,15.313-23.849,28.6.033,1.05.131,2.31.234,3.645.135,1.731.275,3.521.269,4.92-.015,5.954-3.38,9.68-5.608,12.145-.875.967-1.865,2.065-1.892,2.578-.071,1.376.447,1.79,1.959,2.786a10.13,10.13,0,0,1,4.8,6.112,36.153,36.153,0,0,1,1.1,6.879c.519,5.639.833,9.042,7.473,8.7.974-.039,2.1-.158,3.286-.283,4.346-.458,9.269-.976,12,1.566,2.023,1.881,3.538,8.507,4.452,13.736a.751.751,0,0,0,.743.618h32.567a.751.751,0,0,0,.607-.3.727.727,0,0,0,.119-.654,87.576,87.576,0,0,1-3.373-16.96c-.235-3.687.84-9.123,3.349-12.379,9.3-12.063,12.4-21.563,10.7-32.794a43.383,43.383,0,0,0-1.509-6.577,1.25,1.25,0,0,1,2.383-.754,45.924,45.924,0,0,1,1.6,6.958c1.788,11.821-1.558,22.2-11.19,34.692-2.109,2.738-3.034,7.554-2.835,10.7a85.278,85.278,0,0,0,3.28,16.42,3.25,3.25,0,0,1-3.127,4.155Z" style="fill:#55498c"/><path d="M45.635,93.332a8.032,8.032,0,0,1-1.749-.176,1.25,1.25,0,1,1,.547-2.439c2.095.469,5.533-.582,6.681-1.027a1.25,1.25,0,0,1,.906,2.331A20.538,20.538,0,0,1,45.635,93.332Z" style="fill:#55498c"/><circle cx="50.965" cy="70.682" r="1.989" style="fill:#55498c"/><path d="M46.708,97.991a12.123,12.123,0,0,1-1.639-.114A1.25,1.25,0,0,1,45.4,95.4c4.424.595,6.013-1.981,6.079-2.091a1.258,1.258,0,0,1,1.7-.445,1.244,1.244,0,0,1,.463,1.69A7.842,7.842,0,0,1,46.708,97.991Z" style="fill:#55498c"/><path d="M20.753,74.11a3.1,3.1,0,0,1-2-.726L7.026,62.263a2.63,2.63,0,0,1-.148-3.681L12.421,52.4a3.118,3.118,0,0,1,2.445-1.192H26.639A3.118,3.118,0,0,1,29.084,52.4l5.543,6.184a2.629,2.629,0,0,1-.148,3.68L22.806,73.333c-.019.018-.038.034-.058.051A3.1,3.1,0,0,1,20.753,74.11Zm1.192-1.684h0ZM14.866,53.707a.611.611,0,0,0-.484.242.92.92,0,0,1-.069.083L8.739,60.251a.142.142,0,0,0,.009.2l11.673,11.07a.6.6,0,0,0,.7-.034L32.758,60.448a.141.141,0,0,0,.008-.2l-5.575-6.22c-.024-.026-.046-.054-.068-.083a.611.611,0,0,0-.484-.242Z" style="fill:#55498c"/><path d="M20.738,74.108a1.248,1.248,0,0,1-1.059-.585L11.714,60.851a1.252,1.252,0,0,1,.188-1.563l7.965-7.728a1.25,1.25,0,1,1,1.74,1.794l-7.238,7.024L21.8,72.193a1.25,1.25,0,0,1-1.058,1.915Z" style="fill:#55498c"/><path d="M20.767,74.108a1.25,1.25,0,0,1-1.058-1.915l7.427-11.815L19.9,53.354a1.25,1.25,0,1,1,1.741-1.794L29.6,59.288a1.253,1.253,0,0,1,.188,1.563L21.826,73.523A1.248,1.248,0,0,1,20.767,74.108Z" style="fill:#55498c"/><path d="M34.042,61.436H7.463a1.25,1.25,0,0,1,0-2.5H34.042a1.25,1.25,0,0,1,0,2.5Z" style="fill:#55498c"/><path d="M96.749,62.245a25.75,25.75,0,1,1,25.75-25.75A25.78,25.78,0,0,1,96.749,62.245Zm0-49A23.25,23.25,0,1,0,120,36.495,23.276,23.276,0,0,0,96.749,13.245Z" style="fill:#55498c"/><path d="M110.556,37.708a6.537,6.537,0,0,0,.593-2.008c.278-2.2-1.337-5.443-5.469-7.32-3.316-1.766-3.428-4.13-3.527-6.216-.071-1.519-.161-3.412-2.062-4.025-2.869-.93-7.987,3.605-9.167,7.257a5.7,5.7,0,0,0-.287,2.037c-5.9,1.57-8.614,5.683-8.288,8.267a6.609,6.609,0,0,0,.583,2.015,7.647,7.647,0,0,0-3.85,6.232c0,5.261,7.761,9.381,17.667,9.381s17.667-4.12,17.667-9.381A7.647,7.647,0,0,0,110.556,37.708ZM96.749,50.828c-9.072,0-15.167-3.557-15.167-6.881a5.276,5.276,0,0,1,2.831-4.218,12.73,12.73,0,0,0,6.741,2.916,1.351,1.351,0,0,0,.217.018,1.25,1.25,0,0,0,.213-2.481c-4.173-.727-6.445-2.34-6.755-4.794-.144-1.148,1.661-4.342,6.664-5.591a6.267,6.267,0,0,0,3.2,2.138,1.25,1.25,0,0,0,.77-2.379,3.5,3.5,0,0,1-2.106-1.405v-.01a1.226,1.226,0,0,0-.188-.46,2.724,2.724,0,0,1,.1-1.416c.931-3.126,5.095-6,6.051-5.747.237.076.285.748.333,1.764.112,2.338.279,5.87,4.918,8.339,3.063,1.394,4.238,3.626,4.095,4.767-.569,4.515-7.713,5.19-11.92,5.19a1.25,1.25,0,0,0,0,2.5c5.792,0,9.985-1.171,12.321-3.357a5.276,5.276,0,0,1,2.846,4.226C111.916,47.271,105.821,50.828,96.749,50.828Z" style="fill:#55498c"/><path d="M33.9,82.818c-.944,0-3.047-.576-8.736-2.843a18.987,18.987,0,1,1,7.879-3.989,26.23,26.23,0,0,1,2.212,5.355,1.386,1.386,0,0,1-.514,1.191A1.167,1.167,0,0,1,33.9,82.818Zm-8.648-5.4a1.245,1.245,0,0,1,.465.09c2.2.881,4.724,1.819,6.391,2.361-.473-1.074-1.133-2.446-1.75-3.647a1.25,1.25,0,0,1,.357-1.568,16.509,16.509,0,1,0-5.781,2.8A1.273,1.273,0,0,1,25.256,77.414Z" style="fill:#55498c"/></svg>