<svg id="LinealColor" xmlns="http://www.w3.org/2000/svg" viewBox="0 0 128 128"><title>Social addict, mental health, disorder, mental illness, smartphone, Nomophobia, phobia</title><path d="M94.559,124.951a2.163,2.163,0,0,0,2.083-2.764c-1.171-4.03-3.195-11.728-3.595-18.037-.249-3.927.939-9.35,3.342-12.467,9.584-12.435,13.833-23.208,11.827-36.468-3.251-21.488-18.427-32.87-39.41-33.947-22.932-1.187-42.57,13.543-41.938,33.857.083,2.682.552,6.63.541,9.209-.021,9.164-7.951,12.929-8.1,15.845-.25,4.789,5.375,3.293,7.359,10.068,2.519,8.6-1.091,18.409,10.63,17.8,4.676-.188,12.277-2,15.534,1.025,2.077,1.932,3.749,10.359,4.4,14.089a2.161,2.161,0,0,0,2.133,1.787Z" style="fill:#ffc91d"/><rect x="73.099" y="16.278" width="25.112" height="46.802" rx="4.065" ry="4.065" transform="translate(171.311 79.359) rotate(180)" style="fill:#8aad93"/><path d="M84.127,16.278h3.247a3.491,3.491,0,0,1,3.491,3.491v.537a0,0,0,0,1,0,0H80.636a0,0,0,0,1,0,0v-.537a3.491,3.491,0,0,1,3.491-3.491Z" transform="translate(171.501 36.585) rotate(180)" style="fill:#8aad93"/><path d="M71.352,65.841a6.4,6.4,0,0,0,4.1,1.466h20.4a6.287,6.287,0,0,0,6.374-6.2V18.25a6.287,6.287,0,0,0-6.374-6.2h-20.4a6.287,6.287,0,0,0-6.374,6.2V61.109A6.063,6.063,0,0,0,71.352,65.841Z" style="fill:#8babea"/><path d="M94.146,16.278H77.164A4.065,4.065,0,0,0,73.1,20.343V59.016a4.065,4.065,0,0,0,4.065,4.065H94.146a4.065,4.065,0,0,0,4.065-4.065V20.343A4.065,4.065,0,0,0,94.146,16.278Z" style="fill:#fff"/><path d="M84.127,16.278h3.247a3.491,3.491,0,0,1,3.491,3.491v.537a0,0,0,0,1,0,0H80.636a0,0,0,0,1,0,0v-.537a3.491,3.491,0,0,1,3.491-3.491Z" transform="translate(171.501 36.585) rotate(180)" style="fill:#55498c"/><path d="M94.559,126.2H59.364A3.407,3.407,0,0,1,56,123.379c-1.243-7.108-2.784-12.237-4.021-13.389-2.088-1.94-6.992-1.424-10.932-1.009-1.327.14-2.58.273-3.7.318-9.67.49-10.232-5.734-10.786-11.76a36.514,36.514,0,0,0-1.093-6.94,8.362,8.362,0,0,0-4.126-5.165c-1.613-1.064-3.442-2.27-3.282-5.32.077-1.476,1.24-2.763,2.712-4.392,2.269-2.512,5.376-5.951,5.389-11.391.007-1.41-.14-3.293-.282-5.113-.114-1.471-.222-2.861-.259-4.054a30.72,30.72,0,0,1,8.748-22.5C41.785,24.851,53.005,20.22,65.15,19.962a1.25,1.25,0,0,1,.053,2.5c-11.482.243-22.061,4.591-29.024,11.928a28.271,28.271,0,0,0-8.062,20.7c.035,1.136.141,2.5.253,3.938.146,1.871.3,3.805.289,5.316-.015,6.395-3.637,10.4-6.034,13.057-1,1.111-2.04,2.258-2.07,2.848-.082,1.558.563,2.048,2.161,3.1a10.852,10.852,0,0,1,5.149,6.55,38.9,38.9,0,0,1,1.183,7.415c.566,6.153.9,9.861,8.182,9.491,1.054-.043,2.269-.171,3.554-.307,4.674-.493,9.975-1.052,12.9,1.665,2.167,2.015,3.8,9.154,4.782,14.788a.91.91,0,0,0,.9.753h35.2a.911.911,0,0,0,.737-.367.889.889,0,0,0,.146-.8c-1.186-4.077-3.234-11.878-3.643-18.307-.252-3.966.9-9.811,3.6-13.309C105.465,77.859,108.82,67.569,106.979,55.4a44.873,44.873,0,0,0-2.746-10.2,1.25,1.25,0,0,1,2.315-.943,47.314,47.314,0,0,1,2.9,10.773c1.929,12.746-1.681,23.937-12.072,37.417-2.294,2.977-3.3,8.212-3.085,11.626.393,6.19,2.392,13.788,3.548,17.768a3.411,3.411,0,0,1-3.283,4.362Z" style="fill:#55498c"/><path d="M34.317,92.626H26.961a1.25,1.25,0,0,1,0-2.5h7.356a1.25,1.25,0,1,1,0,2.5Z" style="fill:#55498c"/><circle cx="33.397" cy="66.247" r="2.15" style="fill:#55498c"/><path d="M94.146,64.331H77.164a5.321,5.321,0,0,1-5.315-5.315V45.438a1.25,1.25,0,0,1,2.5,0V59.016a2.818,2.818,0,0,0,2.815,2.815H94.146a2.818,2.818,0,0,0,2.815-2.815V20.343a2.818,2.818,0,0,0-2.815-2.815H77.164a2.818,2.818,0,0,0-2.815,2.815V31.125a1.25,1.25,0,0,1-2.5,0V20.343a5.321,5.321,0,0,1,5.315-5.315H94.146a5.321,5.321,0,0,1,5.315,5.315V59.016A5.321,5.321,0,0,1,94.146,64.331Z" style="fill:#55498c"/><path d="M87.374,21.557H84.127a4.747,4.747,0,0,1-4.741-4.742v-.537a1.25,1.25,0,0,1,1.25-1.25H90.865a1.25,1.25,0,0,1,1.25,1.25v.537A4.747,4.747,0,0,1,87.374,21.557ZM82,17.528a2.246,2.246,0,0,0,2.125,1.529h3.247A2.244,2.244,0,0,0,89.5,17.528Z" style="fill:#55498c"/><path d="M95.855,68.557h-20.4a7.681,7.681,0,0,1-4.9-1.754,7.289,7.289,0,0,1-2.723-5.695V40.313a1.25,1.25,0,0,1,2.5,0V61.108a4.808,4.808,0,0,0,1.8,3.759,5.186,5.186,0,0,0,3.319,1.19h20.4a5.044,5.044,0,0,0,5.124-4.949V18.25A5.043,5.043,0,0,0,95.855,13.3h-20.4a5.044,5.044,0,0,0-5.124,4.948v9.875a1.25,1.25,0,0,1-2.5,0V18.25A7.546,7.546,0,0,1,75.455,10.8h20.4a7.545,7.545,0,0,1,7.624,7.448V61.108A7.545,7.545,0,0,1,95.855,68.557Z" style="fill:#55498c"/><path d="M60.667,52.75a1.252,1.252,0,0,1-1.12-.694L52.814,38.484l-2.73,3.769a1.251,1.251,0,0,1-1.012.517h-7a1.25,1.25,0,0,1,0-2.5h6.366L52,35.343a1.235,1.235,0,0,1,1.117-.513,1.25,1.25,0,0,1,1.015.691l6.431,12.963,7.362-17.725a1.249,1.249,0,0,1,2.261-.1L77.3,44.22l3.917-4.927a1.248,1.248,0,0,1,.978-.473h6.091a1.25,1.25,0,0,1,0,2.5H82.8l-4.735,5.957a1.249,1.249,0,0,1-2.085-.2l-6.765-12.9-7.391,17.8a1.249,1.249,0,0,1-1.113.77Z" style="fill:#55498c"/><path d="M93.1,41.239H91.884a1.25,1.25,0,0,1,0-2.5H93.1a1.25,1.25,0,0,1,0,2.5Z" style="fill:#55498c"/></svg>