<svg id="LinealColor" xmlns="http://www.w3.org/2000/svg" viewBox="0 0 128 128"><title>Social Anxiety, fear, phobia, paranoia, mental health, disorder, mental illness</title><path d="M94.559,124.951a2.163,2.163,0,0,0,2.083-2.764c-1.171-4.03-3.195-11.728-3.595-18.037-.249-3.927.939-9.35,3.342-12.467,9.584-12.435,13.833-23.208,11.827-36.468-3.251-21.488-18.427-32.87-39.41-33.947-22.932-1.187-42.57,13.543-41.938,33.857.083,2.682.552,6.63.541,9.209-.021,9.164-7.951,12.929-8.1,15.845-.25,4.789,5.375,3.293,7.359,10.068,2.519,8.6-1.091,18.409,10.63,17.8,4.676-.188,12.277-2,15.534,1.025,2.077,1.932,3.749,10.359,4.4,14.089a2.161,2.161,0,0,0,2.133,1.787Z" style="fill:#eeefe1"/><path d="M55.238,57.617c-.117.794-8.172-5.244-8.172-5.244H39.428A17.062,17.062,0,0,1,22.563,35.352c-.013-.767-.013-1.522,0-2.29A17.051,17.051,0,0,1,39.428,16.054c4.2-.013,8.393-.013,12.6,0A17.052,17.052,0,0,1,68.889,33.062v2.29A17.094,17.094,0,0,1,54,52.243S55.42,56.42,55.238,57.617Z" style="fill:#fc5b5b"/><path d="M74.513,85.124s-1.25,5.637-1.067,6.834c.117.794,8.445-5.374,8.445-5.374a19.3,19.3,0,1,0-7.378-1.46Z" style="fill:#ffc91d"/><path d="M83.852,42.423c.117.793,9.078-6.18,9.078-6.18l10.524-.115a10.289,10.289,0,0,0,10.176-8.709l1.953-12.538A10.3,10.3,0,0,0,105.407,3H84.227A10.3,10.3,0,0,0,73.975,14.262l1.163,12.529a10.3,10.3,0,0,0,9.48,9.308S83.67,41.225,83.852,42.423Z" style="fill:#51d6c6"/><path d="M30.73,35.8c8.056,8.06,22.8,8,30.136-.287a1.367,1.367,0,0,0,0-1.863c-7.4-8.342-23.04-8.923-30.265.293A1.368,1.368,0,0,0,30.73,35.8Z" style="fill:#f2f4df"/><circle cx="45.764" cy="34.495" r="4.906" style="fill:#6494ff"/><path d="M94.559,126.2H59.364A3.407,3.407,0,0,1,56,123.379c-1.243-7.108-2.784-12.237-4.021-13.389-2.087-1.94-6.991-1.424-10.932-1.009-1.327.14-2.58.273-3.7.318-9.67.488-10.233-5.734-10.786-11.76a36.514,36.514,0,0,0-1.093-6.94,8.362,8.362,0,0,0-4.126-5.165c-1.613-1.064-3.442-2.27-3.282-5.32.077-1.476,1.24-2.763,2.712-4.392,2.269-2.512,5.376-5.951,5.389-11.391.007-1.41-.14-3.293-.282-5.113-.114-1.471-.222-2.861-.259-4.054a31.611,31.611,0,0,1,.077-3.39,1.236,1.236,0,0,1,1.342-1.15,1.249,1.249,0,0,1,1.15,1.342,28.921,28.921,0,0,0-.07,3.12c.035,1.136.141,2.5.253,3.938.146,1.871.3,3.805.289,5.316-.015,6.395-3.637,10.4-6.034,13.057-1,1.111-2.04,2.258-2.07,2.848-.082,1.558.563,2.048,2.161,3.1a10.852,10.852,0,0,1,5.149,6.55,38.9,38.9,0,0,1,1.183,7.415c.566,6.152.9,9.868,8.182,9.491,1.054-.043,2.269-.171,3.554-.307,4.674-.494,9.975-1.052,12.9,1.665,2.167,2.015,3.8,9.154,4.782,14.788a.91.91,0,0,0,.9.753h35.2a.911.911,0,0,0,.737-.367.889.889,0,0,0,.146-.8c-1.186-4.077-3.234-11.878-3.643-18.307-.252-3.966.9-9.811,3.6-13.309C105.465,77.859,108.82,67.569,106.979,55.4a41.5,41.5,0,0,0-5.322-15.353,1.25,1.25,0,1,1,2.14-1.293,44,44,0,0,1,5.654,16.273c1.929,12.746-1.681,23.937-12.072,37.417-2.294,2.977-3.3,8.212-3.085,11.626.393,6.19,2.392,13.788,3.548,17.768a3.411,3.411,0,0,1-3.283,4.362Z" style="fill:#55498c"/><path d="M34.317,92.626H26.961a1.25,1.25,0,0,1,0-2.5h7.356a1.25,1.25,0,1,1,0,2.5Z" style="fill:#55498c"/><circle cx="33.397" cy="66.247" r="2.15" style="fill:#55498c"/><path d="M55.172,58.952c-.773,0-2.458-.8-8.522-5.329H39.428A18.266,18.266,0,0,1,21.313,35.354c-.013-.762-.013-1.531,0-2.313A18.252,18.252,0,0,1,39.424,14.805c4.2-.014,8.4-.014,12.6,0A18.257,18.257,0,0,1,70.139,33.061v2.292a18.3,18.3,0,0,1-14.5,17.885,14.029,14.029,0,0,1,.84,4.564h0v0h0a1.4,1.4,0,0,1-.807,1.03A1.183,1.183,0,0,1,55.172,58.952Zm.032-1.28h0Zm-8.138-6.549a1.249,1.249,0,0,1,.749.25c2,1.5,4.3,3.132,5.853,4.139-.228-.9-.542-1.959-.85-2.866A1.25,1.25,0,0,1,53.849,51a15.787,15.787,0,0,0,13.79-15.652V33.063A15.753,15.753,0,0,0,52.021,17.305c-4.2-.015-8.389-.015-12.589,0A15.752,15.752,0,0,0,23.813,33.064c-.013.773-.013,1.514,0,2.267A15.765,15.765,0,0,0,39.431,51.123Z" style="fill:#55498c"/><path d="M73.507,93.291a1.19,1.19,0,0,1-.494-.118,1.4,1.4,0,0,1-.8-1.032c-.164-1.08.439-4.257.867-6.287a20.572,20.572,0,1,1,9.233,1.976C76.018,92.474,74.289,93.291,73.507,93.291Zm8.385-44.083a18.066,18.066,0,0,0-6.9,34.761,1.251,1.251,0,0,1,.742,1.426c-.339,1.531-.676,3.276-.877,4.571,1.606-1.016,4.123-2.78,6.291-4.387a1.257,1.257,0,0,1,.745-.245,18.063,18.063,0,0,0,0-36.126Z" style="fill:#55498c"/><path d="M83.9,43.749a1.186,1.186,0,0,1-.474-.111,1.384,1.384,0,0,1-.813-1.028h0a26.652,26.652,0,0,1,.544-5.444,11.506,11.506,0,0,1-9.267-10.257L72.731,14.377A11.55,11.55,0,0,1,84.227,1.75h21.18a11.55,11.55,0,0,1,11.411,13.323l-1.953,12.539a11.473,11.473,0,0,1-11.411,9.766l-10.09.11C86.46,42.847,84.7,43.749,83.9,43.749Zm.324-39.5A8.938,8.938,0,0,0,77.544,7.2a9.078,9.078,0,0,0-2.324,6.944l1.162,12.53a9.019,9.019,0,0,0,8.329,8.178,1.249,1.249,0,0,1,1.136,1.473c-.248,1.342-.489,2.865-.634,4.045,1.727-1.159,4.529-3.232,6.949-5.115a1.251,1.251,0,0,1,.754-.264l10.524-.115a8.992,8.992,0,0,0,8.955-7.649l1.953-12.541A9.051,9.051,0,0,0,105.407,4.25Z" style="fill:#55498c"/><path d="M30.483,50.983A1.25,1.25,0,0,1,29.6,48.85L60.421,18.027A1.25,1.25,0,0,1,62.189,19.8L31.367,50.617A1.246,1.246,0,0,1,30.483,50.983Z" style="fill:#55498c"/><path d="M79.171,35.285a1.25,1.25,0,0,1-.884-2.134l30.23-30.23a1.25,1.25,0,0,1,1.768,1.767L80.055,34.919A1.246,1.246,0,0,1,79.171,35.285Z" style="fill:#55498c"/><path d="M68.99,82.754a1.25,1.25,0,0,1-.884-2.134L95.313,53.413a1.25,1.25,0,0,1,1.768,1.768L69.874,82.388A1.248,1.248,0,0,1,68.99,82.754Z" style="fill:#55498c"/><path d="M45.873,43.033A22.62,22.62,0,0,1,29.846,36.68h0a2.627,2.627,0,0,1-.231-3.512,19.819,19.819,0,0,1,15.186-7.2,21.868,21.868,0,0,1,17,6.846,2.624,2.624,0,0,1,0,3.522,21.019,21.019,0,0,1-15.174,6.685C46.376,43.03,46.124,43.033,45.873,43.033ZM31.614,34.912a20.235,20.235,0,0,0,14.939,5.611A18.528,18.528,0,0,0,59.93,34.681a.127.127,0,0,0,0-.2c-3.5-3.944-9.13-6.167-15.052-6.009A17.336,17.336,0,0,0,31.583,34.71c-.033.042-.075.1.031.2Z" style="fill:#55498c"/><path d="M45.764,40.651a6.156,6.156,0,1,1,6.156-6.156A6.163,6.163,0,0,1,45.764,40.651Zm0-9.811a3.656,3.656,0,1,0,3.656,3.655A3.66,3.66,0,0,0,45.764,30.84Z" style="fill:#55498c"/><path d="M92,37.853a1.249,1.249,0,0,1-1.21-.943,30.412,30.412,0,0,1-.655-4.627,31.067,31.067,0,0,0-.93-5.91,7.016,7.016,0,0,0-3.46-4.325c-1.422-.937-3.033-2-2.891-4.714.069-1.328,1.084-2.451,2.369-3.873,2.031-2.248,4.558-5.046,4.569-9.636a1.25,1.25,0,0,1,1.25-1.247h0a1.25,1.25,0,0,1,1.247,1.253c-.013,5.549-3.143,9.013-5.214,11.306-.76.841-1.7,1.886-1.727,2.328-.064,1.223.4,1.6,1.77,2.5A9.454,9.454,0,0,1,91.6,25.67a33.637,33.637,0,0,1,1.02,6.385,28.6,28.6,0,0,0,.588,4.24,1.251,1.251,0,0,1-.9,1.519A1.264,1.264,0,0,1,92,37.853Z" style="fill:#55498c"/><path d="M80.486,78.646a6.993,6.993,0,0,1-4.051-1.3A1.25,1.25,0,1,1,77.864,75.3a4.7,4.7,0,0,0,4.425.528,10.546,10.546,0,0,0,6.033-6.5c1.181-3.827.248-8.578-3.806-9.847-2.425-.776-6.166.348-8.318,3.942a1.25,1.25,0,1,1-2.144-1.285c2.842-4.744,7.794-6.128,11.214-5.042,5.593,1.751,6.98,7.989,5.442,12.97A13.041,13.041,0,0,1,83.1,78.188,8.025,8.025,0,0,1,80.486,78.646Z" style="fill:#55498c"/><path d="M85.585,61.962a5.978,5.978,0,0,0-4.691.428,6.9,6.9,0,0,0-1.422.921c-.014.008-.024.02-.037.028-.027.023-.06.043-.087.066a5.958,5.958,0,0,0-.658.605,10.717,10.717,0,0,0-1.448,1.761,1.25,1.25,0,0,0,2.07,1.4,8.541,8.541,0,0,1,1.148-1.4c.074-.078.148-.152.228-.226a1.928,1.928,0,0,1,.676-.034,2.716,2.716,0,0,1,1.576,1.069,1.25,1.25,0,1,0,2.106-1.348,5.241,5.241,0,0,0-.928-1.044,2.638,2.638,0,0,1,.554.1,1.25,1.25,0,0,0,.913-2.328Z" style="fill:#55498c"/><path d="M100.616,25.674a2.712,2.712,0,0,0-2.206-1.049H93.732a1,1,0,0,0-.959,1.282l.913,3.106a1,1,0,0,0,.959.718h3.907A2.553,2.553,0,0,0,100.616,25.674Z" style="fill:#fff"/><path d="M98.435,30.472H94.5a1.25,1.25,0,0,1,0-2.5h3.938a.91.91,0,0,0,.733-1.45.915.915,0,0,0-.733-.371H93.228a1.25,1.25,0,0,1,0-2.5h5.207a3.411,3.411,0,0,1,0,6.821Z" style="fill:#55498c"/></svg>