<svg id="LinealColor" xmlns="http://www.w3.org/2000/svg" viewBox="0 0 128 128"><title>Therapy, treatment, mental health, healthcare, Meditation, healthy</title><path d="M80.559,124.951a2.163,2.163,0,0,0,2.083-2.764c-1.171-4.03-3.195-11.728-3.595-18.037-.249-3.927.939-9.35,3.342-12.467,9.584-12.435,13.833-23.208,11.827-36.468-3.251-21.488-18.427-32.87-39.41-33.947-22.932-1.187-42.57,13.543-41.938,33.857.083,2.682.552,6.63.541,9.209-.021,9.164-7.951,12.929-8.1,15.845-.25,4.789,5.375,3.293,7.359,10.068,2.519,8.6-1.091,18.409,10.63,17.8,4.676-.188,12.277-2,15.534,1.025,2.077,1.932,3.749,10.359,4.4,14.089a2.161,2.161,0,0,0,2.133,1.787Z" style="fill:#eeefe1"/><path d="M87.045,98.868c13.52-.422,28.435-11.481,28.179-32.243-.214-17.416,9.021-30.982-1.224-33C105.75,32,101.827,42.408,93.688,47.75c0,0-11.1,9.583-13.6,16.25s-4.9,19.125-2.4,25.875S84.378,98.951,87.045,98.868Z" style="fill:#b7f476"/><path d="M83.142,97.367s23.179-13.1,10-42.348C88.107,43.851,78.513,33.447,72.126,22.344c-6.094-10.594-21.5-6.205-18.827,5.873,4.263,19.256.51,24.4,1.816,36.056C58.659,95.917,83.142,97.367,83.142,97.367Z" style="fill:#2add77"/><path d="M85.279,29.543c1.805,1.141,4.328.584,5.512.22a.832.832,0,0,0,.586-.929c-.18-1.225-.761-3.743-2.566-4.883s-4.328-.583-5.512-.219a.831.831,0,0,0-.587.928C82.892,25.886,83.473,28.4,85.279,29.543Z" style="fill:#c7ff76"/><path d="M40.427,15.632c1.789-1.167,2.332-3.692,2.494-4.921a.832.832,0,0,0-.6-.919c-1.189-.347-3.72-.866-5.508.3s-2.332,3.692-2.494,4.92a.832.832,0,0,0,.6.92C36.109,16.28,38.639,16.8,40.427,15.632Z" style="fill:#c7ff76"/><path d="M74.461,110.008C71,99.083,62.5,92.375,58.333,97.367,54.361,102.126,60.417,110.292,74.461,110.008Z" style="fill:#2add77"/><path d="M93.73,114.82c8.316-1.942,12.078-6.17,9.688-8.843C100.675,102.909,97.08,105.864,93.73,114.82Z" style="fill:#2add77"/><path d="M80.559,126.2H45.364A3.407,3.407,0,0,1,42,123.379c-1.243-7.108-2.784-12.237-4.021-13.389-2.088-1.939-6.991-1.423-10.932-1.009-1.327.14-2.58.273-3.7.318-9.677.489-10.232-5.734-10.786-11.76a36.514,36.514,0,0,0-1.093-6.94A8.362,8.362,0,0,0,7.34,85.434c-1.613-1.064-3.442-2.27-3.282-5.32.077-1.476,1.24-2.763,2.712-4.392,2.269-2.512,5.376-5.951,5.389-11.391.007-1.41-.14-3.293-.282-5.113-.114-1.471-.222-2.861-.259-4.054-.6-19.118,15.964-34.237,38.517-35.17a1.25,1.25,0,1,1,.1,2.5C29.1,23.366,13.566,37.379,14.117,55.086c.035,1.136.141,2.5.253,3.938.146,1.871.3,3.805.289,5.316-.015,6.394-3.637,10.4-6.034,13.057-1,1.111-2.04,2.258-2.07,2.848-.082,1.558.563,2.048,2.161,3.1a10.852,10.852,0,0,1,5.149,6.55,38.9,38.9,0,0,1,1.183,7.415c.566,6.153.9,9.87,8.182,9.491,1.054-.043,2.269-.171,3.554-.307,4.674-.493,9.974-1.052,12.9,1.665,2.167,2.015,3.8,9.154,4.782,14.788a.91.91,0,0,0,.9.753h35.2a1.25,1.25,0,0,1,0,2.5Z" style="fill:#55498c"/><path d="M18.605,69.377a3.64,3.64,0,0,1-1.9-.52,1.25,1.25,0,0,1,1.282-2.146c1.039.62,2.621-.7,2.637-.713a1.25,1.25,0,0,1,1.649,1.879A5.965,5.965,0,0,1,18.605,69.377Z" style="fill:#55498c"/><path d="M13.715,92.712a7.36,7.36,0,0,1-.927-.049,1.25,1.25,0,0,1,.339-2.477A11.747,11.747,0,0,0,18.879,89a1.25,1.25,0,1,1,1.036,2.275A15.154,15.154,0,0,1,13.715,92.712Z" style="fill:#55498c"/><path d="M83.142,98.617l-.074,0c-.255-.015-25.576-1.886-29.195-34.2a61.434,61.434,0,0,1-.02-11.826,73.261,73.261,0,0,0-1.774-24.1c-1.267-5.725,1.152-10.68,6.166-12.625,4.566-1.769,11.2-.693,14.964,5.859,2.656,4.615,5.94,9.2,9.116,13.642,4.419,6.174,8.988,12.559,11.955,19.142C107.773,84.448,84,98.318,83.757,98.455A1.242,1.242,0,0,1,83.142,98.617ZM62.366,17.6a8.93,8.93,0,0,0-3.218.589c-3.022,1.172-5.825,4.35-4.628,9.753a76.346,76.346,0,0,1,1.828,24.807,59.355,59.355,0,0,0,.009,11.38c3.154,28.164,23.516,31.6,26.5,31.95C85.671,94.339,103.842,81.809,92,55.532c-2.865-6.357-7.36-12.639-11.708-18.714-3.211-4.487-6.533-9.128-9.25-13.851A9.943,9.943,0,0,0,62.366,17.6Z" style="fill:#55498c"/><path d="M85.126,125.147a1.249,1.249,0,0,1-1.112-.676C81.5,119.6,80.727,109.678,81.9,97.25c1.66-17.626-3.311-43.8-13.356-54.669a1.25,1.25,0,1,1,1.836-1.7c10.84,11.73,15.712,38.513,14.009,56.6-1.11,11.787-.418,21.448,1.85,25.84a1.25,1.25,0,0,1-.538,1.684A1.237,1.237,0,0,1,85.126,125.147Z" style="fill:#55498c"/><path d="M87.043,100.118a1.25,1.25,0,0,1-.18-2.486c13.267-1.954,27.356-11.121,27.112-30.991-.082-6.672,1.209-12.867,2.247-17.843,1.165-5.584,2.084-9.994.614-12.212a4.5,4.5,0,0,0-3.078-1.734c-4.539-.9-7.609,2.449-11.49,6.683a42.842,42.842,0,0,1-7.894,7.26A1.25,1.25,0,0,1,93,46.705a40.951,40.951,0,0,0,7.424-6.859c4.061-4.43,7.895-8.615,13.817-7.448a6.838,6.838,0,0,1,4.678,2.807c2.047,3.088,1.033,7.949-.251,14.1a78.234,78.234,0,0,0-2.194,17.3c.264,21.505-15.591,31.485-29.248,33.5A1.14,1.14,0,0,1,87.043,100.118Z" style="fill:#55498c"/><path d="M78.81,115.659a1.247,1.247,0,0,1-.793-.284,33.135,33.135,0,0,1-4.548-4.606,1.25,1.25,0,1,1,1.985-1.52,31.013,31.013,0,0,0,4.151,4.194,1.25,1.25,0,0,1-.8,2.216Z" style="fill:#55498c"/><path d="M73.747,111.266c-9.914,0-15.422-4.094-17.141-7.674a6.307,6.307,0,0,1,.768-7.026,5.685,5.685,0,0,1,5.686-2c4.911.966,10.089,7.162,12.593,15.065a1.25,1.25,0,0,1-1.166,1.628Q74.114,111.267,73.747,111.266ZM61.781,96.938a3.117,3.117,0,0,0-2.488,1.23,3.851,3.851,0,0,0-.434,4.342c1.447,3.012,6.244,5.982,13.841,6.238-2.6-6.848-7.025-11.119-10.123-11.729A4.159,4.159,0,0,0,61.781,96.938Z" style="fill:#55498c"/><path d="M93.729,116.069a1.249,1.249,0,0,1-1.17-1.688c2.476-6.618,5.141-10.239,7.92-10.762a4.036,4.036,0,0,1,3.871,1.525,3.817,3.817,0,0,1,.831,3.819c-.94,2.975-5.219,5.685-11.167,7.073A1.205,1.205,0,0,1,93.729,116.069Zm7.444-10.015a1.264,1.264,0,0,0-.233.022c-.587.111-2.553.945-5.111,6.867,4.191-1.357,6.5-3.266,6.967-4.733a1.318,1.318,0,0,0-.31-1.4A1.787,1.787,0,0,0,101.173,106.054Z" style="fill:#55498c"/><path d="M87.948,120.471a1.25,1.25,0,0,1-.627-2.332,21.685,21.685,0,0,0,5.442-4.113,1.25,1.25,0,0,1,1.937,1.581,23.35,23.35,0,0,1-6.126,4.7A1.249,1.249,0,0,1,87.948,120.471Z" style="fill:#55498c"/><path d="M87.95,31.475a6.185,6.185,0,0,1-3.339-.875h0c-2.2-1.387-2.907-4.2-3.135-5.758a2.083,2.083,0,0,1,1.455-2.3c1.5-.464,4.351-1.032,6.548.358s2.907,4.2,3.135,5.757a2.083,2.083,0,0,1-1.455,2.3A11.2,11.2,0,0,1,87.95,31.475Zm-3.943-6.647c.19,1.037.694,2.871,1.939,3.658h0c1.245.788,3.117.453,4.137.18-.191-1.037-.694-2.871-1.939-3.658S85.026,24.555,84.007,24.828Z" style="fill:#55498c"/><path d="M37.657,17.6a11.333,11.333,0,0,1-3.086-.469A2.083,2.083,0,0,1,33.08,14.85c.2-1.558.874-4.384,3.049-5.8s5.034-.893,6.541-.454a2.08,2.08,0,0,1,1.49,2.284c-.2,1.558-.874,4.383-3.05,5.8h0A6.251,6.251,0,0,1,37.657,17.6Zm-2.046-2.777c1.023.259,2.9.564,4.133-.241h0c1.234-.805,1.71-2.646,1.885-3.686-1.025-.259-2.9-.565-4.133.241S35.786,13.786,35.611,14.826Z" style="fill:#55498c"/></svg>