<svg id="LinealColor" xmlns="http://www.w3.org/2000/svg" viewBox="0 0 128 128"><title>Treatment, healing, mental health, healthcare, medical, patient, Gauze</title><path d="M97.772,99.053c-.273-4.3,1.03-10.247,3.663-13.663,10.5-13.626,15.158-25.432,12.96-39.962C110.832,21.88,94.2,9.407,71.208,8.227c-25.129-1.3-46.65,14.84-45.957,37.1.091,2.938.605,7.265.593,10.092-.024,10.042-8.713,14.167-8.88,17.363-.274,5.248,5.891,3.609,8.065,11.033,2.76,9.425-1.2,20.173,11.648,19.509,5.125-.206,13.453-2.195,17.023,1.124,2.276,2.116,4.108,11.352,4.823,15.439a2.369,2.369,0,0,0,2.338,1.958H99.43a2.37,2.37,0,0,0,2.282-3.029C100.429,114.4,98.211,105.966,97.772,99.053Z" style="fill:#8bcffc"/><path d="M114.77,55.85a43.076,43.076,0,0,1-3.35,13.18C82.68,63.74,79.18,54.17,52.04,47.15c-9.53-1.06-18.7-1.56-26.75-.87-.02-.33-.03-.65-.04-.95-.69-22.26,20.83-38.4,45.96-37.1,22.99,1.18,39.62,13.65,43.18,37.2A43.819,43.819,0,0,1,114.77,55.85Z" style="fill:#eeefe1"/><path d="M114.77,55.85a43.076,43.076,0,0,1-3.35,13.18C82.68,63.74,79.18,54.17,52.04,47.15,74.36,49.64,98.6,55.23,114.77,55.85Z" style="fill:#e5e5d1"/><path d="M51.34,11c16.88,1.33,45.15,22.87,45.15,22.87-24.15-6-59.17-8.38-67.14-5.31C33.85,20.55,41.73,14.37,51.34,11Z" style="fill:#e5e5d1"/><path d="M99.43,123.1H60.861a3.615,3.615,0,0,1-3.569-2.993c-1.367-7.813-3.069-13.461-4.443-14.74-2.328-2.162-7.73-1.593-12.071-1.136-1.453.153-2.825.3-4.051.347-10.487.552-11.094-6.23-11.7-12.778a40.027,40.027,0,0,0-1.2-7.628,9.276,9.276,0,0,0-4.569-5.728c-1.741-1.147-3.715-2.448-3.544-5.722.082-1.575,1.344-2.972,2.941-4.74,2.5-2.766,5.923-6.555,5.937-12.561.007-1.549-.154-3.612-.309-5.608-.125-1.613-.243-3.135-.284-4.442A34.067,34.067,0,0,1,34.542,19.8C43.613,10.913,57,6.242,71.272,6.979c24.7,1.268,40.872,15.213,44.359,38.262,2.108,13.933-1.842,26.168-13.206,40.911-2.531,3.285-3.644,9.058-3.405,12.822.431,6.788,2.624,15.128,3.892,19.5A3.619,3.619,0,0,1,99.43,123.1Zm-52.6-21.8c3.036,0,5.838.493,7.717,2.24,2.35,2.186,4.127,9.983,5.2,16.139a1.117,1.117,0,0,0,1.106.924H99.43a1.121,1.121,0,0,0,1.082-1.43c-1.3-4.467-3.541-13.009-3.987-20.035-.275-4.325.984-10.7,3.919-14.505,11.054-14.341,14.738-25.644,12.715-39.013C109.866,23.85,94.552,10.677,71.144,9.475c-13.582-.693-26.279,3.713-34.853,12.111A31.18,31.18,0,0,0,26.5,45.29c.039,1.249.155,2.743.278,4.325.159,2.047.323,4.162.316,5.811-.016,6.963-3.967,11.336-6.582,14.229-1.113,1.232-2.263,2.506-2.3,3.195-.093,1.773.63,2.323,2.422,3.5a11.791,11.791,0,0,1,5.594,7.112,42.7,42.7,0,0,1,1.292,8.1c.625,6.815.986,10.916,9.091,10.51,1.159-.047,2.492-.187,3.9-.336A61.2,61.2,0,0,1,46.834,101.294Z" style="fill:#55498c"/><path d="M111.689,56.931c-.03,0-.059,0-.089,0-8.7-.612-19.267-2.362-30.454-4.214-9.634-1.6-19.6-3.245-29.245-4.321a149.6,149.6,0,0,0-23.65-1.061,1.25,1.25,0,0,1-.126-2.5,151.4,151.4,0,0,1,24.053,1.072c9.714,1.083,19.71,2.738,29.377,4.34,11.127,1.842,21.636,3.583,30.22,4.186a1.25,1.25,0,0,1-.086,2.5Z" style="fill:#55498c"/><path d="M107.541,69.509a1.254,1.254,0,0,1-.264-.028c-13.223-2.835-20.7-6.6-28.61-10.581-7.174-3.611-14.594-7.346-26.94-10.54l-.029-.007c-.042-.01-.092-.024-.122-.034a1.25,1.25,0,0,1,.768-2.379l.009,0v0C64.958,49.2,72.5,53,79.792,56.668c7.765,3.909,15.1,7.6,28.009,10.368a1.25,1.25,0,0,1-.26,2.473Z" style="fill:#55498c"/><path d="M109.731,39.284a1.249,1.249,0,0,1-.475-.094,95.8,95.8,0,0,0-13.067-4.107c-21.729-5.4-51.1-7.693-62.837-6.139a1.25,1.25,0,1,1-.329-2.478c11.965-1.583,41.777.727,63.769,6.191a98.225,98.225,0,0,1,13.415,4.221,1.25,1.25,0,0,1-.476,2.406Z" style="fill:#55498c"/><path d="M96.489,35.12a1.239,1.239,0,0,1-.756-.256C95.52,34.7,74.2,18.549,57.915,13.606a1.25,1.25,0,1,1,.725-2.392C75.362,16.288,96.362,32.2,97.248,32.876a1.25,1.25,0,0,1-.759,2.244Z" style="fill:#55498c"/><path d="M31.54,60.827a3.885,3.885,0,0,1-2.024-.553A1.25,1.25,0,0,1,30.8,58.128c1.211.726,3.015-.782,3.034-.8a1.25,1.25,0,0,1,1.646,1.881A6.407,6.407,0,0,1,31.54,60.827Z" style="fill:#55498c"/><path d="M26.182,86.4a7.955,7.955,0,0,1-1-.052,1.251,1.251,0,0,1,.34-2.478,12.981,12.981,0,0,0,6.368-1.312,1.25,1.25,0,0,1,1.036,2.275A16.473,16.473,0,0,1,26.182,86.4Z" style="fill:#55498c"/></svg>