<svg width="22" height="22" viewBox="0 0 22 22" fill="none" xmlns="http://www.w3.org/2000/svg">
<path d="M20.75 8.75H15.5V2.75C15.4993 2.15346 15.2621 1.58155 14.8403 1.15973C14.4185 0.737918 13.8465 0.500655 13.25 0.5H2.75C2.15346 0.500655 1.58155 0.737918 1.15973 1.15973C0.737918 1.58155 0.500655 2.15346 0.5 2.75V19.25C0.500655 19.8465 0.737918 20.4185 1.15973 20.8403C1.58155 21.2621 2.15346 21.4993 2.75 21.5H17.75C18.7442 21.4988 19.6973 21.1034 20.4004 20.4004C21.1034 19.6973 21.4988 18.7442 21.5 17.75V9.5C21.5 9.30109 21.421 9.11032 21.2803 8.96967C21.1397 8.82902 20.9489 8.75 20.75 8.75ZM2 19.25V2.75C2.00018 2.55114 2.07925 2.36048 2.21987 2.21987C2.36048 2.07925 2.55114 2.00018 2.75 2H13.25C13.4489 2.00018 13.6395 2.07925 13.7801 2.21987C13.9207 2.36048 13.9998 2.55114 14 2.75V20H2.75C2.55114 19.9998 2.36048 19.9207 2.21987 19.7801C2.07925 19.6395 2.00018 19.4489 2 19.25ZM20 17.75C19.9993 18.3465 19.7621 18.9185 19.3403 19.3403C18.9185 19.7621 18.3465 19.9993 17.75 20H15.5V10.25H20V17.75Z" fill="#2F4CDD"/>
<path d="M11.3001 5.15L8.72416 7.0814L6.91613 5.876C6.7929 5.79395 6.64815 5.75017 6.50011 5.75017C6.35206 5.75017 6.20731 5.79395 6.08408 5.876L3.83408 7.376C3.75115 7.4302 3.67978 7.50029 3.62409 7.58223C3.5684 7.66416 3.5295 7.75632 3.50963 7.85338C3.48976 7.95043 3.48931 8.05047 3.50832 8.14769C3.52732 8.24492 3.5654 8.33742 3.62036 8.41985C3.67532 8.50228 3.74606 8.57301 3.8285 8.62794C3.91094 8.68288 4.00345 8.72094 4.10069 8.73992C4.19792 8.7589 4.29795 8.75843 4.39501 8.73853C4.49206 8.71864 4.58421 8.67971 4.66613 8.624L6.50011 7.40127L8.33408 8.62378C8.46306 8.71017 8.61571 8.7543 8.77089 8.75004C8.92607 8.74578 9.07607 8.69334 9.20011 8.6L12.2001 6.35C12.2789 6.29091 12.3453 6.21687 12.3955 6.13212C12.4457 6.04737 12.4786 5.95357 12.4926 5.85607C12.5065 5.75856 12.5011 5.65927 12.4767 5.56386C12.4522 5.46845 12.4092 5.37879 12.3501 5.3C12.291 5.22121 12.217 5.15482 12.1322 5.10464C12.0475 5.05446 11.9537 5.02147 11.8562 5.00754C11.7587 4.99361 11.6594 4.99902 11.564 5.02346C11.4686 5.04791 11.3789 5.0909 11.3001 5.15Z" fill="#2F4CDD"/>
<path d="M4.25 13.25H8C8.19891 13.25 8.38968 13.171 8.53033 13.0303C8.67098 12.8897 8.75 12.6989 8.75 12.5C8.75 12.3011 8.67098 12.1103 8.53033 11.9697C8.38968 11.829 8.19891 11.75 8 11.75H4.25C4.05109 11.75 3.86032 11.829 3.71967 11.9697C3.57902 12.1103 3.5 12.3011 3.5 12.5C3.5 12.6989 3.57902 12.8897 3.71967 13.0303C3.86032 13.171 4.05109 13.25 4.25 13.25Z" fill="#2F4CDD"/>
<path d="M11 14.75H4.25C4.05109 14.75 3.86032 14.829 3.71967 14.9697C3.57902 15.1103 3.5 15.3011 3.5 15.5C3.5 15.6989 3.57902 15.8897 3.71967 16.0303C3.86032 16.171 4.05109 16.25 4.25 16.25H11C11.1989 16.25 11.3897 16.171 11.5303 16.0303C11.671 15.8897 11.75 15.6989 11.75 15.5C11.75 15.3011 11.671 15.1103 11.5303 14.9697C11.3897 14.829 11.1989 14.75 11 14.75Z" fill="#2F4CDD"/>
</svg>
