<svg width="24" height="24" viewBox="0 0 24 24" fill="none" xmlns="http://www.w3.org/2000/svg">
<path d="M9.75 12.75C10.3433 12.75 10.9234 12.5741 11.4167 12.2444C11.9101 11.9148 12.2946 11.4462 12.5216 10.8981C12.7487 10.3499 12.8081 9.74667 12.6924 9.16473C12.5766 8.58279 12.2909 8.04824 11.8713 7.62868C11.4518 7.20912 10.9172 6.9234 10.3353 6.80765C9.75333 6.69189 9.15013 6.7513 8.60195 6.97836C8.05377 7.20543 7.58524 7.58994 7.25559 8.08329C6.92595 8.57664 6.75 9.15666 6.75 9.75C6.75077 10.5454 7.06709 11.308 7.62954 11.8705C8.19198 12.4329 8.95459 12.7492 9.75 12.75ZM9.75 8.25C10.0467 8.25 10.3367 8.33798 10.5834 8.5028C10.83 8.66762 11.0223 8.90189 11.1358 9.17598C11.2494 9.45007 11.2791 9.75167 11.2212 10.0426C11.1633 10.3336 11.0204 10.6009 10.8107 10.8107C10.6009 11.0204 10.3336 11.1633 10.0426 11.2212C9.75166 11.2791 9.45006 11.2494 9.17598 11.1358C8.90189 11.0223 8.66762 10.83 8.5028 10.5834C8.33797 10.3367 8.25 10.0467 8.25 9.75C8.25054 9.35234 8.40874 8.97112 8.68993 8.68993C8.97112 8.40874 9.35234 8.25054 9.75 8.25Z" fill="#2F4CDD"/>
<path d="M21.4681 14.6775C21.7157 14.3459 21.8811 13.9603 21.9507 13.5524C22.0204 13.1444 21.9923 12.7258 21.8687 12.3308L21.3926 10.7818C21.1691 10.0471 20.7147 9.40402 20.0968 8.94796C19.4789 8.4919 18.7305 8.24716 17.9626 8.25002H14.5972C14.3983 8.25002 14.2076 8.32904 14.0669 8.46969C13.9263 8.61035 13.8472 8.80111 13.8472 9.00002C13.8472 9.19894 13.9263 9.3897 14.0669 9.53035C14.2076 9.67101 14.3983 9.75002 14.5972 9.75002H17.9626C18.4094 9.74849 18.8449 9.891 19.2044 10.1564C19.5639 10.4219 19.8283 10.7961 19.9584 11.2236L20.4345 12.772C20.487 12.9428 20.4988 13.1235 20.4688 13.2997C20.4387 13.4758 20.3678 13.6425 20.2617 13.7862C20.1556 13.93 20.0172 14.0468 19.8577 14.1274C19.6982 14.2079 19.522 14.2499 19.3433 14.25H12.4666C12.4454 14.25 12.4276 14.2603 12.4066 14.2621C12.3562 14.2601 12.3076 14.25 12.2564 14.25H7.55392C6.72048 14.247 5.90828 14.5128 5.23788 15.0079C4.56748 15.5031 4.07463 16.2013 3.83249 16.9988L3.27254 18.8175C3.14175 19.2431 3.11263 19.6935 3.18754 20.1324C3.26244 20.5714 3.43927 20.9866 3.70382 21.3448C3.96837 21.7029 4.31326 21.994 4.71076 22.1947C5.10827 22.3953 5.5473 22.4999 5.99257 22.5H13.8172C14.2625 22.4999 14.7016 22.3954 15.0991 22.1948C15.4967 21.9941 15.8416 21.703 16.1062 21.3449C16.3708 20.9867 16.5476 20.5715 16.6226 20.1325C16.6975 19.6936 16.6684 19.2432 16.5376 18.8175L15.978 16.9989C15.8362 16.546 15.6131 16.1228 15.3194 15.75H19.3433C19.757 15.7519 20.1653 15.6557 20.5347 15.4693C20.904 15.2829 21.2239 15.0115 21.4681 14.6775ZM14.8997 20.4534C14.7753 20.6236 14.6124 20.7619 14.4242 20.8569C14.236 20.9519 14.028 21.0009 13.8172 21H5.99257C5.78196 21 5.57431 20.9505 5.3863 20.8556C5.19829 20.7607 5.03517 20.6231 4.91007 20.4536C4.78497 20.2842 4.70138 20.0878 4.66602 19.8802C4.63065 19.6726 4.64451 19.4596 4.70647 19.2583L5.26604 17.4397C5.4147 16.9494 5.7176 16.5201 6.12972 16.2157C6.54184 15.9113 7.04118 15.748 7.55354 15.75H12.256C12.7684 15.748 13.2677 15.9113 13.6798 16.2157C14.092 16.5201 14.3949 16.9494 14.5435 17.4397L15.1031 19.2583C15.1662 19.4594 15.1807 19.6726 15.1453 19.8804C15.11 20.0883 15.0258 20.2847 14.8997 20.4536V20.4534Z" fill="#2F4CDD"/>
<path d="M16.125 6.74999C16.6442 6.74999 17.1517 6.59604 17.5834 6.3076C18.015 6.01916 18.3515 5.6092 18.5502 5.12954C18.7489 4.64988 18.8008 4.12209 18.6996 3.61289C18.5983 3.10369 18.3483 2.63596 17.9812 2.26884C17.614 1.90173 17.1463 1.65173 16.6371 1.55044C16.1279 1.44915 15.6001 1.50114 15.1205 1.69982C14.6408 1.8985 14.2308 2.23495 13.9424 2.66663C13.654 3.09831 13.5 3.60582 13.5 4.125C13.5008 4.82093 13.7777 5.48813 14.2698 5.98023C14.7619 6.47233 15.4291 6.74916 16.125 6.74999ZM16.125 3C16.3475 3 16.565 3.06598 16.75 3.1896C16.935 3.31321 17.0792 3.48891 17.1644 3.69448C17.2495 3.90005 17.2718 4.12625 17.2284 4.34447C17.185 4.5627 17.0778 4.76316 16.9205 4.92049C16.7632 5.07783 16.5627 5.18497 16.3445 5.22838C16.1262 5.27179 15.9 5.24951 15.6945 5.16436C15.4889 5.07921 15.3132 4.93502 15.1896 4.75001C15.066 4.56501 15 4.3475 15 4.125C15.0003 3.82673 15.119 3.54078 15.3299 3.32988C15.5408 3.11897 15.8267 3.00034 16.125 3Z" fill="#2F4CDD"/>
</svg>
