<svg width="866" height="506" viewBox="0 0 866 506" fill="none" xmlns="http://www.w3.org/2000/svg">
<path d="M433 284.516C491.816 284.516 543.776 300.934 585.993 322.403C624.963 342.61 649.5 388.075 649.5 437.329V463.429C649.5 486.582 633.262 505.526 613.417 505.526H252.583C232.737 505.526 216.5 486.582 216.5 463.429V437.75C216.5 388.075 241.037 342.61 280.007 322.824C322.224 300.934 374.184 284.516 433 284.516ZM144.333 295.04C184.025 295.04 216.5 257.153 216.5 210.846C216.5 164.539 184.025 126.651 144.333 126.651C104.642 126.651 72.1667 164.539 72.1667 210.846C72.1667 257.153 104.642 295.04 144.333 295.04ZM185.107 341.347C171.757 338.821 158.406 337.137 144.333 337.137C108.611 337.137 74.6925 345.978 44.0217 361.554C17.32 375.025 0 405.335 0 439.434V463.429C0 486.582 16.2375 505.526 36.0833 505.526H162.375V437.75C162.375 402.809 170.674 369.973 185.107 341.347ZM721.667 295.04C761.358 295.04 793.833 257.153 793.833 210.846C793.833 164.539 761.358 126.651 721.667 126.651C681.975 126.651 649.5 164.539 649.5 210.846C649.5 257.153 681.975 295.04 721.667 295.04ZM866 439.434C866 405.335 848.68 375.025 821.978 361.554C791.307 345.978 757.389 337.137 721.667 337.137C707.594 337.137 694.243 338.821 680.893 341.347C695.326 369.973 703.625 402.809 703.625 437.75V505.526H829.917C849.762 505.526 866 486.582 866 463.429V439.434ZM433 0.359619C492.898 0.359619 541.25 56.7699 541.25 126.651C541.25 196.533 492.898 252.943 433 252.943C373.102 252.943 324.75 196.533 324.75 126.651C324.75 56.7699 373.102 0.359619 433 0.359619Z" fill="#38ABF5"/>
</svg>
