<svg width="24" height="24" viewBox="0 0 24 24" fill="none" xmlns="http://www.w3.org/2000/svg">
<path d="M12 21.75C14.5859 21.75 17.0658 20.7228 18.8943 18.8943C20.7228 17.0658 21.75 14.5859 21.75 12C21.75 9.41414 20.7228 6.93419 18.8943 5.10571C17.0658 3.27723 14.5859 2.25 12 2.25C11.8011 2.25 11.6103 2.32902 11.4697 2.46967C11.329 2.61032 11.25 2.80109 11.25 3V5.25C11.25 5.44891 11.329 5.63968 11.4697 5.78033C11.6103 5.92098 11.8011 6 12 6C12.1989 6 12.3897 5.92098 12.5303 5.78033C12.671 5.63968 12.75 5.44891 12.75 5.25V3.78367C14.3112 3.9263 15.7995 4.51081 17.0405 5.46877C18.2816 6.42672 19.2239 7.71844 19.7573 9.19266C20.2907 10.6669 20.393 12.2626 20.0522 13.7928C19.7114 15.3231 18.9417 16.7245 17.8331 17.8331C16.7245 18.9417 15.3231 19.7114 13.7928 20.0522C12.2626 20.393 10.6669 20.2907 9.19266 19.7573C7.71844 19.2239 6.42672 18.2816 5.46877 17.0405C4.51081 15.7995 3.9263 14.3112 3.78367 12.75H5.25C5.44891 12.75 5.63968 12.671 5.78033 12.5303C5.92098 12.3897 6 12.1989 6 12C6 11.8011 5.92098 11.6103 5.78033 11.4697C5.63968 11.329 5.44891 11.25 5.25 11.25H3C2.80109 11.25 2.61032 11.329 2.46967 11.4697C2.32902 11.6103 2.25 11.8011 2.25 12C2.25292 14.585 3.28108 17.0632 5.10893 18.8911C6.93678 20.7189 9.41503 21.7471 12 21.75Z" fill="#2F4CDD"/>
<path d="M10.5558 11.6164C10.5205 11.7413 10.5017 11.8702 10.4999 12C10.4999 12.2966 10.5879 12.5866 10.7527 12.8333C10.9176 13.08 11.1518 13.2722 11.4259 13.3858C11.7 13.4993 12.0016 13.529 12.2926 13.4711C12.5836 13.4133 12.8508 13.2704 13.0606 13.0606C13.2704 12.8508 13.4133 12.5836 13.4711 12.2926C13.529 12.0016 13.4993 11.7 13.3858 11.4259C13.2722 11.1518 13.08 10.9176 12.8333 10.7527C12.5866 10.5879 12.2966 10.4999 12 10.4999C11.8702 10.5017 11.7412 10.5205 11.6164 10.5559L6.15519 5.09469C6.08601 5.02306 6.00325 4.96592 5.91174 4.92661C5.82024 4.88731 5.72183 4.86662 5.62224 4.86575C5.52266 4.86489 5.4239 4.88386 5.33172 4.92157C5.23955 4.95928 5.15581 5.01497 5.08539 5.08539C5.01497 5.15581 4.95928 5.23955 4.92157 5.33172C4.88386 5.4239 4.86489 5.52266 4.86575 5.62224C4.86662 5.72183 4.88731 5.82024 4.92661 5.91174C4.96592 6.00325 5.02306 6.08601 5.09469 6.15519L10.5558 11.6164Z" fill="#2F4CDD"/>
<path d="M15.75 12C15.75 12.1989 15.829 12.3897 15.9697 12.5303C16.1103 12.671 16.3011 12.75 16.5 12.75H18C18.1989 12.75 18.3897 12.671 18.5303 12.5303C18.671 12.3897 18.75 12.1989 18.75 12C18.75 11.8011 18.671 11.6103 18.5303 11.4697C18.3897 11.329 18.1989 11.25 18 11.25H16.5C16.3011 11.25 16.1103 11.329 15.9697 11.4697C15.829 11.6103 15.75 11.8011 15.75 12Z" fill="#2F4CDD"/>
<path d="M15.7124 7.2269L14.6513 8.28762C14.5816 8.35726 14.5263 8.43993 14.4886 8.53093C14.4509 8.62193 14.4314 8.71947 14.4314 8.81799C14.4314 8.9165 14.4507 9.01405 14.4884 9.10508C14.5261 9.1961 14.5813 9.27882 14.6509 9.3485C14.7206 9.41818 14.8032 9.47347 14.8942 9.5112C14.9852 9.54893 15.0828 9.56837 15.1813 9.5684C15.2798 9.56844 15.3773 9.54907 15.4684 9.5114C15.5594 9.47374 15.6421 9.41851 15.7118 9.34888L16.7731 8.28837C16.8428 8.21873 16.8981 8.13603 16.9359 8.04501C16.9736 7.95399 16.993 7.85643 16.9931 7.7579C16.9931 7.65937 16.9737 7.56179 16.9361 7.47075C16.8984 7.3797 16.8432 7.29697 16.7735 7.22727C16.7039 7.15758 16.6212 7.10228 16.5301 7.06454C16.4391 7.0268 16.3416 7.00736 16.243 7.00732C16.1445 7.00729 16.0469 7.02666 15.9559 7.06434C15.8648 7.10201 15.7821 7.15725 15.7124 7.2269Z" fill="#2F4CDD"/>
</svg>
