<svg width="31" height="32" viewBox="0 0 31 32" fill="none" xmlns="http://www.w3.org/2000/svg">
<g opacity="0.6">
<mask id="path-1-outside-1" maskUnits="userSpaceOnUse" x="0" y="0" width="31" height="32" fill="black">
<rect fill="white" width="31" height="32"/>
<path fill-rule="evenodd" clip-rule="evenodd" d="M5.88995 1.07382C4.66026 1.28934 3.60334 1.80852 2.75829 2.61212C1.73621 3.58398 1.18163 4.72375 1.05299 6.11661C0.982336 6.88215 0.982336 25.1163 1.05299 25.8818C1.10985 26.4976 1.19225 26.8599 1.39488 27.3851C1.99651 28.9447 3.42693 30.2478 5.06203 30.7259C5.99996 31 5.99703 30.9999 10.7589 31C13.7407 31 15.2021 30.9832 15.3 30.9477C15.6268 30.8294 15.8806 30.4781 15.8806 30.1441C15.8806 29.8036 15.7035 29.5427 15.3567 29.3722C15.174 29.2824 14.9905 29.2786 10.8156 29.278C6.75245 29.2774 6.43436 29.2712 6.00309 29.1847C5.16075 29.0156 4.49509 28.6527 3.89546 28.0358C3.33544 27.4597 2.97395 26.7418 2.84798 25.9557C2.81027 25.7205 2.79769 22.5584 2.80755 15.7779L2.82176 5.94128L2.96241 5.51176C3.4197 4.11506 4.55969 3.10356 6.00309 2.81377C6.43441 2.72721 6.75629 2.72096 10.8777 2.71934C15.0616 2.71772 15.3014 2.7129 15.4998 2.62653C16.1653 2.3368 16.1917 1.46139 15.5455 1.11061L15.3418 1L10.8007 1.00452C7.28162 1.00802 6.17642 1.02361 5.88995 1.07382ZM23.1742 9.72847C22.7771 9.84641 22.5511 10.1407 22.5511 10.5399C22.5511 10.6498 22.5835 10.811 22.623 10.898C22.6633 10.9868 23.6207 11.9415 24.8037 13.0726C25.9636 14.1816 26.9126 15.1056 26.9126 15.126C26.9126 15.1464 22.7768 15.1631 17.722 15.1631C8.54692 15.1631 8.53101 15.1632 8.34388 15.2641C7.76021 15.5785 7.73163 16.3663 8.29098 16.7211L8.50987 16.8599L17.722 16.8729L26.9341 16.8858L24.7971 18.9385C23.6218 20.0676 22.6357 21.0536 22.6057 21.1297C22.529 21.3244 22.5378 21.6849 22.6232 21.8422C22.723 22.026 22.9029 22.1777 23.1275 22.2677C23.3718 22.3656 23.542 22.3639 23.7749 22.2613C24.0021 22.1612 29.7847 16.633 29.9153 16.391C30.0247 16.1882 30.0288 15.8168 29.9238 15.6266C29.8801 15.5475 28.4978 14.1949 26.852 12.6208C24.6186 10.4849 23.8205 9.75075 23.7056 9.72675C23.621 9.70909 23.5171 9.6873 23.4747 9.67835C23.4324 9.6694 23.2971 9.69198 23.1742 9.72847Z"/>
</mask>
<path fill-rule="evenodd" clip-rule="evenodd" d="M5.88995 1.07382C4.66026 1.28934 3.60334 1.80852 2.75829 2.61212C1.73621 3.58398 1.18163 4.72375 1.05299 6.11661C0.982336 6.88215 0.982336 25.1163 1.05299 25.8818C1.10985 26.4976 1.19225 26.8599 1.39488 27.3851C1.99651 28.9447 3.42693 30.2478 5.06203 30.7259C5.99996 31 5.99703 30.9999 10.7589 31C13.7407 31 15.2021 30.9832 15.3 30.9477C15.6268 30.8294 15.8806 30.4781 15.8806 30.1441C15.8806 29.8036 15.7035 29.5427 15.3567 29.3722C15.174 29.2824 14.9905 29.2786 10.8156 29.278C6.75245 29.2774 6.43436 29.2712 6.00309 29.1847C5.16075 29.0156 4.49509 28.6527 3.89546 28.0358C3.33544 27.4597 2.97395 26.7418 2.84798 25.9557C2.81027 25.7205 2.79769 22.5584 2.80755 15.7779L2.82176 5.94128L2.96241 5.51176C3.4197 4.11506 4.55969 3.10356 6.00309 2.81377C6.43441 2.72721 6.75629 2.72096 10.8777 2.71934C15.0616 2.71772 15.3014 2.7129 15.4998 2.62653C16.1653 2.3368 16.1917 1.46139 15.5455 1.11061L15.3418 1L10.8007 1.00452C7.28162 1.00802 6.17642 1.02361 5.88995 1.07382ZM23.1742 9.72847C22.7771 9.84641 22.5511 10.1407 22.5511 10.5399C22.5511 10.6498 22.5835 10.811 22.623 10.898C22.6633 10.9868 23.6207 11.9415 24.8037 13.0726C25.9636 14.1816 26.9126 15.1056 26.9126 15.126C26.9126 15.1464 22.7768 15.1631 17.722 15.1631C8.54692 15.1631 8.53101 15.1632 8.34388 15.2641C7.76021 15.5785 7.73163 16.3663 8.29098 16.7211L8.50987 16.8599L17.722 16.8729L26.9341 16.8858L24.7971 18.9385C23.6218 20.0676 22.6357 21.0536 22.6057 21.1297C22.529 21.3244 22.5378 21.6849 22.6232 21.8422C22.723 22.026 22.9029 22.1777 23.1275 22.2677C23.3718 22.3656 23.542 22.3639 23.7749 22.2613C24.0021 22.1612 29.7847 16.633 29.9153 16.391C30.0247 16.1882 30.0288 15.8168 29.9238 15.6266C29.8801 15.5475 28.4978 14.1949 26.852 12.6208C24.6186 10.4849 23.8205 9.75075 23.7056 9.72675C23.621 9.70909 23.5171 9.6873 23.4747 9.67835C23.4324 9.6694 23.2971 9.69198 23.1742 9.72847Z" fill="#67676A"/>
<path fill-rule="evenodd" clip-rule="evenodd" d="M5.88995 1.07382C4.66026 1.28934 3.60334 1.80852 2.75829 2.61212C1.73621 3.58398 1.18163 4.72375 1.05299 6.11661C0.982336 6.88215 0.982336 25.1163 1.05299 25.8818C1.10985 26.4976 1.19225 26.8599 1.39488 27.3851C1.99651 28.9447 3.42693 30.2478 5.06203 30.7259C5.99996 31 5.99703 30.9999 10.7589 31C13.7407 31 15.2021 30.9832 15.3 30.9477C15.6268 30.8294 15.8806 30.4781 15.8806 30.1441C15.8806 29.8036 15.7035 29.5427 15.3567 29.3722C15.174 29.2824 14.9905 29.2786 10.8156 29.278C6.75245 29.2774 6.43436 29.2712 6.00309 29.1847C5.16075 29.0156 4.49509 28.6527 3.89546 28.0358C3.33544 27.4597 2.97395 26.7418 2.84798 25.9557C2.81027 25.7205 2.79769 22.5584 2.80755 15.7779L2.82176 5.94128L2.96241 5.51176C3.4197 4.11506 4.55969 3.10356 6.00309 2.81377C6.43441 2.72721 6.75629 2.72096 10.8777 2.71934C15.0616 2.71772 15.3014 2.7129 15.4998 2.62653C16.1653 2.3368 16.1917 1.46139 15.5455 1.11061L15.3418 1L10.8007 1.00452C7.28162 1.00802 6.17642 1.02361 5.88995 1.07382ZM23.1742 9.72847C22.7771 9.84641 22.5511 10.1407 22.5511 10.5399C22.5511 10.6498 22.5835 10.811 22.623 10.898C22.6633 10.9868 23.6207 11.9415 24.8037 13.0726C25.9636 14.1816 26.9126 15.1056 26.9126 15.126C26.9126 15.1464 22.7768 15.1631 17.722 15.1631C8.54692 15.1631 8.53101 15.1632 8.34388 15.2641C7.76021 15.5785 7.73163 16.3663 8.29098 16.7211L8.50987 16.8599L17.722 16.8729L26.9341 16.8858L24.7971 18.9385C23.6218 20.0676 22.6357 21.0536 22.6057 21.1297C22.529 21.3244 22.5378 21.6849 22.6232 21.8422C22.723 22.026 22.9029 22.1777 23.1275 22.2677C23.3718 22.3656 23.542 22.3639 23.7749 22.2613C24.0021 22.1612 29.7847 16.633 29.9153 16.391C30.0247 16.1882 30.0288 15.8168 29.9238 15.6266C29.8801 15.5475 28.4978 14.1949 26.852 12.6208C24.6186 10.4849 23.8205 9.75075 23.7056 9.72675C23.621 9.70909 23.5171 9.6873 23.4747 9.67835C23.4324 9.6694 23.2971 9.69198 23.1742 9.72847Z" stroke="#67676A" stroke-width="1.6" mask="url(#path-1-outside-1)"/>
</g>
</svg>
