<svg width="700" height="488" viewBox="0 0 700 488" fill="none" xmlns="http://www.w3.org/2000/svg">
<g filter="url(#filter0_d)">
<path d="M349.859 0.471191C200.082 0.471191 70.7446 87.9737 9.74834 214.437C2.08389 230.405 2.08389 249.566 9.74834 265.534C70.7446 391.997 200.082 479.5 349.859 479.5C499.635 479.5 628.972 391.997 689.969 265.534C697.633 249.566 697.633 230.405 689.969 214.437C628.972 87.9737 499.635 0.471191 349.859 0.471191ZM349.859 383.694C270.659 383.694 206.15 319.185 206.15 239.985C206.15 160.786 270.659 96.2769 349.859 96.2769C429.058 96.2769 493.567 160.786 493.567 239.985C493.567 319.185 429.058 383.694 349.859 383.694Z" fill="#38ABF5"/>
<path d="M349.855 326.212C397.476 326.212 436.08 287.608 436.08 239.987C436.08 192.367 397.476 153.762 349.855 153.762C302.234 153.762 263.63 192.367 263.63 239.987C263.63 287.608 302.234 326.212 349.855 326.212Z" fill="#38ABF5"/>
</g>
<defs>
<filter id="filter0_d" x="0" y="0.471191" width="699.717" height="487.029" filterUnits="userSpaceOnUse" color-interpolation-filters="sRGB">
<feFlood flood-opacity="0" result="BackgroundImageFix"/>
<feColorMatrix in="SourceAlpha" type="matrix" values="0 0 0 0 0 0 0 0 0 0 0 0 0 0 0 0 0 0 127 0"/>
<feOffset dy="4"/>
<feGaussianBlur stdDeviation="2"/>
<feColorMatrix type="matrix" values="0 0 0 0 0 0 0 0 0 0 0 0 0 0 0 0 0 0 0.25 0"/>
<feBlend mode="normal" in2="BackgroundImageFix" result="effect1_dropShadow"/>
<feBlend mode="normal" in="SourceGraphic" in2="effect1_dropShadow" result="shape"/>
</filter>
</defs>
</svg>
