<svg width="712" height="633" viewBox="0 0 712 633" fill="none" xmlns="http://www.w3.org/2000/svg">
<path d="M355.754 158.414C399.416 158.414 434.81 123.02 434.81 79.3578C434.81 35.6961 399.416 0.30127 355.754 0.30127C312.092 0.30127 276.697 35.6961 276.697 79.3578C276.697 123.02 312.092 158.414 355.754 158.414Z" fill="#38ABF5"/>
<path d="M711.509 432.738C711.509 412.974 697.279 395.977 677.91 394C603.597 385.699 539.956 349.333 490.151 290.041L437.183 226.796C422.162 208.217 400.026 197.94 376.704 197.94H335.2C311.878 197.94 289.742 208.217 274.722 226.4L221.754 289.646C172.343 348.938 108.307 385.304 33.9943 393.605C14.2302 395.977 0 412.974 0 432.738C0 456.455 20.95 475.033 44.667 472.266C135.582 461.594 215.429 417.322 276.698 346.171V435.11L128.072 494.402C102.378 504.679 82.2188 527.211 79.4519 554.88C75.499 597.176 108.307 632.751 149.812 632.751H237.17V612.987C237.17 558.438 281.441 514.166 335.99 514.166H454.575C465.643 514.166 474.339 522.862 474.339 533.93C474.339 544.998 465.643 553.695 454.575 553.695H335.99C303.182 553.695 276.698 580.178 276.698 612.987V632.751H557.349C590.948 632.751 622.57 611.406 630.476 578.597C638.777 543.417 619.803 509.028 587.786 496.378L434.811 435.11V346.171C496.475 417.322 575.927 461.198 666.842 472.266C690.559 474.638 711.509 456.455 711.509 432.738Z" fill="#38ABF5"/>
</svg>
